%TF.GenerationSoftware,KiCad,Pcbnew,(5.1.6)-1*%
%TF.CreationDate,2020-08-13T15:14:37-05:00*%
%TF.ProjectId,CAN sniffer,43414e20-736e-4696-9666-65722e6b6963,rev?*%
%TF.SameCoordinates,Original*%
%TF.FileFunction,Legend,Top*%
%TF.FilePolarity,Positive*%
%FSLAX46Y46*%
G04 Gerber Fmt 4.6, Leading zero omitted, Abs format (unit mm)*
G04 Created by KiCad (PCBNEW (5.1.6)-1) date 2020-08-13 15:14:37*
%MOMM*%
%LPD*%
G01*
G04 APERTURE LIST*
%ADD10C,0.150000*%
%ADD11C,0.010000*%
%ADD12C,0.120000*%
G04 APERTURE END LIST*
D10*
X162560076Y-95942200D02*
X162483885Y-95904104D01*
X162369600Y-95904104D01*
X162255314Y-95942200D01*
X162179123Y-96018390D01*
X162141028Y-96094580D01*
X162102933Y-96246961D01*
X162102933Y-96361247D01*
X162141028Y-96513628D01*
X162179123Y-96589819D01*
X162255314Y-96666009D01*
X162369600Y-96704104D01*
X162445790Y-96704104D01*
X162560076Y-96666009D01*
X162598171Y-96627914D01*
X162598171Y-96361247D01*
X162445790Y-96361247D01*
X162941028Y-96704104D02*
X162941028Y-95904104D01*
X163398171Y-96704104D01*
X163398171Y-95904104D01*
X163779123Y-96704104D02*
X163779123Y-95904104D01*
X163969600Y-95904104D01*
X164083885Y-95942200D01*
X164160076Y-96018390D01*
X164198171Y-96094580D01*
X164236266Y-96246961D01*
X164236266Y-96361247D01*
X164198171Y-96513628D01*
X164160076Y-96589819D01*
X164083885Y-96666009D01*
X163969600Y-96704104D01*
X163779123Y-96704104D01*
X126627809Y-76182480D02*
X126627809Y-75182480D01*
X126627809Y-75658671D02*
X127199238Y-75658671D01*
X127199238Y-76182480D02*
X127199238Y-75182480D01*
X128104000Y-76182480D02*
X128104000Y-75658671D01*
X128056380Y-75563433D01*
X127961142Y-75515814D01*
X127770666Y-75515814D01*
X127675428Y-75563433D01*
X128104000Y-76134861D02*
X128008761Y-76182480D01*
X127770666Y-76182480D01*
X127675428Y-76134861D01*
X127627809Y-76039623D01*
X127627809Y-75944385D01*
X127675428Y-75849147D01*
X127770666Y-75801528D01*
X128008761Y-75801528D01*
X128104000Y-75753909D01*
X128484952Y-75515814D02*
X128723047Y-76182480D01*
X128961142Y-75515814D02*
X128723047Y-76182480D01*
X128627809Y-76420576D01*
X128580190Y-76468195D01*
X128484952Y-76515814D01*
X129484952Y-76182480D02*
X129389714Y-76134861D01*
X129342095Y-76039623D01*
X129342095Y-75182480D01*
X130246857Y-76134861D02*
X130151619Y-76182480D01*
X129961142Y-76182480D01*
X129865904Y-76134861D01*
X129818285Y-76039623D01*
X129818285Y-75658671D01*
X129865904Y-75563433D01*
X129961142Y-75515814D01*
X130151619Y-75515814D01*
X130246857Y-75563433D01*
X130294476Y-75658671D01*
X130294476Y-75753909D01*
X129818285Y-75849147D01*
X131151619Y-76182480D02*
X131151619Y-75658671D01*
X131104000Y-75563433D01*
X131008761Y-75515814D01*
X130818285Y-75515814D01*
X130723047Y-75563433D01*
X131151619Y-76134861D02*
X131056380Y-76182480D01*
X130818285Y-76182480D01*
X130723047Y-76134861D01*
X130675428Y-76039623D01*
X130675428Y-75944385D01*
X130723047Y-75849147D01*
X130818285Y-75801528D01*
X131056380Y-75801528D01*
X131151619Y-75753909D01*
X132294476Y-75515814D02*
X132484952Y-76182480D01*
X132675428Y-75706290D01*
X132865904Y-76182480D01*
X133056380Y-75515814D01*
X133865904Y-76182480D02*
X133865904Y-75658671D01*
X133818285Y-75563433D01*
X133723047Y-75515814D01*
X133532571Y-75515814D01*
X133437333Y-75563433D01*
X133865904Y-76134861D02*
X133770666Y-76182480D01*
X133532571Y-76182480D01*
X133437333Y-76134861D01*
X133389714Y-76039623D01*
X133389714Y-75944385D01*
X133437333Y-75849147D01*
X133532571Y-75801528D01*
X133770666Y-75801528D01*
X133865904Y-75753909D01*
X134294476Y-76134861D02*
X134389714Y-76182480D01*
X134580190Y-76182480D01*
X134675428Y-76134861D01*
X134723047Y-76039623D01*
X134723047Y-75992004D01*
X134675428Y-75896766D01*
X134580190Y-75849147D01*
X134437333Y-75849147D01*
X134342095Y-75801528D01*
X134294476Y-75706290D01*
X134294476Y-75658671D01*
X134342095Y-75563433D01*
X134437333Y-75515814D01*
X134580190Y-75515814D01*
X134675428Y-75563433D01*
X135913523Y-76182480D02*
X135913523Y-75182480D01*
X136342095Y-76182480D02*
X136342095Y-75658671D01*
X136294476Y-75563433D01*
X136199238Y-75515814D01*
X136056380Y-75515814D01*
X135961142Y-75563433D01*
X135913523Y-75611052D01*
X137199238Y-76134861D02*
X137104000Y-76182480D01*
X136913523Y-76182480D01*
X136818285Y-76134861D01*
X136770666Y-76039623D01*
X136770666Y-75658671D01*
X136818285Y-75563433D01*
X136913523Y-75515814D01*
X137104000Y-75515814D01*
X137199238Y-75563433D01*
X137246857Y-75658671D01*
X137246857Y-75753909D01*
X136770666Y-75849147D01*
X137675428Y-76182480D02*
X137675428Y-75515814D01*
X137675428Y-75706290D02*
X137723047Y-75611052D01*
X137770666Y-75563433D01*
X137865904Y-75515814D01*
X137961142Y-75515814D01*
X138675428Y-76134861D02*
X138580190Y-76182480D01*
X138389714Y-76182480D01*
X138294476Y-76134861D01*
X138246857Y-76039623D01*
X138246857Y-75658671D01*
X138294476Y-75563433D01*
X138389714Y-75515814D01*
X138580190Y-75515814D01*
X138675428Y-75563433D01*
X138723047Y-75658671D01*
X138723047Y-75753909D01*
X138246857Y-75849147D01*
X139913523Y-76087242D02*
X139961142Y-76134861D01*
X139913523Y-76182480D01*
X139865904Y-76134861D01*
X139913523Y-76087242D01*
X139913523Y-76182480D01*
X139913523Y-75563433D02*
X139961142Y-75611052D01*
X139913523Y-75658671D01*
X139865904Y-75611052D01*
X139913523Y-75563433D01*
X139913523Y-75658671D01*
X140294476Y-76563433D02*
X140342095Y-76515814D01*
X140437333Y-76372957D01*
X140484952Y-76277719D01*
X140532571Y-76134861D01*
X140580190Y-75896766D01*
X140580190Y-75706290D01*
X140532571Y-75468195D01*
X140484952Y-75325338D01*
X140437333Y-75230100D01*
X140342095Y-75087242D01*
X140294476Y-75039623D01*
X105740719Y-88813285D02*
X104931195Y-88813285D01*
X104835957Y-88860904D01*
X104788338Y-88908523D01*
X104740719Y-89003761D01*
X104740719Y-89194238D01*
X104788338Y-89289476D01*
X104835957Y-89337095D01*
X104931195Y-89384714D01*
X105740719Y-89384714D01*
X105740719Y-89718047D02*
X105740719Y-90289476D01*
X104740719Y-90003761D02*
X105740719Y-90003761D01*
X104788338Y-90575190D02*
X104740719Y-90718047D01*
X104740719Y-90956142D01*
X104788338Y-91051380D01*
X104835957Y-91099000D01*
X104931195Y-91146619D01*
X105026433Y-91146619D01*
X105121671Y-91099000D01*
X105169290Y-91051380D01*
X105216909Y-90956142D01*
X105264528Y-90765666D01*
X105312147Y-90670428D01*
X105359766Y-90622809D01*
X105455004Y-90575190D01*
X105550242Y-90575190D01*
X105645480Y-90622809D01*
X105693100Y-90670428D01*
X105740719Y-90765666D01*
X105740719Y-91003761D01*
X105693100Y-91146619D01*
X105740719Y-91432333D02*
X104740719Y-91765666D01*
X105740719Y-92099000D01*
X105740719Y-92289476D02*
X105740719Y-92860904D01*
X104740719Y-92575190D02*
X105740719Y-92575190D01*
X105121671Y-93956142D02*
X105121671Y-94718047D01*
X104835957Y-96527571D02*
X104788338Y-96479952D01*
X104740719Y-96337095D01*
X104740719Y-96241857D01*
X104788338Y-96099000D01*
X104883576Y-96003761D01*
X104978814Y-95956142D01*
X105169290Y-95908523D01*
X105312147Y-95908523D01*
X105502623Y-95956142D01*
X105597861Y-96003761D01*
X105693100Y-96099000D01*
X105740719Y-96241857D01*
X105740719Y-96337095D01*
X105693100Y-96479952D01*
X105645480Y-96527571D01*
X105026433Y-96908523D02*
X105026433Y-97384714D01*
X104740719Y-96813285D02*
X105740719Y-97146619D01*
X104740719Y-97479952D01*
X104740719Y-97813285D02*
X105740719Y-97813285D01*
X104740719Y-98384714D01*
X105740719Y-98384714D01*
X103185957Y-87908523D02*
X103138338Y-87860904D01*
X103090719Y-87718047D01*
X103090719Y-87622809D01*
X103138338Y-87479952D01*
X103233576Y-87384714D01*
X103328814Y-87337095D01*
X103519290Y-87289476D01*
X103662147Y-87289476D01*
X103852623Y-87337095D01*
X103947861Y-87384714D01*
X104043100Y-87479952D01*
X104090719Y-87622809D01*
X104090719Y-87718047D01*
X104043100Y-87860904D01*
X103995480Y-87908523D01*
X103376433Y-88289476D02*
X103376433Y-88765666D01*
X103090719Y-88194238D02*
X104090719Y-88527571D01*
X103090719Y-88860904D01*
X103090719Y-89194238D02*
X104090719Y-89194238D01*
X103090719Y-89765666D01*
X104090719Y-89765666D01*
X103138338Y-90956142D02*
X103090719Y-91099000D01*
X103090719Y-91337095D01*
X103138338Y-91432333D01*
X103185957Y-91479952D01*
X103281195Y-91527571D01*
X103376433Y-91527571D01*
X103471671Y-91479952D01*
X103519290Y-91432333D01*
X103566909Y-91337095D01*
X103614528Y-91146619D01*
X103662147Y-91051380D01*
X103709766Y-91003761D01*
X103805004Y-90956142D01*
X103900242Y-90956142D01*
X103995480Y-91003761D01*
X104043100Y-91051380D01*
X104090719Y-91146619D01*
X104090719Y-91384714D01*
X104043100Y-91527571D01*
X103757385Y-91956142D02*
X103090719Y-91956142D01*
X103662147Y-91956142D02*
X103709766Y-92003761D01*
X103757385Y-92099000D01*
X103757385Y-92241857D01*
X103709766Y-92337095D01*
X103614528Y-92384714D01*
X103090719Y-92384714D01*
X103090719Y-92860904D02*
X103757385Y-92860904D01*
X104090719Y-92860904D02*
X104043100Y-92813285D01*
X103995480Y-92860904D01*
X104043100Y-92908523D01*
X104090719Y-92860904D01*
X103995480Y-92860904D01*
X103757385Y-93194238D02*
X103757385Y-93575190D01*
X103090719Y-93337095D02*
X103947861Y-93337095D01*
X104043100Y-93384714D01*
X104090719Y-93479952D01*
X104090719Y-93575190D01*
X103757385Y-93765666D02*
X103757385Y-94146619D01*
X103090719Y-93908523D02*
X103947861Y-93908523D01*
X104043100Y-93956142D01*
X104090719Y-94051380D01*
X104090719Y-94146619D01*
X103138338Y-94860904D02*
X103090719Y-94765666D01*
X103090719Y-94575190D01*
X103138338Y-94479952D01*
X103233576Y-94432333D01*
X103614528Y-94432333D01*
X103709766Y-94479952D01*
X103757385Y-94575190D01*
X103757385Y-94765666D01*
X103709766Y-94860904D01*
X103614528Y-94908523D01*
X103519290Y-94908523D01*
X103424052Y-94432333D01*
X103090719Y-95337095D02*
X103757385Y-95337095D01*
X103566909Y-95337095D02*
X103662147Y-95384714D01*
X103709766Y-95432333D01*
X103757385Y-95527571D01*
X103757385Y-95622809D01*
X103757385Y-96622809D02*
X103090719Y-96860904D01*
X103757385Y-97099000D01*
X103185957Y-97479952D02*
X103138338Y-97527571D01*
X103090719Y-97479952D01*
X103138338Y-97432333D01*
X103185957Y-97479952D01*
X103090719Y-97479952D01*
X103090719Y-98479952D02*
X103090719Y-97908523D01*
X103090719Y-98194238D02*
X104090719Y-98194238D01*
X103947861Y-98099000D01*
X103852623Y-98003761D01*
X103805004Y-97908523D01*
X103185957Y-98908523D02*
X103138338Y-98956142D01*
X103090719Y-98908523D01*
X103138338Y-98860904D01*
X103185957Y-98908523D01*
X103090719Y-98908523D01*
X104090719Y-99575190D02*
X104090719Y-99670428D01*
X104043100Y-99765666D01*
X103995480Y-99813285D01*
X103900242Y-99860904D01*
X103709766Y-99908523D01*
X103471671Y-99908523D01*
X103281195Y-99860904D01*
X103185957Y-99813285D01*
X103138338Y-99765666D01*
X103090719Y-99670428D01*
X103090719Y-99575190D01*
X103138338Y-99479952D01*
X103185957Y-99432333D01*
X103281195Y-99384714D01*
X103471671Y-99337095D01*
X103709766Y-99337095D01*
X103900242Y-99384714D01*
X103995480Y-99432333D01*
X104043100Y-99479952D01*
X104090719Y-99575190D01*
X101488338Y-88503761D02*
X101440719Y-88646619D01*
X101440719Y-88884714D01*
X101488338Y-88979952D01*
X101535957Y-89027571D01*
X101631195Y-89075190D01*
X101726433Y-89075190D01*
X101821671Y-89027571D01*
X101869290Y-88979952D01*
X101916909Y-88884714D01*
X101964528Y-88694238D01*
X102012147Y-88599000D01*
X102059766Y-88551380D01*
X102155004Y-88503761D01*
X102250242Y-88503761D01*
X102345480Y-88551380D01*
X102393100Y-88599000D01*
X102440719Y-88694238D01*
X102440719Y-88932333D01*
X102393100Y-89075190D01*
X102107385Y-89932333D02*
X101440719Y-89932333D01*
X102107385Y-89503761D02*
X101583576Y-89503761D01*
X101488338Y-89551380D01*
X101440719Y-89646619D01*
X101440719Y-89789476D01*
X101488338Y-89884714D01*
X101535957Y-89932333D01*
X101440719Y-90408523D02*
X102107385Y-90408523D01*
X102012147Y-90408523D02*
X102059766Y-90456142D01*
X102107385Y-90551380D01*
X102107385Y-90694238D01*
X102059766Y-90789476D01*
X101964528Y-90837095D01*
X101440719Y-90837095D01*
X101964528Y-90837095D02*
X102059766Y-90884714D01*
X102107385Y-90979952D01*
X102107385Y-91122809D01*
X102059766Y-91218047D01*
X101964528Y-91265666D01*
X101440719Y-91265666D01*
X101440719Y-91741857D02*
X102107385Y-91741857D01*
X102012147Y-91741857D02*
X102059766Y-91789476D01*
X102107385Y-91884714D01*
X102107385Y-92027571D01*
X102059766Y-92122809D01*
X101964528Y-92170428D01*
X101440719Y-92170428D01*
X101964528Y-92170428D02*
X102059766Y-92218047D01*
X102107385Y-92313285D01*
X102107385Y-92456142D01*
X102059766Y-92551380D01*
X101964528Y-92599000D01*
X101440719Y-92599000D01*
X101488338Y-93456142D02*
X101440719Y-93360904D01*
X101440719Y-93170428D01*
X101488338Y-93075190D01*
X101583576Y-93027571D01*
X101964528Y-93027571D01*
X102059766Y-93075190D01*
X102107385Y-93170428D01*
X102107385Y-93360904D01*
X102059766Y-93456142D01*
X101964528Y-93503761D01*
X101869290Y-93503761D01*
X101774052Y-93027571D01*
X101440719Y-93932333D02*
X102107385Y-93932333D01*
X101916909Y-93932333D02*
X102012147Y-93979952D01*
X102059766Y-94027571D01*
X102107385Y-94122809D01*
X102107385Y-94218047D01*
X102345480Y-95265666D02*
X102393100Y-95313285D01*
X102440719Y-95408523D01*
X102440719Y-95646619D01*
X102393100Y-95741857D01*
X102345480Y-95789476D01*
X102250242Y-95837095D01*
X102155004Y-95837095D01*
X102012147Y-95789476D01*
X101440719Y-95218047D01*
X101440719Y-95837095D01*
X102440719Y-96456142D02*
X102440719Y-96551380D01*
X102393100Y-96646619D01*
X102345480Y-96694238D01*
X102250242Y-96741857D01*
X102059766Y-96789476D01*
X101821671Y-96789476D01*
X101631195Y-96741857D01*
X101535957Y-96694238D01*
X101488338Y-96646619D01*
X101440719Y-96551380D01*
X101440719Y-96456142D01*
X101488338Y-96360904D01*
X101535957Y-96313285D01*
X101631195Y-96265666D01*
X101821671Y-96218047D01*
X102059766Y-96218047D01*
X102250242Y-96265666D01*
X102345480Y-96313285D01*
X102393100Y-96360904D01*
X102440719Y-96456142D01*
X102345480Y-97170428D02*
X102393100Y-97218047D01*
X102440719Y-97313285D01*
X102440719Y-97551380D01*
X102393100Y-97646619D01*
X102345480Y-97694238D01*
X102250242Y-97741857D01*
X102155004Y-97741857D01*
X102012147Y-97694238D01*
X101440719Y-97122809D01*
X101440719Y-97741857D01*
X102440719Y-98360904D02*
X102440719Y-98456142D01*
X102393100Y-98551380D01*
X102345480Y-98599000D01*
X102250242Y-98646619D01*
X102059766Y-98694238D01*
X101821671Y-98694238D01*
X101631195Y-98646619D01*
X101535957Y-98599000D01*
X101488338Y-98551380D01*
X101440719Y-98456142D01*
X101440719Y-98360904D01*
X101488338Y-98265666D01*
X101535957Y-98218047D01*
X101631195Y-98170428D01*
X101821671Y-98122809D01*
X102059766Y-98122809D01*
X102250242Y-98170428D01*
X102345480Y-98218047D01*
X102393100Y-98265666D01*
X102440719Y-98360904D01*
X149288642Y-106229114D02*
X149250547Y-106267209D01*
X149136261Y-106305304D01*
X149060071Y-106305304D01*
X148945785Y-106267209D01*
X148869595Y-106191019D01*
X148831500Y-106114828D01*
X148793404Y-105962447D01*
X148793404Y-105848161D01*
X148831500Y-105695780D01*
X148869595Y-105619590D01*
X148945785Y-105543400D01*
X149060071Y-105505304D01*
X149136261Y-105505304D01*
X149250547Y-105543400D01*
X149288642Y-105581495D01*
X149593404Y-106076733D02*
X149974357Y-106076733D01*
X149517214Y-106305304D02*
X149783880Y-105505304D01*
X150050547Y-106305304D01*
X150317214Y-106305304D02*
X150317214Y-105505304D01*
X150774357Y-106305304D01*
X150774357Y-105505304D01*
X150964833Y-106381495D02*
X151574357Y-106381495D01*
X152145785Y-106305304D02*
X151764833Y-106305304D01*
X151764833Y-105505304D01*
X163347419Y-92970404D02*
X162966466Y-92970404D01*
X162928371Y-93351357D01*
X162966466Y-93313261D01*
X163042657Y-93275166D01*
X163233133Y-93275166D01*
X163309323Y-93313261D01*
X163347419Y-93351357D01*
X163385514Y-93427547D01*
X163385514Y-93618023D01*
X163347419Y-93694214D01*
X163309323Y-93732309D01*
X163233133Y-93770404D01*
X163042657Y-93770404D01*
X162966466Y-93732309D01*
X162928371Y-93694214D01*
X163614085Y-92970404D02*
X163880752Y-93770404D01*
X164147419Y-92970404D01*
X161334604Y-99853714D02*
X161296509Y-99891809D01*
X161182223Y-99929904D01*
X161106033Y-99929904D01*
X160991747Y-99891809D01*
X160915557Y-99815619D01*
X160877461Y-99739428D01*
X160839366Y-99587047D01*
X160839366Y-99472761D01*
X160877461Y-99320380D01*
X160915557Y-99244190D01*
X160991747Y-99168000D01*
X161106033Y-99129904D01*
X161182223Y-99129904D01*
X161296509Y-99168000D01*
X161334604Y-99206095D01*
X161639366Y-99701333D02*
X162020319Y-99701333D01*
X161563176Y-99929904D02*
X161829842Y-99129904D01*
X162096509Y-99929904D01*
X162363176Y-99929904D02*
X162363176Y-99129904D01*
X162820319Y-99929904D01*
X162820319Y-99129904D01*
X163010795Y-100006095D02*
X163620319Y-100006095D01*
X163810795Y-99929904D02*
X163810795Y-99129904D01*
X163810795Y-99510857D02*
X164267938Y-99510857D01*
X164267938Y-99929904D02*
X164267938Y-99129904D01*
X161366342Y-102736614D02*
X161328247Y-102774709D01*
X161213961Y-102812804D01*
X161137771Y-102812804D01*
X161023485Y-102774709D01*
X160947295Y-102698519D01*
X160909200Y-102622328D01*
X160871104Y-102469947D01*
X160871104Y-102355661D01*
X160909200Y-102203280D01*
X160947295Y-102127090D01*
X161023485Y-102050900D01*
X161137771Y-102012804D01*
X161213961Y-102012804D01*
X161328247Y-102050900D01*
X161366342Y-102088995D01*
X161671104Y-102584233D02*
X162052057Y-102584233D01*
X161594914Y-102812804D02*
X161861580Y-102012804D01*
X162128247Y-102812804D01*
X162394914Y-102812804D02*
X162394914Y-102012804D01*
X162852057Y-102812804D01*
X162852057Y-102012804D01*
X163042533Y-102888995D02*
X163652057Y-102888995D01*
X164223485Y-102812804D02*
X163842533Y-102812804D01*
X163842533Y-102012804D01*
X163550619Y-74403004D02*
X163169666Y-74403004D01*
X163131571Y-74783957D01*
X163169666Y-74745861D01*
X163245857Y-74707766D01*
X163436333Y-74707766D01*
X163512523Y-74745861D01*
X163550619Y-74783957D01*
X163588714Y-74860147D01*
X163588714Y-75050623D01*
X163550619Y-75126814D01*
X163512523Y-75164909D01*
X163436333Y-75203004D01*
X163245857Y-75203004D01*
X163169666Y-75164909D01*
X163131571Y-75126814D01*
X163817285Y-74403004D02*
X164083952Y-75203004D01*
X164350619Y-74403004D01*
X162623576Y-77501800D02*
X162547385Y-77463704D01*
X162433100Y-77463704D01*
X162318814Y-77501800D01*
X162242623Y-77577990D01*
X162204528Y-77654180D01*
X162166433Y-77806561D01*
X162166433Y-77920847D01*
X162204528Y-78073228D01*
X162242623Y-78149419D01*
X162318814Y-78225609D01*
X162433100Y-78263704D01*
X162509290Y-78263704D01*
X162623576Y-78225609D01*
X162661671Y-78187514D01*
X162661671Y-77920847D01*
X162509290Y-77920847D01*
X163004528Y-78263704D02*
X163004528Y-77463704D01*
X163461671Y-78263704D01*
X163461671Y-77463704D01*
X163842623Y-78263704D02*
X163842623Y-77463704D01*
X164033100Y-77463704D01*
X164147385Y-77501800D01*
X164223576Y-77577990D01*
X164261671Y-77654180D01*
X164299766Y-77806561D01*
X164299766Y-77920847D01*
X164261671Y-78073228D01*
X164223576Y-78149419D01*
X164147385Y-78225609D01*
X164033100Y-78263704D01*
X163842623Y-78263704D01*
X161372704Y-81133914D02*
X161334609Y-81172009D01*
X161220323Y-81210104D01*
X161144133Y-81210104D01*
X161029847Y-81172009D01*
X160953657Y-81095819D01*
X160915561Y-81019628D01*
X160877466Y-80867247D01*
X160877466Y-80752961D01*
X160915561Y-80600580D01*
X160953657Y-80524390D01*
X161029847Y-80448200D01*
X161144133Y-80410104D01*
X161220323Y-80410104D01*
X161334609Y-80448200D01*
X161372704Y-80486295D01*
X161677466Y-80981533D02*
X162058419Y-80981533D01*
X161601276Y-81210104D02*
X161867942Y-80410104D01*
X162134609Y-81210104D01*
X162401276Y-81210104D02*
X162401276Y-80410104D01*
X162858419Y-81210104D01*
X162858419Y-80410104D01*
X163048895Y-81286295D02*
X163658419Y-81286295D01*
X163848895Y-81210104D02*
X163848895Y-80410104D01*
X163848895Y-80791057D02*
X164306038Y-80791057D01*
X164306038Y-81210104D02*
X164306038Y-80410104D01*
X161417142Y-84105714D02*
X161379047Y-84143809D01*
X161264761Y-84181904D01*
X161188571Y-84181904D01*
X161074285Y-84143809D01*
X160998095Y-84067619D01*
X160960000Y-83991428D01*
X160921904Y-83839047D01*
X160921904Y-83724761D01*
X160960000Y-83572380D01*
X160998095Y-83496190D01*
X161074285Y-83420000D01*
X161188571Y-83381904D01*
X161264761Y-83381904D01*
X161379047Y-83420000D01*
X161417142Y-83458095D01*
X161721904Y-83953333D02*
X162102857Y-83953333D01*
X161645714Y-84181904D02*
X161912380Y-83381904D01*
X162179047Y-84181904D01*
X162445714Y-84181904D02*
X162445714Y-83381904D01*
X162902857Y-84181904D01*
X162902857Y-83381904D01*
X163093333Y-84258095D02*
X163702857Y-84258095D01*
X164274285Y-84181904D02*
X163893333Y-84181904D01*
X163893333Y-83381904D01*
X150723742Y-97732814D02*
X150685647Y-97770909D01*
X150571361Y-97809004D01*
X150495171Y-97809004D01*
X150380885Y-97770909D01*
X150304695Y-97694719D01*
X150266600Y-97618528D01*
X150228504Y-97466147D01*
X150228504Y-97351861D01*
X150266600Y-97199480D01*
X150304695Y-97123290D01*
X150380885Y-97047100D01*
X150495171Y-97009004D01*
X150571361Y-97009004D01*
X150685647Y-97047100D01*
X150723742Y-97085195D01*
X151028504Y-97580433D02*
X151409457Y-97580433D01*
X150952314Y-97809004D02*
X151218980Y-97009004D01*
X151485647Y-97809004D01*
X151752314Y-97809004D02*
X151752314Y-97009004D01*
X152209457Y-97809004D01*
X152209457Y-97009004D01*
X152399933Y-97885195D02*
X153009457Y-97885195D01*
X153580885Y-97809004D02*
X153199933Y-97809004D01*
X153199933Y-97009004D01*
X154438504Y-97732814D02*
X154400409Y-97770909D01*
X154286123Y-97809004D01*
X154209933Y-97809004D01*
X154095647Y-97770909D01*
X154019457Y-97694719D01*
X153981361Y-97618528D01*
X153943266Y-97466147D01*
X153943266Y-97351861D01*
X153981361Y-97199480D01*
X154019457Y-97123290D01*
X154095647Y-97047100D01*
X154209933Y-97009004D01*
X154286123Y-97009004D01*
X154400409Y-97047100D01*
X154438504Y-97085195D01*
X154743266Y-97580433D02*
X155124219Y-97580433D01*
X154667076Y-97809004D02*
X154933742Y-97009004D01*
X155200409Y-97809004D01*
X155467076Y-97809004D02*
X155467076Y-97009004D01*
X155924219Y-97809004D01*
X155924219Y-97009004D01*
X156114695Y-97885195D02*
X156724219Y-97885195D01*
X156914695Y-97809004D02*
X156914695Y-97009004D01*
X156914695Y-97389957D02*
X157371838Y-97389957D01*
X157371838Y-97809004D02*
X157371838Y-97009004D01*
X154578204Y-106381514D02*
X154540109Y-106419609D01*
X154425823Y-106457704D01*
X154349633Y-106457704D01*
X154235347Y-106419609D01*
X154159157Y-106343419D01*
X154121061Y-106267228D01*
X154082966Y-106114847D01*
X154082966Y-106000561D01*
X154121061Y-105848180D01*
X154159157Y-105771990D01*
X154235347Y-105695800D01*
X154349633Y-105657704D01*
X154425823Y-105657704D01*
X154540109Y-105695800D01*
X154578204Y-105733895D01*
X154882966Y-106229133D02*
X155263919Y-106229133D01*
X154806776Y-106457704D02*
X155073442Y-105657704D01*
X155340109Y-106457704D01*
X155606776Y-106457704D02*
X155606776Y-105657704D01*
X156063919Y-106457704D01*
X156063919Y-105657704D01*
X156254395Y-106533895D02*
X156863919Y-106533895D01*
X157054395Y-106457704D02*
X157054395Y-105657704D01*
X157054395Y-106038657D02*
X157511538Y-106038657D01*
X157511538Y-106457704D02*
X157511538Y-105657704D01*
X143452814Y-87928257D02*
X143490909Y-87966352D01*
X143529004Y-88080638D01*
X143529004Y-88156828D01*
X143490909Y-88271114D01*
X143414719Y-88347304D01*
X143338528Y-88385400D01*
X143186147Y-88423495D01*
X143071861Y-88423495D01*
X142919480Y-88385400D01*
X142843290Y-88347304D01*
X142767100Y-88271114D01*
X142729004Y-88156828D01*
X142729004Y-88080638D01*
X142767100Y-87966352D01*
X142805195Y-87928257D01*
X143300433Y-87623495D02*
X143300433Y-87242542D01*
X143529004Y-87699685D02*
X142729004Y-87433019D01*
X143529004Y-87166352D01*
X143529004Y-86899685D02*
X142729004Y-86899685D01*
X143529004Y-86442542D01*
X142729004Y-86442542D01*
X143605195Y-86252066D02*
X143605195Y-85642542D01*
X143529004Y-84994923D02*
X143148052Y-85261590D01*
X143529004Y-85452066D02*
X142729004Y-85452066D01*
X142729004Y-85147304D01*
X142767100Y-85071114D01*
X142805195Y-85033019D01*
X142881385Y-84994923D01*
X142995671Y-84994923D01*
X143071861Y-85033019D01*
X143109957Y-85071114D01*
X143148052Y-85147304D01*
X143148052Y-85452066D01*
X143529004Y-84728257D02*
X142995671Y-84309209D01*
X142995671Y-84728257D02*
X143529004Y-84309209D01*
X133470614Y-88823619D02*
X133508709Y-88861714D01*
X133546804Y-88976000D01*
X133546804Y-89052190D01*
X133508709Y-89166476D01*
X133432519Y-89242666D01*
X133356328Y-89280761D01*
X133203947Y-89318857D01*
X133089661Y-89318857D01*
X132937280Y-89280761D01*
X132861090Y-89242666D01*
X132784900Y-89166476D01*
X132746804Y-89052190D01*
X132746804Y-88976000D01*
X132784900Y-88861714D01*
X132822995Y-88823619D01*
X133318233Y-88518857D02*
X133318233Y-88137904D01*
X133546804Y-88595047D02*
X132746804Y-88328380D01*
X133546804Y-88061714D01*
X133546804Y-87795047D02*
X132746804Y-87795047D01*
X133546804Y-87337904D01*
X132746804Y-87337904D01*
X133622995Y-87147428D02*
X133622995Y-86537904D01*
X132746804Y-86461714D02*
X132746804Y-86004571D01*
X133546804Y-86233142D02*
X132746804Y-86233142D01*
X133546804Y-85814095D02*
X133013471Y-85395047D01*
X133013471Y-85814095D02*
X133546804Y-85395047D01*
%TO.C,TP1*%
X137474900Y-87376000D02*
G75*
G03*
X137474900Y-87376000I-1750000J0D01*
G01*
D11*
%TO.C,G\u002A\u002A\u002A*%
G36*
X108870287Y-93912417D02*
G01*
X108735973Y-93728990D01*
X108551552Y-93458708D01*
X108335840Y-93130558D01*
X108107652Y-92773526D01*
X107885805Y-92416599D01*
X107689114Y-92088765D01*
X107554111Y-91851621D01*
X107186960Y-91104408D01*
X106908562Y-90374966D01*
X106724456Y-89686950D01*
X106640176Y-89064012D01*
X106661261Y-88529807D01*
X106719131Y-88284343D01*
X106965323Y-87800869D01*
X107357395Y-87399459D01*
X107829171Y-87113551D01*
X108096180Y-86998503D01*
X108331755Y-86915827D01*
X108510627Y-86869925D01*
X108607526Y-86865199D01*
X108597182Y-86906050D01*
X108454326Y-86996879D01*
X108432600Y-87008449D01*
X107968758Y-87341640D01*
X107594670Y-87790388D01*
X107514679Y-87926334D01*
X107433152Y-88099425D01*
X107380182Y-88284015D01*
X107350224Y-88521005D01*
X107337731Y-88851296D01*
X107336713Y-89238667D01*
X107344530Y-89700913D01*
X107369086Y-90056277D01*
X107419939Y-90367059D01*
X107506645Y-90695558D01*
X107609475Y-91016667D01*
X107754816Y-91409692D01*
X107954659Y-91891735D01*
X108183089Y-92402793D01*
X108414192Y-92882863D01*
X108423088Y-92900500D01*
X108614929Y-93284340D01*
X108772572Y-93608034D01*
X108883360Y-93844927D01*
X108934636Y-93968364D01*
X108935677Y-93980000D01*
X108870287Y-93912417D01*
G37*
X108870287Y-93912417D02*
X108735973Y-93728990D01*
X108551552Y-93458708D01*
X108335840Y-93130558D01*
X108107652Y-92773526D01*
X107885805Y-92416599D01*
X107689114Y-92088765D01*
X107554111Y-91851621D01*
X107186960Y-91104408D01*
X106908562Y-90374966D01*
X106724456Y-89686950D01*
X106640176Y-89064012D01*
X106661261Y-88529807D01*
X106719131Y-88284343D01*
X106965323Y-87800869D01*
X107357395Y-87399459D01*
X107829171Y-87113551D01*
X108096180Y-86998503D01*
X108331755Y-86915827D01*
X108510627Y-86869925D01*
X108607526Y-86865199D01*
X108597182Y-86906050D01*
X108454326Y-86996879D01*
X108432600Y-87008449D01*
X107968758Y-87341640D01*
X107594670Y-87790388D01*
X107514679Y-87926334D01*
X107433152Y-88099425D01*
X107380182Y-88284015D01*
X107350224Y-88521005D01*
X107337731Y-88851296D01*
X107336713Y-89238667D01*
X107344530Y-89700913D01*
X107369086Y-90056277D01*
X107419939Y-90367059D01*
X107506645Y-90695558D01*
X107609475Y-91016667D01*
X107754816Y-91409692D01*
X107954659Y-91891735D01*
X108183089Y-92402793D01*
X108414192Y-92882863D01*
X108423088Y-92900500D01*
X108614929Y-93284340D01*
X108772572Y-93608034D01*
X108883360Y-93844927D01*
X108934636Y-93968364D01*
X108935677Y-93980000D01*
X108870287Y-93912417D01*
G36*
X110234716Y-97190616D02*
G01*
X110152901Y-97957095D01*
X110008461Y-98628321D01*
X109966611Y-98763667D01*
X109709627Y-99400279D01*
X109411625Y-99895666D01*
X109081236Y-100245375D01*
X108727089Y-100444952D01*
X108357814Y-100489944D01*
X107982040Y-100375897D01*
X107608397Y-100098357D01*
X107532099Y-100020059D01*
X107209800Y-99560706D01*
X106967855Y-98978328D01*
X106813082Y-98302434D01*
X106752295Y-97562531D01*
X106790023Y-96807722D01*
X106853981Y-96415259D01*
X106949450Y-96009114D01*
X107034874Y-95737042D01*
X107198692Y-95368244D01*
X107418015Y-94966742D01*
X107661306Y-94583164D01*
X107897030Y-94268138D01*
X108050242Y-94107000D01*
X108244099Y-93937667D01*
X108114914Y-94191667D01*
X107852188Y-94846755D01*
X107672297Y-95590130D01*
X107577021Y-96379448D01*
X107568141Y-97172366D01*
X107647437Y-97926542D01*
X107816691Y-98599632D01*
X107918730Y-98856139D01*
X108161541Y-99282518D01*
X108421375Y-99544214D01*
X108690175Y-99644009D01*
X108959883Y-99584686D01*
X109222440Y-99369027D01*
X109469790Y-98999815D01*
X109693874Y-98479831D01*
X109780250Y-98213334D01*
X109954371Y-97397203D01*
X110026857Y-96494398D01*
X109999013Y-95552694D01*
X109872147Y-94619866D01*
X109658999Y-93778889D01*
X109555647Y-93446610D01*
X109479687Y-93181131D01*
X109441218Y-93018974D01*
X109439953Y-92986758D01*
X109494150Y-93029005D01*
X109580863Y-93202575D01*
X109688756Y-93475235D01*
X109806489Y-93814752D01*
X109922724Y-94188894D01*
X110026122Y-94565428D01*
X110088566Y-94830657D01*
X110204133Y-95576297D01*
X110252321Y-96379983D01*
X110234716Y-97190616D01*
G37*
X110234716Y-97190616D02*
X110152901Y-97957095D01*
X110008461Y-98628321D01*
X109966611Y-98763667D01*
X109709627Y-99400279D01*
X109411625Y-99895666D01*
X109081236Y-100245375D01*
X108727089Y-100444952D01*
X108357814Y-100489944D01*
X107982040Y-100375897D01*
X107608397Y-100098357D01*
X107532099Y-100020059D01*
X107209800Y-99560706D01*
X106967855Y-98978328D01*
X106813082Y-98302434D01*
X106752295Y-97562531D01*
X106790023Y-96807722D01*
X106853981Y-96415259D01*
X106949450Y-96009114D01*
X107034874Y-95737042D01*
X107198692Y-95368244D01*
X107418015Y-94966742D01*
X107661306Y-94583164D01*
X107897030Y-94268138D01*
X108050242Y-94107000D01*
X108244099Y-93937667D01*
X108114914Y-94191667D01*
X107852188Y-94846755D01*
X107672297Y-95590130D01*
X107577021Y-96379448D01*
X107568141Y-97172366D01*
X107647437Y-97926542D01*
X107816691Y-98599632D01*
X107918730Y-98856139D01*
X108161541Y-99282518D01*
X108421375Y-99544214D01*
X108690175Y-99644009D01*
X108959883Y-99584686D01*
X109222440Y-99369027D01*
X109469790Y-98999815D01*
X109693874Y-98479831D01*
X109780250Y-98213334D01*
X109954371Y-97397203D01*
X110026857Y-96494398D01*
X109999013Y-95552694D01*
X109872147Y-94619866D01*
X109658999Y-93778889D01*
X109555647Y-93446610D01*
X109479687Y-93181131D01*
X109441218Y-93018974D01*
X109439953Y-92986758D01*
X109494150Y-93029005D01*
X109580863Y-93202575D01*
X109688756Y-93475235D01*
X109806489Y-93814752D01*
X109922724Y-94188894D01*
X110026122Y-94565428D01*
X110088566Y-94830657D01*
X110204133Y-95576297D01*
X110252321Y-96379983D01*
X110234716Y-97190616D01*
G36*
X111073938Y-91967943D02*
G01*
X111019763Y-93582301D01*
X110933787Y-95350221D01*
X110815927Y-97270529D01*
X110797937Y-97536000D01*
X110751920Y-98188946D01*
X110700998Y-98879556D01*
X110649047Y-99557333D01*
X110599945Y-100171778D01*
X110557570Y-100672393D01*
X110554142Y-100711000D01*
X110440799Y-101981000D01*
X110495033Y-100076000D01*
X110514868Y-99259080D01*
X110530276Y-98373053D01*
X110541366Y-97437882D01*
X110548243Y-96473527D01*
X110551015Y-95499950D01*
X110549789Y-94537113D01*
X110544673Y-93604978D01*
X110535772Y-92723507D01*
X110523196Y-91912660D01*
X110507049Y-91192401D01*
X110487441Y-90582690D01*
X110464477Y-90103489D01*
X110439833Y-89789000D01*
X110320175Y-88814440D01*
X110187396Y-88001746D01*
X110038956Y-87343780D01*
X109872317Y-86833406D01*
X109684939Y-86463487D01*
X109474282Y-86226886D01*
X109237807Y-86116467D01*
X109129411Y-86106000D01*
X108886776Y-86155925D01*
X108642713Y-86276500D01*
X108636170Y-86281099D01*
X108484046Y-86379263D01*
X108415966Y-86389725D01*
X108434597Y-86299276D01*
X108542603Y-86094705D01*
X108739855Y-85767334D01*
X109029662Y-85338626D01*
X109324418Y-84974792D01*
X109599668Y-84702285D01*
X109830957Y-84547559D01*
X109884722Y-84528892D01*
X110144030Y-84542979D01*
X110372360Y-84722382D01*
X110569632Y-85065926D01*
X110735761Y-85572435D01*
X110870666Y-86240734D01*
X110974264Y-87069647D01*
X111046473Y-88058000D01*
X111087210Y-89204618D01*
X111096392Y-90508323D01*
X111073938Y-91967943D01*
G37*
X111073938Y-91967943D02*
X111019763Y-93582301D01*
X110933787Y-95350221D01*
X110815927Y-97270529D01*
X110797937Y-97536000D01*
X110751920Y-98188946D01*
X110700998Y-98879556D01*
X110649047Y-99557333D01*
X110599945Y-100171778D01*
X110557570Y-100672393D01*
X110554142Y-100711000D01*
X110440799Y-101981000D01*
X110495033Y-100076000D01*
X110514868Y-99259080D01*
X110530276Y-98373053D01*
X110541366Y-97437882D01*
X110548243Y-96473527D01*
X110551015Y-95499950D01*
X110549789Y-94537113D01*
X110544673Y-93604978D01*
X110535772Y-92723507D01*
X110523196Y-91912660D01*
X110507049Y-91192401D01*
X110487441Y-90582690D01*
X110464477Y-90103489D01*
X110439833Y-89789000D01*
X110320175Y-88814440D01*
X110187396Y-88001746D01*
X110038956Y-87343780D01*
X109872317Y-86833406D01*
X109684939Y-86463487D01*
X109474282Y-86226886D01*
X109237807Y-86116467D01*
X109129411Y-86106000D01*
X108886776Y-86155925D01*
X108642713Y-86276500D01*
X108636170Y-86281099D01*
X108484046Y-86379263D01*
X108415966Y-86389725D01*
X108434597Y-86299276D01*
X108542603Y-86094705D01*
X108739855Y-85767334D01*
X109029662Y-85338626D01*
X109324418Y-84974792D01*
X109599668Y-84702285D01*
X109830957Y-84547559D01*
X109884722Y-84528892D01*
X110144030Y-84542979D01*
X110372360Y-84722382D01*
X110569632Y-85065926D01*
X110735761Y-85572435D01*
X110870666Y-86240734D01*
X110974264Y-87069647D01*
X111046473Y-88058000D01*
X111087210Y-89204618D01*
X111096392Y-90508323D01*
X111073938Y-91967943D01*
G36*
X109760285Y-88542617D02*
G01*
X109681433Y-88559314D01*
X109466806Y-88535556D01*
X109207129Y-88480406D01*
X108969477Y-88411108D01*
X108820924Y-88344907D01*
X108809239Y-88335082D01*
X108714599Y-88145009D01*
X108685923Y-87896331D01*
X108733668Y-87693500D01*
X108869015Y-87594859D01*
X109092788Y-87544401D01*
X109352789Y-87539347D01*
X109596818Y-87576919D01*
X109772677Y-87654335D01*
X109829600Y-87751858D01*
X109771491Y-87811526D01*
X109583507Y-87828710D01*
X109356591Y-87816373D01*
X109088811Y-87798174D01*
X108951152Y-87810265D01*
X108905185Y-87866683D01*
X108912091Y-87978740D01*
X108954317Y-88102993D01*
X109065838Y-88181221D01*
X109289987Y-88238798D01*
X109385100Y-88255741D01*
X109671445Y-88325395D01*
X109815910Y-88409765D01*
X109829600Y-88446241D01*
X109760285Y-88542617D01*
G37*
X109760285Y-88542617D02*
X109681433Y-88559314D01*
X109466806Y-88535556D01*
X109207129Y-88480406D01*
X108969477Y-88411108D01*
X108820924Y-88344907D01*
X108809239Y-88335082D01*
X108714599Y-88145009D01*
X108685923Y-87896331D01*
X108733668Y-87693500D01*
X108869015Y-87594859D01*
X109092788Y-87544401D01*
X109352789Y-87539347D01*
X109596818Y-87576919D01*
X109772677Y-87654335D01*
X109829600Y-87751858D01*
X109771491Y-87811526D01*
X109583507Y-87828710D01*
X109356591Y-87816373D01*
X109088811Y-87798174D01*
X108951152Y-87810265D01*
X108905185Y-87866683D01*
X108912091Y-87978740D01*
X108954317Y-88102993D01*
X109065838Y-88181221D01*
X109289987Y-88238798D01*
X109385100Y-88255741D01*
X109671445Y-88325395D01*
X109815910Y-88409765D01*
X109829600Y-88446241D01*
X109760285Y-88542617D01*
G36*
X109785904Y-90381135D02*
G01*
X109723766Y-90402412D01*
X109640981Y-90299971D01*
X109617933Y-90170000D01*
X109577618Y-89987919D01*
X109481173Y-89953271D01*
X109365353Y-90071901D01*
X109338004Y-90125474D01*
X109190281Y-90299609D01*
X109001110Y-90324343D01*
X108812228Y-90197769D01*
X108776067Y-90151161D01*
X108662056Y-89940083D01*
X108670330Y-89768919D01*
X108720764Y-89672320D01*
X108822153Y-89591683D01*
X108902190Y-89646926D01*
X108927935Y-89804992D01*
X108919375Y-89871646D01*
X108928969Y-90039718D01*
X109014431Y-90085882D01*
X109130180Y-90006230D01*
X109195690Y-89895328D01*
X109344660Y-89719049D01*
X109545289Y-89676433D01*
X109706667Y-89750042D01*
X109784828Y-89878838D01*
X109825109Y-90065927D01*
X109825979Y-90252847D01*
X109785904Y-90381135D01*
G37*
X109785904Y-90381135D02*
X109723766Y-90402412D01*
X109640981Y-90299971D01*
X109617933Y-90170000D01*
X109577618Y-89987919D01*
X109481173Y-89953271D01*
X109365353Y-90071901D01*
X109338004Y-90125474D01*
X109190281Y-90299609D01*
X109001110Y-90324343D01*
X108812228Y-90197769D01*
X108776067Y-90151161D01*
X108662056Y-89940083D01*
X108670330Y-89768919D01*
X108720764Y-89672320D01*
X108822153Y-89591683D01*
X108902190Y-89646926D01*
X108927935Y-89804992D01*
X108919375Y-89871646D01*
X108928969Y-90039718D01*
X109014431Y-90085882D01*
X109130180Y-90006230D01*
X109195690Y-89895328D01*
X109344660Y-89719049D01*
X109545289Y-89676433D01*
X109706667Y-89750042D01*
X109784828Y-89878838D01*
X109825109Y-90065927D01*
X109825979Y-90252847D01*
X109785904Y-90381135D01*
G36*
X109816004Y-89420219D02*
G01*
X109768932Y-89550244D01*
X109702600Y-89577334D01*
X109599091Y-89507050D01*
X109575600Y-89410916D01*
X109544425Y-89305195D01*
X109424924Y-89238996D01*
X109178135Y-89191834D01*
X109152266Y-89188342D01*
X108866425Y-89128866D01*
X108738390Y-89045182D01*
X108728933Y-89008148D01*
X108760902Y-88937253D01*
X108881382Y-88916093D01*
X109127234Y-88938936D01*
X109152266Y-88942334D01*
X109406399Y-88968950D01*
X109534093Y-88953181D01*
X109574524Y-88887926D01*
X109575600Y-88865612D01*
X109639956Y-88748343D01*
X109702600Y-88730667D01*
X109782465Y-88775986D01*
X109821473Y-88932894D01*
X109829600Y-89154000D01*
X109816004Y-89420219D01*
G37*
X109816004Y-89420219D02*
X109768932Y-89550244D01*
X109702600Y-89577334D01*
X109599091Y-89507050D01*
X109575600Y-89410916D01*
X109544425Y-89305195D01*
X109424924Y-89238996D01*
X109178135Y-89191834D01*
X109152266Y-89188342D01*
X108866425Y-89128866D01*
X108738390Y-89045182D01*
X108728933Y-89008148D01*
X108760902Y-88937253D01*
X108881382Y-88916093D01*
X109127234Y-88938936D01*
X109152266Y-88942334D01*
X109406399Y-88968950D01*
X109534093Y-88953181D01*
X109574524Y-88887926D01*
X109575600Y-88865612D01*
X109639956Y-88748343D01*
X109702600Y-88730667D01*
X109782465Y-88775986D01*
X109821473Y-88932894D01*
X109829600Y-89154000D01*
X109816004Y-89420219D01*
G36*
X109821429Y-92352000D02*
G01*
X109794376Y-92542544D01*
X109744627Y-92606975D01*
X109723766Y-92604591D01*
X109627753Y-92501889D01*
X109590878Y-92385868D01*
X109518784Y-92242364D01*
X109336878Y-92200844D01*
X109022013Y-92171513D01*
X108808308Y-92095073D01*
X108728937Y-91983432D01*
X108728933Y-91982575D01*
X108753980Y-91922213D01*
X108849182Y-91900959D01*
X109044627Y-91919037D01*
X109370407Y-91976673D01*
X109427433Y-91987775D01*
X109551858Y-91955544D01*
X109575600Y-91862463D01*
X109620785Y-91716358D01*
X109671083Y-91676284D01*
X109651073Y-91625169D01*
X109509324Y-91520145D01*
X109275616Y-91382902D01*
X109247749Y-91367930D01*
X108988794Y-91214318D01*
X108802840Y-91074268D01*
X108729007Y-90977380D01*
X108728933Y-90975376D01*
X108805685Y-90885830D01*
X109010304Y-90785428D01*
X109186464Y-90726341D01*
X109508749Y-90637659D01*
X109702098Y-90602360D01*
X109798151Y-90620067D01*
X109828546Y-90690406D01*
X109829600Y-90718720D01*
X109756657Y-90825642D01*
X109596766Y-90895125D01*
X109326602Y-90961921D01*
X109215564Y-91021097D01*
X109255686Y-91092480D01*
X109439001Y-91195897D01*
X109469766Y-91211167D01*
X109829600Y-91388694D01*
X109829600Y-92014069D01*
X109821429Y-92352000D01*
G37*
X109821429Y-92352000D02*
X109794376Y-92542544D01*
X109744627Y-92606975D01*
X109723766Y-92604591D01*
X109627753Y-92501889D01*
X109590878Y-92385868D01*
X109518784Y-92242364D01*
X109336878Y-92200844D01*
X109022013Y-92171513D01*
X108808308Y-92095073D01*
X108728937Y-91983432D01*
X108728933Y-91982575D01*
X108753980Y-91922213D01*
X108849182Y-91900959D01*
X109044627Y-91919037D01*
X109370407Y-91976673D01*
X109427433Y-91987775D01*
X109551858Y-91955544D01*
X109575600Y-91862463D01*
X109620785Y-91716358D01*
X109671083Y-91676284D01*
X109651073Y-91625169D01*
X109509324Y-91520145D01*
X109275616Y-91382902D01*
X109247749Y-91367930D01*
X108988794Y-91214318D01*
X108802840Y-91074268D01*
X108729007Y-90977380D01*
X108728933Y-90975376D01*
X108805685Y-90885830D01*
X109010304Y-90785428D01*
X109186464Y-90726341D01*
X109508749Y-90637659D01*
X109702098Y-90602360D01*
X109798151Y-90620067D01*
X109828546Y-90690406D01*
X109829600Y-90718720D01*
X109756657Y-90825642D01*
X109596766Y-90895125D01*
X109326602Y-90961921D01*
X109215564Y-91021097D01*
X109255686Y-91092480D01*
X109439001Y-91195897D01*
X109469766Y-91211167D01*
X109829600Y-91388694D01*
X109829600Y-92014069D01*
X109821429Y-92352000D01*
G36*
X113212561Y-96239022D02*
G01*
X113130282Y-96546668D01*
X112856118Y-97173242D01*
X112436325Y-97777510D01*
X111894259Y-98326345D01*
X111847625Y-98365770D01*
X111582279Y-98578432D01*
X111350375Y-98748812D01*
X111181747Y-98856543D01*
X111106230Y-98881260D01*
X111105298Y-98872479D01*
X111158613Y-98801298D01*
X111295561Y-98632916D01*
X111490121Y-98399169D01*
X111562158Y-98313559D01*
X112090727Y-97601133D01*
X112471167Y-96883895D01*
X112704762Y-96147426D01*
X112792793Y-95377309D01*
X112736543Y-94559127D01*
X112537292Y-93678463D01*
X112196324Y-92720897D01*
X112083200Y-92454314D01*
X111928227Y-92085517D01*
X111847043Y-91860415D01*
X111834577Y-91772855D01*
X111885758Y-91816683D01*
X111995515Y-91985746D01*
X112158776Y-92273890D01*
X112370470Y-92674962D01*
X112538142Y-93006334D01*
X112894997Y-93785464D01*
X113136411Y-94471658D01*
X113266840Y-95091555D01*
X113290737Y-95671797D01*
X113212561Y-96239022D01*
G37*
X113212561Y-96239022D02*
X113130282Y-96546668D01*
X112856118Y-97173242D01*
X112436325Y-97777510D01*
X111894259Y-98326345D01*
X111847625Y-98365770D01*
X111582279Y-98578432D01*
X111350375Y-98748812D01*
X111181747Y-98856543D01*
X111106230Y-98881260D01*
X111105298Y-98872479D01*
X111158613Y-98801298D01*
X111295561Y-98632916D01*
X111490121Y-98399169D01*
X111562158Y-98313559D01*
X112090727Y-97601133D01*
X112471167Y-96883895D01*
X112704762Y-96147426D01*
X112792793Y-95377309D01*
X112736543Y-94559127D01*
X112537292Y-93678463D01*
X112196324Y-92720897D01*
X112083200Y-92454314D01*
X111928227Y-92085517D01*
X111847043Y-91860415D01*
X111834577Y-91772855D01*
X111885758Y-91816683D01*
X111995515Y-91985746D01*
X112158776Y-92273890D01*
X112370470Y-92674962D01*
X112538142Y-93006334D01*
X112894997Y-93785464D01*
X113136411Y-94471658D01*
X113266840Y-95091555D01*
X113290737Y-95671797D01*
X113212561Y-96239022D01*
D12*
%TO.C,C7*%
X151601100Y-93657922D02*
X151601100Y-94175078D01*
X153021100Y-93657922D02*
X153021100Y-94175078D01*
D10*
%TO.C,TP4*%
X152257700Y-108343700D02*
G75*
G03*
X152257700Y-108343700I-1750000J0D01*
G01*
%TO.C,TP3*%
X157439300Y-108407200D02*
G75*
G03*
X157439300Y-108407200I-1750000J0D01*
G01*
%TO.C,TP2*%
X147457100Y-86385400D02*
G75*
G03*
X147457100Y-86385400I-1750000J0D01*
G01*
%TO.C,J2*%
X169395400Y-88895800D02*
X169395400Y-91895800D01*
X169395400Y-91895800D02*
X168395400Y-91895800D01*
X168395400Y-91895800D02*
X168395400Y-103895800D01*
X168395400Y-103895800D02*
X169395400Y-103895800D01*
X169395400Y-103895800D02*
X169395400Y-106895800D01*
X169395400Y-106895800D02*
X164495400Y-106895800D01*
X164495400Y-106895800D02*
X164495400Y-88895800D01*
X164495400Y-88895800D02*
X169395400Y-88895800D01*
D12*
%TO.C,U3*%
X135791300Y-108907000D02*
X135791300Y-111057000D01*
X139011300Y-108482000D02*
X139011300Y-111057000D01*
X136701300Y-111057000D02*
X135791300Y-111057000D01*
X139011300Y-111057000D02*
X138101300Y-111057000D01*
D10*
%TO.C,U2*%
X147098500Y-95068700D02*
X148098500Y-96068700D01*
X132698500Y-95068700D02*
X147098500Y-95068700D01*
X132698500Y-102568700D02*
X132698500Y-95068700D01*
X148098500Y-102568700D02*
X132698500Y-102568700D01*
X148098500Y-96068700D02*
X148098500Y-102568700D01*
%TO.C,U1*%
X156972000Y-82931000D02*
X156972000Y-64389000D01*
X106680000Y-82931000D02*
X156972000Y-82931000D01*
X106680000Y-64389000D02*
X106680000Y-82931000D01*
X156972000Y-64389000D02*
X106680000Y-64389000D01*
X111252000Y-77597000D02*
X106680000Y-77597000D01*
X111252000Y-69723000D02*
X111252000Y-77597000D01*
X106680000Y-69723000D02*
X111252000Y-69723000D01*
D12*
%TO.C,R3*%
X151410600Y-103208322D02*
X151410600Y-103725478D01*
X152830600Y-103208322D02*
X152830600Y-103725478D01*
%TO.C,R2*%
X154712600Y-103208322D02*
X154712600Y-103725478D01*
X156132600Y-103208322D02*
X156132600Y-103725478D01*
%TO.C,R1*%
X133015222Y-109510900D02*
X133532378Y-109510900D01*
X133015222Y-108090900D02*
X133532378Y-108090900D01*
%TO.C,L2*%
X142946622Y-111682600D02*
X143463778Y-111682600D01*
X142946622Y-110262600D02*
X143463778Y-110262600D01*
%TO.C,L1*%
X141524222Y-108063100D02*
X142041378Y-108063100D01*
X141524222Y-106643100D02*
X142041378Y-106643100D01*
%TO.C,JP1*%
X156371600Y-98022100D02*
X156371600Y-99352100D01*
X155041600Y-98022100D02*
X156371600Y-98022100D01*
X153771600Y-98022100D02*
X153771600Y-100682100D01*
X153771600Y-100682100D02*
X151171600Y-100682100D01*
X153771600Y-98022100D02*
X151171600Y-98022100D01*
X151171600Y-98022100D02*
X151171600Y-100682100D01*
D10*
%TO.C,J1*%
X164495400Y-70150600D02*
X169395400Y-70150600D01*
X164495400Y-88150600D02*
X164495400Y-70150600D01*
X169395400Y-88150600D02*
X164495400Y-88150600D01*
X169395400Y-85150600D02*
X169395400Y-88150600D01*
X168395400Y-85150600D02*
X169395400Y-85150600D01*
X168395400Y-73150600D02*
X168395400Y-85150600D01*
X169395400Y-73150600D02*
X168395400Y-73150600D01*
X169395400Y-70150600D02*
X169395400Y-73150600D01*
D12*
%TO.C,C8*%
X154953900Y-93759522D02*
X154953900Y-94276678D01*
X156373900Y-93759522D02*
X156373900Y-94276678D01*
%TO.C,C6*%
X148349900Y-93607122D02*
X148349900Y-94124278D01*
X149769900Y-93607122D02*
X149769900Y-94124278D01*
%TO.C,C5*%
X145550122Y-108088500D02*
X146067278Y-108088500D01*
X145550122Y-106668500D02*
X146067278Y-106668500D01*
%TO.C,C4*%
X149251600Y-84780622D02*
X149251600Y-85297778D01*
X150671600Y-84780622D02*
X150671600Y-85297778D01*
%TO.C,C3*%
X152515500Y-84651322D02*
X152515500Y-85168478D01*
X153935500Y-84651322D02*
X153935500Y-85168478D01*
%TO.C,C2*%
X152579000Y-88235022D02*
X152579000Y-88752178D01*
X153999000Y-88235022D02*
X153999000Y-88752178D01*
%TO.C,C1*%
X149137300Y-88298522D02*
X149137300Y-88815678D01*
X150557300Y-88298522D02*
X150557300Y-88815678D01*
%TO.C,C7*%
D10*
X154318242Y-94083166D02*
X154365861Y-94130785D01*
X154413480Y-94273642D01*
X154413480Y-94368880D01*
X154365861Y-94511738D01*
X154270623Y-94606976D01*
X154175385Y-94654595D01*
X153984909Y-94702214D01*
X153842052Y-94702214D01*
X153651576Y-94654595D01*
X153556338Y-94606976D01*
X153461100Y-94511738D01*
X153413480Y-94368880D01*
X153413480Y-94273642D01*
X153461100Y-94130785D01*
X153508719Y-94083166D01*
X153413480Y-93749833D02*
X153413480Y-93083166D01*
X154413480Y-93511738D01*
%TO.C,J2*%
X168540180Y-98174133D02*
X169254466Y-98174133D01*
X169397323Y-98221752D01*
X169492561Y-98316990D01*
X169540180Y-98459847D01*
X169540180Y-98555085D01*
X168635419Y-97745561D02*
X168587800Y-97697942D01*
X168540180Y-97602704D01*
X168540180Y-97364609D01*
X168587800Y-97269371D01*
X168635419Y-97221752D01*
X168730657Y-97174133D01*
X168825895Y-97174133D01*
X168968752Y-97221752D01*
X169540180Y-97793180D01*
X169540180Y-97174133D01*
%TO.C,U3*%
X139353680Y-110743904D02*
X140163204Y-110743904D01*
X140258442Y-110696285D01*
X140306061Y-110648666D01*
X140353680Y-110553428D01*
X140353680Y-110362952D01*
X140306061Y-110267714D01*
X140258442Y-110220095D01*
X140163204Y-110172476D01*
X139353680Y-110172476D01*
X139353680Y-109791523D02*
X139353680Y-109172476D01*
X139734633Y-109505809D01*
X139734633Y-109362952D01*
X139782252Y-109267714D01*
X139829871Y-109220095D01*
X139925109Y-109172476D01*
X140163204Y-109172476D01*
X140258442Y-109220095D01*
X140306061Y-109267714D01*
X140353680Y-109362952D01*
X140353680Y-109648666D01*
X140306061Y-109743904D01*
X140258442Y-109791523D01*
%TO.C,U2*%
X148650880Y-99580604D02*
X149460404Y-99580604D01*
X149555642Y-99532985D01*
X149603261Y-99485366D01*
X149650880Y-99390128D01*
X149650880Y-99199652D01*
X149603261Y-99104414D01*
X149555642Y-99056795D01*
X149460404Y-99009176D01*
X148650880Y-99009176D01*
X148746119Y-98580604D02*
X148698500Y-98532985D01*
X148650880Y-98437747D01*
X148650880Y-98199652D01*
X148698500Y-98104414D01*
X148746119Y-98056795D01*
X148841357Y-98009176D01*
X148936595Y-98009176D01*
X149079452Y-98056795D01*
X149650880Y-98628223D01*
X149650880Y-98009176D01*
%TO.C,U1*%
X157567380Y-74421904D02*
X158376904Y-74421904D01*
X158472142Y-74374285D01*
X158519761Y-74326666D01*
X158567380Y-74231428D01*
X158567380Y-74040952D01*
X158519761Y-73945714D01*
X158472142Y-73898095D01*
X158376904Y-73850476D01*
X157567380Y-73850476D01*
X158567380Y-72850476D02*
X158567380Y-73421904D01*
X158567380Y-73136190D02*
X157567380Y-73136190D01*
X157710238Y-73231428D01*
X157805476Y-73326666D01*
X157853095Y-73421904D01*
X127826190Y-74112380D02*
X127826190Y-73112380D01*
X128397619Y-74112380D01*
X128397619Y-73112380D01*
X129302380Y-73445714D02*
X129302380Y-74112380D01*
X128873809Y-73445714D02*
X128873809Y-73969523D01*
X128921428Y-74064761D01*
X129016666Y-74112380D01*
X129159523Y-74112380D01*
X129254761Y-74064761D01*
X129302380Y-74017142D01*
X130207142Y-74064761D02*
X130111904Y-74112380D01*
X129921428Y-74112380D01*
X129826190Y-74064761D01*
X129778571Y-74017142D01*
X129730952Y-73921904D01*
X129730952Y-73636190D01*
X129778571Y-73540952D01*
X129826190Y-73493333D01*
X129921428Y-73445714D01*
X130111904Y-73445714D01*
X130207142Y-73493333D01*
X130778571Y-74112380D02*
X130683333Y-74064761D01*
X130635714Y-73969523D01*
X130635714Y-73112380D01*
X131540476Y-74064761D02*
X131445238Y-74112380D01*
X131254761Y-74112380D01*
X131159523Y-74064761D01*
X131111904Y-73969523D01*
X131111904Y-73588571D01*
X131159523Y-73493333D01*
X131254761Y-73445714D01*
X131445238Y-73445714D01*
X131540476Y-73493333D01*
X131588095Y-73588571D01*
X131588095Y-73683809D01*
X131111904Y-73779047D01*
X132159523Y-74112380D02*
X132064285Y-74064761D01*
X132016666Y-74017142D01*
X131969047Y-73921904D01*
X131969047Y-73636190D01*
X132016666Y-73540952D01*
X132064285Y-73493333D01*
X132159523Y-73445714D01*
X132302380Y-73445714D01*
X132397619Y-73493333D01*
X132445238Y-73540952D01*
X132492857Y-73636190D01*
X132492857Y-73921904D01*
X132445238Y-74017142D01*
X132397619Y-74064761D01*
X132302380Y-74112380D01*
X132159523Y-74112380D01*
X134159523Y-74112380D02*
X133683333Y-74112380D01*
X133683333Y-73112380D01*
X134921428Y-73445714D02*
X134921428Y-74112380D01*
X134683333Y-73064761D02*
X134445238Y-73779047D01*
X135064285Y-73779047D01*
X135350000Y-73112380D02*
X135969047Y-73112380D01*
X135635714Y-73493333D01*
X135778571Y-73493333D01*
X135873809Y-73540952D01*
X135921428Y-73588571D01*
X135969047Y-73683809D01*
X135969047Y-73921904D01*
X135921428Y-74017142D01*
X135873809Y-74064761D01*
X135778571Y-74112380D01*
X135492857Y-74112380D01*
X135397619Y-74064761D01*
X135350000Y-74017142D01*
X136350000Y-73207619D02*
X136397619Y-73160000D01*
X136492857Y-73112380D01*
X136730952Y-73112380D01*
X136826190Y-73160000D01*
X136873809Y-73207619D01*
X136921428Y-73302857D01*
X136921428Y-73398095D01*
X136873809Y-73540952D01*
X136302380Y-74112380D01*
X136921428Y-74112380D01*
X137350000Y-74112380D02*
X137350000Y-73112380D01*
X137921428Y-74112380D02*
X137492857Y-73540952D01*
X137921428Y-73112380D02*
X137350000Y-73683809D01*
X138921428Y-74017142D02*
X138873809Y-74064761D01*
X138730952Y-74112380D01*
X138635714Y-74112380D01*
X138492857Y-74064761D01*
X138397619Y-73969523D01*
X138350000Y-73874285D01*
X138302380Y-73683809D01*
X138302380Y-73540952D01*
X138350000Y-73350476D01*
X138397619Y-73255238D01*
X138492857Y-73160000D01*
X138635714Y-73112380D01*
X138730952Y-73112380D01*
X138873809Y-73160000D01*
X138921428Y-73207619D01*
X108672380Y-74921904D02*
X109481904Y-74921904D01*
X109577142Y-74874285D01*
X109624761Y-74826666D01*
X109672380Y-74731428D01*
X109672380Y-74540952D01*
X109624761Y-74445714D01*
X109577142Y-74398095D01*
X109481904Y-74350476D01*
X108672380Y-74350476D01*
X109624761Y-73921904D02*
X109672380Y-73779047D01*
X109672380Y-73540952D01*
X109624761Y-73445714D01*
X109577142Y-73398095D01*
X109481904Y-73350476D01*
X109386666Y-73350476D01*
X109291428Y-73398095D01*
X109243809Y-73445714D01*
X109196190Y-73540952D01*
X109148571Y-73731428D01*
X109100952Y-73826666D01*
X109053333Y-73874285D01*
X108958095Y-73921904D01*
X108862857Y-73921904D01*
X108767619Y-73874285D01*
X108720000Y-73826666D01*
X108672380Y-73731428D01*
X108672380Y-73493333D01*
X108720000Y-73350476D01*
X109148571Y-72588571D02*
X109196190Y-72445714D01*
X109243809Y-72398095D01*
X109339047Y-72350476D01*
X109481904Y-72350476D01*
X109577142Y-72398095D01*
X109624761Y-72445714D01*
X109672380Y-72540952D01*
X109672380Y-72921904D01*
X108672380Y-72921904D01*
X108672380Y-72588571D01*
X108720000Y-72493333D01*
X108767619Y-72445714D01*
X108862857Y-72398095D01*
X108958095Y-72398095D01*
X109053333Y-72445714D01*
X109100952Y-72493333D01*
X109148571Y-72588571D01*
X109148571Y-72921904D01*
%TO.C,R3*%
X154222980Y-103633566D02*
X153746790Y-103966900D01*
X154222980Y-104204995D02*
X153222980Y-104204995D01*
X153222980Y-103824042D01*
X153270600Y-103728804D01*
X153318219Y-103681185D01*
X153413457Y-103633566D01*
X153556314Y-103633566D01*
X153651552Y-103681185D01*
X153699171Y-103728804D01*
X153746790Y-103824042D01*
X153746790Y-104204995D01*
X153222980Y-103300233D02*
X153222980Y-102681185D01*
X153603933Y-103014519D01*
X153603933Y-102871661D01*
X153651552Y-102776423D01*
X153699171Y-102728804D01*
X153794409Y-102681185D01*
X154032504Y-102681185D01*
X154127742Y-102728804D01*
X154175361Y-102776423D01*
X154222980Y-102871661D01*
X154222980Y-103157376D01*
X154175361Y-103252614D01*
X154127742Y-103300233D01*
%TO.C,R2*%
X157524980Y-103633566D02*
X157048790Y-103966900D01*
X157524980Y-104204995D02*
X156524980Y-104204995D01*
X156524980Y-103824042D01*
X156572600Y-103728804D01*
X156620219Y-103681185D01*
X156715457Y-103633566D01*
X156858314Y-103633566D01*
X156953552Y-103681185D01*
X157001171Y-103728804D01*
X157048790Y-103824042D01*
X157048790Y-104204995D01*
X156620219Y-103252614D02*
X156572600Y-103204995D01*
X156524980Y-103109757D01*
X156524980Y-102871661D01*
X156572600Y-102776423D01*
X156620219Y-102728804D01*
X156715457Y-102681185D01*
X156810695Y-102681185D01*
X156953552Y-102728804D01*
X157524980Y-103300233D01*
X157524980Y-102681185D01*
%TO.C,R1*%
X133107133Y-107603280D02*
X132773800Y-107127090D01*
X132535704Y-107603280D02*
X132535704Y-106603280D01*
X132916657Y-106603280D01*
X133011895Y-106650900D01*
X133059514Y-106698519D01*
X133107133Y-106793757D01*
X133107133Y-106936614D01*
X133059514Y-107031852D01*
X133011895Y-107079471D01*
X132916657Y-107127090D01*
X132535704Y-107127090D01*
X134059514Y-107603280D02*
X133488085Y-107603280D01*
X133773800Y-107603280D02*
X133773800Y-106603280D01*
X133678561Y-106746138D01*
X133583323Y-106841376D01*
X133488085Y-106888995D01*
%TO.C,L2*%
X143038533Y-109774980D02*
X142562342Y-109774980D01*
X142562342Y-108774980D01*
X143324247Y-108870219D02*
X143371866Y-108822600D01*
X143467104Y-108774980D01*
X143705200Y-108774980D01*
X143800438Y-108822600D01*
X143848057Y-108870219D01*
X143895676Y-108965457D01*
X143895676Y-109060695D01*
X143848057Y-109203552D01*
X143276628Y-109774980D01*
X143895676Y-109774980D01*
%TO.C,L1*%
X141616133Y-106155480D02*
X141139942Y-106155480D01*
X141139942Y-105155480D01*
X142473276Y-106155480D02*
X141901847Y-106155480D01*
X142187561Y-106155480D02*
X142187561Y-105155480D01*
X142092323Y-105298338D01*
X141997085Y-105393576D01*
X141901847Y-105441195D01*
%TO.C,JP1*%
X156823980Y-100185433D02*
X157538266Y-100185433D01*
X157681123Y-100233052D01*
X157776361Y-100328290D01*
X157823980Y-100471147D01*
X157823980Y-100566385D01*
X157823980Y-99709242D02*
X156823980Y-99709242D01*
X156823980Y-99328290D01*
X156871600Y-99233052D01*
X156919219Y-99185433D01*
X157014457Y-99137814D01*
X157157314Y-99137814D01*
X157252552Y-99185433D01*
X157300171Y-99233052D01*
X157347790Y-99328290D01*
X157347790Y-99709242D01*
X157823980Y-98185433D02*
X157823980Y-98756861D01*
X157823980Y-98471147D02*
X156823980Y-98471147D01*
X156966838Y-98566385D01*
X157062076Y-98661623D01*
X157109695Y-98756861D01*
%TO.C,J1*%
X168590980Y-79368233D02*
X169305266Y-79368233D01*
X169448123Y-79415852D01*
X169543361Y-79511090D01*
X169590980Y-79653947D01*
X169590980Y-79749185D01*
X169590980Y-78368233D02*
X169590980Y-78939661D01*
X169590980Y-78653947D02*
X168590980Y-78653947D01*
X168733838Y-78749185D01*
X168829076Y-78844423D01*
X168876695Y-78939661D01*
%TO.C,C8*%
X157671042Y-94184766D02*
X157718661Y-94232385D01*
X157766280Y-94375242D01*
X157766280Y-94470480D01*
X157718661Y-94613338D01*
X157623423Y-94708576D01*
X157528185Y-94756195D01*
X157337709Y-94803814D01*
X157194852Y-94803814D01*
X157004376Y-94756195D01*
X156909138Y-94708576D01*
X156813900Y-94613338D01*
X156766280Y-94470480D01*
X156766280Y-94375242D01*
X156813900Y-94232385D01*
X156861519Y-94184766D01*
X157194852Y-93613338D02*
X157147233Y-93708576D01*
X157099614Y-93756195D01*
X157004376Y-93803814D01*
X156956757Y-93803814D01*
X156861519Y-93756195D01*
X156813900Y-93708576D01*
X156766280Y-93613338D01*
X156766280Y-93422861D01*
X156813900Y-93327623D01*
X156861519Y-93280004D01*
X156956757Y-93232385D01*
X157004376Y-93232385D01*
X157099614Y-93280004D01*
X157147233Y-93327623D01*
X157194852Y-93422861D01*
X157194852Y-93613338D01*
X157242471Y-93708576D01*
X157290090Y-93756195D01*
X157385328Y-93803814D01*
X157575804Y-93803814D01*
X157671042Y-93756195D01*
X157718661Y-93708576D01*
X157766280Y-93613338D01*
X157766280Y-93422861D01*
X157718661Y-93327623D01*
X157671042Y-93280004D01*
X157575804Y-93232385D01*
X157385328Y-93232385D01*
X157290090Y-93280004D01*
X157242471Y-93327623D01*
X157194852Y-93422861D01*
%TO.C,C6*%
X151067042Y-94032366D02*
X151114661Y-94079985D01*
X151162280Y-94222842D01*
X151162280Y-94318080D01*
X151114661Y-94460938D01*
X151019423Y-94556176D01*
X150924185Y-94603795D01*
X150733709Y-94651414D01*
X150590852Y-94651414D01*
X150400376Y-94603795D01*
X150305138Y-94556176D01*
X150209900Y-94460938D01*
X150162280Y-94318080D01*
X150162280Y-94222842D01*
X150209900Y-94079985D01*
X150257519Y-94032366D01*
X150162280Y-93175223D02*
X150162280Y-93365700D01*
X150209900Y-93460938D01*
X150257519Y-93508557D01*
X150400376Y-93603795D01*
X150590852Y-93651414D01*
X150971804Y-93651414D01*
X151067042Y-93603795D01*
X151114661Y-93556176D01*
X151162280Y-93460938D01*
X151162280Y-93270461D01*
X151114661Y-93175223D01*
X151067042Y-93127604D01*
X150971804Y-93079985D01*
X150733709Y-93079985D01*
X150638471Y-93127604D01*
X150590852Y-93175223D01*
X150543233Y-93270461D01*
X150543233Y-93460938D01*
X150590852Y-93556176D01*
X150638471Y-93603795D01*
X150733709Y-93651414D01*
%TO.C,C5*%
X145642033Y-106085642D02*
X145594414Y-106133261D01*
X145451557Y-106180880D01*
X145356319Y-106180880D01*
X145213461Y-106133261D01*
X145118223Y-106038023D01*
X145070604Y-105942785D01*
X145022985Y-105752309D01*
X145022985Y-105609452D01*
X145070604Y-105418976D01*
X145118223Y-105323738D01*
X145213461Y-105228500D01*
X145356319Y-105180880D01*
X145451557Y-105180880D01*
X145594414Y-105228500D01*
X145642033Y-105276119D01*
X146546795Y-105180880D02*
X146070604Y-105180880D01*
X146022985Y-105657071D01*
X146070604Y-105609452D01*
X146165842Y-105561833D01*
X146403938Y-105561833D01*
X146499176Y-105609452D01*
X146546795Y-105657071D01*
X146594414Y-105752309D01*
X146594414Y-105990404D01*
X146546795Y-106085642D01*
X146499176Y-106133261D01*
X146403938Y-106180880D01*
X146165842Y-106180880D01*
X146070604Y-106133261D01*
X146022985Y-106085642D01*
%TO.C,C4*%
X151968742Y-85205866D02*
X152016361Y-85253485D01*
X152063980Y-85396342D01*
X152063980Y-85491580D01*
X152016361Y-85634438D01*
X151921123Y-85729676D01*
X151825885Y-85777295D01*
X151635409Y-85824914D01*
X151492552Y-85824914D01*
X151302076Y-85777295D01*
X151206838Y-85729676D01*
X151111600Y-85634438D01*
X151063980Y-85491580D01*
X151063980Y-85396342D01*
X151111600Y-85253485D01*
X151159219Y-85205866D01*
X151397314Y-84348723D02*
X152063980Y-84348723D01*
X151016361Y-84586819D02*
X151730647Y-84824914D01*
X151730647Y-84205866D01*
%TO.C,C3*%
X155232642Y-85076566D02*
X155280261Y-85124185D01*
X155327880Y-85267042D01*
X155327880Y-85362280D01*
X155280261Y-85505138D01*
X155185023Y-85600376D01*
X155089785Y-85647995D01*
X154899309Y-85695614D01*
X154756452Y-85695614D01*
X154565976Y-85647995D01*
X154470738Y-85600376D01*
X154375500Y-85505138D01*
X154327880Y-85362280D01*
X154327880Y-85267042D01*
X154375500Y-85124185D01*
X154423119Y-85076566D01*
X154327880Y-84743233D02*
X154327880Y-84124185D01*
X154708833Y-84457519D01*
X154708833Y-84314661D01*
X154756452Y-84219423D01*
X154804071Y-84171804D01*
X154899309Y-84124185D01*
X155137404Y-84124185D01*
X155232642Y-84171804D01*
X155280261Y-84219423D01*
X155327880Y-84314661D01*
X155327880Y-84600376D01*
X155280261Y-84695614D01*
X155232642Y-84743233D01*
%TO.C,C2*%
X155296142Y-88660266D02*
X155343761Y-88707885D01*
X155391380Y-88850742D01*
X155391380Y-88945980D01*
X155343761Y-89088838D01*
X155248523Y-89184076D01*
X155153285Y-89231695D01*
X154962809Y-89279314D01*
X154819952Y-89279314D01*
X154629476Y-89231695D01*
X154534238Y-89184076D01*
X154439000Y-89088838D01*
X154391380Y-88945980D01*
X154391380Y-88850742D01*
X154439000Y-88707885D01*
X154486619Y-88660266D01*
X154486619Y-88279314D02*
X154439000Y-88231695D01*
X154391380Y-88136457D01*
X154391380Y-87898361D01*
X154439000Y-87803123D01*
X154486619Y-87755504D01*
X154581857Y-87707885D01*
X154677095Y-87707885D01*
X154819952Y-87755504D01*
X155391380Y-88326933D01*
X155391380Y-87707885D01*
%TO.C,C1*%
X151854442Y-88723766D02*
X151902061Y-88771385D01*
X151949680Y-88914242D01*
X151949680Y-89009480D01*
X151902061Y-89152338D01*
X151806823Y-89247576D01*
X151711585Y-89295195D01*
X151521109Y-89342814D01*
X151378252Y-89342814D01*
X151187776Y-89295195D01*
X151092538Y-89247576D01*
X150997300Y-89152338D01*
X150949680Y-89009480D01*
X150949680Y-88914242D01*
X150997300Y-88771385D01*
X151044919Y-88723766D01*
X151949680Y-87771385D02*
X151949680Y-88342814D01*
X151949680Y-88057100D02*
X150949680Y-88057100D01*
X151092538Y-88152338D01*
X151187776Y-88247576D01*
X151235395Y-88342814D01*
%TD*%
M02*
