%TF.GenerationSoftware,KiCad,Pcbnew,(5.1.6)-1*%
%TF.CreationDate,2020-08-13T15:14:37-05:00*%
%TF.ProjectId,CAN sniffer,43414e20-736e-4696-9666-65722e6b6963,rev?*%
%TF.SameCoordinates,Original*%
%TF.FileFunction,Copper,L1,Top*%
%TF.FilePolarity,Positive*%
%FSLAX46Y46*%
G04 Gerber Fmt 4.6, Leading zero omitted, Abs format (unit mm)*
G04 Created by KiCad (PCBNEW (5.1.6)-1) date 2020-08-13 15:14:37*
%MOMM*%
%LPD*%
G01*
G04 APERTURE LIST*
%TA.AperFunction,ComponentPad*%
%ADD10C,2.800000*%
%TD*%
%TA.AperFunction,ComponentPad*%
%ADD11C,1.700000*%
%TD*%
%TA.AperFunction,SMDPad,CuDef*%
%ADD12R,0.700000X1.000000*%
%TD*%
%TA.AperFunction,SMDPad,CuDef*%
%ADD13R,0.600000X1.950000*%
%TD*%
%TA.AperFunction,ComponentPad*%
%ADD14C,1.524000*%
%TD*%
%TA.AperFunction,ComponentPad*%
%ADD15R,1.524000X1.524000*%
%TD*%
%TA.AperFunction,ComponentPad*%
%ADD16O,1.700000X1.700000*%
%TD*%
%TA.AperFunction,ComponentPad*%
%ADD17R,1.700000X1.700000*%
%TD*%
%TA.AperFunction,ViaPad*%
%ADD18C,0.800000*%
%TD*%
%TA.AperFunction,Conductor*%
%ADD19C,0.250000*%
%TD*%
%TA.AperFunction,Conductor*%
%ADD20C,0.254000*%
%TD*%
G04 APERTURE END LIST*
D10*
%TO.P,TP1,1*%
%TO.N,/CAN_Tx*%
X135724900Y-87376000D03*
%TD*%
%TO.P,C7,2*%
%TO.N,Net-(C6-Pad2)*%
%TA.AperFunction,SMDPad,CuDef*%
G36*
G01*
X151854850Y-94366500D02*
X152767350Y-94366500D01*
G75*
G02*
X153011100Y-94610250I0J-243750D01*
G01*
X153011100Y-95097750D01*
G75*
G02*
X152767350Y-95341500I-243750J0D01*
G01*
X151854850Y-95341500D01*
G75*
G02*
X151611100Y-95097750I0J243750D01*
G01*
X151611100Y-94610250D01*
G75*
G02*
X151854850Y-94366500I243750J0D01*
G01*
G37*
%TD.AperFunction*%
%TO.P,C7,1*%
%TO.N,Net-(C6-Pad1)*%
%TA.AperFunction,SMDPad,CuDef*%
G36*
G01*
X151854850Y-92491500D02*
X152767350Y-92491500D01*
G75*
G02*
X153011100Y-92735250I0J-243750D01*
G01*
X153011100Y-93222750D01*
G75*
G02*
X152767350Y-93466500I-243750J0D01*
G01*
X151854850Y-93466500D01*
G75*
G02*
X151611100Y-93222750I0J243750D01*
G01*
X151611100Y-92735250D01*
G75*
G02*
X151854850Y-92491500I243750J0D01*
G01*
G37*
%TD.AperFunction*%
%TD*%
%TO.P,TP4,1*%
%TO.N,/CAN_L*%
X150507700Y-108343700D03*
%TD*%
%TO.P,TP3,1*%
%TO.N,/CAN_H*%
X155689300Y-108407200D03*
%TD*%
%TO.P,TP2,1*%
%TO.N,/CAN_Rx*%
X145707100Y-86385400D03*
%TD*%
D11*
%TO.P,J2,3*%
%TO.N,/CAN_H*%
X166395400Y-99395800D03*
%TO.P,J2,2*%
%TO.N,Net-(C6-Pad2)*%
X166395400Y-96395800D03*
%TO.P,J2,1*%
%TO.N,Net-(C6-Pad1)*%
X166395400Y-93395800D03*
%TO.P,J2,4*%
%TO.N,/CAN_L*%
X166395400Y-102395800D03*
%TD*%
D12*
%TO.P,U3,3*%
%TO.N,Net-(C6-Pad2)*%
X137401300Y-111182000D03*
%TO.P,U3,2*%
%TO.N,/CAN_L*%
X136451300Y-108782000D03*
%TO.P,U3,1*%
%TO.N,/CAN_H*%
X138351300Y-108782000D03*
%TD*%
D13*
%TO.P,U2,20*%
%TO.N,Net-(C5-Pad2)*%
X146113500Y-103518700D03*
%TO.P,U2,19*%
%TO.N,Net-(C5-Pad1)*%
X144843500Y-103518700D03*
%TO.P,U2,18*%
%TO.N,Net-(C5-Pad2)*%
X143573500Y-103518700D03*
%TO.P,U2,17*%
%TO.N,Net-(U2-Pad17)*%
X142303500Y-103518700D03*
%TO.P,U2,16*%
%TO.N,Net-(C6-Pad1)*%
X141033500Y-103518700D03*
%TO.P,U2,15*%
%TO.N,Net-(C6-Pad2)*%
X139763500Y-103518700D03*
%TO.P,U2,14*%
%TO.N,/CAN_H*%
X138493500Y-103518700D03*
%TO.P,U2,13*%
%TO.N,/CAN_L*%
X137223500Y-103518700D03*
%TO.P,U2,12*%
%TO.N,/RSlope*%
X135953500Y-103518700D03*
%TO.P,U2,11*%
%TO.N,Net-(C6-Pad2)*%
X134683500Y-103518700D03*
%TO.P,U2,10*%
%TO.N,GND*%
X134683500Y-94118700D03*
%TO.P,U2,9*%
%TO.N,Net-(U2-Pad9)*%
X135953500Y-94118700D03*
%TO.P,U2,8*%
%TO.N,Net-(U2-Pad8)*%
X137223500Y-94118700D03*
%TO.P,U2,7*%
%TO.N,/CAN_Tx*%
X138493500Y-94118700D03*
%TO.P,U2,6*%
%TO.N,Net-(U2-Pad6)*%
X139763500Y-94118700D03*
%TO.P,U2,5*%
%TO.N,/CAN_Rx*%
X141033500Y-94118700D03*
%TO.P,U2,4*%
%TO.N,+3V3*%
X142303500Y-94118700D03*
%TO.P,U2,3*%
%TO.N,+5V*%
X143573500Y-94118700D03*
%TO.P,U2,2*%
%TO.N,GND*%
X144843500Y-94118700D03*
%TO.P,U2,1*%
X146113500Y-94118700D03*
%TD*%
D14*
%TO.P,U1,30*%
%TO.N,Net-(U1-Pad30)*%
X115570000Y-66040000D03*
%TO.P,U1,29*%
%TO.N,GND*%
X118110000Y-66040000D03*
%TO.P,U1,28*%
%TO.N,Net-(U1-Pad28)*%
X120650000Y-66040000D03*
%TO.P,U1,27*%
%TO.N,+5V*%
X123190000Y-66040000D03*
%TO.P,U1,26*%
%TO.N,Net-(U1-Pad26)*%
X125730000Y-66040000D03*
%TO.P,U1,25*%
%TO.N,Net-(U1-Pad25)*%
X128270000Y-66040000D03*
%TO.P,U1,24*%
%TO.N,Net-(U1-Pad24)*%
X130810000Y-66040000D03*
%TO.P,U1,23*%
%TO.N,Net-(U1-Pad23)*%
X133350000Y-66040000D03*
%TO.P,U1,22*%
%TO.N,Net-(U1-Pad22)*%
X135890000Y-66040000D03*
%TO.P,U1,21*%
%TO.N,Net-(U1-Pad21)*%
X138430000Y-66040000D03*
%TO.P,U1,20*%
%TO.N,Net-(U1-Pad20)*%
X140970000Y-66040000D03*
%TO.P,U1,19*%
%TO.N,Net-(U1-Pad19)*%
X143510000Y-66040000D03*
%TO.P,U1,18*%
%TO.N,Net-(U1-Pad18)*%
X146050000Y-66040000D03*
%TO.P,U1,17*%
%TO.N,+3V3*%
X148590000Y-66040000D03*
%TO.P,U1,16*%
%TO.N,Net-(U1-Pad16)*%
X151130000Y-66040000D03*
%TO.P,U1,15*%
%TO.N,Net-(U1-Pad15)*%
X151130000Y-81280000D03*
%TO.P,U1,14*%
%TO.N,Net-(U1-Pad14)*%
X148590000Y-81280000D03*
%TO.P,U1,13*%
%TO.N,/CAN_Rx*%
X146050000Y-81280000D03*
%TO.P,U1,12*%
%TO.N,Net-(U1-Pad12)*%
X143510000Y-81280000D03*
%TO.P,U1,11*%
%TO.N,Net-(U1-Pad11)*%
X140970000Y-81280000D03*
%TO.P,U1,10*%
%TO.N,Net-(U1-Pad10)*%
X138430000Y-81280000D03*
%TO.P,U1,9*%
%TO.N,Net-(U1-Pad9)*%
X135890000Y-81280000D03*
%TO.P,U1,8*%
%TO.N,Net-(U1-Pad8)*%
X133350000Y-81280000D03*
%TO.P,U1,7*%
%TO.N,Net-(U1-Pad7)*%
X130810000Y-81280000D03*
%TO.P,U1,6*%
%TO.N,Net-(U1-Pad6)*%
X128270000Y-81280000D03*
%TO.P,U1,5*%
%TO.N,/CAN_Tx*%
X125730000Y-81280000D03*
%TO.P,U1,4*%
%TO.N,GND*%
X123190000Y-81280000D03*
%TO.P,U1,3*%
%TO.N,Net-(U1-Pad3)*%
X120650000Y-81280000D03*
%TO.P,U1,2*%
%TO.N,Net-(U1-Pad2)*%
X118110000Y-81280000D03*
D15*
%TO.P,U1,1*%
%TO.N,Net-(U1-Pad1)*%
X115570000Y-81280000D03*
%TD*%
%TO.P,R3,2*%
%TO.N,/CAN_L*%
%TA.AperFunction,SMDPad,CuDef*%
G36*
G01*
X151664350Y-103916900D02*
X152576850Y-103916900D01*
G75*
G02*
X152820600Y-104160650I0J-243750D01*
G01*
X152820600Y-104648150D01*
G75*
G02*
X152576850Y-104891900I-243750J0D01*
G01*
X151664350Y-104891900D01*
G75*
G02*
X151420600Y-104648150I0J243750D01*
G01*
X151420600Y-104160650D01*
G75*
G02*
X151664350Y-103916900I243750J0D01*
G01*
G37*
%TD.AperFunction*%
%TO.P,R3,1*%
%TO.N,Net-(JP1-Pad2)*%
%TA.AperFunction,SMDPad,CuDef*%
G36*
G01*
X151664350Y-102041900D02*
X152576850Y-102041900D01*
G75*
G02*
X152820600Y-102285650I0J-243750D01*
G01*
X152820600Y-102773150D01*
G75*
G02*
X152576850Y-103016900I-243750J0D01*
G01*
X151664350Y-103016900D01*
G75*
G02*
X151420600Y-102773150I0J243750D01*
G01*
X151420600Y-102285650D01*
G75*
G02*
X151664350Y-102041900I243750J0D01*
G01*
G37*
%TD.AperFunction*%
%TD*%
%TO.P,R2,2*%
%TO.N,/CAN_H*%
%TA.AperFunction,SMDPad,CuDef*%
G36*
G01*
X154966350Y-103916900D02*
X155878850Y-103916900D01*
G75*
G02*
X156122600Y-104160650I0J-243750D01*
G01*
X156122600Y-104648150D01*
G75*
G02*
X155878850Y-104891900I-243750J0D01*
G01*
X154966350Y-104891900D01*
G75*
G02*
X154722600Y-104648150I0J243750D01*
G01*
X154722600Y-104160650D01*
G75*
G02*
X154966350Y-103916900I243750J0D01*
G01*
G37*
%TD.AperFunction*%
%TO.P,R2,1*%
%TO.N,Net-(JP1-Pad1)*%
%TA.AperFunction,SMDPad,CuDef*%
G36*
G01*
X154966350Y-102041900D02*
X155878850Y-102041900D01*
G75*
G02*
X156122600Y-102285650I0J-243750D01*
G01*
X156122600Y-102773150D01*
G75*
G02*
X155878850Y-103016900I-243750J0D01*
G01*
X154966350Y-103016900D01*
G75*
G02*
X154722600Y-102773150I0J243750D01*
G01*
X154722600Y-102285650D01*
G75*
G02*
X154966350Y-102041900I243750J0D01*
G01*
G37*
%TD.AperFunction*%
%TD*%
%TO.P,R1,2*%
%TO.N,/RSlope*%
%TA.AperFunction,SMDPad,CuDef*%
G36*
G01*
X133723800Y-109257150D02*
X133723800Y-108344650D01*
G75*
G02*
X133967550Y-108100900I243750J0D01*
G01*
X134455050Y-108100900D01*
G75*
G02*
X134698800Y-108344650I0J-243750D01*
G01*
X134698800Y-109257150D01*
G75*
G02*
X134455050Y-109500900I-243750J0D01*
G01*
X133967550Y-109500900D01*
G75*
G02*
X133723800Y-109257150I0J243750D01*
G01*
G37*
%TD.AperFunction*%
%TO.P,R1,1*%
%TO.N,Net-(C6-Pad2)*%
%TA.AperFunction,SMDPad,CuDef*%
G36*
G01*
X131848800Y-109257150D02*
X131848800Y-108344650D01*
G75*
G02*
X132092550Y-108100900I243750J0D01*
G01*
X132580050Y-108100900D01*
G75*
G02*
X132823800Y-108344650I0J-243750D01*
G01*
X132823800Y-109257150D01*
G75*
G02*
X132580050Y-109500900I-243750J0D01*
G01*
X132092550Y-109500900D01*
G75*
G02*
X131848800Y-109257150I0J243750D01*
G01*
G37*
%TD.AperFunction*%
%TD*%
%TO.P,L2,2*%
%TO.N,Net-(C5-Pad2)*%
%TA.AperFunction,SMDPad,CuDef*%
G36*
G01*
X143655200Y-111428850D02*
X143655200Y-110516350D01*
G75*
G02*
X143898950Y-110272600I243750J0D01*
G01*
X144386450Y-110272600D01*
G75*
G02*
X144630200Y-110516350I0J-243750D01*
G01*
X144630200Y-111428850D01*
G75*
G02*
X144386450Y-111672600I-243750J0D01*
G01*
X143898950Y-111672600D01*
G75*
G02*
X143655200Y-111428850I0J243750D01*
G01*
G37*
%TD.AperFunction*%
%TO.P,L2,1*%
%TO.N,Net-(C6-Pad2)*%
%TA.AperFunction,SMDPad,CuDef*%
G36*
G01*
X141780200Y-111428850D02*
X141780200Y-110516350D01*
G75*
G02*
X142023950Y-110272600I243750J0D01*
G01*
X142511450Y-110272600D01*
G75*
G02*
X142755200Y-110516350I0J-243750D01*
G01*
X142755200Y-111428850D01*
G75*
G02*
X142511450Y-111672600I-243750J0D01*
G01*
X142023950Y-111672600D01*
G75*
G02*
X141780200Y-111428850I0J243750D01*
G01*
G37*
%TD.AperFunction*%
%TD*%
%TO.P,L1,2*%
%TO.N,Net-(C5-Pad1)*%
%TA.AperFunction,SMDPad,CuDef*%
G36*
G01*
X142232800Y-107809350D02*
X142232800Y-106896850D01*
G75*
G02*
X142476550Y-106653100I243750J0D01*
G01*
X142964050Y-106653100D01*
G75*
G02*
X143207800Y-106896850I0J-243750D01*
G01*
X143207800Y-107809350D01*
G75*
G02*
X142964050Y-108053100I-243750J0D01*
G01*
X142476550Y-108053100D01*
G75*
G02*
X142232800Y-107809350I0J243750D01*
G01*
G37*
%TD.AperFunction*%
%TO.P,L1,1*%
%TO.N,Net-(C6-Pad1)*%
%TA.AperFunction,SMDPad,CuDef*%
G36*
G01*
X140357800Y-107809350D02*
X140357800Y-106896850D01*
G75*
G02*
X140601550Y-106653100I243750J0D01*
G01*
X141089050Y-106653100D01*
G75*
G02*
X141332800Y-106896850I0J-243750D01*
G01*
X141332800Y-107809350D01*
G75*
G02*
X141089050Y-108053100I-243750J0D01*
G01*
X140601550Y-108053100D01*
G75*
G02*
X140357800Y-107809350I0J243750D01*
G01*
G37*
%TD.AperFunction*%
%TD*%
D16*
%TO.P,JP1,2*%
%TO.N,Net-(JP1-Pad2)*%
X152501600Y-99352100D03*
D17*
%TO.P,JP1,1*%
%TO.N,Net-(JP1-Pad1)*%
X155041600Y-99352100D03*
%TD*%
D11*
%TO.P,J1,3*%
%TO.N,/CAN_H*%
X166395400Y-80650600D03*
%TO.P,J1,2*%
%TO.N,Net-(C6-Pad2)*%
X166395400Y-77650600D03*
%TO.P,J1,1*%
%TO.N,Net-(C6-Pad1)*%
X166395400Y-74650600D03*
%TO.P,J1,4*%
%TO.N,/CAN_L*%
X166395400Y-83650600D03*
%TD*%
%TO.P,C8,2*%
%TO.N,Net-(C6-Pad2)*%
%TA.AperFunction,SMDPad,CuDef*%
G36*
G01*
X155207650Y-94468100D02*
X156120150Y-94468100D01*
G75*
G02*
X156363900Y-94711850I0J-243750D01*
G01*
X156363900Y-95199350D01*
G75*
G02*
X156120150Y-95443100I-243750J0D01*
G01*
X155207650Y-95443100D01*
G75*
G02*
X154963900Y-95199350I0J243750D01*
G01*
X154963900Y-94711850D01*
G75*
G02*
X155207650Y-94468100I243750J0D01*
G01*
G37*
%TD.AperFunction*%
%TO.P,C8,1*%
%TO.N,Net-(C6-Pad1)*%
%TA.AperFunction,SMDPad,CuDef*%
G36*
G01*
X155207650Y-92593100D02*
X156120150Y-92593100D01*
G75*
G02*
X156363900Y-92836850I0J-243750D01*
G01*
X156363900Y-93324350D01*
G75*
G02*
X156120150Y-93568100I-243750J0D01*
G01*
X155207650Y-93568100D01*
G75*
G02*
X154963900Y-93324350I0J243750D01*
G01*
X154963900Y-92836850D01*
G75*
G02*
X155207650Y-92593100I243750J0D01*
G01*
G37*
%TD.AperFunction*%
%TD*%
%TO.P,C6,2*%
%TO.N,Net-(C6-Pad2)*%
%TA.AperFunction,SMDPad,CuDef*%
G36*
G01*
X148603650Y-94315700D02*
X149516150Y-94315700D01*
G75*
G02*
X149759900Y-94559450I0J-243750D01*
G01*
X149759900Y-95046950D01*
G75*
G02*
X149516150Y-95290700I-243750J0D01*
G01*
X148603650Y-95290700D01*
G75*
G02*
X148359900Y-95046950I0J243750D01*
G01*
X148359900Y-94559450D01*
G75*
G02*
X148603650Y-94315700I243750J0D01*
G01*
G37*
%TD.AperFunction*%
%TO.P,C6,1*%
%TO.N,Net-(C6-Pad1)*%
%TA.AperFunction,SMDPad,CuDef*%
G36*
G01*
X148603650Y-92440700D02*
X149516150Y-92440700D01*
G75*
G02*
X149759900Y-92684450I0J-243750D01*
G01*
X149759900Y-93171950D01*
G75*
G02*
X149516150Y-93415700I-243750J0D01*
G01*
X148603650Y-93415700D01*
G75*
G02*
X148359900Y-93171950I0J243750D01*
G01*
X148359900Y-92684450D01*
G75*
G02*
X148603650Y-92440700I243750J0D01*
G01*
G37*
%TD.AperFunction*%
%TD*%
%TO.P,C5,2*%
%TO.N,Net-(C5-Pad2)*%
%TA.AperFunction,SMDPad,CuDef*%
G36*
G01*
X146258700Y-107834750D02*
X146258700Y-106922250D01*
G75*
G02*
X146502450Y-106678500I243750J0D01*
G01*
X146989950Y-106678500D01*
G75*
G02*
X147233700Y-106922250I0J-243750D01*
G01*
X147233700Y-107834750D01*
G75*
G02*
X146989950Y-108078500I-243750J0D01*
G01*
X146502450Y-108078500D01*
G75*
G02*
X146258700Y-107834750I0J243750D01*
G01*
G37*
%TD.AperFunction*%
%TO.P,C5,1*%
%TO.N,Net-(C5-Pad1)*%
%TA.AperFunction,SMDPad,CuDef*%
G36*
G01*
X144383700Y-107834750D02*
X144383700Y-106922250D01*
G75*
G02*
X144627450Y-106678500I243750J0D01*
G01*
X145114950Y-106678500D01*
G75*
G02*
X145358700Y-106922250I0J-243750D01*
G01*
X145358700Y-107834750D01*
G75*
G02*
X145114950Y-108078500I-243750J0D01*
G01*
X144627450Y-108078500D01*
G75*
G02*
X144383700Y-107834750I0J243750D01*
G01*
G37*
%TD.AperFunction*%
%TD*%
%TO.P,C4,2*%
%TO.N,GND*%
%TA.AperFunction,SMDPad,CuDef*%
G36*
G01*
X149505350Y-85489200D02*
X150417850Y-85489200D01*
G75*
G02*
X150661600Y-85732950I0J-243750D01*
G01*
X150661600Y-86220450D01*
G75*
G02*
X150417850Y-86464200I-243750J0D01*
G01*
X149505350Y-86464200D01*
G75*
G02*
X149261600Y-86220450I0J243750D01*
G01*
X149261600Y-85732950D01*
G75*
G02*
X149505350Y-85489200I243750J0D01*
G01*
G37*
%TD.AperFunction*%
%TO.P,C4,1*%
%TO.N,+3V3*%
%TA.AperFunction,SMDPad,CuDef*%
G36*
G01*
X149505350Y-83614200D02*
X150417850Y-83614200D01*
G75*
G02*
X150661600Y-83857950I0J-243750D01*
G01*
X150661600Y-84345450D01*
G75*
G02*
X150417850Y-84589200I-243750J0D01*
G01*
X149505350Y-84589200D01*
G75*
G02*
X149261600Y-84345450I0J243750D01*
G01*
X149261600Y-83857950D01*
G75*
G02*
X149505350Y-83614200I243750J0D01*
G01*
G37*
%TD.AperFunction*%
%TD*%
%TO.P,C3,2*%
%TO.N,GND*%
%TA.AperFunction,SMDPad,CuDef*%
G36*
G01*
X152769250Y-85359900D02*
X153681750Y-85359900D01*
G75*
G02*
X153925500Y-85603650I0J-243750D01*
G01*
X153925500Y-86091150D01*
G75*
G02*
X153681750Y-86334900I-243750J0D01*
G01*
X152769250Y-86334900D01*
G75*
G02*
X152525500Y-86091150I0J243750D01*
G01*
X152525500Y-85603650D01*
G75*
G02*
X152769250Y-85359900I243750J0D01*
G01*
G37*
%TD.AperFunction*%
%TO.P,C3,1*%
%TO.N,+3V3*%
%TA.AperFunction,SMDPad,CuDef*%
G36*
G01*
X152769250Y-83484900D02*
X153681750Y-83484900D01*
G75*
G02*
X153925500Y-83728650I0J-243750D01*
G01*
X153925500Y-84216150D01*
G75*
G02*
X153681750Y-84459900I-243750J0D01*
G01*
X152769250Y-84459900D01*
G75*
G02*
X152525500Y-84216150I0J243750D01*
G01*
X152525500Y-83728650D01*
G75*
G02*
X152769250Y-83484900I243750J0D01*
G01*
G37*
%TD.AperFunction*%
%TD*%
%TO.P,C2,2*%
%TO.N,GND*%
%TA.AperFunction,SMDPad,CuDef*%
G36*
G01*
X152832750Y-88943600D02*
X153745250Y-88943600D01*
G75*
G02*
X153989000Y-89187350I0J-243750D01*
G01*
X153989000Y-89674850D01*
G75*
G02*
X153745250Y-89918600I-243750J0D01*
G01*
X152832750Y-89918600D01*
G75*
G02*
X152589000Y-89674850I0J243750D01*
G01*
X152589000Y-89187350D01*
G75*
G02*
X152832750Y-88943600I243750J0D01*
G01*
G37*
%TD.AperFunction*%
%TO.P,C2,1*%
%TO.N,+5V*%
%TA.AperFunction,SMDPad,CuDef*%
G36*
G01*
X152832750Y-87068600D02*
X153745250Y-87068600D01*
G75*
G02*
X153989000Y-87312350I0J-243750D01*
G01*
X153989000Y-87799850D01*
G75*
G02*
X153745250Y-88043600I-243750J0D01*
G01*
X152832750Y-88043600D01*
G75*
G02*
X152589000Y-87799850I0J243750D01*
G01*
X152589000Y-87312350D01*
G75*
G02*
X152832750Y-87068600I243750J0D01*
G01*
G37*
%TD.AperFunction*%
%TD*%
%TO.P,C1,2*%
%TO.N,GND*%
%TA.AperFunction,SMDPad,CuDef*%
G36*
G01*
X149391050Y-89007100D02*
X150303550Y-89007100D01*
G75*
G02*
X150547300Y-89250850I0J-243750D01*
G01*
X150547300Y-89738350D01*
G75*
G02*
X150303550Y-89982100I-243750J0D01*
G01*
X149391050Y-89982100D01*
G75*
G02*
X149147300Y-89738350I0J243750D01*
G01*
X149147300Y-89250850D01*
G75*
G02*
X149391050Y-89007100I243750J0D01*
G01*
G37*
%TD.AperFunction*%
%TO.P,C1,1*%
%TO.N,+5V*%
%TA.AperFunction,SMDPad,CuDef*%
G36*
G01*
X149391050Y-87132100D02*
X150303550Y-87132100D01*
G75*
G02*
X150547300Y-87375850I0J-243750D01*
G01*
X150547300Y-87863350D01*
G75*
G02*
X150303550Y-88107100I-243750J0D01*
G01*
X149391050Y-88107100D01*
G75*
G02*
X149147300Y-87863350I0J243750D01*
G01*
X149147300Y-87375850D01*
G75*
G02*
X149391050Y-87132100I243750J0D01*
G01*
G37*
%TD.AperFunction*%
%TD*%
D18*
%TO.N,+5V*%
X143230600Y-88874600D03*
X148006950Y-88786850D03*
X143573500Y-94118700D03*
%TO.N,Net-(C6-Pad2)*%
X142621000Y-101242100D03*
X139763500Y-103518700D03*
X139750800Y-105079800D03*
X134683500Y-105587800D03*
X162252900Y-94955600D03*
%TO.N,/CAN_H*%
X146850100Y-99606100D03*
X139026900Y-99733100D03*
%TO.N,/CAN_L*%
X145237200Y-100355400D03*
X137223500Y-103518700D03*
%TD*%
D19*
%TO.N,GND*%
X150279100Y-89926400D02*
X149847300Y-89494600D01*
X153225500Y-89494600D02*
X153289000Y-89431100D01*
X149847300Y-89494600D02*
X153225500Y-89494600D01*
X153096200Y-85976700D02*
X153225500Y-85847400D01*
X149961600Y-85976700D02*
X153096200Y-85976700D01*
X154314010Y-86935910D02*
X153225500Y-85847400D01*
X154314010Y-88406090D02*
X154314010Y-86935910D01*
X153289000Y-89431100D02*
X154314010Y-88406090D01*
X144843500Y-94118700D02*
X146113500Y-94118700D01*
X146113500Y-93228400D02*
X149847300Y-89494600D01*
X146113500Y-94118700D02*
X146113500Y-93228400D01*
%TO.N,+5V*%
X153225500Y-87619600D02*
X153289000Y-87556100D01*
X149847300Y-87619600D02*
X153225500Y-87619600D01*
X141875838Y-88874600D02*
X143230600Y-88874600D01*
X134802999Y-81801761D02*
X141875838Y-88874600D01*
X123190000Y-66040000D02*
X134802999Y-77652999D01*
X134802999Y-77652999D02*
X134802999Y-81801761D01*
X149174200Y-87619600D02*
X148006950Y-88786850D01*
X149847300Y-87619600D02*
X149174200Y-87619600D01*
%TO.N,+3V3*%
X153096200Y-84101700D02*
X153225500Y-83972400D01*
X149961600Y-84101700D02*
X153096200Y-84101700D01*
X149707600Y-67157600D02*
X148590000Y-66040000D01*
X149961600Y-84101700D02*
X149961600Y-67411600D01*
X149961600Y-67411600D02*
X149707600Y-67157600D01*
X149961600Y-84101700D02*
X148936590Y-85126710D01*
X148936590Y-85126710D02*
X148936590Y-85708912D01*
X142303500Y-94118700D02*
X142303500Y-92240100D01*
X146354649Y-88188951D02*
X146456551Y-88188951D01*
X142303500Y-92240100D02*
X146354649Y-88188951D01*
X148936590Y-85708912D02*
X146456551Y-88188951D01*
X146456551Y-88188951D02*
X146215100Y-88430402D01*
%TO.N,Net-(C5-Pad2)*%
X144142700Y-109982000D02*
X146746200Y-107378500D01*
X144142700Y-110972600D02*
X144142700Y-109982000D01*
X146746200Y-104151400D02*
X146113500Y-103518700D01*
X146746200Y-107378500D02*
X146746200Y-104151400D01*
X146113500Y-102293700D02*
X146113500Y-103518700D01*
X146038499Y-102218699D02*
X146113500Y-102293700D01*
X143648501Y-102218699D02*
X146038499Y-102218699D01*
X143573500Y-102293700D02*
X143648501Y-102218699D01*
X143573500Y-103518700D02*
X143573500Y-102293700D01*
%TO.N,Net-(C5-Pad1)*%
X144871200Y-103546400D02*
X144843500Y-103518700D01*
X144871200Y-107378500D02*
X144871200Y-103546400D01*
X142745700Y-107378500D02*
X142720300Y-107353100D01*
X144871200Y-107378500D02*
X142745700Y-107378500D01*
%TO.N,Net-(C6-Pad2)*%
X152412700Y-94955600D02*
X152311100Y-94854000D01*
X155663900Y-94955600D02*
X152412700Y-94955600D01*
X149110700Y-94854000D02*
X149059900Y-94803200D01*
X152311100Y-94854000D02*
X149110700Y-94854000D01*
X149059900Y-94803200D02*
X142621000Y-101242100D01*
X134683500Y-106453700D02*
X132336300Y-108800900D01*
X142058300Y-111182000D02*
X142267700Y-110972600D01*
X139763500Y-103518700D02*
X139763500Y-105067100D01*
X139763500Y-105067100D02*
X139750800Y-105079800D01*
X134683500Y-103518700D02*
X134683500Y-105587800D01*
X134683500Y-105587800D02*
X134683500Y-106453700D01*
X164955200Y-94955600D02*
X166395400Y-96395800D01*
X137610700Y-110972600D02*
X137401300Y-111182000D01*
X142267700Y-110972600D02*
X137610700Y-110972600D01*
X134717400Y-111182000D02*
X134411600Y-110876200D01*
X137401300Y-111182000D02*
X134717400Y-111182000D01*
X132336300Y-108800900D02*
X134411600Y-110876200D01*
X155663900Y-94955600D02*
X162252900Y-94955600D01*
X162252900Y-94955600D02*
X164955200Y-94955600D01*
%TO.N,Net-(C6-Pad1)*%
X141033500Y-100954600D02*
X141033500Y-103518700D01*
X149059900Y-92928200D02*
X141033500Y-100954600D01*
X140845300Y-103706900D02*
X141033500Y-103518700D01*
X140845300Y-107353100D02*
X140845300Y-103706900D01*
X152260300Y-92928200D02*
X152311100Y-92979000D01*
X149059900Y-92928200D02*
X152260300Y-92928200D01*
X155562300Y-92979000D02*
X155663900Y-93080600D01*
X152311100Y-92979000D02*
X155562300Y-92979000D01*
X166080200Y-93080600D02*
X166395400Y-93395800D01*
X155663900Y-93080600D02*
X166080200Y-93080600D01*
%TO.N,/CAN_H*%
X138351300Y-103660900D02*
X138493500Y-103518700D01*
X138351300Y-108782000D02*
X138351300Y-103660900D01*
X154610090Y-103591890D02*
X150835890Y-103591890D01*
X155422600Y-104404400D02*
X154610090Y-103591890D01*
X150835890Y-103591890D02*
X146850100Y-99606100D01*
X139026900Y-102985300D02*
X138493500Y-103518700D01*
X139026900Y-99733100D02*
X139026900Y-102985300D01*
X155689300Y-104671100D02*
X155422600Y-104404400D01*
X155689300Y-108407200D02*
X155689300Y-104671100D01*
X155422600Y-104404400D02*
X156326600Y-104404400D01*
X161335200Y-99395800D02*
X156326600Y-104404400D01*
X166395400Y-99395800D02*
X161335200Y-99395800D01*
%TO.N,/CAN_L*%
X152120600Y-106730800D02*
X150507700Y-108343700D01*
X152120600Y-104404400D02*
X152120600Y-106730800D01*
X152120600Y-104404400D02*
X149286200Y-104404400D01*
X149286200Y-104404400D02*
X145237200Y-100355400D01*
X137223500Y-108009800D02*
X137223500Y-103518700D01*
X136451300Y-108782000D02*
X137223500Y-108009800D01*
X166395400Y-102395800D02*
X158275800Y-110515400D01*
X152679400Y-110515400D02*
X150507700Y-108343700D01*
X158275800Y-110515400D02*
X152679400Y-110515400D01*
%TO.N,Net-(JP1-Pad2)*%
X152501600Y-102148400D02*
X152120600Y-102529400D01*
X152501600Y-99352100D02*
X152501600Y-102148400D01*
%TO.N,Net-(JP1-Pad1)*%
X155041600Y-102148400D02*
X155422600Y-102529400D01*
X155041600Y-99352100D02*
X155041600Y-102148400D01*
%TO.N,/RSlope*%
X135953500Y-107058700D02*
X134211300Y-108800900D01*
X135953500Y-103518700D02*
X135953500Y-107058700D01*
%TO.N,/CAN_Rx*%
X144945100Y-87147400D02*
X145707100Y-86385400D01*
X145707100Y-81622900D02*
X146050000Y-81280000D01*
X145707100Y-86385400D02*
X145707100Y-81622900D01*
X145707100Y-87471102D02*
X145707100Y-86385400D01*
X141033500Y-92144702D02*
X145707100Y-87471102D01*
X141033500Y-94118700D02*
X141033500Y-92144702D01*
%TO.N,/CAN_Tx*%
X131826000Y-87376000D02*
X125730000Y-81280000D01*
X135724900Y-87376000D02*
X131826000Y-87376000D01*
X138493500Y-90144600D02*
X135724900Y-87376000D01*
X138493500Y-94118700D02*
X138493500Y-90144600D01*
%TD*%
D20*
%TO.N,GND*%
G36*
X102909364Y-63702376D02*
G01*
X102913520Y-63702787D01*
X167020474Y-63728170D01*
X167467546Y-63832729D01*
X167898689Y-64027974D01*
X168283691Y-64303237D01*
X168607898Y-64648042D01*
X168858961Y-65049256D01*
X169027309Y-65491586D01*
X169108984Y-65972618D01*
X169113600Y-66248744D01*
X169113629Y-70629817D01*
X168956971Y-70525141D01*
X168725845Y-70429405D01*
X168480484Y-70380600D01*
X168230316Y-70380600D01*
X167984955Y-70429405D01*
X167753829Y-70525141D01*
X167545822Y-70664127D01*
X167368927Y-70841022D01*
X167229941Y-71049029D01*
X167134205Y-71280155D01*
X167085400Y-71525516D01*
X167085400Y-71775684D01*
X167134205Y-72021045D01*
X167229941Y-72252171D01*
X167368927Y-72460178D01*
X167545822Y-72637073D01*
X167753829Y-72776059D01*
X167984955Y-72871795D01*
X168230316Y-72920600D01*
X168480484Y-72920600D01*
X168725845Y-72871795D01*
X168956971Y-72776059D01*
X169113643Y-72671374D01*
X169113729Y-85629883D01*
X168956971Y-85525141D01*
X168725845Y-85429405D01*
X168480484Y-85380600D01*
X168230316Y-85380600D01*
X167984955Y-85429405D01*
X167753829Y-85525141D01*
X167545822Y-85664127D01*
X167368927Y-85841022D01*
X167229941Y-86049029D01*
X167134205Y-86280155D01*
X167085400Y-86525516D01*
X167085400Y-86775684D01*
X167134205Y-87021045D01*
X167229941Y-87252171D01*
X167368927Y-87460178D01*
X167545822Y-87637073D01*
X167753829Y-87776059D01*
X167984955Y-87871795D01*
X168230316Y-87920600D01*
X168480484Y-87920600D01*
X168725845Y-87871795D01*
X168956971Y-87776059D01*
X169113742Y-87671308D01*
X169113753Y-89375100D01*
X168956971Y-89270341D01*
X168725845Y-89174605D01*
X168480484Y-89125800D01*
X168230316Y-89125800D01*
X167984955Y-89174605D01*
X167753829Y-89270341D01*
X167545822Y-89409327D01*
X167368927Y-89586222D01*
X167229941Y-89794229D01*
X167134205Y-90025355D01*
X167085400Y-90270716D01*
X167085400Y-90520884D01*
X167134205Y-90766245D01*
X167229941Y-90997371D01*
X167368927Y-91205378D01*
X167545822Y-91382273D01*
X167753829Y-91521259D01*
X167984955Y-91616995D01*
X168230316Y-91665800D01*
X168480484Y-91665800D01*
X168725845Y-91616995D01*
X168956971Y-91521259D01*
X169113767Y-91416491D01*
X169113853Y-104375166D01*
X168956971Y-104270341D01*
X168725845Y-104174605D01*
X168480484Y-104125800D01*
X168230316Y-104125800D01*
X167984955Y-104174605D01*
X167753829Y-104270341D01*
X167545822Y-104409327D01*
X167368927Y-104586222D01*
X167229941Y-104794229D01*
X167134205Y-105025355D01*
X167085400Y-105270716D01*
X167085400Y-105520884D01*
X167134205Y-105766245D01*
X167229941Y-105997371D01*
X167368927Y-106205378D01*
X167545822Y-106382273D01*
X167753829Y-106521259D01*
X167984955Y-106616995D01*
X168230316Y-106665800D01*
X168480484Y-106665800D01*
X168725845Y-106616995D01*
X168956971Y-106521259D01*
X169113866Y-106416425D01*
X169113888Y-109651938D01*
X169113887Y-109651946D01*
X169113888Y-109652054D01*
X169113888Y-109684191D01*
X169114348Y-109688865D01*
X169121558Y-110195378D01*
X169036918Y-110657242D01*
X168864179Y-111093875D01*
X168609923Y-111488637D01*
X168283834Y-111826495D01*
X167898328Y-112094583D01*
X167468095Y-112282685D01*
X167009116Y-112383729D01*
X166489659Y-112395398D01*
X103144878Y-112370009D01*
X103134543Y-112368827D01*
X103125328Y-112368743D01*
X102592702Y-112367573D01*
X102133894Y-112275679D01*
X101701677Y-112096419D01*
X101312510Y-111836624D01*
X100981216Y-111506186D01*
X100720413Y-111117692D01*
X100540035Y-110685938D01*
X100443881Y-110212227D01*
X100431199Y-109965061D01*
X100431191Y-109733621D01*
X100708900Y-109733621D01*
X100708900Y-110154179D01*
X100790947Y-110566656D01*
X100951888Y-110955202D01*
X101185537Y-111304883D01*
X101482917Y-111602263D01*
X101832598Y-111835912D01*
X102221144Y-111996853D01*
X102633621Y-112078900D01*
X103054179Y-112078900D01*
X103466656Y-111996853D01*
X103855202Y-111835912D01*
X104204883Y-111602263D01*
X104502263Y-111304883D01*
X104735912Y-110955202D01*
X104896853Y-110566656D01*
X104978900Y-110154179D01*
X104978900Y-109733621D01*
X104896853Y-109321144D01*
X104735912Y-108932598D01*
X104502263Y-108582917D01*
X104263996Y-108344650D01*
X131210728Y-108344650D01*
X131210728Y-109257150D01*
X131227672Y-109429185D01*
X131277853Y-109594609D01*
X131359342Y-109747064D01*
X131469008Y-109880692D01*
X131602636Y-109990358D01*
X131755091Y-110071847D01*
X131920515Y-110122028D01*
X132092550Y-110138972D01*
X132580050Y-110138972D01*
X132597820Y-110137222D01*
X133900596Y-111439999D01*
X133900607Y-111440008D01*
X134153596Y-111692997D01*
X134177399Y-111722001D01*
X134293124Y-111816974D01*
X134415382Y-111882323D01*
X134425153Y-111887546D01*
X134568414Y-111931003D01*
X134717400Y-111945677D01*
X134754733Y-111942000D01*
X136470254Y-111942000D01*
X136520763Y-112036494D01*
X136600115Y-112133185D01*
X136696806Y-112212537D01*
X136807120Y-112271502D01*
X136926818Y-112307812D01*
X137051300Y-112320072D01*
X137751300Y-112320072D01*
X137875782Y-112307812D01*
X137995480Y-112271502D01*
X138105794Y-112212537D01*
X138202485Y-112133185D01*
X138281837Y-112036494D01*
X138340802Y-111926180D01*
X138377112Y-111806482D01*
X138384389Y-111732600D01*
X141199027Y-111732600D01*
X141209253Y-111766309D01*
X141290742Y-111918764D01*
X141400408Y-112052392D01*
X141534036Y-112162058D01*
X141686491Y-112243547D01*
X141851915Y-112293728D01*
X142023950Y-112310672D01*
X142511450Y-112310672D01*
X142683485Y-112293728D01*
X142848909Y-112243547D01*
X143001364Y-112162058D01*
X143134992Y-112052392D01*
X143205200Y-111966844D01*
X143275408Y-112052392D01*
X143409036Y-112162058D01*
X143561491Y-112243547D01*
X143726915Y-112293728D01*
X143898950Y-112310672D01*
X144386450Y-112310672D01*
X144558485Y-112293728D01*
X144723909Y-112243547D01*
X144876364Y-112162058D01*
X145009992Y-112052392D01*
X145119658Y-111918764D01*
X145201147Y-111766309D01*
X145251328Y-111600885D01*
X145268272Y-111428850D01*
X145268272Y-110516350D01*
X145251328Y-110344315D01*
X145201147Y-110178891D01*
X145138261Y-110061240D01*
X146484680Y-108714822D01*
X146502450Y-108716572D01*
X146989950Y-108716572D01*
X147161985Y-108699628D01*
X147327409Y-108649447D01*
X147479864Y-108567958D01*
X147613492Y-108458292D01*
X147723158Y-108324664D01*
X147804647Y-108172209D01*
X147854828Y-108006785D01*
X147871772Y-107834750D01*
X147871772Y-106922250D01*
X147854828Y-106750215D01*
X147804647Y-106584791D01*
X147723158Y-106432336D01*
X147613492Y-106298708D01*
X147506200Y-106210655D01*
X147506200Y-104188723D01*
X147509876Y-104151400D01*
X147506200Y-104114077D01*
X147506200Y-104114067D01*
X147495203Y-104002414D01*
X147451746Y-103859153D01*
X147425979Y-103810947D01*
X147381174Y-103727123D01*
X147309999Y-103640397D01*
X147286201Y-103611399D01*
X147257202Y-103587600D01*
X147051572Y-103381970D01*
X147051572Y-103244574D01*
X148722400Y-104915402D01*
X148746199Y-104944401D01*
X148861924Y-105039374D01*
X148993953Y-105109946D01*
X149137214Y-105153403D01*
X149248867Y-105164400D01*
X149248875Y-105164400D01*
X149286200Y-105168076D01*
X149323525Y-105164400D01*
X150952755Y-105164400D01*
X151040808Y-105271692D01*
X151174436Y-105381358D01*
X151326891Y-105462847D01*
X151360600Y-105473073D01*
X151360601Y-106415997D01*
X151305222Y-106471377D01*
X151101287Y-106386904D01*
X150708130Y-106308700D01*
X150307270Y-106308700D01*
X149914113Y-106386904D01*
X149543766Y-106540307D01*
X149210463Y-106763013D01*
X148927013Y-107046463D01*
X148704307Y-107379766D01*
X148550904Y-107750113D01*
X148472700Y-108143270D01*
X148472700Y-108544130D01*
X148550904Y-108937287D01*
X148704307Y-109307634D01*
X148927013Y-109640937D01*
X149210463Y-109924387D01*
X149543766Y-110147093D01*
X149914113Y-110300496D01*
X150307270Y-110378700D01*
X150708130Y-110378700D01*
X151101287Y-110300496D01*
X151305222Y-110216023D01*
X152115601Y-111026403D01*
X152139399Y-111055401D01*
X152168397Y-111079199D01*
X152255124Y-111150374D01*
X152387153Y-111220946D01*
X152530414Y-111264403D01*
X152679400Y-111279077D01*
X152716733Y-111275400D01*
X158238478Y-111275400D01*
X158275800Y-111279076D01*
X158313122Y-111275400D01*
X158313133Y-111275400D01*
X158424786Y-111264403D01*
X158568047Y-111220946D01*
X158700076Y-111150374D01*
X158815801Y-111055401D01*
X158839604Y-111026397D01*
X160132380Y-109733621D01*
X164552500Y-109733621D01*
X164552500Y-110154179D01*
X164634547Y-110566656D01*
X164795488Y-110955202D01*
X165029137Y-111304883D01*
X165326517Y-111602263D01*
X165676198Y-111835912D01*
X166064744Y-111996853D01*
X166477221Y-112078900D01*
X166897779Y-112078900D01*
X167310256Y-111996853D01*
X167698802Y-111835912D01*
X168048483Y-111602263D01*
X168345863Y-111304883D01*
X168579512Y-110955202D01*
X168740453Y-110566656D01*
X168822500Y-110154179D01*
X168822500Y-109733621D01*
X168740453Y-109321144D01*
X168579512Y-108932598D01*
X168345863Y-108582917D01*
X168048483Y-108285537D01*
X167698802Y-108051888D01*
X167310256Y-107890947D01*
X166897779Y-107808900D01*
X166477221Y-107808900D01*
X166064744Y-107890947D01*
X165676198Y-108051888D01*
X165326517Y-108285537D01*
X165029137Y-108582917D01*
X164795488Y-108932598D01*
X164634547Y-109321144D01*
X164552500Y-109733621D01*
X160132380Y-109733621D01*
X166028993Y-103837010D01*
X166249140Y-103880800D01*
X166541660Y-103880800D01*
X166828558Y-103823732D01*
X167098811Y-103711790D01*
X167342032Y-103549275D01*
X167548875Y-103342432D01*
X167711390Y-103099211D01*
X167823332Y-102828958D01*
X167880400Y-102542060D01*
X167880400Y-102249540D01*
X167823332Y-101962642D01*
X167711390Y-101692389D01*
X167548875Y-101449168D01*
X167342032Y-101242325D01*
X167098811Y-101079810D01*
X166828558Y-100967868D01*
X166541660Y-100910800D01*
X166249140Y-100910800D01*
X165962242Y-100967868D01*
X165691989Y-101079810D01*
X165448768Y-101242325D01*
X165241925Y-101449168D01*
X165079410Y-101692389D01*
X164967468Y-101962642D01*
X164910400Y-102249540D01*
X164910400Y-102542060D01*
X164954190Y-102762207D01*
X157960999Y-109755400D01*
X157219024Y-109755400D01*
X157269987Y-109704437D01*
X157492693Y-109371134D01*
X157646096Y-109000787D01*
X157724300Y-108607630D01*
X157724300Y-108206770D01*
X157646096Y-107813613D01*
X157492693Y-107443266D01*
X157269987Y-107109963D01*
X156986537Y-106826513D01*
X156653234Y-106603807D01*
X156449300Y-106519335D01*
X156449300Y-105315264D01*
X156502392Y-105271692D01*
X156612058Y-105138064D01*
X156630383Y-105103780D01*
X156750876Y-105039374D01*
X156866601Y-104944401D01*
X156890404Y-104915397D01*
X161650002Y-100155800D01*
X165117222Y-100155800D01*
X165241925Y-100342432D01*
X165448768Y-100549275D01*
X165691989Y-100711790D01*
X165962242Y-100823732D01*
X166249140Y-100880800D01*
X166541660Y-100880800D01*
X166828558Y-100823732D01*
X167098811Y-100711790D01*
X167342032Y-100549275D01*
X167548875Y-100342432D01*
X167711390Y-100099211D01*
X167823332Y-99828958D01*
X167880400Y-99542060D01*
X167880400Y-99249540D01*
X167823332Y-98962642D01*
X167711390Y-98692389D01*
X167548875Y-98449168D01*
X167342032Y-98242325D01*
X167098811Y-98079810D01*
X166828558Y-97967868D01*
X166541660Y-97910800D01*
X166249140Y-97910800D01*
X165962242Y-97967868D01*
X165691989Y-98079810D01*
X165448768Y-98242325D01*
X165241925Y-98449168D01*
X165117222Y-98635800D01*
X161372522Y-98635800D01*
X161335199Y-98632124D01*
X161297876Y-98635800D01*
X161297867Y-98635800D01*
X161186214Y-98646797D01*
X161047433Y-98688895D01*
X161042953Y-98690254D01*
X160910923Y-98760826D01*
X160843822Y-98815895D01*
X160795199Y-98855799D01*
X160771401Y-98884797D01*
X156747302Y-102908897D01*
X156760672Y-102773150D01*
X156760672Y-102285650D01*
X156743728Y-102113615D01*
X156693547Y-101948191D01*
X156612058Y-101795736D01*
X156502392Y-101662108D01*
X156368764Y-101552442D01*
X156216309Y-101470953D01*
X156050885Y-101420772D01*
X155878850Y-101403828D01*
X155801600Y-101403828D01*
X155801600Y-100840172D01*
X155891600Y-100840172D01*
X156016082Y-100827912D01*
X156135780Y-100791602D01*
X156246094Y-100732637D01*
X156342785Y-100653285D01*
X156422137Y-100556594D01*
X156481102Y-100446280D01*
X156517412Y-100326582D01*
X156529672Y-100202100D01*
X156529672Y-98502100D01*
X156517412Y-98377618D01*
X156481102Y-98257920D01*
X156422137Y-98147606D01*
X156342785Y-98050915D01*
X156246094Y-97971563D01*
X156135780Y-97912598D01*
X156016082Y-97876288D01*
X155891600Y-97864028D01*
X154191600Y-97864028D01*
X154067118Y-97876288D01*
X153947420Y-97912598D01*
X153837106Y-97971563D01*
X153740415Y-98050915D01*
X153661063Y-98147606D01*
X153602098Y-98257920D01*
X153580087Y-98330480D01*
X153448232Y-98198625D01*
X153205011Y-98036110D01*
X152934758Y-97924168D01*
X152647860Y-97867100D01*
X152355340Y-97867100D01*
X152068442Y-97924168D01*
X151798189Y-98036110D01*
X151554968Y-98198625D01*
X151348125Y-98405468D01*
X151185610Y-98648689D01*
X151073668Y-98918942D01*
X151016600Y-99205840D01*
X151016600Y-99498360D01*
X151073668Y-99785258D01*
X151185610Y-100055511D01*
X151348125Y-100298732D01*
X151554968Y-100505575D01*
X151741600Y-100630279D01*
X151741601Y-101403828D01*
X151664350Y-101403828D01*
X151492315Y-101420772D01*
X151326891Y-101470953D01*
X151174436Y-101552442D01*
X151040808Y-101662108D01*
X150931142Y-101795736D01*
X150849653Y-101948191D01*
X150799472Y-102113615D01*
X150782528Y-102285650D01*
X150782528Y-102463726D01*
X147885100Y-99566299D01*
X147885100Y-99504161D01*
X147845326Y-99304202D01*
X147767305Y-99115844D01*
X147654037Y-98946326D01*
X147509874Y-98802163D01*
X147340356Y-98688895D01*
X147151998Y-98610874D01*
X146952039Y-98571100D01*
X146748161Y-98571100D01*
X146548202Y-98610874D01*
X146359844Y-98688895D01*
X146190326Y-98802163D01*
X146046163Y-98946326D01*
X145932895Y-99115844D01*
X145854874Y-99304202D01*
X145816400Y-99497625D01*
X145727456Y-99438195D01*
X145566413Y-99371488D01*
X149009130Y-95928772D01*
X149516150Y-95928772D01*
X149688185Y-95911828D01*
X149853609Y-95861647D01*
X150006064Y-95780158D01*
X150139692Y-95670492D01*
X150186054Y-95614000D01*
X151143255Y-95614000D01*
X151231308Y-95721292D01*
X151364936Y-95830958D01*
X151517391Y-95912447D01*
X151682815Y-95962628D01*
X151854850Y-95979572D01*
X152767350Y-95979572D01*
X152939385Y-95962628D01*
X153104809Y-95912447D01*
X153257264Y-95830958D01*
X153390892Y-95721292D01*
X153395563Y-95715600D01*
X154496055Y-95715600D01*
X154584108Y-95822892D01*
X154717736Y-95932558D01*
X154870191Y-96014047D01*
X155035615Y-96064228D01*
X155207650Y-96081172D01*
X156120150Y-96081172D01*
X156292185Y-96064228D01*
X156457609Y-96014047D01*
X156610064Y-95932558D01*
X156743692Y-95822892D01*
X156831745Y-95715600D01*
X161549189Y-95715600D01*
X161593126Y-95759537D01*
X161762644Y-95872805D01*
X161951002Y-95950826D01*
X162150961Y-95990600D01*
X162354839Y-95990600D01*
X162554798Y-95950826D01*
X162743156Y-95872805D01*
X162912674Y-95759537D01*
X162956611Y-95715600D01*
X164640399Y-95715600D01*
X164954191Y-96029392D01*
X164910400Y-96249540D01*
X164910400Y-96542060D01*
X164967468Y-96828958D01*
X165079410Y-97099211D01*
X165241925Y-97342432D01*
X165448768Y-97549275D01*
X165691989Y-97711790D01*
X165962242Y-97823732D01*
X166249140Y-97880800D01*
X166541660Y-97880800D01*
X166828558Y-97823732D01*
X167098811Y-97711790D01*
X167342032Y-97549275D01*
X167548875Y-97342432D01*
X167711390Y-97099211D01*
X167823332Y-96828958D01*
X167880400Y-96542060D01*
X167880400Y-96249540D01*
X167823332Y-95962642D01*
X167711390Y-95692389D01*
X167548875Y-95449168D01*
X167342032Y-95242325D01*
X167098811Y-95079810D01*
X166828558Y-94967868D01*
X166541660Y-94910800D01*
X166249140Y-94910800D01*
X166028992Y-94954591D01*
X165852802Y-94778401D01*
X165962242Y-94823732D01*
X166249140Y-94880800D01*
X166541660Y-94880800D01*
X166828558Y-94823732D01*
X167098811Y-94711790D01*
X167342032Y-94549275D01*
X167548875Y-94342432D01*
X167711390Y-94099211D01*
X167823332Y-93828958D01*
X167880400Y-93542060D01*
X167880400Y-93249540D01*
X167823332Y-92962642D01*
X167711390Y-92692389D01*
X167548875Y-92449168D01*
X167342032Y-92242325D01*
X167098811Y-92079810D01*
X166828558Y-91967868D01*
X166541660Y-91910800D01*
X166249140Y-91910800D01*
X165962242Y-91967868D01*
X165691989Y-92079810D01*
X165448768Y-92242325D01*
X165370493Y-92320600D01*
X156831745Y-92320600D01*
X156743692Y-92213308D01*
X156610064Y-92103642D01*
X156457609Y-92022153D01*
X156292185Y-91971972D01*
X156120150Y-91955028D01*
X155207650Y-91955028D01*
X155035615Y-91971972D01*
X154870191Y-92022153D01*
X154717736Y-92103642D01*
X154584108Y-92213308D01*
X154579437Y-92219000D01*
X153478945Y-92219000D01*
X153390892Y-92111708D01*
X153257264Y-92002042D01*
X153104809Y-91920553D01*
X152939385Y-91870372D01*
X152767350Y-91853428D01*
X151854850Y-91853428D01*
X151682815Y-91870372D01*
X151517391Y-91920553D01*
X151364936Y-92002042D01*
X151231308Y-92111708D01*
X151184946Y-92168200D01*
X150227745Y-92168200D01*
X150139692Y-92060908D01*
X150006064Y-91951242D01*
X149853609Y-91869753D01*
X149688185Y-91819572D01*
X149516150Y-91802628D01*
X148603650Y-91802628D01*
X148431615Y-91819572D01*
X148266191Y-91869753D01*
X148113736Y-91951242D01*
X147980108Y-92060908D01*
X147870442Y-92194536D01*
X147788953Y-92346991D01*
X147738772Y-92512415D01*
X147721828Y-92684450D01*
X147721828Y-93171950D01*
X147723578Y-93189720D01*
X146921600Y-93991698D01*
X146889752Y-93991698D01*
X147048500Y-93832950D01*
X147051572Y-93143700D01*
X147039312Y-93019218D01*
X147003002Y-92899520D01*
X146944037Y-92789206D01*
X146864685Y-92692515D01*
X146767994Y-92613163D01*
X146657680Y-92554198D01*
X146537982Y-92517888D01*
X146413500Y-92505628D01*
X146399250Y-92508700D01*
X146240500Y-92667450D01*
X146240500Y-93991700D01*
X146260500Y-93991700D01*
X146260500Y-94245700D01*
X146240500Y-94245700D01*
X146240500Y-94265700D01*
X145986500Y-94265700D01*
X145986500Y-94245700D01*
X144970500Y-94245700D01*
X144970500Y-95569950D01*
X145129250Y-95728700D01*
X145143500Y-95731772D01*
X145185681Y-95727618D01*
X140522503Y-100390796D01*
X140493499Y-100414599D01*
X140458424Y-100457339D01*
X140398526Y-100530324D01*
X140339315Y-100641100D01*
X140327954Y-100662354D01*
X140284497Y-100805615D01*
X140273500Y-100917268D01*
X140273500Y-100917278D01*
X140269824Y-100954600D01*
X140273500Y-100991923D01*
X140273500Y-101943830D01*
X140187982Y-101917888D01*
X140063500Y-101905628D01*
X139786900Y-101905628D01*
X139786900Y-100436811D01*
X139830837Y-100392874D01*
X139944105Y-100223356D01*
X140022126Y-100034998D01*
X140061900Y-99835039D01*
X140061900Y-99631161D01*
X140022126Y-99431202D01*
X139944105Y-99242844D01*
X139830837Y-99073326D01*
X139686674Y-98929163D01*
X139517156Y-98815895D01*
X139328798Y-98737874D01*
X139128839Y-98698100D01*
X138924961Y-98698100D01*
X138725002Y-98737874D01*
X138536644Y-98815895D01*
X138367126Y-98929163D01*
X138222963Y-99073326D01*
X138109695Y-99242844D01*
X138031674Y-99431202D01*
X137991900Y-99631161D01*
X137991900Y-99835039D01*
X138031674Y-100034998D01*
X138109695Y-100223356D01*
X138222963Y-100392874D01*
X138266900Y-100436811D01*
X138266901Y-101905628D01*
X138193500Y-101905628D01*
X138069018Y-101917888D01*
X137949320Y-101954198D01*
X137858500Y-102002743D01*
X137767680Y-101954198D01*
X137647982Y-101917888D01*
X137523500Y-101905628D01*
X136923500Y-101905628D01*
X136799018Y-101917888D01*
X136679320Y-101954198D01*
X136588500Y-102002743D01*
X136497680Y-101954198D01*
X136377982Y-101917888D01*
X136253500Y-101905628D01*
X135653500Y-101905628D01*
X135529018Y-101917888D01*
X135409320Y-101954198D01*
X135318500Y-102002743D01*
X135227680Y-101954198D01*
X135107982Y-101917888D01*
X134983500Y-101905628D01*
X134383500Y-101905628D01*
X134259018Y-101917888D01*
X134139320Y-101954198D01*
X134029006Y-102013163D01*
X133932315Y-102092515D01*
X133852963Y-102189206D01*
X133793998Y-102299520D01*
X133757688Y-102419218D01*
X133745428Y-102543700D01*
X133745428Y-104493700D01*
X133757688Y-104618182D01*
X133793998Y-104737880D01*
X133852963Y-104848194D01*
X133900938Y-104906651D01*
X133879563Y-104928026D01*
X133766295Y-105097544D01*
X133688274Y-105285902D01*
X133648500Y-105485861D01*
X133648500Y-105689739D01*
X133688274Y-105889698D01*
X133766295Y-106078056D01*
X133853632Y-106208766D01*
X132597820Y-107464578D01*
X132580050Y-107462828D01*
X132092550Y-107462828D01*
X131920515Y-107479772D01*
X131755091Y-107529953D01*
X131602636Y-107611442D01*
X131469008Y-107721108D01*
X131359342Y-107854736D01*
X131277853Y-108007191D01*
X131227672Y-108172615D01*
X131210728Y-108344650D01*
X104263996Y-108344650D01*
X104204883Y-108285537D01*
X103855202Y-108051888D01*
X103466656Y-107890947D01*
X103054179Y-107808900D01*
X102633621Y-107808900D01*
X102221144Y-107890947D01*
X101832598Y-108051888D01*
X101482917Y-108285537D01*
X101185537Y-108582917D01*
X100951888Y-108932598D01*
X100790947Y-109321144D01*
X100708900Y-109733621D01*
X100431191Y-109733621D01*
X100430631Y-95093700D01*
X133745428Y-95093700D01*
X133757688Y-95218182D01*
X133793998Y-95337880D01*
X133852963Y-95448194D01*
X133932315Y-95544885D01*
X134029006Y-95624237D01*
X134139320Y-95683202D01*
X134259018Y-95719512D01*
X134383500Y-95731772D01*
X134397750Y-95728700D01*
X134556500Y-95569950D01*
X134556500Y-94245700D01*
X133907250Y-94245700D01*
X133748500Y-94404450D01*
X133745428Y-95093700D01*
X100430631Y-95093700D01*
X100430557Y-93143700D01*
X133745428Y-93143700D01*
X133748500Y-93832950D01*
X133907250Y-93991700D01*
X134556500Y-93991700D01*
X134556500Y-92667450D01*
X134397750Y-92508700D01*
X134383500Y-92505628D01*
X134259018Y-92517888D01*
X134139320Y-92554198D01*
X134029006Y-92613163D01*
X133932315Y-92692515D01*
X133852963Y-92789206D01*
X133793998Y-92899520D01*
X133757688Y-93019218D01*
X133745428Y-93143700D01*
X100430557Y-93143700D01*
X100430072Y-80518000D01*
X114169928Y-80518000D01*
X114169928Y-82042000D01*
X114182188Y-82166482D01*
X114218498Y-82286180D01*
X114277463Y-82396494D01*
X114356815Y-82493185D01*
X114453506Y-82572537D01*
X114563820Y-82631502D01*
X114683518Y-82667812D01*
X114808000Y-82680072D01*
X116332000Y-82680072D01*
X116456482Y-82667812D01*
X116576180Y-82631502D01*
X116686494Y-82572537D01*
X116783185Y-82493185D01*
X116862537Y-82396494D01*
X116921502Y-82286180D01*
X116957812Y-82166482D01*
X116966080Y-82082535D01*
X117024880Y-82170535D01*
X117219465Y-82365120D01*
X117448273Y-82518005D01*
X117702510Y-82623314D01*
X117972408Y-82677000D01*
X118247592Y-82677000D01*
X118517490Y-82623314D01*
X118771727Y-82518005D01*
X119000535Y-82365120D01*
X119195120Y-82170535D01*
X119348005Y-81941727D01*
X119380000Y-81864485D01*
X119411995Y-81941727D01*
X119564880Y-82170535D01*
X119759465Y-82365120D01*
X119988273Y-82518005D01*
X120242510Y-82623314D01*
X120512408Y-82677000D01*
X120787592Y-82677000D01*
X121057490Y-82623314D01*
X121311727Y-82518005D01*
X121540535Y-82365120D01*
X121660090Y-82245565D01*
X122404040Y-82245565D01*
X122471020Y-82485656D01*
X122720048Y-82602756D01*
X122987135Y-82669023D01*
X123262017Y-82681910D01*
X123534133Y-82640922D01*
X123793023Y-82547636D01*
X123908980Y-82485656D01*
X123975960Y-82245565D01*
X123190000Y-81459605D01*
X122404040Y-82245565D01*
X121660090Y-82245565D01*
X121735120Y-82170535D01*
X121888005Y-81941727D01*
X121917692Y-81870057D01*
X121922364Y-81883023D01*
X121984344Y-81998980D01*
X122224435Y-82065960D01*
X123010395Y-81280000D01*
X122224435Y-80494040D01*
X121984344Y-80561020D01*
X121920515Y-80696760D01*
X121888005Y-80618273D01*
X121735120Y-80389465D01*
X121660090Y-80314435D01*
X122404040Y-80314435D01*
X123190000Y-81100395D01*
X123975960Y-80314435D01*
X123908980Y-80074344D01*
X123659952Y-79957244D01*
X123392865Y-79890977D01*
X123117983Y-79878090D01*
X122845867Y-79919078D01*
X122586977Y-80012364D01*
X122471020Y-80074344D01*
X122404040Y-80314435D01*
X121660090Y-80314435D01*
X121540535Y-80194880D01*
X121311727Y-80041995D01*
X121057490Y-79936686D01*
X120787592Y-79883000D01*
X120512408Y-79883000D01*
X120242510Y-79936686D01*
X119988273Y-80041995D01*
X119759465Y-80194880D01*
X119564880Y-80389465D01*
X119411995Y-80618273D01*
X119380000Y-80695515D01*
X119348005Y-80618273D01*
X119195120Y-80389465D01*
X119000535Y-80194880D01*
X118771727Y-80041995D01*
X118517490Y-79936686D01*
X118247592Y-79883000D01*
X117972408Y-79883000D01*
X117702510Y-79936686D01*
X117448273Y-80041995D01*
X117219465Y-80194880D01*
X117024880Y-80389465D01*
X116966080Y-80477465D01*
X116957812Y-80393518D01*
X116921502Y-80273820D01*
X116862537Y-80163506D01*
X116783185Y-80066815D01*
X116686494Y-79987463D01*
X116576180Y-79928498D01*
X116456482Y-79892188D01*
X116332000Y-79879928D01*
X114808000Y-79879928D01*
X114683518Y-79892188D01*
X114563820Y-79928498D01*
X114453506Y-79987463D01*
X114356815Y-80066815D01*
X114277463Y-80163506D01*
X114218498Y-80273820D01*
X114182188Y-80393518D01*
X114169928Y-80518000D01*
X100430072Y-80518000D01*
X100429521Y-66148473D01*
X100453372Y-65905221D01*
X100708900Y-65905221D01*
X100708900Y-66325779D01*
X100790947Y-66738256D01*
X100951888Y-67126802D01*
X101185537Y-67476483D01*
X101482917Y-67773863D01*
X101832598Y-68007512D01*
X102221144Y-68168453D01*
X102633621Y-68250500D01*
X103054179Y-68250500D01*
X103466656Y-68168453D01*
X103855202Y-68007512D01*
X104204883Y-67773863D01*
X104502263Y-67476483D01*
X104735912Y-67126802D01*
X104896853Y-66738256D01*
X104978900Y-66325779D01*
X104978900Y-65905221D01*
X104978341Y-65902408D01*
X114173000Y-65902408D01*
X114173000Y-66177592D01*
X114226686Y-66447490D01*
X114331995Y-66701727D01*
X114484880Y-66930535D01*
X114679465Y-67125120D01*
X114908273Y-67278005D01*
X115162510Y-67383314D01*
X115432408Y-67437000D01*
X115707592Y-67437000D01*
X115977490Y-67383314D01*
X116231727Y-67278005D01*
X116460535Y-67125120D01*
X116580090Y-67005565D01*
X117324040Y-67005565D01*
X117391020Y-67245656D01*
X117640048Y-67362756D01*
X117907135Y-67429023D01*
X118182017Y-67441910D01*
X118454133Y-67400922D01*
X118713023Y-67307636D01*
X118828980Y-67245656D01*
X118895960Y-67005565D01*
X118110000Y-66219605D01*
X117324040Y-67005565D01*
X116580090Y-67005565D01*
X116655120Y-66930535D01*
X116808005Y-66701727D01*
X116837692Y-66630057D01*
X116842364Y-66643023D01*
X116904344Y-66758980D01*
X117144435Y-66825960D01*
X117930395Y-66040000D01*
X118289605Y-66040000D01*
X119075565Y-66825960D01*
X119315656Y-66758980D01*
X119379485Y-66623240D01*
X119411995Y-66701727D01*
X119564880Y-66930535D01*
X119759465Y-67125120D01*
X119988273Y-67278005D01*
X120242510Y-67383314D01*
X120512408Y-67437000D01*
X120787592Y-67437000D01*
X121057490Y-67383314D01*
X121311727Y-67278005D01*
X121540535Y-67125120D01*
X121735120Y-66930535D01*
X121888005Y-66701727D01*
X121920000Y-66624485D01*
X121951995Y-66701727D01*
X122104880Y-66930535D01*
X122299465Y-67125120D01*
X122528273Y-67278005D01*
X122782510Y-67383314D01*
X123052408Y-67437000D01*
X123327592Y-67437000D01*
X123481571Y-67406372D01*
X134042999Y-77967801D01*
X134043000Y-80062891D01*
X134011727Y-80041995D01*
X133757490Y-79936686D01*
X133487592Y-79883000D01*
X133212408Y-79883000D01*
X132942510Y-79936686D01*
X132688273Y-80041995D01*
X132459465Y-80194880D01*
X132264880Y-80389465D01*
X132111995Y-80618273D01*
X132080000Y-80695515D01*
X132048005Y-80618273D01*
X131895120Y-80389465D01*
X131700535Y-80194880D01*
X131471727Y-80041995D01*
X131217490Y-79936686D01*
X130947592Y-79883000D01*
X130672408Y-79883000D01*
X130402510Y-79936686D01*
X130148273Y-80041995D01*
X129919465Y-80194880D01*
X129724880Y-80389465D01*
X129571995Y-80618273D01*
X129540000Y-80695515D01*
X129508005Y-80618273D01*
X129355120Y-80389465D01*
X129160535Y-80194880D01*
X128931727Y-80041995D01*
X128677490Y-79936686D01*
X128407592Y-79883000D01*
X128132408Y-79883000D01*
X127862510Y-79936686D01*
X127608273Y-80041995D01*
X127379465Y-80194880D01*
X127184880Y-80389465D01*
X127031995Y-80618273D01*
X127000000Y-80695515D01*
X126968005Y-80618273D01*
X126815120Y-80389465D01*
X126620535Y-80194880D01*
X126391727Y-80041995D01*
X126137490Y-79936686D01*
X125867592Y-79883000D01*
X125592408Y-79883000D01*
X125322510Y-79936686D01*
X125068273Y-80041995D01*
X124839465Y-80194880D01*
X124644880Y-80389465D01*
X124491995Y-80618273D01*
X124462308Y-80689943D01*
X124457636Y-80676977D01*
X124395656Y-80561020D01*
X124155565Y-80494040D01*
X123369605Y-81280000D01*
X124155565Y-82065960D01*
X124395656Y-81998980D01*
X124459485Y-81863240D01*
X124491995Y-81941727D01*
X124644880Y-82170535D01*
X124839465Y-82365120D01*
X125068273Y-82518005D01*
X125322510Y-82623314D01*
X125592408Y-82677000D01*
X125867592Y-82677000D01*
X126021571Y-82646372D01*
X131262200Y-87887002D01*
X131285999Y-87916001D01*
X131314997Y-87939799D01*
X131401723Y-88010974D01*
X131533753Y-88081546D01*
X131677014Y-88125003D01*
X131788667Y-88136000D01*
X131788677Y-88136000D01*
X131826000Y-88139676D01*
X131863323Y-88136000D01*
X133837035Y-88136000D01*
X133921507Y-88339934D01*
X134144213Y-88673237D01*
X134427663Y-88956687D01*
X134760966Y-89179393D01*
X135131313Y-89332796D01*
X135524470Y-89411000D01*
X135925330Y-89411000D01*
X136318487Y-89332796D01*
X136522422Y-89248323D01*
X137733501Y-90459403D01*
X137733500Y-92543830D01*
X137647982Y-92517888D01*
X137523500Y-92505628D01*
X136923500Y-92505628D01*
X136799018Y-92517888D01*
X136679320Y-92554198D01*
X136588500Y-92602743D01*
X136497680Y-92554198D01*
X136377982Y-92517888D01*
X136253500Y-92505628D01*
X135653500Y-92505628D01*
X135529018Y-92517888D01*
X135409320Y-92554198D01*
X135318500Y-92602743D01*
X135227680Y-92554198D01*
X135107982Y-92517888D01*
X134983500Y-92505628D01*
X134969250Y-92508700D01*
X134810500Y-92667450D01*
X134810500Y-93991700D01*
X134830500Y-93991700D01*
X134830500Y-94245700D01*
X134810500Y-94245700D01*
X134810500Y-95569950D01*
X134969250Y-95728700D01*
X134983500Y-95731772D01*
X135107982Y-95719512D01*
X135227680Y-95683202D01*
X135318500Y-95634657D01*
X135409320Y-95683202D01*
X135529018Y-95719512D01*
X135653500Y-95731772D01*
X136253500Y-95731772D01*
X136377982Y-95719512D01*
X136497680Y-95683202D01*
X136588500Y-95634657D01*
X136679320Y-95683202D01*
X136799018Y-95719512D01*
X136923500Y-95731772D01*
X137523500Y-95731772D01*
X137647982Y-95719512D01*
X137767680Y-95683202D01*
X137858500Y-95634657D01*
X137949320Y-95683202D01*
X138069018Y-95719512D01*
X138193500Y-95731772D01*
X138793500Y-95731772D01*
X138917982Y-95719512D01*
X139037680Y-95683202D01*
X139128500Y-95634657D01*
X139219320Y-95683202D01*
X139339018Y-95719512D01*
X139463500Y-95731772D01*
X140063500Y-95731772D01*
X140187982Y-95719512D01*
X140307680Y-95683202D01*
X140398500Y-95634657D01*
X140489320Y-95683202D01*
X140609018Y-95719512D01*
X140733500Y-95731772D01*
X141333500Y-95731772D01*
X141457982Y-95719512D01*
X141577680Y-95683202D01*
X141668500Y-95634657D01*
X141759320Y-95683202D01*
X141879018Y-95719512D01*
X142003500Y-95731772D01*
X142603500Y-95731772D01*
X142727982Y-95719512D01*
X142847680Y-95683202D01*
X142938500Y-95634657D01*
X143029320Y-95683202D01*
X143149018Y-95719512D01*
X143273500Y-95731772D01*
X143873500Y-95731772D01*
X143997982Y-95719512D01*
X144117680Y-95683202D01*
X144208500Y-95634657D01*
X144299320Y-95683202D01*
X144419018Y-95719512D01*
X144543500Y-95731772D01*
X144557750Y-95728700D01*
X144716500Y-95569950D01*
X144716500Y-94245700D01*
X144696500Y-94245700D01*
X144696500Y-93991700D01*
X144716500Y-93991700D01*
X144716500Y-92667450D01*
X144970500Y-92667450D01*
X144970500Y-93991700D01*
X145986500Y-93991700D01*
X145986500Y-92667450D01*
X145827750Y-92508700D01*
X145813500Y-92505628D01*
X145689018Y-92517888D01*
X145569320Y-92554198D01*
X145478500Y-92602743D01*
X145387680Y-92554198D01*
X145267982Y-92517888D01*
X145143500Y-92505628D01*
X145129250Y-92508700D01*
X144970500Y-92667450D01*
X144716500Y-92667450D01*
X144557750Y-92508700D01*
X144543500Y-92505628D01*
X144419018Y-92517888D01*
X144299320Y-92554198D01*
X144208500Y-92602743D01*
X144117680Y-92554198D01*
X143997982Y-92517888D01*
X143873500Y-92505628D01*
X143273500Y-92505628D01*
X143149018Y-92517888D01*
X143079392Y-92539009D01*
X146471616Y-89146786D01*
X146507346Y-89135948D01*
X146639376Y-89065376D01*
X146726102Y-88994201D01*
X146967548Y-88752755D01*
X146971950Y-88749142D01*
X146971950Y-88888789D01*
X147011724Y-89088748D01*
X147089745Y-89277106D01*
X147203013Y-89446624D01*
X147347176Y-89590787D01*
X147516694Y-89704055D01*
X147705052Y-89782076D01*
X147905011Y-89821850D01*
X148108889Y-89821850D01*
X148308848Y-89782076D01*
X148497206Y-89704055D01*
X148620606Y-89621602D01*
X148671048Y-89621602D01*
X148512300Y-89780350D01*
X148509228Y-89982100D01*
X148521488Y-90106582D01*
X148557798Y-90226280D01*
X148616763Y-90336594D01*
X148696115Y-90433285D01*
X148792806Y-90512637D01*
X148903120Y-90571602D01*
X149022818Y-90607912D01*
X149147300Y-90620172D01*
X149561550Y-90617100D01*
X149720300Y-90458350D01*
X149720300Y-89621600D01*
X149974300Y-89621600D01*
X149974300Y-90458350D01*
X150133050Y-90617100D01*
X150547300Y-90620172D01*
X150671782Y-90607912D01*
X150791480Y-90571602D01*
X150901794Y-90512637D01*
X150998485Y-90433285D01*
X151077837Y-90336594D01*
X151136802Y-90226280D01*
X151173112Y-90106582D01*
X151185372Y-89982100D01*
X151184406Y-89918600D01*
X151950928Y-89918600D01*
X151963188Y-90043082D01*
X151999498Y-90162780D01*
X152058463Y-90273094D01*
X152137815Y-90369785D01*
X152234506Y-90449137D01*
X152344820Y-90508102D01*
X152464518Y-90544412D01*
X152589000Y-90556672D01*
X153003250Y-90553600D01*
X153162000Y-90394850D01*
X153162000Y-89558100D01*
X153416000Y-89558100D01*
X153416000Y-90394850D01*
X153574750Y-90553600D01*
X153989000Y-90556672D01*
X154113482Y-90544412D01*
X154233180Y-90508102D01*
X154343494Y-90449137D01*
X154440185Y-90369785D01*
X154519537Y-90273094D01*
X154578502Y-90162780D01*
X154614812Y-90043082D01*
X154627072Y-89918600D01*
X154624000Y-89716850D01*
X154465250Y-89558100D01*
X153416000Y-89558100D01*
X153162000Y-89558100D01*
X152112750Y-89558100D01*
X151954000Y-89716850D01*
X151950928Y-89918600D01*
X151184406Y-89918600D01*
X151182300Y-89780350D01*
X151023550Y-89621600D01*
X149974300Y-89621600D01*
X149720300Y-89621600D01*
X149700300Y-89621600D01*
X149700300Y-89367600D01*
X149720300Y-89367600D01*
X149720300Y-89347600D01*
X149974300Y-89347600D01*
X149974300Y-89367600D01*
X151023550Y-89367600D01*
X151182300Y-89208850D01*
X151185372Y-89007100D01*
X151173112Y-88882618D01*
X151136802Y-88762920D01*
X151077837Y-88652606D01*
X150998485Y-88555915D01*
X150920736Y-88492108D01*
X150927092Y-88486892D01*
X151015145Y-88379600D01*
X152173269Y-88379600D01*
X152209208Y-88423392D01*
X152215564Y-88428608D01*
X152137815Y-88492415D01*
X152058463Y-88589106D01*
X151999498Y-88699420D01*
X151963188Y-88819118D01*
X151950928Y-88943600D01*
X151954000Y-89145350D01*
X152112750Y-89304100D01*
X153162000Y-89304100D01*
X153162000Y-89284100D01*
X153416000Y-89284100D01*
X153416000Y-89304100D01*
X154465250Y-89304100D01*
X154624000Y-89145350D01*
X154627072Y-88943600D01*
X154614812Y-88819118D01*
X154578502Y-88699420D01*
X154519537Y-88589106D01*
X154440185Y-88492415D01*
X154362436Y-88428608D01*
X154368792Y-88423392D01*
X154478458Y-88289764D01*
X154559947Y-88137309D01*
X154610128Y-87971885D01*
X154627072Y-87799850D01*
X154627072Y-87312350D01*
X154610128Y-87140315D01*
X154559947Y-86974891D01*
X154478458Y-86822436D01*
X154412655Y-86742255D01*
X154456037Y-86689394D01*
X154515002Y-86579080D01*
X154551312Y-86459382D01*
X154563572Y-86334900D01*
X154560500Y-86133150D01*
X154401750Y-85974400D01*
X153352500Y-85974400D01*
X153352500Y-85994400D01*
X153098500Y-85994400D01*
X153098500Y-85974400D01*
X152049250Y-85974400D01*
X151890500Y-86133150D01*
X151887428Y-86334900D01*
X151899688Y-86459382D01*
X151935998Y-86579080D01*
X151994963Y-86689394D01*
X152074315Y-86786085D01*
X152107216Y-86813086D01*
X152099542Y-86822436D01*
X152079677Y-86859600D01*
X151158566Y-86859600D01*
X151192137Y-86818694D01*
X151251102Y-86708380D01*
X151287412Y-86588682D01*
X151299672Y-86464200D01*
X151296600Y-86262450D01*
X151137850Y-86103700D01*
X150088600Y-86103700D01*
X150088600Y-86123700D01*
X149834600Y-86123700D01*
X149834600Y-86103700D01*
X149814600Y-86103700D01*
X149814600Y-85849700D01*
X149834600Y-85849700D01*
X149834600Y-85829700D01*
X150088600Y-85829700D01*
X150088600Y-85849700D01*
X151137850Y-85849700D01*
X151296600Y-85690950D01*
X151299672Y-85489200D01*
X151287412Y-85364718D01*
X151251102Y-85245020D01*
X151192137Y-85134706D01*
X151112785Y-85038015D01*
X151035036Y-84974208D01*
X151041392Y-84968992D01*
X151129445Y-84861700D01*
X152131603Y-84861700D01*
X152074315Y-84908715D01*
X151994963Y-85005406D01*
X151935998Y-85115720D01*
X151899688Y-85235418D01*
X151887428Y-85359900D01*
X151890500Y-85561650D01*
X152049250Y-85720400D01*
X153098500Y-85720400D01*
X153098500Y-85700400D01*
X153352500Y-85700400D01*
X153352500Y-85720400D01*
X154401750Y-85720400D01*
X154560500Y-85561650D01*
X154563572Y-85359900D01*
X154551312Y-85235418D01*
X154515002Y-85115720D01*
X154456037Y-85005406D01*
X154376685Y-84908715D01*
X154298936Y-84844908D01*
X154305292Y-84839692D01*
X154414958Y-84706064D01*
X154496447Y-84553609D01*
X154546628Y-84388185D01*
X154563572Y-84216150D01*
X154563572Y-83728650D01*
X154546628Y-83556615D01*
X154530771Y-83504340D01*
X164910400Y-83504340D01*
X164910400Y-83796860D01*
X164967468Y-84083758D01*
X165079410Y-84354011D01*
X165241925Y-84597232D01*
X165448768Y-84804075D01*
X165691989Y-84966590D01*
X165962242Y-85078532D01*
X166249140Y-85135600D01*
X166541660Y-85135600D01*
X166828558Y-85078532D01*
X167098811Y-84966590D01*
X167342032Y-84804075D01*
X167548875Y-84597232D01*
X167711390Y-84354011D01*
X167823332Y-84083758D01*
X167880400Y-83796860D01*
X167880400Y-83504340D01*
X167823332Y-83217442D01*
X167711390Y-82947189D01*
X167548875Y-82703968D01*
X167342032Y-82497125D01*
X167098811Y-82334610D01*
X166828558Y-82222668D01*
X166541660Y-82165600D01*
X166249140Y-82165600D01*
X165962242Y-82222668D01*
X165691989Y-82334610D01*
X165448768Y-82497125D01*
X165241925Y-82703968D01*
X165079410Y-82947189D01*
X164967468Y-83217442D01*
X164910400Y-83504340D01*
X154530771Y-83504340D01*
X154496447Y-83391191D01*
X154414958Y-83238736D01*
X154305292Y-83105108D01*
X154171664Y-82995442D01*
X154019209Y-82913953D01*
X153853785Y-82863772D01*
X153681750Y-82846828D01*
X152769250Y-82846828D01*
X152597215Y-82863772D01*
X152431791Y-82913953D01*
X152279336Y-82995442D01*
X152145708Y-83105108D01*
X152036042Y-83238736D01*
X151981007Y-83341700D01*
X151129445Y-83341700D01*
X151041392Y-83234408D01*
X150907764Y-83124742D01*
X150755309Y-83043253D01*
X150721600Y-83033027D01*
X150721600Y-82622937D01*
X150722510Y-82623314D01*
X150992408Y-82677000D01*
X151267592Y-82677000D01*
X151537490Y-82623314D01*
X151791727Y-82518005D01*
X152020535Y-82365120D01*
X152215120Y-82170535D01*
X152368005Y-81941727D01*
X152473314Y-81687490D01*
X152527000Y-81417592D01*
X152527000Y-81142408D01*
X152473314Y-80872510D01*
X152368005Y-80618273D01*
X152291878Y-80504340D01*
X164910400Y-80504340D01*
X164910400Y-80796860D01*
X164967468Y-81083758D01*
X165079410Y-81354011D01*
X165241925Y-81597232D01*
X165448768Y-81804075D01*
X165691989Y-81966590D01*
X165962242Y-82078532D01*
X166249140Y-82135600D01*
X166541660Y-82135600D01*
X166828558Y-82078532D01*
X167098811Y-81966590D01*
X167342032Y-81804075D01*
X167548875Y-81597232D01*
X167711390Y-81354011D01*
X167823332Y-81083758D01*
X167880400Y-80796860D01*
X167880400Y-80504340D01*
X167823332Y-80217442D01*
X167711390Y-79947189D01*
X167548875Y-79703968D01*
X167342032Y-79497125D01*
X167098811Y-79334610D01*
X166828558Y-79222668D01*
X166541660Y-79165600D01*
X166249140Y-79165600D01*
X165962242Y-79222668D01*
X165691989Y-79334610D01*
X165448768Y-79497125D01*
X165241925Y-79703968D01*
X165079410Y-79947189D01*
X164967468Y-80217442D01*
X164910400Y-80504340D01*
X152291878Y-80504340D01*
X152215120Y-80389465D01*
X152020535Y-80194880D01*
X151791727Y-80041995D01*
X151537490Y-79936686D01*
X151267592Y-79883000D01*
X150992408Y-79883000D01*
X150722510Y-79936686D01*
X150721600Y-79937063D01*
X150721600Y-77504340D01*
X164910400Y-77504340D01*
X164910400Y-77796860D01*
X164967468Y-78083758D01*
X165079410Y-78354011D01*
X165241925Y-78597232D01*
X165448768Y-78804075D01*
X165691989Y-78966590D01*
X165962242Y-79078532D01*
X166249140Y-79135600D01*
X166541660Y-79135600D01*
X166828558Y-79078532D01*
X167098811Y-78966590D01*
X167342032Y-78804075D01*
X167548875Y-78597232D01*
X167711390Y-78354011D01*
X167823332Y-78083758D01*
X167880400Y-77796860D01*
X167880400Y-77504340D01*
X167823332Y-77217442D01*
X167711390Y-76947189D01*
X167548875Y-76703968D01*
X167342032Y-76497125D01*
X167098811Y-76334610D01*
X166828558Y-76222668D01*
X166541660Y-76165600D01*
X166249140Y-76165600D01*
X165962242Y-76222668D01*
X165691989Y-76334610D01*
X165448768Y-76497125D01*
X165241925Y-76703968D01*
X165079410Y-76947189D01*
X164967468Y-77217442D01*
X164910400Y-77504340D01*
X150721600Y-77504340D01*
X150721600Y-74504340D01*
X164910400Y-74504340D01*
X164910400Y-74796860D01*
X164967468Y-75083758D01*
X165079410Y-75354011D01*
X165241925Y-75597232D01*
X165448768Y-75804075D01*
X165691989Y-75966590D01*
X165962242Y-76078532D01*
X166249140Y-76135600D01*
X166541660Y-76135600D01*
X166828558Y-76078532D01*
X167098811Y-75966590D01*
X167342032Y-75804075D01*
X167548875Y-75597232D01*
X167711390Y-75354011D01*
X167823332Y-75083758D01*
X167880400Y-74796860D01*
X167880400Y-74504340D01*
X167823332Y-74217442D01*
X167711390Y-73947189D01*
X167548875Y-73703968D01*
X167342032Y-73497125D01*
X167098811Y-73334610D01*
X166828558Y-73222668D01*
X166541660Y-73165600D01*
X166249140Y-73165600D01*
X165962242Y-73222668D01*
X165691989Y-73334610D01*
X165448768Y-73497125D01*
X165241925Y-73703968D01*
X165079410Y-73947189D01*
X164967468Y-74217442D01*
X164910400Y-74504340D01*
X150721600Y-74504340D01*
X150721600Y-67448922D01*
X150725276Y-67411599D01*
X150722489Y-67383305D01*
X150722510Y-67383314D01*
X150992408Y-67437000D01*
X151267592Y-67437000D01*
X151537490Y-67383314D01*
X151791727Y-67278005D01*
X152020535Y-67125120D01*
X152215120Y-66930535D01*
X152368005Y-66701727D01*
X152473314Y-66447490D01*
X152527000Y-66177592D01*
X152527000Y-65905221D01*
X164552500Y-65905221D01*
X164552500Y-66325779D01*
X164634547Y-66738256D01*
X164795488Y-67126802D01*
X165029137Y-67476483D01*
X165326517Y-67773863D01*
X165676198Y-68007512D01*
X166064744Y-68168453D01*
X166477221Y-68250500D01*
X166897779Y-68250500D01*
X167310256Y-68168453D01*
X167698802Y-68007512D01*
X168048483Y-67773863D01*
X168345863Y-67476483D01*
X168579512Y-67126802D01*
X168740453Y-66738256D01*
X168822500Y-66325779D01*
X168822500Y-65905221D01*
X168740453Y-65492744D01*
X168579512Y-65104198D01*
X168345863Y-64754517D01*
X168048483Y-64457137D01*
X167698802Y-64223488D01*
X167310256Y-64062547D01*
X166897779Y-63980500D01*
X166477221Y-63980500D01*
X166064744Y-64062547D01*
X165676198Y-64223488D01*
X165326517Y-64457137D01*
X165029137Y-64754517D01*
X164795488Y-65104198D01*
X164634547Y-65492744D01*
X164552500Y-65905221D01*
X152527000Y-65905221D01*
X152527000Y-65902408D01*
X152473314Y-65632510D01*
X152368005Y-65378273D01*
X152215120Y-65149465D01*
X152020535Y-64954880D01*
X151791727Y-64801995D01*
X151537490Y-64696686D01*
X151267592Y-64643000D01*
X150992408Y-64643000D01*
X150722510Y-64696686D01*
X150468273Y-64801995D01*
X150239465Y-64954880D01*
X150044880Y-65149465D01*
X149891995Y-65378273D01*
X149860000Y-65455515D01*
X149828005Y-65378273D01*
X149675120Y-65149465D01*
X149480535Y-64954880D01*
X149251727Y-64801995D01*
X148997490Y-64696686D01*
X148727592Y-64643000D01*
X148452408Y-64643000D01*
X148182510Y-64696686D01*
X147928273Y-64801995D01*
X147699465Y-64954880D01*
X147504880Y-65149465D01*
X147351995Y-65378273D01*
X147320000Y-65455515D01*
X147288005Y-65378273D01*
X147135120Y-65149465D01*
X146940535Y-64954880D01*
X146711727Y-64801995D01*
X146457490Y-64696686D01*
X146187592Y-64643000D01*
X145912408Y-64643000D01*
X145642510Y-64696686D01*
X145388273Y-64801995D01*
X145159465Y-64954880D01*
X144964880Y-65149465D01*
X144811995Y-65378273D01*
X144780000Y-65455515D01*
X144748005Y-65378273D01*
X144595120Y-65149465D01*
X144400535Y-64954880D01*
X144171727Y-64801995D01*
X143917490Y-64696686D01*
X143647592Y-64643000D01*
X143372408Y-64643000D01*
X143102510Y-64696686D01*
X142848273Y-64801995D01*
X142619465Y-64954880D01*
X142424880Y-65149465D01*
X142271995Y-65378273D01*
X142240000Y-65455515D01*
X142208005Y-65378273D01*
X142055120Y-65149465D01*
X141860535Y-64954880D01*
X141631727Y-64801995D01*
X141377490Y-64696686D01*
X141107592Y-64643000D01*
X140832408Y-64643000D01*
X140562510Y-64696686D01*
X140308273Y-64801995D01*
X140079465Y-64954880D01*
X139884880Y-65149465D01*
X139731995Y-65378273D01*
X139700000Y-65455515D01*
X139668005Y-65378273D01*
X139515120Y-65149465D01*
X139320535Y-64954880D01*
X139091727Y-64801995D01*
X138837490Y-64696686D01*
X138567592Y-64643000D01*
X138292408Y-64643000D01*
X138022510Y-64696686D01*
X137768273Y-64801995D01*
X137539465Y-64954880D01*
X137344880Y-65149465D01*
X137191995Y-65378273D01*
X137160000Y-65455515D01*
X137128005Y-65378273D01*
X136975120Y-65149465D01*
X136780535Y-64954880D01*
X136551727Y-64801995D01*
X136297490Y-64696686D01*
X136027592Y-64643000D01*
X135752408Y-64643000D01*
X135482510Y-64696686D01*
X135228273Y-64801995D01*
X134999465Y-64954880D01*
X134804880Y-65149465D01*
X134651995Y-65378273D01*
X134620000Y-65455515D01*
X134588005Y-65378273D01*
X134435120Y-65149465D01*
X134240535Y-64954880D01*
X134011727Y-64801995D01*
X133757490Y-64696686D01*
X133487592Y-64643000D01*
X133212408Y-64643000D01*
X132942510Y-64696686D01*
X132688273Y-64801995D01*
X132459465Y-64954880D01*
X132264880Y-65149465D01*
X132111995Y-65378273D01*
X132080000Y-65455515D01*
X132048005Y-65378273D01*
X131895120Y-65149465D01*
X131700535Y-64954880D01*
X131471727Y-64801995D01*
X131217490Y-64696686D01*
X130947592Y-64643000D01*
X130672408Y-64643000D01*
X130402510Y-64696686D01*
X130148273Y-64801995D01*
X129919465Y-64954880D01*
X129724880Y-65149465D01*
X129571995Y-65378273D01*
X129540000Y-65455515D01*
X129508005Y-65378273D01*
X129355120Y-65149465D01*
X129160535Y-64954880D01*
X128931727Y-64801995D01*
X128677490Y-64696686D01*
X128407592Y-64643000D01*
X128132408Y-64643000D01*
X127862510Y-64696686D01*
X127608273Y-64801995D01*
X127379465Y-64954880D01*
X127184880Y-65149465D01*
X127031995Y-65378273D01*
X127000000Y-65455515D01*
X126968005Y-65378273D01*
X126815120Y-65149465D01*
X126620535Y-64954880D01*
X126391727Y-64801995D01*
X126137490Y-64696686D01*
X125867592Y-64643000D01*
X125592408Y-64643000D01*
X125322510Y-64696686D01*
X125068273Y-64801995D01*
X124839465Y-64954880D01*
X124644880Y-65149465D01*
X124491995Y-65378273D01*
X124460000Y-65455515D01*
X124428005Y-65378273D01*
X124275120Y-65149465D01*
X124080535Y-64954880D01*
X123851727Y-64801995D01*
X123597490Y-64696686D01*
X123327592Y-64643000D01*
X123052408Y-64643000D01*
X122782510Y-64696686D01*
X122528273Y-64801995D01*
X122299465Y-64954880D01*
X122104880Y-65149465D01*
X121951995Y-65378273D01*
X121920000Y-65455515D01*
X121888005Y-65378273D01*
X121735120Y-65149465D01*
X121540535Y-64954880D01*
X121311727Y-64801995D01*
X121057490Y-64696686D01*
X120787592Y-64643000D01*
X120512408Y-64643000D01*
X120242510Y-64696686D01*
X119988273Y-64801995D01*
X119759465Y-64954880D01*
X119564880Y-65149465D01*
X119411995Y-65378273D01*
X119382308Y-65449943D01*
X119377636Y-65436977D01*
X119315656Y-65321020D01*
X119075565Y-65254040D01*
X118289605Y-66040000D01*
X117930395Y-66040000D01*
X117144435Y-65254040D01*
X116904344Y-65321020D01*
X116840515Y-65456760D01*
X116808005Y-65378273D01*
X116655120Y-65149465D01*
X116580090Y-65074435D01*
X117324040Y-65074435D01*
X118110000Y-65860395D01*
X118895960Y-65074435D01*
X118828980Y-64834344D01*
X118579952Y-64717244D01*
X118312865Y-64650977D01*
X118037983Y-64638090D01*
X117765867Y-64679078D01*
X117506977Y-64772364D01*
X117391020Y-64834344D01*
X117324040Y-65074435D01*
X116580090Y-65074435D01*
X116460535Y-64954880D01*
X116231727Y-64801995D01*
X115977490Y-64696686D01*
X115707592Y-64643000D01*
X115432408Y-64643000D01*
X115162510Y-64696686D01*
X114908273Y-64801995D01*
X114679465Y-64954880D01*
X114484880Y-65149465D01*
X114331995Y-65378273D01*
X114226686Y-65632510D01*
X114173000Y-65902408D01*
X104978341Y-65902408D01*
X104896853Y-65492744D01*
X104735912Y-65104198D01*
X104502263Y-64754517D01*
X104204883Y-64457137D01*
X103855202Y-64223488D01*
X103466656Y-64062547D01*
X103054179Y-63980500D01*
X102633621Y-63980500D01*
X102221144Y-64062547D01*
X101832598Y-64223488D01*
X101482917Y-64457137D01*
X101185537Y-64754517D01*
X100951888Y-65104198D01*
X100790947Y-65492744D01*
X100708900Y-65905221D01*
X100453372Y-65905221D01*
X100478620Y-65647724D01*
X100614674Y-65197092D01*
X100835666Y-64781466D01*
X101133176Y-64416684D01*
X101495874Y-64116633D01*
X101909945Y-63892746D01*
X102359621Y-63753548D01*
X102853427Y-63701647D01*
X102909364Y-63702376D01*
G37*
X102909364Y-63702376D02*
X102913520Y-63702787D01*
X167020474Y-63728170D01*
X167467546Y-63832729D01*
X167898689Y-64027974D01*
X168283691Y-64303237D01*
X168607898Y-64648042D01*
X168858961Y-65049256D01*
X169027309Y-65491586D01*
X169108984Y-65972618D01*
X169113600Y-66248744D01*
X169113629Y-70629817D01*
X168956971Y-70525141D01*
X168725845Y-70429405D01*
X168480484Y-70380600D01*
X168230316Y-70380600D01*
X167984955Y-70429405D01*
X167753829Y-70525141D01*
X167545822Y-70664127D01*
X167368927Y-70841022D01*
X167229941Y-71049029D01*
X167134205Y-71280155D01*
X167085400Y-71525516D01*
X167085400Y-71775684D01*
X167134205Y-72021045D01*
X167229941Y-72252171D01*
X167368927Y-72460178D01*
X167545822Y-72637073D01*
X167753829Y-72776059D01*
X167984955Y-72871795D01*
X168230316Y-72920600D01*
X168480484Y-72920600D01*
X168725845Y-72871795D01*
X168956971Y-72776059D01*
X169113643Y-72671374D01*
X169113729Y-85629883D01*
X168956971Y-85525141D01*
X168725845Y-85429405D01*
X168480484Y-85380600D01*
X168230316Y-85380600D01*
X167984955Y-85429405D01*
X167753829Y-85525141D01*
X167545822Y-85664127D01*
X167368927Y-85841022D01*
X167229941Y-86049029D01*
X167134205Y-86280155D01*
X167085400Y-86525516D01*
X167085400Y-86775684D01*
X167134205Y-87021045D01*
X167229941Y-87252171D01*
X167368927Y-87460178D01*
X167545822Y-87637073D01*
X167753829Y-87776059D01*
X167984955Y-87871795D01*
X168230316Y-87920600D01*
X168480484Y-87920600D01*
X168725845Y-87871795D01*
X168956971Y-87776059D01*
X169113742Y-87671308D01*
X169113753Y-89375100D01*
X168956971Y-89270341D01*
X168725845Y-89174605D01*
X168480484Y-89125800D01*
X168230316Y-89125800D01*
X167984955Y-89174605D01*
X167753829Y-89270341D01*
X167545822Y-89409327D01*
X167368927Y-89586222D01*
X167229941Y-89794229D01*
X167134205Y-90025355D01*
X167085400Y-90270716D01*
X167085400Y-90520884D01*
X167134205Y-90766245D01*
X167229941Y-90997371D01*
X167368927Y-91205378D01*
X167545822Y-91382273D01*
X167753829Y-91521259D01*
X167984955Y-91616995D01*
X168230316Y-91665800D01*
X168480484Y-91665800D01*
X168725845Y-91616995D01*
X168956971Y-91521259D01*
X169113767Y-91416491D01*
X169113853Y-104375166D01*
X168956971Y-104270341D01*
X168725845Y-104174605D01*
X168480484Y-104125800D01*
X168230316Y-104125800D01*
X167984955Y-104174605D01*
X167753829Y-104270341D01*
X167545822Y-104409327D01*
X167368927Y-104586222D01*
X167229941Y-104794229D01*
X167134205Y-105025355D01*
X167085400Y-105270716D01*
X167085400Y-105520884D01*
X167134205Y-105766245D01*
X167229941Y-105997371D01*
X167368927Y-106205378D01*
X167545822Y-106382273D01*
X167753829Y-106521259D01*
X167984955Y-106616995D01*
X168230316Y-106665800D01*
X168480484Y-106665800D01*
X168725845Y-106616995D01*
X168956971Y-106521259D01*
X169113866Y-106416425D01*
X169113888Y-109651938D01*
X169113887Y-109651946D01*
X169113888Y-109652054D01*
X169113888Y-109684191D01*
X169114348Y-109688865D01*
X169121558Y-110195378D01*
X169036918Y-110657242D01*
X168864179Y-111093875D01*
X168609923Y-111488637D01*
X168283834Y-111826495D01*
X167898328Y-112094583D01*
X167468095Y-112282685D01*
X167009116Y-112383729D01*
X166489659Y-112395398D01*
X103144878Y-112370009D01*
X103134543Y-112368827D01*
X103125328Y-112368743D01*
X102592702Y-112367573D01*
X102133894Y-112275679D01*
X101701677Y-112096419D01*
X101312510Y-111836624D01*
X100981216Y-111506186D01*
X100720413Y-111117692D01*
X100540035Y-110685938D01*
X100443881Y-110212227D01*
X100431199Y-109965061D01*
X100431191Y-109733621D01*
X100708900Y-109733621D01*
X100708900Y-110154179D01*
X100790947Y-110566656D01*
X100951888Y-110955202D01*
X101185537Y-111304883D01*
X101482917Y-111602263D01*
X101832598Y-111835912D01*
X102221144Y-111996853D01*
X102633621Y-112078900D01*
X103054179Y-112078900D01*
X103466656Y-111996853D01*
X103855202Y-111835912D01*
X104204883Y-111602263D01*
X104502263Y-111304883D01*
X104735912Y-110955202D01*
X104896853Y-110566656D01*
X104978900Y-110154179D01*
X104978900Y-109733621D01*
X104896853Y-109321144D01*
X104735912Y-108932598D01*
X104502263Y-108582917D01*
X104263996Y-108344650D01*
X131210728Y-108344650D01*
X131210728Y-109257150D01*
X131227672Y-109429185D01*
X131277853Y-109594609D01*
X131359342Y-109747064D01*
X131469008Y-109880692D01*
X131602636Y-109990358D01*
X131755091Y-110071847D01*
X131920515Y-110122028D01*
X132092550Y-110138972D01*
X132580050Y-110138972D01*
X132597820Y-110137222D01*
X133900596Y-111439999D01*
X133900607Y-111440008D01*
X134153596Y-111692997D01*
X134177399Y-111722001D01*
X134293124Y-111816974D01*
X134415382Y-111882323D01*
X134425153Y-111887546D01*
X134568414Y-111931003D01*
X134717400Y-111945677D01*
X134754733Y-111942000D01*
X136470254Y-111942000D01*
X136520763Y-112036494D01*
X136600115Y-112133185D01*
X136696806Y-112212537D01*
X136807120Y-112271502D01*
X136926818Y-112307812D01*
X137051300Y-112320072D01*
X137751300Y-112320072D01*
X137875782Y-112307812D01*
X137995480Y-112271502D01*
X138105794Y-112212537D01*
X138202485Y-112133185D01*
X138281837Y-112036494D01*
X138340802Y-111926180D01*
X138377112Y-111806482D01*
X138384389Y-111732600D01*
X141199027Y-111732600D01*
X141209253Y-111766309D01*
X141290742Y-111918764D01*
X141400408Y-112052392D01*
X141534036Y-112162058D01*
X141686491Y-112243547D01*
X141851915Y-112293728D01*
X142023950Y-112310672D01*
X142511450Y-112310672D01*
X142683485Y-112293728D01*
X142848909Y-112243547D01*
X143001364Y-112162058D01*
X143134992Y-112052392D01*
X143205200Y-111966844D01*
X143275408Y-112052392D01*
X143409036Y-112162058D01*
X143561491Y-112243547D01*
X143726915Y-112293728D01*
X143898950Y-112310672D01*
X144386450Y-112310672D01*
X144558485Y-112293728D01*
X144723909Y-112243547D01*
X144876364Y-112162058D01*
X145009992Y-112052392D01*
X145119658Y-111918764D01*
X145201147Y-111766309D01*
X145251328Y-111600885D01*
X145268272Y-111428850D01*
X145268272Y-110516350D01*
X145251328Y-110344315D01*
X145201147Y-110178891D01*
X145138261Y-110061240D01*
X146484680Y-108714822D01*
X146502450Y-108716572D01*
X146989950Y-108716572D01*
X147161985Y-108699628D01*
X147327409Y-108649447D01*
X147479864Y-108567958D01*
X147613492Y-108458292D01*
X147723158Y-108324664D01*
X147804647Y-108172209D01*
X147854828Y-108006785D01*
X147871772Y-107834750D01*
X147871772Y-106922250D01*
X147854828Y-106750215D01*
X147804647Y-106584791D01*
X147723158Y-106432336D01*
X147613492Y-106298708D01*
X147506200Y-106210655D01*
X147506200Y-104188723D01*
X147509876Y-104151400D01*
X147506200Y-104114077D01*
X147506200Y-104114067D01*
X147495203Y-104002414D01*
X147451746Y-103859153D01*
X147425979Y-103810947D01*
X147381174Y-103727123D01*
X147309999Y-103640397D01*
X147286201Y-103611399D01*
X147257202Y-103587600D01*
X147051572Y-103381970D01*
X147051572Y-103244574D01*
X148722400Y-104915402D01*
X148746199Y-104944401D01*
X148861924Y-105039374D01*
X148993953Y-105109946D01*
X149137214Y-105153403D01*
X149248867Y-105164400D01*
X149248875Y-105164400D01*
X149286200Y-105168076D01*
X149323525Y-105164400D01*
X150952755Y-105164400D01*
X151040808Y-105271692D01*
X151174436Y-105381358D01*
X151326891Y-105462847D01*
X151360600Y-105473073D01*
X151360601Y-106415997D01*
X151305222Y-106471377D01*
X151101287Y-106386904D01*
X150708130Y-106308700D01*
X150307270Y-106308700D01*
X149914113Y-106386904D01*
X149543766Y-106540307D01*
X149210463Y-106763013D01*
X148927013Y-107046463D01*
X148704307Y-107379766D01*
X148550904Y-107750113D01*
X148472700Y-108143270D01*
X148472700Y-108544130D01*
X148550904Y-108937287D01*
X148704307Y-109307634D01*
X148927013Y-109640937D01*
X149210463Y-109924387D01*
X149543766Y-110147093D01*
X149914113Y-110300496D01*
X150307270Y-110378700D01*
X150708130Y-110378700D01*
X151101287Y-110300496D01*
X151305222Y-110216023D01*
X152115601Y-111026403D01*
X152139399Y-111055401D01*
X152168397Y-111079199D01*
X152255124Y-111150374D01*
X152387153Y-111220946D01*
X152530414Y-111264403D01*
X152679400Y-111279077D01*
X152716733Y-111275400D01*
X158238478Y-111275400D01*
X158275800Y-111279076D01*
X158313122Y-111275400D01*
X158313133Y-111275400D01*
X158424786Y-111264403D01*
X158568047Y-111220946D01*
X158700076Y-111150374D01*
X158815801Y-111055401D01*
X158839604Y-111026397D01*
X160132380Y-109733621D01*
X164552500Y-109733621D01*
X164552500Y-110154179D01*
X164634547Y-110566656D01*
X164795488Y-110955202D01*
X165029137Y-111304883D01*
X165326517Y-111602263D01*
X165676198Y-111835912D01*
X166064744Y-111996853D01*
X166477221Y-112078900D01*
X166897779Y-112078900D01*
X167310256Y-111996853D01*
X167698802Y-111835912D01*
X168048483Y-111602263D01*
X168345863Y-111304883D01*
X168579512Y-110955202D01*
X168740453Y-110566656D01*
X168822500Y-110154179D01*
X168822500Y-109733621D01*
X168740453Y-109321144D01*
X168579512Y-108932598D01*
X168345863Y-108582917D01*
X168048483Y-108285537D01*
X167698802Y-108051888D01*
X167310256Y-107890947D01*
X166897779Y-107808900D01*
X166477221Y-107808900D01*
X166064744Y-107890947D01*
X165676198Y-108051888D01*
X165326517Y-108285537D01*
X165029137Y-108582917D01*
X164795488Y-108932598D01*
X164634547Y-109321144D01*
X164552500Y-109733621D01*
X160132380Y-109733621D01*
X166028993Y-103837010D01*
X166249140Y-103880800D01*
X166541660Y-103880800D01*
X166828558Y-103823732D01*
X167098811Y-103711790D01*
X167342032Y-103549275D01*
X167548875Y-103342432D01*
X167711390Y-103099211D01*
X167823332Y-102828958D01*
X167880400Y-102542060D01*
X167880400Y-102249540D01*
X167823332Y-101962642D01*
X167711390Y-101692389D01*
X167548875Y-101449168D01*
X167342032Y-101242325D01*
X167098811Y-101079810D01*
X166828558Y-100967868D01*
X166541660Y-100910800D01*
X166249140Y-100910800D01*
X165962242Y-100967868D01*
X165691989Y-101079810D01*
X165448768Y-101242325D01*
X165241925Y-101449168D01*
X165079410Y-101692389D01*
X164967468Y-101962642D01*
X164910400Y-102249540D01*
X164910400Y-102542060D01*
X164954190Y-102762207D01*
X157960999Y-109755400D01*
X157219024Y-109755400D01*
X157269987Y-109704437D01*
X157492693Y-109371134D01*
X157646096Y-109000787D01*
X157724300Y-108607630D01*
X157724300Y-108206770D01*
X157646096Y-107813613D01*
X157492693Y-107443266D01*
X157269987Y-107109963D01*
X156986537Y-106826513D01*
X156653234Y-106603807D01*
X156449300Y-106519335D01*
X156449300Y-105315264D01*
X156502392Y-105271692D01*
X156612058Y-105138064D01*
X156630383Y-105103780D01*
X156750876Y-105039374D01*
X156866601Y-104944401D01*
X156890404Y-104915397D01*
X161650002Y-100155800D01*
X165117222Y-100155800D01*
X165241925Y-100342432D01*
X165448768Y-100549275D01*
X165691989Y-100711790D01*
X165962242Y-100823732D01*
X166249140Y-100880800D01*
X166541660Y-100880800D01*
X166828558Y-100823732D01*
X167098811Y-100711790D01*
X167342032Y-100549275D01*
X167548875Y-100342432D01*
X167711390Y-100099211D01*
X167823332Y-99828958D01*
X167880400Y-99542060D01*
X167880400Y-99249540D01*
X167823332Y-98962642D01*
X167711390Y-98692389D01*
X167548875Y-98449168D01*
X167342032Y-98242325D01*
X167098811Y-98079810D01*
X166828558Y-97967868D01*
X166541660Y-97910800D01*
X166249140Y-97910800D01*
X165962242Y-97967868D01*
X165691989Y-98079810D01*
X165448768Y-98242325D01*
X165241925Y-98449168D01*
X165117222Y-98635800D01*
X161372522Y-98635800D01*
X161335199Y-98632124D01*
X161297876Y-98635800D01*
X161297867Y-98635800D01*
X161186214Y-98646797D01*
X161047433Y-98688895D01*
X161042953Y-98690254D01*
X160910923Y-98760826D01*
X160843822Y-98815895D01*
X160795199Y-98855799D01*
X160771401Y-98884797D01*
X156747302Y-102908897D01*
X156760672Y-102773150D01*
X156760672Y-102285650D01*
X156743728Y-102113615D01*
X156693547Y-101948191D01*
X156612058Y-101795736D01*
X156502392Y-101662108D01*
X156368764Y-101552442D01*
X156216309Y-101470953D01*
X156050885Y-101420772D01*
X155878850Y-101403828D01*
X155801600Y-101403828D01*
X155801600Y-100840172D01*
X155891600Y-100840172D01*
X156016082Y-100827912D01*
X156135780Y-100791602D01*
X156246094Y-100732637D01*
X156342785Y-100653285D01*
X156422137Y-100556594D01*
X156481102Y-100446280D01*
X156517412Y-100326582D01*
X156529672Y-100202100D01*
X156529672Y-98502100D01*
X156517412Y-98377618D01*
X156481102Y-98257920D01*
X156422137Y-98147606D01*
X156342785Y-98050915D01*
X156246094Y-97971563D01*
X156135780Y-97912598D01*
X156016082Y-97876288D01*
X155891600Y-97864028D01*
X154191600Y-97864028D01*
X154067118Y-97876288D01*
X153947420Y-97912598D01*
X153837106Y-97971563D01*
X153740415Y-98050915D01*
X153661063Y-98147606D01*
X153602098Y-98257920D01*
X153580087Y-98330480D01*
X153448232Y-98198625D01*
X153205011Y-98036110D01*
X152934758Y-97924168D01*
X152647860Y-97867100D01*
X152355340Y-97867100D01*
X152068442Y-97924168D01*
X151798189Y-98036110D01*
X151554968Y-98198625D01*
X151348125Y-98405468D01*
X151185610Y-98648689D01*
X151073668Y-98918942D01*
X151016600Y-99205840D01*
X151016600Y-99498360D01*
X151073668Y-99785258D01*
X151185610Y-100055511D01*
X151348125Y-100298732D01*
X151554968Y-100505575D01*
X151741600Y-100630279D01*
X151741601Y-101403828D01*
X151664350Y-101403828D01*
X151492315Y-101420772D01*
X151326891Y-101470953D01*
X151174436Y-101552442D01*
X151040808Y-101662108D01*
X150931142Y-101795736D01*
X150849653Y-101948191D01*
X150799472Y-102113615D01*
X150782528Y-102285650D01*
X150782528Y-102463726D01*
X147885100Y-99566299D01*
X147885100Y-99504161D01*
X147845326Y-99304202D01*
X147767305Y-99115844D01*
X147654037Y-98946326D01*
X147509874Y-98802163D01*
X147340356Y-98688895D01*
X147151998Y-98610874D01*
X146952039Y-98571100D01*
X146748161Y-98571100D01*
X146548202Y-98610874D01*
X146359844Y-98688895D01*
X146190326Y-98802163D01*
X146046163Y-98946326D01*
X145932895Y-99115844D01*
X145854874Y-99304202D01*
X145816400Y-99497625D01*
X145727456Y-99438195D01*
X145566413Y-99371488D01*
X149009130Y-95928772D01*
X149516150Y-95928772D01*
X149688185Y-95911828D01*
X149853609Y-95861647D01*
X150006064Y-95780158D01*
X150139692Y-95670492D01*
X150186054Y-95614000D01*
X151143255Y-95614000D01*
X151231308Y-95721292D01*
X151364936Y-95830958D01*
X151517391Y-95912447D01*
X151682815Y-95962628D01*
X151854850Y-95979572D01*
X152767350Y-95979572D01*
X152939385Y-95962628D01*
X153104809Y-95912447D01*
X153257264Y-95830958D01*
X153390892Y-95721292D01*
X153395563Y-95715600D01*
X154496055Y-95715600D01*
X154584108Y-95822892D01*
X154717736Y-95932558D01*
X154870191Y-96014047D01*
X155035615Y-96064228D01*
X155207650Y-96081172D01*
X156120150Y-96081172D01*
X156292185Y-96064228D01*
X156457609Y-96014047D01*
X156610064Y-95932558D01*
X156743692Y-95822892D01*
X156831745Y-95715600D01*
X161549189Y-95715600D01*
X161593126Y-95759537D01*
X161762644Y-95872805D01*
X161951002Y-95950826D01*
X162150961Y-95990600D01*
X162354839Y-95990600D01*
X162554798Y-95950826D01*
X162743156Y-95872805D01*
X162912674Y-95759537D01*
X162956611Y-95715600D01*
X164640399Y-95715600D01*
X164954191Y-96029392D01*
X164910400Y-96249540D01*
X164910400Y-96542060D01*
X164967468Y-96828958D01*
X165079410Y-97099211D01*
X165241925Y-97342432D01*
X165448768Y-97549275D01*
X165691989Y-97711790D01*
X165962242Y-97823732D01*
X166249140Y-97880800D01*
X166541660Y-97880800D01*
X166828558Y-97823732D01*
X167098811Y-97711790D01*
X167342032Y-97549275D01*
X167548875Y-97342432D01*
X167711390Y-97099211D01*
X167823332Y-96828958D01*
X167880400Y-96542060D01*
X167880400Y-96249540D01*
X167823332Y-95962642D01*
X167711390Y-95692389D01*
X167548875Y-95449168D01*
X167342032Y-95242325D01*
X167098811Y-95079810D01*
X166828558Y-94967868D01*
X166541660Y-94910800D01*
X166249140Y-94910800D01*
X166028992Y-94954591D01*
X165852802Y-94778401D01*
X165962242Y-94823732D01*
X166249140Y-94880800D01*
X166541660Y-94880800D01*
X166828558Y-94823732D01*
X167098811Y-94711790D01*
X167342032Y-94549275D01*
X167548875Y-94342432D01*
X167711390Y-94099211D01*
X167823332Y-93828958D01*
X167880400Y-93542060D01*
X167880400Y-93249540D01*
X167823332Y-92962642D01*
X167711390Y-92692389D01*
X167548875Y-92449168D01*
X167342032Y-92242325D01*
X167098811Y-92079810D01*
X166828558Y-91967868D01*
X166541660Y-91910800D01*
X166249140Y-91910800D01*
X165962242Y-91967868D01*
X165691989Y-92079810D01*
X165448768Y-92242325D01*
X165370493Y-92320600D01*
X156831745Y-92320600D01*
X156743692Y-92213308D01*
X156610064Y-92103642D01*
X156457609Y-92022153D01*
X156292185Y-91971972D01*
X156120150Y-91955028D01*
X155207650Y-91955028D01*
X155035615Y-91971972D01*
X154870191Y-92022153D01*
X154717736Y-92103642D01*
X154584108Y-92213308D01*
X154579437Y-92219000D01*
X153478945Y-92219000D01*
X153390892Y-92111708D01*
X153257264Y-92002042D01*
X153104809Y-91920553D01*
X152939385Y-91870372D01*
X152767350Y-91853428D01*
X151854850Y-91853428D01*
X151682815Y-91870372D01*
X151517391Y-91920553D01*
X151364936Y-92002042D01*
X151231308Y-92111708D01*
X151184946Y-92168200D01*
X150227745Y-92168200D01*
X150139692Y-92060908D01*
X150006064Y-91951242D01*
X149853609Y-91869753D01*
X149688185Y-91819572D01*
X149516150Y-91802628D01*
X148603650Y-91802628D01*
X148431615Y-91819572D01*
X148266191Y-91869753D01*
X148113736Y-91951242D01*
X147980108Y-92060908D01*
X147870442Y-92194536D01*
X147788953Y-92346991D01*
X147738772Y-92512415D01*
X147721828Y-92684450D01*
X147721828Y-93171950D01*
X147723578Y-93189720D01*
X146921600Y-93991698D01*
X146889752Y-93991698D01*
X147048500Y-93832950D01*
X147051572Y-93143700D01*
X147039312Y-93019218D01*
X147003002Y-92899520D01*
X146944037Y-92789206D01*
X146864685Y-92692515D01*
X146767994Y-92613163D01*
X146657680Y-92554198D01*
X146537982Y-92517888D01*
X146413500Y-92505628D01*
X146399250Y-92508700D01*
X146240500Y-92667450D01*
X146240500Y-93991700D01*
X146260500Y-93991700D01*
X146260500Y-94245700D01*
X146240500Y-94245700D01*
X146240500Y-94265700D01*
X145986500Y-94265700D01*
X145986500Y-94245700D01*
X144970500Y-94245700D01*
X144970500Y-95569950D01*
X145129250Y-95728700D01*
X145143500Y-95731772D01*
X145185681Y-95727618D01*
X140522503Y-100390796D01*
X140493499Y-100414599D01*
X140458424Y-100457339D01*
X140398526Y-100530324D01*
X140339315Y-100641100D01*
X140327954Y-100662354D01*
X140284497Y-100805615D01*
X140273500Y-100917268D01*
X140273500Y-100917278D01*
X140269824Y-100954600D01*
X140273500Y-100991923D01*
X140273500Y-101943830D01*
X140187982Y-101917888D01*
X140063500Y-101905628D01*
X139786900Y-101905628D01*
X139786900Y-100436811D01*
X139830837Y-100392874D01*
X139944105Y-100223356D01*
X140022126Y-100034998D01*
X140061900Y-99835039D01*
X140061900Y-99631161D01*
X140022126Y-99431202D01*
X139944105Y-99242844D01*
X139830837Y-99073326D01*
X139686674Y-98929163D01*
X139517156Y-98815895D01*
X139328798Y-98737874D01*
X139128839Y-98698100D01*
X138924961Y-98698100D01*
X138725002Y-98737874D01*
X138536644Y-98815895D01*
X138367126Y-98929163D01*
X138222963Y-99073326D01*
X138109695Y-99242844D01*
X138031674Y-99431202D01*
X137991900Y-99631161D01*
X137991900Y-99835039D01*
X138031674Y-100034998D01*
X138109695Y-100223356D01*
X138222963Y-100392874D01*
X138266900Y-100436811D01*
X138266901Y-101905628D01*
X138193500Y-101905628D01*
X138069018Y-101917888D01*
X137949320Y-101954198D01*
X137858500Y-102002743D01*
X137767680Y-101954198D01*
X137647982Y-101917888D01*
X137523500Y-101905628D01*
X136923500Y-101905628D01*
X136799018Y-101917888D01*
X136679320Y-101954198D01*
X136588500Y-102002743D01*
X136497680Y-101954198D01*
X136377982Y-101917888D01*
X136253500Y-101905628D01*
X135653500Y-101905628D01*
X135529018Y-101917888D01*
X135409320Y-101954198D01*
X135318500Y-102002743D01*
X135227680Y-101954198D01*
X135107982Y-101917888D01*
X134983500Y-101905628D01*
X134383500Y-101905628D01*
X134259018Y-101917888D01*
X134139320Y-101954198D01*
X134029006Y-102013163D01*
X133932315Y-102092515D01*
X133852963Y-102189206D01*
X133793998Y-102299520D01*
X133757688Y-102419218D01*
X133745428Y-102543700D01*
X133745428Y-104493700D01*
X133757688Y-104618182D01*
X133793998Y-104737880D01*
X133852963Y-104848194D01*
X133900938Y-104906651D01*
X133879563Y-104928026D01*
X133766295Y-105097544D01*
X133688274Y-105285902D01*
X133648500Y-105485861D01*
X133648500Y-105689739D01*
X133688274Y-105889698D01*
X133766295Y-106078056D01*
X133853632Y-106208766D01*
X132597820Y-107464578D01*
X132580050Y-107462828D01*
X132092550Y-107462828D01*
X131920515Y-107479772D01*
X131755091Y-107529953D01*
X131602636Y-107611442D01*
X131469008Y-107721108D01*
X131359342Y-107854736D01*
X131277853Y-108007191D01*
X131227672Y-108172615D01*
X131210728Y-108344650D01*
X104263996Y-108344650D01*
X104204883Y-108285537D01*
X103855202Y-108051888D01*
X103466656Y-107890947D01*
X103054179Y-107808900D01*
X102633621Y-107808900D01*
X102221144Y-107890947D01*
X101832598Y-108051888D01*
X101482917Y-108285537D01*
X101185537Y-108582917D01*
X100951888Y-108932598D01*
X100790947Y-109321144D01*
X100708900Y-109733621D01*
X100431191Y-109733621D01*
X100430631Y-95093700D01*
X133745428Y-95093700D01*
X133757688Y-95218182D01*
X133793998Y-95337880D01*
X133852963Y-95448194D01*
X133932315Y-95544885D01*
X134029006Y-95624237D01*
X134139320Y-95683202D01*
X134259018Y-95719512D01*
X134383500Y-95731772D01*
X134397750Y-95728700D01*
X134556500Y-95569950D01*
X134556500Y-94245700D01*
X133907250Y-94245700D01*
X133748500Y-94404450D01*
X133745428Y-95093700D01*
X100430631Y-95093700D01*
X100430557Y-93143700D01*
X133745428Y-93143700D01*
X133748500Y-93832950D01*
X133907250Y-93991700D01*
X134556500Y-93991700D01*
X134556500Y-92667450D01*
X134397750Y-92508700D01*
X134383500Y-92505628D01*
X134259018Y-92517888D01*
X134139320Y-92554198D01*
X134029006Y-92613163D01*
X133932315Y-92692515D01*
X133852963Y-92789206D01*
X133793998Y-92899520D01*
X133757688Y-93019218D01*
X133745428Y-93143700D01*
X100430557Y-93143700D01*
X100430072Y-80518000D01*
X114169928Y-80518000D01*
X114169928Y-82042000D01*
X114182188Y-82166482D01*
X114218498Y-82286180D01*
X114277463Y-82396494D01*
X114356815Y-82493185D01*
X114453506Y-82572537D01*
X114563820Y-82631502D01*
X114683518Y-82667812D01*
X114808000Y-82680072D01*
X116332000Y-82680072D01*
X116456482Y-82667812D01*
X116576180Y-82631502D01*
X116686494Y-82572537D01*
X116783185Y-82493185D01*
X116862537Y-82396494D01*
X116921502Y-82286180D01*
X116957812Y-82166482D01*
X116966080Y-82082535D01*
X117024880Y-82170535D01*
X117219465Y-82365120D01*
X117448273Y-82518005D01*
X117702510Y-82623314D01*
X117972408Y-82677000D01*
X118247592Y-82677000D01*
X118517490Y-82623314D01*
X118771727Y-82518005D01*
X119000535Y-82365120D01*
X119195120Y-82170535D01*
X119348005Y-81941727D01*
X119380000Y-81864485D01*
X119411995Y-81941727D01*
X119564880Y-82170535D01*
X119759465Y-82365120D01*
X119988273Y-82518005D01*
X120242510Y-82623314D01*
X120512408Y-82677000D01*
X120787592Y-82677000D01*
X121057490Y-82623314D01*
X121311727Y-82518005D01*
X121540535Y-82365120D01*
X121660090Y-82245565D01*
X122404040Y-82245565D01*
X122471020Y-82485656D01*
X122720048Y-82602756D01*
X122987135Y-82669023D01*
X123262017Y-82681910D01*
X123534133Y-82640922D01*
X123793023Y-82547636D01*
X123908980Y-82485656D01*
X123975960Y-82245565D01*
X123190000Y-81459605D01*
X122404040Y-82245565D01*
X121660090Y-82245565D01*
X121735120Y-82170535D01*
X121888005Y-81941727D01*
X121917692Y-81870057D01*
X121922364Y-81883023D01*
X121984344Y-81998980D01*
X122224435Y-82065960D01*
X123010395Y-81280000D01*
X122224435Y-80494040D01*
X121984344Y-80561020D01*
X121920515Y-80696760D01*
X121888005Y-80618273D01*
X121735120Y-80389465D01*
X121660090Y-80314435D01*
X122404040Y-80314435D01*
X123190000Y-81100395D01*
X123975960Y-80314435D01*
X123908980Y-80074344D01*
X123659952Y-79957244D01*
X123392865Y-79890977D01*
X123117983Y-79878090D01*
X122845867Y-79919078D01*
X122586977Y-80012364D01*
X122471020Y-80074344D01*
X122404040Y-80314435D01*
X121660090Y-80314435D01*
X121540535Y-80194880D01*
X121311727Y-80041995D01*
X121057490Y-79936686D01*
X120787592Y-79883000D01*
X120512408Y-79883000D01*
X120242510Y-79936686D01*
X119988273Y-80041995D01*
X119759465Y-80194880D01*
X119564880Y-80389465D01*
X119411995Y-80618273D01*
X119380000Y-80695515D01*
X119348005Y-80618273D01*
X119195120Y-80389465D01*
X119000535Y-80194880D01*
X118771727Y-80041995D01*
X118517490Y-79936686D01*
X118247592Y-79883000D01*
X117972408Y-79883000D01*
X117702510Y-79936686D01*
X117448273Y-80041995D01*
X117219465Y-80194880D01*
X117024880Y-80389465D01*
X116966080Y-80477465D01*
X116957812Y-80393518D01*
X116921502Y-80273820D01*
X116862537Y-80163506D01*
X116783185Y-80066815D01*
X116686494Y-79987463D01*
X116576180Y-79928498D01*
X116456482Y-79892188D01*
X116332000Y-79879928D01*
X114808000Y-79879928D01*
X114683518Y-79892188D01*
X114563820Y-79928498D01*
X114453506Y-79987463D01*
X114356815Y-80066815D01*
X114277463Y-80163506D01*
X114218498Y-80273820D01*
X114182188Y-80393518D01*
X114169928Y-80518000D01*
X100430072Y-80518000D01*
X100429521Y-66148473D01*
X100453372Y-65905221D01*
X100708900Y-65905221D01*
X100708900Y-66325779D01*
X100790947Y-66738256D01*
X100951888Y-67126802D01*
X101185537Y-67476483D01*
X101482917Y-67773863D01*
X101832598Y-68007512D01*
X102221144Y-68168453D01*
X102633621Y-68250500D01*
X103054179Y-68250500D01*
X103466656Y-68168453D01*
X103855202Y-68007512D01*
X104204883Y-67773863D01*
X104502263Y-67476483D01*
X104735912Y-67126802D01*
X104896853Y-66738256D01*
X104978900Y-66325779D01*
X104978900Y-65905221D01*
X104978341Y-65902408D01*
X114173000Y-65902408D01*
X114173000Y-66177592D01*
X114226686Y-66447490D01*
X114331995Y-66701727D01*
X114484880Y-66930535D01*
X114679465Y-67125120D01*
X114908273Y-67278005D01*
X115162510Y-67383314D01*
X115432408Y-67437000D01*
X115707592Y-67437000D01*
X115977490Y-67383314D01*
X116231727Y-67278005D01*
X116460535Y-67125120D01*
X116580090Y-67005565D01*
X117324040Y-67005565D01*
X117391020Y-67245656D01*
X117640048Y-67362756D01*
X117907135Y-67429023D01*
X118182017Y-67441910D01*
X118454133Y-67400922D01*
X118713023Y-67307636D01*
X118828980Y-67245656D01*
X118895960Y-67005565D01*
X118110000Y-66219605D01*
X117324040Y-67005565D01*
X116580090Y-67005565D01*
X116655120Y-66930535D01*
X116808005Y-66701727D01*
X116837692Y-66630057D01*
X116842364Y-66643023D01*
X116904344Y-66758980D01*
X117144435Y-66825960D01*
X117930395Y-66040000D01*
X118289605Y-66040000D01*
X119075565Y-66825960D01*
X119315656Y-66758980D01*
X119379485Y-66623240D01*
X119411995Y-66701727D01*
X119564880Y-66930535D01*
X119759465Y-67125120D01*
X119988273Y-67278005D01*
X120242510Y-67383314D01*
X120512408Y-67437000D01*
X120787592Y-67437000D01*
X121057490Y-67383314D01*
X121311727Y-67278005D01*
X121540535Y-67125120D01*
X121735120Y-66930535D01*
X121888005Y-66701727D01*
X121920000Y-66624485D01*
X121951995Y-66701727D01*
X122104880Y-66930535D01*
X122299465Y-67125120D01*
X122528273Y-67278005D01*
X122782510Y-67383314D01*
X123052408Y-67437000D01*
X123327592Y-67437000D01*
X123481571Y-67406372D01*
X134042999Y-77967801D01*
X134043000Y-80062891D01*
X134011727Y-80041995D01*
X133757490Y-79936686D01*
X133487592Y-79883000D01*
X133212408Y-79883000D01*
X132942510Y-79936686D01*
X132688273Y-80041995D01*
X132459465Y-80194880D01*
X132264880Y-80389465D01*
X132111995Y-80618273D01*
X132080000Y-80695515D01*
X132048005Y-80618273D01*
X131895120Y-80389465D01*
X131700535Y-80194880D01*
X131471727Y-80041995D01*
X131217490Y-79936686D01*
X130947592Y-79883000D01*
X130672408Y-79883000D01*
X130402510Y-79936686D01*
X130148273Y-80041995D01*
X129919465Y-80194880D01*
X129724880Y-80389465D01*
X129571995Y-80618273D01*
X129540000Y-80695515D01*
X129508005Y-80618273D01*
X129355120Y-80389465D01*
X129160535Y-80194880D01*
X128931727Y-80041995D01*
X128677490Y-79936686D01*
X128407592Y-79883000D01*
X128132408Y-79883000D01*
X127862510Y-79936686D01*
X127608273Y-80041995D01*
X127379465Y-80194880D01*
X127184880Y-80389465D01*
X127031995Y-80618273D01*
X127000000Y-80695515D01*
X126968005Y-80618273D01*
X126815120Y-80389465D01*
X126620535Y-80194880D01*
X126391727Y-80041995D01*
X126137490Y-79936686D01*
X125867592Y-79883000D01*
X125592408Y-79883000D01*
X125322510Y-79936686D01*
X125068273Y-80041995D01*
X124839465Y-80194880D01*
X124644880Y-80389465D01*
X124491995Y-80618273D01*
X124462308Y-80689943D01*
X124457636Y-80676977D01*
X124395656Y-80561020D01*
X124155565Y-80494040D01*
X123369605Y-81280000D01*
X124155565Y-82065960D01*
X124395656Y-81998980D01*
X124459485Y-81863240D01*
X124491995Y-81941727D01*
X124644880Y-82170535D01*
X124839465Y-82365120D01*
X125068273Y-82518005D01*
X125322510Y-82623314D01*
X125592408Y-82677000D01*
X125867592Y-82677000D01*
X126021571Y-82646372D01*
X131262200Y-87887002D01*
X131285999Y-87916001D01*
X131314997Y-87939799D01*
X131401723Y-88010974D01*
X131533753Y-88081546D01*
X131677014Y-88125003D01*
X131788667Y-88136000D01*
X131788677Y-88136000D01*
X131826000Y-88139676D01*
X131863323Y-88136000D01*
X133837035Y-88136000D01*
X133921507Y-88339934D01*
X134144213Y-88673237D01*
X134427663Y-88956687D01*
X134760966Y-89179393D01*
X135131313Y-89332796D01*
X135524470Y-89411000D01*
X135925330Y-89411000D01*
X136318487Y-89332796D01*
X136522422Y-89248323D01*
X137733501Y-90459403D01*
X137733500Y-92543830D01*
X137647982Y-92517888D01*
X137523500Y-92505628D01*
X136923500Y-92505628D01*
X136799018Y-92517888D01*
X136679320Y-92554198D01*
X136588500Y-92602743D01*
X136497680Y-92554198D01*
X136377982Y-92517888D01*
X136253500Y-92505628D01*
X135653500Y-92505628D01*
X135529018Y-92517888D01*
X135409320Y-92554198D01*
X135318500Y-92602743D01*
X135227680Y-92554198D01*
X135107982Y-92517888D01*
X134983500Y-92505628D01*
X134969250Y-92508700D01*
X134810500Y-92667450D01*
X134810500Y-93991700D01*
X134830500Y-93991700D01*
X134830500Y-94245700D01*
X134810500Y-94245700D01*
X134810500Y-95569950D01*
X134969250Y-95728700D01*
X134983500Y-95731772D01*
X135107982Y-95719512D01*
X135227680Y-95683202D01*
X135318500Y-95634657D01*
X135409320Y-95683202D01*
X135529018Y-95719512D01*
X135653500Y-95731772D01*
X136253500Y-95731772D01*
X136377982Y-95719512D01*
X136497680Y-95683202D01*
X136588500Y-95634657D01*
X136679320Y-95683202D01*
X136799018Y-95719512D01*
X136923500Y-95731772D01*
X137523500Y-95731772D01*
X137647982Y-95719512D01*
X137767680Y-95683202D01*
X137858500Y-95634657D01*
X137949320Y-95683202D01*
X138069018Y-95719512D01*
X138193500Y-95731772D01*
X138793500Y-95731772D01*
X138917982Y-95719512D01*
X139037680Y-95683202D01*
X139128500Y-95634657D01*
X139219320Y-95683202D01*
X139339018Y-95719512D01*
X139463500Y-95731772D01*
X140063500Y-95731772D01*
X140187982Y-95719512D01*
X140307680Y-95683202D01*
X140398500Y-95634657D01*
X140489320Y-95683202D01*
X140609018Y-95719512D01*
X140733500Y-95731772D01*
X141333500Y-95731772D01*
X141457982Y-95719512D01*
X141577680Y-95683202D01*
X141668500Y-95634657D01*
X141759320Y-95683202D01*
X141879018Y-95719512D01*
X142003500Y-95731772D01*
X142603500Y-95731772D01*
X142727982Y-95719512D01*
X142847680Y-95683202D01*
X142938500Y-95634657D01*
X143029320Y-95683202D01*
X143149018Y-95719512D01*
X143273500Y-95731772D01*
X143873500Y-95731772D01*
X143997982Y-95719512D01*
X144117680Y-95683202D01*
X144208500Y-95634657D01*
X144299320Y-95683202D01*
X144419018Y-95719512D01*
X144543500Y-95731772D01*
X144557750Y-95728700D01*
X144716500Y-95569950D01*
X144716500Y-94245700D01*
X144696500Y-94245700D01*
X144696500Y-93991700D01*
X144716500Y-93991700D01*
X144716500Y-92667450D01*
X144970500Y-92667450D01*
X144970500Y-93991700D01*
X145986500Y-93991700D01*
X145986500Y-92667450D01*
X145827750Y-92508700D01*
X145813500Y-92505628D01*
X145689018Y-92517888D01*
X145569320Y-92554198D01*
X145478500Y-92602743D01*
X145387680Y-92554198D01*
X145267982Y-92517888D01*
X145143500Y-92505628D01*
X145129250Y-92508700D01*
X144970500Y-92667450D01*
X144716500Y-92667450D01*
X144557750Y-92508700D01*
X144543500Y-92505628D01*
X144419018Y-92517888D01*
X144299320Y-92554198D01*
X144208500Y-92602743D01*
X144117680Y-92554198D01*
X143997982Y-92517888D01*
X143873500Y-92505628D01*
X143273500Y-92505628D01*
X143149018Y-92517888D01*
X143079392Y-92539009D01*
X146471616Y-89146786D01*
X146507346Y-89135948D01*
X146639376Y-89065376D01*
X146726102Y-88994201D01*
X146967548Y-88752755D01*
X146971950Y-88749142D01*
X146971950Y-88888789D01*
X147011724Y-89088748D01*
X147089745Y-89277106D01*
X147203013Y-89446624D01*
X147347176Y-89590787D01*
X147516694Y-89704055D01*
X147705052Y-89782076D01*
X147905011Y-89821850D01*
X148108889Y-89821850D01*
X148308848Y-89782076D01*
X148497206Y-89704055D01*
X148620606Y-89621602D01*
X148671048Y-89621602D01*
X148512300Y-89780350D01*
X148509228Y-89982100D01*
X148521488Y-90106582D01*
X148557798Y-90226280D01*
X148616763Y-90336594D01*
X148696115Y-90433285D01*
X148792806Y-90512637D01*
X148903120Y-90571602D01*
X149022818Y-90607912D01*
X149147300Y-90620172D01*
X149561550Y-90617100D01*
X149720300Y-90458350D01*
X149720300Y-89621600D01*
X149974300Y-89621600D01*
X149974300Y-90458350D01*
X150133050Y-90617100D01*
X150547300Y-90620172D01*
X150671782Y-90607912D01*
X150791480Y-90571602D01*
X150901794Y-90512637D01*
X150998485Y-90433285D01*
X151077837Y-90336594D01*
X151136802Y-90226280D01*
X151173112Y-90106582D01*
X151185372Y-89982100D01*
X151184406Y-89918600D01*
X151950928Y-89918600D01*
X151963188Y-90043082D01*
X151999498Y-90162780D01*
X152058463Y-90273094D01*
X152137815Y-90369785D01*
X152234506Y-90449137D01*
X152344820Y-90508102D01*
X152464518Y-90544412D01*
X152589000Y-90556672D01*
X153003250Y-90553600D01*
X153162000Y-90394850D01*
X153162000Y-89558100D01*
X153416000Y-89558100D01*
X153416000Y-90394850D01*
X153574750Y-90553600D01*
X153989000Y-90556672D01*
X154113482Y-90544412D01*
X154233180Y-90508102D01*
X154343494Y-90449137D01*
X154440185Y-90369785D01*
X154519537Y-90273094D01*
X154578502Y-90162780D01*
X154614812Y-90043082D01*
X154627072Y-89918600D01*
X154624000Y-89716850D01*
X154465250Y-89558100D01*
X153416000Y-89558100D01*
X153162000Y-89558100D01*
X152112750Y-89558100D01*
X151954000Y-89716850D01*
X151950928Y-89918600D01*
X151184406Y-89918600D01*
X151182300Y-89780350D01*
X151023550Y-89621600D01*
X149974300Y-89621600D01*
X149720300Y-89621600D01*
X149700300Y-89621600D01*
X149700300Y-89367600D01*
X149720300Y-89367600D01*
X149720300Y-89347600D01*
X149974300Y-89347600D01*
X149974300Y-89367600D01*
X151023550Y-89367600D01*
X151182300Y-89208850D01*
X151185372Y-89007100D01*
X151173112Y-88882618D01*
X151136802Y-88762920D01*
X151077837Y-88652606D01*
X150998485Y-88555915D01*
X150920736Y-88492108D01*
X150927092Y-88486892D01*
X151015145Y-88379600D01*
X152173269Y-88379600D01*
X152209208Y-88423392D01*
X152215564Y-88428608D01*
X152137815Y-88492415D01*
X152058463Y-88589106D01*
X151999498Y-88699420D01*
X151963188Y-88819118D01*
X151950928Y-88943600D01*
X151954000Y-89145350D01*
X152112750Y-89304100D01*
X153162000Y-89304100D01*
X153162000Y-89284100D01*
X153416000Y-89284100D01*
X153416000Y-89304100D01*
X154465250Y-89304100D01*
X154624000Y-89145350D01*
X154627072Y-88943600D01*
X154614812Y-88819118D01*
X154578502Y-88699420D01*
X154519537Y-88589106D01*
X154440185Y-88492415D01*
X154362436Y-88428608D01*
X154368792Y-88423392D01*
X154478458Y-88289764D01*
X154559947Y-88137309D01*
X154610128Y-87971885D01*
X154627072Y-87799850D01*
X154627072Y-87312350D01*
X154610128Y-87140315D01*
X154559947Y-86974891D01*
X154478458Y-86822436D01*
X154412655Y-86742255D01*
X154456037Y-86689394D01*
X154515002Y-86579080D01*
X154551312Y-86459382D01*
X154563572Y-86334900D01*
X154560500Y-86133150D01*
X154401750Y-85974400D01*
X153352500Y-85974400D01*
X153352500Y-85994400D01*
X153098500Y-85994400D01*
X153098500Y-85974400D01*
X152049250Y-85974400D01*
X151890500Y-86133150D01*
X151887428Y-86334900D01*
X151899688Y-86459382D01*
X151935998Y-86579080D01*
X151994963Y-86689394D01*
X152074315Y-86786085D01*
X152107216Y-86813086D01*
X152099542Y-86822436D01*
X152079677Y-86859600D01*
X151158566Y-86859600D01*
X151192137Y-86818694D01*
X151251102Y-86708380D01*
X151287412Y-86588682D01*
X151299672Y-86464200D01*
X151296600Y-86262450D01*
X151137850Y-86103700D01*
X150088600Y-86103700D01*
X150088600Y-86123700D01*
X149834600Y-86123700D01*
X149834600Y-86103700D01*
X149814600Y-86103700D01*
X149814600Y-85849700D01*
X149834600Y-85849700D01*
X149834600Y-85829700D01*
X150088600Y-85829700D01*
X150088600Y-85849700D01*
X151137850Y-85849700D01*
X151296600Y-85690950D01*
X151299672Y-85489200D01*
X151287412Y-85364718D01*
X151251102Y-85245020D01*
X151192137Y-85134706D01*
X151112785Y-85038015D01*
X151035036Y-84974208D01*
X151041392Y-84968992D01*
X151129445Y-84861700D01*
X152131603Y-84861700D01*
X152074315Y-84908715D01*
X151994963Y-85005406D01*
X151935998Y-85115720D01*
X151899688Y-85235418D01*
X151887428Y-85359900D01*
X151890500Y-85561650D01*
X152049250Y-85720400D01*
X153098500Y-85720400D01*
X153098500Y-85700400D01*
X153352500Y-85700400D01*
X153352500Y-85720400D01*
X154401750Y-85720400D01*
X154560500Y-85561650D01*
X154563572Y-85359900D01*
X154551312Y-85235418D01*
X154515002Y-85115720D01*
X154456037Y-85005406D01*
X154376685Y-84908715D01*
X154298936Y-84844908D01*
X154305292Y-84839692D01*
X154414958Y-84706064D01*
X154496447Y-84553609D01*
X154546628Y-84388185D01*
X154563572Y-84216150D01*
X154563572Y-83728650D01*
X154546628Y-83556615D01*
X154530771Y-83504340D01*
X164910400Y-83504340D01*
X164910400Y-83796860D01*
X164967468Y-84083758D01*
X165079410Y-84354011D01*
X165241925Y-84597232D01*
X165448768Y-84804075D01*
X165691989Y-84966590D01*
X165962242Y-85078532D01*
X166249140Y-85135600D01*
X166541660Y-85135600D01*
X166828558Y-85078532D01*
X167098811Y-84966590D01*
X167342032Y-84804075D01*
X167548875Y-84597232D01*
X167711390Y-84354011D01*
X167823332Y-84083758D01*
X167880400Y-83796860D01*
X167880400Y-83504340D01*
X167823332Y-83217442D01*
X167711390Y-82947189D01*
X167548875Y-82703968D01*
X167342032Y-82497125D01*
X167098811Y-82334610D01*
X166828558Y-82222668D01*
X166541660Y-82165600D01*
X166249140Y-82165600D01*
X165962242Y-82222668D01*
X165691989Y-82334610D01*
X165448768Y-82497125D01*
X165241925Y-82703968D01*
X165079410Y-82947189D01*
X164967468Y-83217442D01*
X164910400Y-83504340D01*
X154530771Y-83504340D01*
X154496447Y-83391191D01*
X154414958Y-83238736D01*
X154305292Y-83105108D01*
X154171664Y-82995442D01*
X154019209Y-82913953D01*
X153853785Y-82863772D01*
X153681750Y-82846828D01*
X152769250Y-82846828D01*
X152597215Y-82863772D01*
X152431791Y-82913953D01*
X152279336Y-82995442D01*
X152145708Y-83105108D01*
X152036042Y-83238736D01*
X151981007Y-83341700D01*
X151129445Y-83341700D01*
X151041392Y-83234408D01*
X150907764Y-83124742D01*
X150755309Y-83043253D01*
X150721600Y-83033027D01*
X150721600Y-82622937D01*
X150722510Y-82623314D01*
X150992408Y-82677000D01*
X151267592Y-82677000D01*
X151537490Y-82623314D01*
X151791727Y-82518005D01*
X152020535Y-82365120D01*
X152215120Y-82170535D01*
X152368005Y-81941727D01*
X152473314Y-81687490D01*
X152527000Y-81417592D01*
X152527000Y-81142408D01*
X152473314Y-80872510D01*
X152368005Y-80618273D01*
X152291878Y-80504340D01*
X164910400Y-80504340D01*
X164910400Y-80796860D01*
X164967468Y-81083758D01*
X165079410Y-81354011D01*
X165241925Y-81597232D01*
X165448768Y-81804075D01*
X165691989Y-81966590D01*
X165962242Y-82078532D01*
X166249140Y-82135600D01*
X166541660Y-82135600D01*
X166828558Y-82078532D01*
X167098811Y-81966590D01*
X167342032Y-81804075D01*
X167548875Y-81597232D01*
X167711390Y-81354011D01*
X167823332Y-81083758D01*
X167880400Y-80796860D01*
X167880400Y-80504340D01*
X167823332Y-80217442D01*
X167711390Y-79947189D01*
X167548875Y-79703968D01*
X167342032Y-79497125D01*
X167098811Y-79334610D01*
X166828558Y-79222668D01*
X166541660Y-79165600D01*
X166249140Y-79165600D01*
X165962242Y-79222668D01*
X165691989Y-79334610D01*
X165448768Y-79497125D01*
X165241925Y-79703968D01*
X165079410Y-79947189D01*
X164967468Y-80217442D01*
X164910400Y-80504340D01*
X152291878Y-80504340D01*
X152215120Y-80389465D01*
X152020535Y-80194880D01*
X151791727Y-80041995D01*
X151537490Y-79936686D01*
X151267592Y-79883000D01*
X150992408Y-79883000D01*
X150722510Y-79936686D01*
X150721600Y-79937063D01*
X150721600Y-77504340D01*
X164910400Y-77504340D01*
X164910400Y-77796860D01*
X164967468Y-78083758D01*
X165079410Y-78354011D01*
X165241925Y-78597232D01*
X165448768Y-78804075D01*
X165691989Y-78966590D01*
X165962242Y-79078532D01*
X166249140Y-79135600D01*
X166541660Y-79135600D01*
X166828558Y-79078532D01*
X167098811Y-78966590D01*
X167342032Y-78804075D01*
X167548875Y-78597232D01*
X167711390Y-78354011D01*
X167823332Y-78083758D01*
X167880400Y-77796860D01*
X167880400Y-77504340D01*
X167823332Y-77217442D01*
X167711390Y-76947189D01*
X167548875Y-76703968D01*
X167342032Y-76497125D01*
X167098811Y-76334610D01*
X166828558Y-76222668D01*
X166541660Y-76165600D01*
X166249140Y-76165600D01*
X165962242Y-76222668D01*
X165691989Y-76334610D01*
X165448768Y-76497125D01*
X165241925Y-76703968D01*
X165079410Y-76947189D01*
X164967468Y-77217442D01*
X164910400Y-77504340D01*
X150721600Y-77504340D01*
X150721600Y-74504340D01*
X164910400Y-74504340D01*
X164910400Y-74796860D01*
X164967468Y-75083758D01*
X165079410Y-75354011D01*
X165241925Y-75597232D01*
X165448768Y-75804075D01*
X165691989Y-75966590D01*
X165962242Y-76078532D01*
X166249140Y-76135600D01*
X166541660Y-76135600D01*
X166828558Y-76078532D01*
X167098811Y-75966590D01*
X167342032Y-75804075D01*
X167548875Y-75597232D01*
X167711390Y-75354011D01*
X167823332Y-75083758D01*
X167880400Y-74796860D01*
X167880400Y-74504340D01*
X167823332Y-74217442D01*
X167711390Y-73947189D01*
X167548875Y-73703968D01*
X167342032Y-73497125D01*
X167098811Y-73334610D01*
X166828558Y-73222668D01*
X166541660Y-73165600D01*
X166249140Y-73165600D01*
X165962242Y-73222668D01*
X165691989Y-73334610D01*
X165448768Y-73497125D01*
X165241925Y-73703968D01*
X165079410Y-73947189D01*
X164967468Y-74217442D01*
X164910400Y-74504340D01*
X150721600Y-74504340D01*
X150721600Y-67448922D01*
X150725276Y-67411599D01*
X150722489Y-67383305D01*
X150722510Y-67383314D01*
X150992408Y-67437000D01*
X151267592Y-67437000D01*
X151537490Y-67383314D01*
X151791727Y-67278005D01*
X152020535Y-67125120D01*
X152215120Y-66930535D01*
X152368005Y-66701727D01*
X152473314Y-66447490D01*
X152527000Y-66177592D01*
X152527000Y-65905221D01*
X164552500Y-65905221D01*
X164552500Y-66325779D01*
X164634547Y-66738256D01*
X164795488Y-67126802D01*
X165029137Y-67476483D01*
X165326517Y-67773863D01*
X165676198Y-68007512D01*
X166064744Y-68168453D01*
X166477221Y-68250500D01*
X166897779Y-68250500D01*
X167310256Y-68168453D01*
X167698802Y-68007512D01*
X168048483Y-67773863D01*
X168345863Y-67476483D01*
X168579512Y-67126802D01*
X168740453Y-66738256D01*
X168822500Y-66325779D01*
X168822500Y-65905221D01*
X168740453Y-65492744D01*
X168579512Y-65104198D01*
X168345863Y-64754517D01*
X168048483Y-64457137D01*
X167698802Y-64223488D01*
X167310256Y-64062547D01*
X166897779Y-63980500D01*
X166477221Y-63980500D01*
X166064744Y-64062547D01*
X165676198Y-64223488D01*
X165326517Y-64457137D01*
X165029137Y-64754517D01*
X164795488Y-65104198D01*
X164634547Y-65492744D01*
X164552500Y-65905221D01*
X152527000Y-65905221D01*
X152527000Y-65902408D01*
X152473314Y-65632510D01*
X152368005Y-65378273D01*
X152215120Y-65149465D01*
X152020535Y-64954880D01*
X151791727Y-64801995D01*
X151537490Y-64696686D01*
X151267592Y-64643000D01*
X150992408Y-64643000D01*
X150722510Y-64696686D01*
X150468273Y-64801995D01*
X150239465Y-64954880D01*
X150044880Y-65149465D01*
X149891995Y-65378273D01*
X149860000Y-65455515D01*
X149828005Y-65378273D01*
X149675120Y-65149465D01*
X149480535Y-64954880D01*
X149251727Y-64801995D01*
X148997490Y-64696686D01*
X148727592Y-64643000D01*
X148452408Y-64643000D01*
X148182510Y-64696686D01*
X147928273Y-64801995D01*
X147699465Y-64954880D01*
X147504880Y-65149465D01*
X147351995Y-65378273D01*
X147320000Y-65455515D01*
X147288005Y-65378273D01*
X147135120Y-65149465D01*
X146940535Y-64954880D01*
X146711727Y-64801995D01*
X146457490Y-64696686D01*
X146187592Y-64643000D01*
X145912408Y-64643000D01*
X145642510Y-64696686D01*
X145388273Y-64801995D01*
X145159465Y-64954880D01*
X144964880Y-65149465D01*
X144811995Y-65378273D01*
X144780000Y-65455515D01*
X144748005Y-65378273D01*
X144595120Y-65149465D01*
X144400535Y-64954880D01*
X144171727Y-64801995D01*
X143917490Y-64696686D01*
X143647592Y-64643000D01*
X143372408Y-64643000D01*
X143102510Y-64696686D01*
X142848273Y-64801995D01*
X142619465Y-64954880D01*
X142424880Y-65149465D01*
X142271995Y-65378273D01*
X142240000Y-65455515D01*
X142208005Y-65378273D01*
X142055120Y-65149465D01*
X141860535Y-64954880D01*
X141631727Y-64801995D01*
X141377490Y-64696686D01*
X141107592Y-64643000D01*
X140832408Y-64643000D01*
X140562510Y-64696686D01*
X140308273Y-64801995D01*
X140079465Y-64954880D01*
X139884880Y-65149465D01*
X139731995Y-65378273D01*
X139700000Y-65455515D01*
X139668005Y-65378273D01*
X139515120Y-65149465D01*
X139320535Y-64954880D01*
X139091727Y-64801995D01*
X138837490Y-64696686D01*
X138567592Y-64643000D01*
X138292408Y-64643000D01*
X138022510Y-64696686D01*
X137768273Y-64801995D01*
X137539465Y-64954880D01*
X137344880Y-65149465D01*
X137191995Y-65378273D01*
X137160000Y-65455515D01*
X137128005Y-65378273D01*
X136975120Y-65149465D01*
X136780535Y-64954880D01*
X136551727Y-64801995D01*
X136297490Y-64696686D01*
X136027592Y-64643000D01*
X135752408Y-64643000D01*
X135482510Y-64696686D01*
X135228273Y-64801995D01*
X134999465Y-64954880D01*
X134804880Y-65149465D01*
X134651995Y-65378273D01*
X134620000Y-65455515D01*
X134588005Y-65378273D01*
X134435120Y-65149465D01*
X134240535Y-64954880D01*
X134011727Y-64801995D01*
X133757490Y-64696686D01*
X133487592Y-64643000D01*
X133212408Y-64643000D01*
X132942510Y-64696686D01*
X132688273Y-64801995D01*
X132459465Y-64954880D01*
X132264880Y-65149465D01*
X132111995Y-65378273D01*
X132080000Y-65455515D01*
X132048005Y-65378273D01*
X131895120Y-65149465D01*
X131700535Y-64954880D01*
X131471727Y-64801995D01*
X131217490Y-64696686D01*
X130947592Y-64643000D01*
X130672408Y-64643000D01*
X130402510Y-64696686D01*
X130148273Y-64801995D01*
X129919465Y-64954880D01*
X129724880Y-65149465D01*
X129571995Y-65378273D01*
X129540000Y-65455515D01*
X129508005Y-65378273D01*
X129355120Y-65149465D01*
X129160535Y-64954880D01*
X128931727Y-64801995D01*
X128677490Y-64696686D01*
X128407592Y-64643000D01*
X128132408Y-64643000D01*
X127862510Y-64696686D01*
X127608273Y-64801995D01*
X127379465Y-64954880D01*
X127184880Y-65149465D01*
X127031995Y-65378273D01*
X127000000Y-65455515D01*
X126968005Y-65378273D01*
X126815120Y-65149465D01*
X126620535Y-64954880D01*
X126391727Y-64801995D01*
X126137490Y-64696686D01*
X125867592Y-64643000D01*
X125592408Y-64643000D01*
X125322510Y-64696686D01*
X125068273Y-64801995D01*
X124839465Y-64954880D01*
X124644880Y-65149465D01*
X124491995Y-65378273D01*
X124460000Y-65455515D01*
X124428005Y-65378273D01*
X124275120Y-65149465D01*
X124080535Y-64954880D01*
X123851727Y-64801995D01*
X123597490Y-64696686D01*
X123327592Y-64643000D01*
X123052408Y-64643000D01*
X122782510Y-64696686D01*
X122528273Y-64801995D01*
X122299465Y-64954880D01*
X122104880Y-65149465D01*
X121951995Y-65378273D01*
X121920000Y-65455515D01*
X121888005Y-65378273D01*
X121735120Y-65149465D01*
X121540535Y-64954880D01*
X121311727Y-64801995D01*
X121057490Y-64696686D01*
X120787592Y-64643000D01*
X120512408Y-64643000D01*
X120242510Y-64696686D01*
X119988273Y-64801995D01*
X119759465Y-64954880D01*
X119564880Y-65149465D01*
X119411995Y-65378273D01*
X119382308Y-65449943D01*
X119377636Y-65436977D01*
X119315656Y-65321020D01*
X119075565Y-65254040D01*
X118289605Y-66040000D01*
X117930395Y-66040000D01*
X117144435Y-65254040D01*
X116904344Y-65321020D01*
X116840515Y-65456760D01*
X116808005Y-65378273D01*
X116655120Y-65149465D01*
X116580090Y-65074435D01*
X117324040Y-65074435D01*
X118110000Y-65860395D01*
X118895960Y-65074435D01*
X118828980Y-64834344D01*
X118579952Y-64717244D01*
X118312865Y-64650977D01*
X118037983Y-64638090D01*
X117765867Y-64679078D01*
X117506977Y-64772364D01*
X117391020Y-64834344D01*
X117324040Y-65074435D01*
X116580090Y-65074435D01*
X116460535Y-64954880D01*
X116231727Y-64801995D01*
X115977490Y-64696686D01*
X115707592Y-64643000D01*
X115432408Y-64643000D01*
X115162510Y-64696686D01*
X114908273Y-64801995D01*
X114679465Y-64954880D01*
X114484880Y-65149465D01*
X114331995Y-65378273D01*
X114226686Y-65632510D01*
X114173000Y-65902408D01*
X104978341Y-65902408D01*
X104896853Y-65492744D01*
X104735912Y-65104198D01*
X104502263Y-64754517D01*
X104204883Y-64457137D01*
X103855202Y-64223488D01*
X103466656Y-64062547D01*
X103054179Y-63980500D01*
X102633621Y-63980500D01*
X102221144Y-64062547D01*
X101832598Y-64223488D01*
X101482917Y-64457137D01*
X101185537Y-64754517D01*
X100951888Y-65104198D01*
X100790947Y-65492744D01*
X100708900Y-65905221D01*
X100453372Y-65905221D01*
X100478620Y-65647724D01*
X100614674Y-65197092D01*
X100835666Y-64781466D01*
X101133176Y-64416684D01*
X101495874Y-64116633D01*
X101909945Y-63892746D01*
X102359621Y-63753548D01*
X102853427Y-63701647D01*
X102909364Y-63702376D01*
%TD*%
M02*
