M48
; DRILL file {KiCad (5.1.6)-1} date 08/14/20 18:03:57
; FORMAT={-:-/ absolute / inch / decimal}
; #@! TF.CreationDate,2020-08-14T18:03:57-05:00
; #@! TF.GenerationSoftware,Kicad,Pcbnew,(5.1.6)-1
FMAT,2
INCH
T1C0.0157
T2C0.0394
T3C0.0402
T4C0.0402
T5C0.0630
T6C0.0500
T7C0.1181
%
G90
G05
T1
X5.3025Y-4.157
X5.4025Y-4.0755
X5.4735Y-3.9265
X5.502Y-4.137
X5.5025Y-4.0755
X5.5845Y-3.496
X5.615Y-3.9859
X5.6525Y-3.7055
X5.718Y-3.951
X5.7815Y-3.9215
X6.0565Y-3.5663
X6.1975Y-3.5674
X6.3879Y-3.7384
T2
X6.004Y-3.9115
X6.104Y-3.9115
T3
X6.551Y-2.939
X6.551Y-3.0571
X6.551Y-3.1752
X6.551Y-3.2933
X6.551Y-3.677
X6.551Y-3.7951
X6.551Y-3.9132
X6.551Y-4.0313
T4
X4.55Y-2.6
X4.55Y-3.2
X4.65Y-2.6
X4.65Y-3.2
X4.75Y-2.6
X4.75Y-3.2
X4.85Y-2.6
X4.85Y-3.2
X4.95Y-2.6
X4.95Y-3.2
X5.05Y-2.6
X5.05Y-3.2
X5.15Y-2.6
X5.15Y-3.2
X5.25Y-2.6
X5.25Y-3.2
X5.35Y-2.6
X5.35Y-3.2
X5.45Y-2.6
X5.45Y-3.2
X5.55Y-2.6
X5.55Y-3.2
X5.65Y-2.6
X5.65Y-3.2
X5.75Y-2.6
X5.75Y-3.2
X5.85Y-2.6
X5.85Y-3.2
X5.95Y-2.6
X5.95Y-3.2
T5
X6.1295Y-4.268
X5.9255Y-4.2655
X5.3435Y-3.44
X5.7365Y-3.401
T6
X6.6282Y-2.8209
X6.6282Y-3.4114
X6.6282Y-3.5589
X6.6282Y-4.1494
T7
X4.049Y-2.603
X6.5625Y-2.603
X4.049Y-4.3285
X6.5625Y-4.3285
T0
M30
