%TF.GenerationSoftware,KiCad,Pcbnew,(5.1.6)-1*%
%TF.CreationDate,2020-08-03T14:50:49-05:00*%
%TF.ProjectId,CAN sniffer,43414e20-736e-4696-9666-65722e6b6963,rev?*%
%TF.SameCoordinates,Original*%
%TF.FileFunction,Paste,Top*%
%TF.FilePolarity,Positive*%
%FSLAX46Y46*%
G04 Gerber Fmt 4.6, Leading zero omitted, Abs format (unit mm)*
G04 Created by KiCad (PCBNEW (5.1.6)-1) date 2020-08-03 14:50:49*
%MOMM*%
%LPD*%
G01*
G04 APERTURE LIST*
%ADD10R,1.000000X0.700000*%
%ADD11R,0.600000X1.950000*%
G04 APERTURE END LIST*
%TO.C,C7*%
G36*
G01*
X157277750Y-89654800D02*
X158190250Y-89654800D01*
G75*
G02*
X158434000Y-89898550I0J-243750D01*
G01*
X158434000Y-90386050D01*
G75*
G02*
X158190250Y-90629800I-243750J0D01*
G01*
X157277750Y-90629800D01*
G75*
G02*
X157034000Y-90386050I0J243750D01*
G01*
X157034000Y-89898550D01*
G75*
G02*
X157277750Y-89654800I243750J0D01*
G01*
G37*
G36*
G01*
X157277750Y-87779800D02*
X158190250Y-87779800D01*
G75*
G02*
X158434000Y-88023550I0J-243750D01*
G01*
X158434000Y-88511050D01*
G75*
G02*
X158190250Y-88754800I-243750J0D01*
G01*
X157277750Y-88754800D01*
G75*
G02*
X157034000Y-88511050I0J243750D01*
G01*
X157034000Y-88023550D01*
G75*
G02*
X157277750Y-87779800I243750J0D01*
G01*
G37*
%TD*%
D10*
%TO.C,U3*%
X149205800Y-111569500D03*
X146805800Y-112519500D03*
X146805800Y-110619500D03*
%TD*%
D11*
%TO.C,U2*%
X150063200Y-102477300D03*
X148793200Y-102477300D03*
X147523200Y-102477300D03*
X146253200Y-102477300D03*
X144983200Y-102477300D03*
X143713200Y-102477300D03*
X142443200Y-102477300D03*
X141173200Y-102477300D03*
X139903200Y-102477300D03*
X138633200Y-102477300D03*
X138633200Y-93077300D03*
X139903200Y-93077300D03*
X141173200Y-93077300D03*
X142443200Y-93077300D03*
X143713200Y-93077300D03*
X144983200Y-93077300D03*
X146253200Y-93077300D03*
X147523200Y-93077300D03*
X148793200Y-93077300D03*
X150063200Y-93077300D03*
%TD*%
%TO.C,R3*%
G36*
G01*
X143540900Y-113549750D02*
X143540900Y-112637250D01*
G75*
G02*
X143784650Y-112393500I243750J0D01*
G01*
X144272150Y-112393500D01*
G75*
G02*
X144515900Y-112637250I0J-243750D01*
G01*
X144515900Y-113549750D01*
G75*
G02*
X144272150Y-113793500I-243750J0D01*
G01*
X143784650Y-113793500D01*
G75*
G02*
X143540900Y-113549750I0J243750D01*
G01*
G37*
G36*
G01*
X141665900Y-113549750D02*
X141665900Y-112637250D01*
G75*
G02*
X141909650Y-112393500I243750J0D01*
G01*
X142397150Y-112393500D01*
G75*
G02*
X142640900Y-112637250I0J-243750D01*
G01*
X142640900Y-113549750D01*
G75*
G02*
X142397150Y-113793500I-243750J0D01*
G01*
X141909650Y-113793500D01*
G75*
G02*
X141665900Y-113549750I0J243750D01*
G01*
G37*
%TD*%
%TO.C,R2*%
G36*
G01*
X143452000Y-110247750D02*
X143452000Y-109335250D01*
G75*
G02*
X143695750Y-109091500I243750J0D01*
G01*
X144183250Y-109091500D01*
G75*
G02*
X144427000Y-109335250I0J-243750D01*
G01*
X144427000Y-110247750D01*
G75*
G02*
X144183250Y-110491500I-243750J0D01*
G01*
X143695750Y-110491500D01*
G75*
G02*
X143452000Y-110247750I0J243750D01*
G01*
G37*
G36*
G01*
X141577000Y-110247750D02*
X141577000Y-109335250D01*
G75*
G02*
X141820750Y-109091500I243750J0D01*
G01*
X142308250Y-109091500D01*
G75*
G02*
X142552000Y-109335250I0J-243750D01*
G01*
X142552000Y-110247750D01*
G75*
G02*
X142308250Y-110491500I-243750J0D01*
G01*
X141820750Y-110491500D01*
G75*
G02*
X141577000Y-110247750I0J243750D01*
G01*
G37*
%TD*%
%TO.C,R1*%
G36*
G01*
X147060500Y-104864850D02*
X147060500Y-105777350D01*
G75*
G02*
X146816750Y-106021100I-243750J0D01*
G01*
X146329250Y-106021100D01*
G75*
G02*
X146085500Y-105777350I0J243750D01*
G01*
X146085500Y-104864850D01*
G75*
G02*
X146329250Y-104621100I243750J0D01*
G01*
X146816750Y-104621100D01*
G75*
G02*
X147060500Y-104864850I0J-243750D01*
G01*
G37*
G36*
G01*
X148935500Y-104864850D02*
X148935500Y-105777350D01*
G75*
G02*
X148691750Y-106021100I-243750J0D01*
G01*
X148204250Y-106021100D01*
G75*
G02*
X147960500Y-105777350I0J243750D01*
G01*
X147960500Y-104864850D01*
G75*
G02*
X148204250Y-104621100I243750J0D01*
G01*
X148691750Y-104621100D01*
G75*
G02*
X148935500Y-104864850I0J-243750D01*
G01*
G37*
%TD*%
%TO.C,L2*%
G36*
G01*
X150997500Y-104991850D02*
X150997500Y-105904350D01*
G75*
G02*
X150753750Y-106148100I-243750J0D01*
G01*
X150266250Y-106148100D01*
G75*
G02*
X150022500Y-105904350I0J243750D01*
G01*
X150022500Y-104991850D01*
G75*
G02*
X150266250Y-104748100I243750J0D01*
G01*
X150753750Y-104748100D01*
G75*
G02*
X150997500Y-104991850I0J-243750D01*
G01*
G37*
G36*
G01*
X152872500Y-104991850D02*
X152872500Y-105904350D01*
G75*
G02*
X152628750Y-106148100I-243750J0D01*
G01*
X152141250Y-106148100D01*
G75*
G02*
X151897500Y-105904350I0J243750D01*
G01*
X151897500Y-104991850D01*
G75*
G02*
X152141250Y-104748100I243750J0D01*
G01*
X152628750Y-104748100D01*
G75*
G02*
X152872500Y-104991850I0J-243750D01*
G01*
G37*
%TD*%
%TO.C,L1*%
G36*
G01*
X156977500Y-94563250D02*
X156977500Y-93650750D01*
G75*
G02*
X157221250Y-93407000I243750J0D01*
G01*
X157708750Y-93407000D01*
G75*
G02*
X157952500Y-93650750I0J-243750D01*
G01*
X157952500Y-94563250D01*
G75*
G02*
X157708750Y-94807000I-243750J0D01*
G01*
X157221250Y-94807000D01*
G75*
G02*
X156977500Y-94563250I0J243750D01*
G01*
G37*
G36*
G01*
X155102500Y-94563250D02*
X155102500Y-93650750D01*
G75*
G02*
X155346250Y-93407000I243750J0D01*
G01*
X155833750Y-93407000D01*
G75*
G02*
X156077500Y-93650750I0J-243750D01*
G01*
X156077500Y-94563250D01*
G75*
G02*
X155833750Y-94807000I-243750J0D01*
G01*
X155346250Y-94807000D01*
G75*
G02*
X155102500Y-94563250I0J243750D01*
G01*
G37*
%TD*%
%TO.C,C8*%
G36*
G01*
X155275700Y-90016650D02*
X155275700Y-89104150D01*
G75*
G02*
X155519450Y-88860400I243750J0D01*
G01*
X156006950Y-88860400D01*
G75*
G02*
X156250700Y-89104150I0J-243750D01*
G01*
X156250700Y-90016650D01*
G75*
G02*
X156006950Y-90260400I-243750J0D01*
G01*
X155519450Y-90260400D01*
G75*
G02*
X155275700Y-90016650I0J243750D01*
G01*
G37*
G36*
G01*
X153400700Y-90016650D02*
X153400700Y-89104150D01*
G75*
G02*
X153644450Y-88860400I243750J0D01*
G01*
X154131950Y-88860400D01*
G75*
G02*
X154375700Y-89104150I0J-243750D01*
G01*
X154375700Y-90016650D01*
G75*
G02*
X154131950Y-90260400I-243750J0D01*
G01*
X153644450Y-90260400D01*
G75*
G02*
X153400700Y-90016650I0J243750D01*
G01*
G37*
%TD*%
%TO.C,C6*%
G36*
G01*
X160313050Y-89654800D02*
X161225550Y-89654800D01*
G75*
G02*
X161469300Y-89898550I0J-243750D01*
G01*
X161469300Y-90386050D01*
G75*
G02*
X161225550Y-90629800I-243750J0D01*
G01*
X160313050Y-90629800D01*
G75*
G02*
X160069300Y-90386050I0J243750D01*
G01*
X160069300Y-89898550D01*
G75*
G02*
X160313050Y-89654800I243750J0D01*
G01*
G37*
G36*
G01*
X160313050Y-87779800D02*
X161225550Y-87779800D01*
G75*
G02*
X161469300Y-88023550I0J-243750D01*
G01*
X161469300Y-88511050D01*
G75*
G02*
X161225550Y-88754800I-243750J0D01*
G01*
X160313050Y-88754800D01*
G75*
G02*
X160069300Y-88511050I0J243750D01*
G01*
X160069300Y-88023550D01*
G75*
G02*
X160313050Y-87779800I243750J0D01*
G01*
G37*
%TD*%
%TO.C,C5*%
G36*
G01*
X156469500Y-98081150D02*
X156469500Y-97168650D01*
G75*
G02*
X156713250Y-96924900I243750J0D01*
G01*
X157200750Y-96924900D01*
G75*
G02*
X157444500Y-97168650I0J-243750D01*
G01*
X157444500Y-98081150D01*
G75*
G02*
X157200750Y-98324900I-243750J0D01*
G01*
X156713250Y-98324900D01*
G75*
G02*
X156469500Y-98081150I0J243750D01*
G01*
G37*
G36*
G01*
X154594500Y-98081150D02*
X154594500Y-97168650D01*
G75*
G02*
X154838250Y-96924900I243750J0D01*
G01*
X155325750Y-96924900D01*
G75*
G02*
X155569500Y-97168650I0J-243750D01*
G01*
X155569500Y-98081150D01*
G75*
G02*
X155325750Y-98324900I-243750J0D01*
G01*
X154838250Y-98324900D01*
G75*
G02*
X154594500Y-98081150I0J243750D01*
G01*
G37*
%TD*%
%TO.C,C4*%
G36*
G01*
X142640900Y-85713250D02*
X142640900Y-86625750D01*
G75*
G02*
X142397150Y-86869500I-243750J0D01*
G01*
X141909650Y-86869500D01*
G75*
G02*
X141665900Y-86625750I0J243750D01*
G01*
X141665900Y-85713250D01*
G75*
G02*
X141909650Y-85469500I243750J0D01*
G01*
X142397150Y-85469500D01*
G75*
G02*
X142640900Y-85713250I0J-243750D01*
G01*
G37*
G36*
G01*
X144515900Y-85713250D02*
X144515900Y-86625750D01*
G75*
G02*
X144272150Y-86869500I-243750J0D01*
G01*
X143784650Y-86869500D01*
G75*
G02*
X143540900Y-86625750I0J243750D01*
G01*
X143540900Y-85713250D01*
G75*
G02*
X143784650Y-85469500I243750J0D01*
G01*
X144272150Y-85469500D01*
G75*
G02*
X144515900Y-85713250I0J-243750D01*
G01*
G37*
%TD*%
%TO.C,C3*%
G36*
G01*
X142770200Y-88977150D02*
X142770200Y-89889650D01*
G75*
G02*
X142526450Y-90133400I-243750J0D01*
G01*
X142038950Y-90133400D01*
G75*
G02*
X141795200Y-89889650I0J243750D01*
G01*
X141795200Y-88977150D01*
G75*
G02*
X142038950Y-88733400I243750J0D01*
G01*
X142526450Y-88733400D01*
G75*
G02*
X142770200Y-88977150I0J-243750D01*
G01*
G37*
G36*
G01*
X144645200Y-88977150D02*
X144645200Y-89889650D01*
G75*
G02*
X144401450Y-90133400I-243750J0D01*
G01*
X143913950Y-90133400D01*
G75*
G02*
X143670200Y-89889650I0J243750D01*
G01*
X143670200Y-88977150D01*
G75*
G02*
X143913950Y-88733400I243750J0D01*
G01*
X144401450Y-88733400D01*
G75*
G02*
X144645200Y-88977150I0J-243750D01*
G01*
G37*
%TD*%
%TO.C,C2*%
G36*
G01*
X148760600Y-90194450D02*
X148760600Y-89281950D01*
G75*
G02*
X149004350Y-89038200I243750J0D01*
G01*
X149491850Y-89038200D01*
G75*
G02*
X149735600Y-89281950I0J-243750D01*
G01*
X149735600Y-90194450D01*
G75*
G02*
X149491850Y-90438200I-243750J0D01*
G01*
X149004350Y-90438200D01*
G75*
G02*
X148760600Y-90194450I0J243750D01*
G01*
G37*
G36*
G01*
X146885600Y-90194450D02*
X146885600Y-89281950D01*
G75*
G02*
X147129350Y-89038200I243750J0D01*
G01*
X147616850Y-89038200D01*
G75*
G02*
X147860600Y-89281950I0J-243750D01*
G01*
X147860600Y-90194450D01*
G75*
G02*
X147616850Y-90438200I-243750J0D01*
G01*
X147129350Y-90438200D01*
G75*
G02*
X146885600Y-90194450I0J243750D01*
G01*
G37*
%TD*%
%TO.C,C1*%
G36*
G01*
X148697100Y-86752750D02*
X148697100Y-85840250D01*
G75*
G02*
X148940850Y-85596500I243750J0D01*
G01*
X149428350Y-85596500D01*
G75*
G02*
X149672100Y-85840250I0J-243750D01*
G01*
X149672100Y-86752750D01*
G75*
G02*
X149428350Y-86996500I-243750J0D01*
G01*
X148940850Y-86996500D01*
G75*
G02*
X148697100Y-86752750I0J243750D01*
G01*
G37*
G36*
G01*
X146822100Y-86752750D02*
X146822100Y-85840250D01*
G75*
G02*
X147065850Y-85596500I243750J0D01*
G01*
X147553350Y-85596500D01*
G75*
G02*
X147797100Y-85840250I0J-243750D01*
G01*
X147797100Y-86752750D01*
G75*
G02*
X147553350Y-86996500I-243750J0D01*
G01*
X147065850Y-86996500D01*
G75*
G02*
X146822100Y-86752750I0J243750D01*
G01*
G37*
%TD*%
M02*
