%TF.GenerationSoftware,KiCad,Pcbnew,(5.1.6)-1*%
%TF.CreationDate,2020-08-10T11:53:12-05:00*%
%TF.ProjectId,CAN sniffer,43414e20-736e-4696-9666-65722e6b6963,rev?*%
%TF.SameCoordinates,Original*%
%TF.FileFunction,Paste,Top*%
%TF.FilePolarity,Positive*%
%FSLAX46Y46*%
G04 Gerber Fmt 4.6, Leading zero omitted, Abs format (unit mm)*
G04 Created by KiCad (PCBNEW (5.1.6)-1) date 2020-08-10 11:53:12*
%MOMM*%
%LPD*%
G01*
G04 APERTURE LIST*
%ADD10R,0.700000X1.000000*%
%ADD11R,0.600000X1.950000*%
G04 APERTURE END LIST*
%TO.C,C7*%
G36*
G01*
X155766450Y-93299700D02*
X156678950Y-93299700D01*
G75*
G02*
X156922700Y-93543450I0J-243750D01*
G01*
X156922700Y-94030950D01*
G75*
G02*
X156678950Y-94274700I-243750J0D01*
G01*
X155766450Y-94274700D01*
G75*
G02*
X155522700Y-94030950I0J243750D01*
G01*
X155522700Y-93543450D01*
G75*
G02*
X155766450Y-93299700I243750J0D01*
G01*
G37*
G36*
G01*
X155766450Y-91424700D02*
X156678950Y-91424700D01*
G75*
G02*
X156922700Y-91668450I0J-243750D01*
G01*
X156922700Y-92155950D01*
G75*
G02*
X156678950Y-92399700I-243750J0D01*
G01*
X155766450Y-92399700D01*
G75*
G02*
X155522700Y-92155950I0J243750D01*
G01*
X155522700Y-91668450D01*
G75*
G02*
X155766450Y-91424700I243750J0D01*
G01*
G37*
%TD*%
D10*
%TO.C,U3*%
X141312900Y-110115200D03*
X140362900Y-107715200D03*
X142262900Y-107715200D03*
%TD*%
D11*
%TO.C,U2*%
X150025100Y-102451900D03*
X148755100Y-102451900D03*
X147485100Y-102451900D03*
X146215100Y-102451900D03*
X144945100Y-102451900D03*
X143675100Y-102451900D03*
X142405100Y-102451900D03*
X141135100Y-102451900D03*
X139865100Y-102451900D03*
X138595100Y-102451900D03*
X138595100Y-93051900D03*
X139865100Y-93051900D03*
X141135100Y-93051900D03*
X142405100Y-93051900D03*
X143675100Y-93051900D03*
X144945100Y-93051900D03*
X146215100Y-93051900D03*
X147485100Y-93051900D03*
X148755100Y-93051900D03*
X150025100Y-93051900D03*
%TD*%
%TO.C,R3*%
G36*
G01*
X155575950Y-102850100D02*
X156488450Y-102850100D01*
G75*
G02*
X156732200Y-103093850I0J-243750D01*
G01*
X156732200Y-103581350D01*
G75*
G02*
X156488450Y-103825100I-243750J0D01*
G01*
X155575950Y-103825100D01*
G75*
G02*
X155332200Y-103581350I0J243750D01*
G01*
X155332200Y-103093850D01*
G75*
G02*
X155575950Y-102850100I243750J0D01*
G01*
G37*
G36*
G01*
X155575950Y-100975100D02*
X156488450Y-100975100D01*
G75*
G02*
X156732200Y-101218850I0J-243750D01*
G01*
X156732200Y-101706350D01*
G75*
G02*
X156488450Y-101950100I-243750J0D01*
G01*
X155575950Y-101950100D01*
G75*
G02*
X155332200Y-101706350I0J243750D01*
G01*
X155332200Y-101218850D01*
G75*
G02*
X155575950Y-100975100I243750J0D01*
G01*
G37*
%TD*%
%TO.C,R2*%
G36*
G01*
X158877950Y-102850100D02*
X159790450Y-102850100D01*
G75*
G02*
X160034200Y-103093850I0J-243750D01*
G01*
X160034200Y-103581350D01*
G75*
G02*
X159790450Y-103825100I-243750J0D01*
G01*
X158877950Y-103825100D01*
G75*
G02*
X158634200Y-103581350I0J243750D01*
G01*
X158634200Y-103093850D01*
G75*
G02*
X158877950Y-102850100I243750J0D01*
G01*
G37*
G36*
G01*
X158877950Y-100975100D02*
X159790450Y-100975100D01*
G75*
G02*
X160034200Y-101218850I0J-243750D01*
G01*
X160034200Y-101706350D01*
G75*
G02*
X159790450Y-101950100I-243750J0D01*
G01*
X158877950Y-101950100D01*
G75*
G02*
X158634200Y-101706350I0J243750D01*
G01*
X158634200Y-101218850D01*
G75*
G02*
X158877950Y-100975100I243750J0D01*
G01*
G37*
%TD*%
%TO.C,R1*%
G36*
G01*
X137635400Y-108190350D02*
X137635400Y-107277850D01*
G75*
G02*
X137879150Y-107034100I243750J0D01*
G01*
X138366650Y-107034100D01*
G75*
G02*
X138610400Y-107277850I0J-243750D01*
G01*
X138610400Y-108190350D01*
G75*
G02*
X138366650Y-108434100I-243750J0D01*
G01*
X137879150Y-108434100D01*
G75*
G02*
X137635400Y-108190350I0J243750D01*
G01*
G37*
G36*
G01*
X135760400Y-108190350D02*
X135760400Y-107277850D01*
G75*
G02*
X136004150Y-107034100I243750J0D01*
G01*
X136491650Y-107034100D01*
G75*
G02*
X136735400Y-107277850I0J-243750D01*
G01*
X136735400Y-108190350D01*
G75*
G02*
X136491650Y-108434100I-243750J0D01*
G01*
X136004150Y-108434100D01*
G75*
G02*
X135760400Y-108190350I0J243750D01*
G01*
G37*
%TD*%
%TO.C,L2*%
G36*
G01*
X147566800Y-110362050D02*
X147566800Y-109449550D01*
G75*
G02*
X147810550Y-109205800I243750J0D01*
G01*
X148298050Y-109205800D01*
G75*
G02*
X148541800Y-109449550I0J-243750D01*
G01*
X148541800Y-110362050D01*
G75*
G02*
X148298050Y-110605800I-243750J0D01*
G01*
X147810550Y-110605800D01*
G75*
G02*
X147566800Y-110362050I0J243750D01*
G01*
G37*
G36*
G01*
X145691800Y-110362050D02*
X145691800Y-109449550D01*
G75*
G02*
X145935550Y-109205800I243750J0D01*
G01*
X146423050Y-109205800D01*
G75*
G02*
X146666800Y-109449550I0J-243750D01*
G01*
X146666800Y-110362050D01*
G75*
G02*
X146423050Y-110605800I-243750J0D01*
G01*
X145935550Y-110605800D01*
G75*
G02*
X145691800Y-110362050I0J243750D01*
G01*
G37*
%TD*%
%TO.C,L1*%
G36*
G01*
X146144400Y-106742550D02*
X146144400Y-105830050D01*
G75*
G02*
X146388150Y-105586300I243750J0D01*
G01*
X146875650Y-105586300D01*
G75*
G02*
X147119400Y-105830050I0J-243750D01*
G01*
X147119400Y-106742550D01*
G75*
G02*
X146875650Y-106986300I-243750J0D01*
G01*
X146388150Y-106986300D01*
G75*
G02*
X146144400Y-106742550I0J243750D01*
G01*
G37*
G36*
G01*
X144269400Y-106742550D02*
X144269400Y-105830050D01*
G75*
G02*
X144513150Y-105586300I243750J0D01*
G01*
X145000650Y-105586300D01*
G75*
G02*
X145244400Y-105830050I0J-243750D01*
G01*
X145244400Y-106742550D01*
G75*
G02*
X145000650Y-106986300I-243750J0D01*
G01*
X144513150Y-106986300D01*
G75*
G02*
X144269400Y-106742550I0J243750D01*
G01*
G37*
%TD*%
%TO.C,C8*%
G36*
G01*
X159119250Y-93401300D02*
X160031750Y-93401300D01*
G75*
G02*
X160275500Y-93645050I0J-243750D01*
G01*
X160275500Y-94132550D01*
G75*
G02*
X160031750Y-94376300I-243750J0D01*
G01*
X159119250Y-94376300D01*
G75*
G02*
X158875500Y-94132550I0J243750D01*
G01*
X158875500Y-93645050D01*
G75*
G02*
X159119250Y-93401300I243750J0D01*
G01*
G37*
G36*
G01*
X159119250Y-91526300D02*
X160031750Y-91526300D01*
G75*
G02*
X160275500Y-91770050I0J-243750D01*
G01*
X160275500Y-92257550D01*
G75*
G02*
X160031750Y-92501300I-243750J0D01*
G01*
X159119250Y-92501300D01*
G75*
G02*
X158875500Y-92257550I0J243750D01*
G01*
X158875500Y-91770050D01*
G75*
G02*
X159119250Y-91526300I243750J0D01*
G01*
G37*
%TD*%
%TO.C,C6*%
G36*
G01*
X152515250Y-93248900D02*
X153427750Y-93248900D01*
G75*
G02*
X153671500Y-93492650I0J-243750D01*
G01*
X153671500Y-93980150D01*
G75*
G02*
X153427750Y-94223900I-243750J0D01*
G01*
X152515250Y-94223900D01*
G75*
G02*
X152271500Y-93980150I0J243750D01*
G01*
X152271500Y-93492650D01*
G75*
G02*
X152515250Y-93248900I243750J0D01*
G01*
G37*
G36*
G01*
X152515250Y-91373900D02*
X153427750Y-91373900D01*
G75*
G02*
X153671500Y-91617650I0J-243750D01*
G01*
X153671500Y-92105150D01*
G75*
G02*
X153427750Y-92348900I-243750J0D01*
G01*
X152515250Y-92348900D01*
G75*
G02*
X152271500Y-92105150I0J243750D01*
G01*
X152271500Y-91617650D01*
G75*
G02*
X152515250Y-91373900I243750J0D01*
G01*
G37*
%TD*%
%TO.C,C5*%
G36*
G01*
X150170300Y-106767950D02*
X150170300Y-105855450D01*
G75*
G02*
X150414050Y-105611700I243750J0D01*
G01*
X150901550Y-105611700D01*
G75*
G02*
X151145300Y-105855450I0J-243750D01*
G01*
X151145300Y-106767950D01*
G75*
G02*
X150901550Y-107011700I-243750J0D01*
G01*
X150414050Y-107011700D01*
G75*
G02*
X150170300Y-106767950I0J243750D01*
G01*
G37*
G36*
G01*
X148295300Y-106767950D02*
X148295300Y-105855450D01*
G75*
G02*
X148539050Y-105611700I243750J0D01*
G01*
X149026550Y-105611700D01*
G75*
G02*
X149270300Y-105855450I0J-243750D01*
G01*
X149270300Y-106767950D01*
G75*
G02*
X149026550Y-107011700I-243750J0D01*
G01*
X148539050Y-107011700D01*
G75*
G02*
X148295300Y-106767950I0J243750D01*
G01*
G37*
%TD*%
%TO.C,C4*%
G36*
G01*
X149505350Y-85489200D02*
X150417850Y-85489200D01*
G75*
G02*
X150661600Y-85732950I0J-243750D01*
G01*
X150661600Y-86220450D01*
G75*
G02*
X150417850Y-86464200I-243750J0D01*
G01*
X149505350Y-86464200D01*
G75*
G02*
X149261600Y-86220450I0J243750D01*
G01*
X149261600Y-85732950D01*
G75*
G02*
X149505350Y-85489200I243750J0D01*
G01*
G37*
G36*
G01*
X149505350Y-83614200D02*
X150417850Y-83614200D01*
G75*
G02*
X150661600Y-83857950I0J-243750D01*
G01*
X150661600Y-84345450D01*
G75*
G02*
X150417850Y-84589200I-243750J0D01*
G01*
X149505350Y-84589200D01*
G75*
G02*
X149261600Y-84345450I0J243750D01*
G01*
X149261600Y-83857950D01*
G75*
G02*
X149505350Y-83614200I243750J0D01*
G01*
G37*
%TD*%
%TO.C,C3*%
G36*
G01*
X152769250Y-85359900D02*
X153681750Y-85359900D01*
G75*
G02*
X153925500Y-85603650I0J-243750D01*
G01*
X153925500Y-86091150D01*
G75*
G02*
X153681750Y-86334900I-243750J0D01*
G01*
X152769250Y-86334900D01*
G75*
G02*
X152525500Y-86091150I0J243750D01*
G01*
X152525500Y-85603650D01*
G75*
G02*
X152769250Y-85359900I243750J0D01*
G01*
G37*
G36*
G01*
X152769250Y-83484900D02*
X153681750Y-83484900D01*
G75*
G02*
X153925500Y-83728650I0J-243750D01*
G01*
X153925500Y-84216150D01*
G75*
G02*
X153681750Y-84459900I-243750J0D01*
G01*
X152769250Y-84459900D01*
G75*
G02*
X152525500Y-84216150I0J243750D01*
G01*
X152525500Y-83728650D01*
G75*
G02*
X152769250Y-83484900I243750J0D01*
G01*
G37*
%TD*%
%TO.C,C2*%
G36*
G01*
X152832750Y-88943600D02*
X153745250Y-88943600D01*
G75*
G02*
X153989000Y-89187350I0J-243750D01*
G01*
X153989000Y-89674850D01*
G75*
G02*
X153745250Y-89918600I-243750J0D01*
G01*
X152832750Y-89918600D01*
G75*
G02*
X152589000Y-89674850I0J243750D01*
G01*
X152589000Y-89187350D01*
G75*
G02*
X152832750Y-88943600I243750J0D01*
G01*
G37*
G36*
G01*
X152832750Y-87068600D02*
X153745250Y-87068600D01*
G75*
G02*
X153989000Y-87312350I0J-243750D01*
G01*
X153989000Y-87799850D01*
G75*
G02*
X153745250Y-88043600I-243750J0D01*
G01*
X152832750Y-88043600D01*
G75*
G02*
X152589000Y-87799850I0J243750D01*
G01*
X152589000Y-87312350D01*
G75*
G02*
X152832750Y-87068600I243750J0D01*
G01*
G37*
%TD*%
%TO.C,C1*%
G36*
G01*
X149391050Y-89007100D02*
X150303550Y-89007100D01*
G75*
G02*
X150547300Y-89250850I0J-243750D01*
G01*
X150547300Y-89738350D01*
G75*
G02*
X150303550Y-89982100I-243750J0D01*
G01*
X149391050Y-89982100D01*
G75*
G02*
X149147300Y-89738350I0J243750D01*
G01*
X149147300Y-89250850D01*
G75*
G02*
X149391050Y-89007100I243750J0D01*
G01*
G37*
G36*
G01*
X149391050Y-87132100D02*
X150303550Y-87132100D01*
G75*
G02*
X150547300Y-87375850I0J-243750D01*
G01*
X150547300Y-87863350D01*
G75*
G02*
X150303550Y-88107100I-243750J0D01*
G01*
X149391050Y-88107100D01*
G75*
G02*
X149147300Y-87863350I0J243750D01*
G01*
X149147300Y-87375850D01*
G75*
G02*
X149391050Y-87132100I243750J0D01*
G01*
G37*
%TD*%
M02*
