%TF.GenerationSoftware,KiCad,Pcbnew,(5.1.6)-1*%
%TF.CreationDate,2020-08-10T11:53:12-05:00*%
%TF.ProjectId,CAN sniffer,43414e20-736e-4696-9666-65722e6b6963,rev?*%
%TF.SameCoordinates,Original*%
%TF.FileFunction,Legend,Top*%
%TF.FilePolarity,Positive*%
%FSLAX46Y46*%
G04 Gerber Fmt 4.6, Leading zero omitted, Abs format (unit mm)*
G04 Created by KiCad (PCBNEW (5.1.6)-1) date 2020-08-10 11:53:12*
%MOMM*%
%LPD*%
G01*
G04 APERTURE LIST*
%ADD10C,0.150000*%
%ADD11C,0.010000*%
%ADD12C,0.120000*%
G04 APERTURE END LIST*
D10*
X126627809Y-76182480D02*
X126627809Y-75182480D01*
X126627809Y-75658671D02*
X127199238Y-75658671D01*
X127199238Y-76182480D02*
X127199238Y-75182480D01*
X128104000Y-76182480D02*
X128104000Y-75658671D01*
X128056380Y-75563433D01*
X127961142Y-75515814D01*
X127770666Y-75515814D01*
X127675428Y-75563433D01*
X128104000Y-76134861D02*
X128008761Y-76182480D01*
X127770666Y-76182480D01*
X127675428Y-76134861D01*
X127627809Y-76039623D01*
X127627809Y-75944385D01*
X127675428Y-75849147D01*
X127770666Y-75801528D01*
X128008761Y-75801528D01*
X128104000Y-75753909D01*
X128484952Y-75515814D02*
X128723047Y-76182480D01*
X128961142Y-75515814D02*
X128723047Y-76182480D01*
X128627809Y-76420576D01*
X128580190Y-76468195D01*
X128484952Y-76515814D01*
X129484952Y-76182480D02*
X129389714Y-76134861D01*
X129342095Y-76039623D01*
X129342095Y-75182480D01*
X130246857Y-76134861D02*
X130151619Y-76182480D01*
X129961142Y-76182480D01*
X129865904Y-76134861D01*
X129818285Y-76039623D01*
X129818285Y-75658671D01*
X129865904Y-75563433D01*
X129961142Y-75515814D01*
X130151619Y-75515814D01*
X130246857Y-75563433D01*
X130294476Y-75658671D01*
X130294476Y-75753909D01*
X129818285Y-75849147D01*
X131151619Y-76182480D02*
X131151619Y-75658671D01*
X131104000Y-75563433D01*
X131008761Y-75515814D01*
X130818285Y-75515814D01*
X130723047Y-75563433D01*
X131151619Y-76134861D02*
X131056380Y-76182480D01*
X130818285Y-76182480D01*
X130723047Y-76134861D01*
X130675428Y-76039623D01*
X130675428Y-75944385D01*
X130723047Y-75849147D01*
X130818285Y-75801528D01*
X131056380Y-75801528D01*
X131151619Y-75753909D01*
X132294476Y-75515814D02*
X132484952Y-76182480D01*
X132675428Y-75706290D01*
X132865904Y-76182480D01*
X133056380Y-75515814D01*
X133865904Y-76182480D02*
X133865904Y-75658671D01*
X133818285Y-75563433D01*
X133723047Y-75515814D01*
X133532571Y-75515814D01*
X133437333Y-75563433D01*
X133865904Y-76134861D02*
X133770666Y-76182480D01*
X133532571Y-76182480D01*
X133437333Y-76134861D01*
X133389714Y-76039623D01*
X133389714Y-75944385D01*
X133437333Y-75849147D01*
X133532571Y-75801528D01*
X133770666Y-75801528D01*
X133865904Y-75753909D01*
X134294476Y-76134861D02*
X134389714Y-76182480D01*
X134580190Y-76182480D01*
X134675428Y-76134861D01*
X134723047Y-76039623D01*
X134723047Y-75992004D01*
X134675428Y-75896766D01*
X134580190Y-75849147D01*
X134437333Y-75849147D01*
X134342095Y-75801528D01*
X134294476Y-75706290D01*
X134294476Y-75658671D01*
X134342095Y-75563433D01*
X134437333Y-75515814D01*
X134580190Y-75515814D01*
X134675428Y-75563433D01*
X135913523Y-76182480D02*
X135913523Y-75182480D01*
X136342095Y-76182480D02*
X136342095Y-75658671D01*
X136294476Y-75563433D01*
X136199238Y-75515814D01*
X136056380Y-75515814D01*
X135961142Y-75563433D01*
X135913523Y-75611052D01*
X137199238Y-76134861D02*
X137104000Y-76182480D01*
X136913523Y-76182480D01*
X136818285Y-76134861D01*
X136770666Y-76039623D01*
X136770666Y-75658671D01*
X136818285Y-75563433D01*
X136913523Y-75515814D01*
X137104000Y-75515814D01*
X137199238Y-75563433D01*
X137246857Y-75658671D01*
X137246857Y-75753909D01*
X136770666Y-75849147D01*
X137675428Y-76182480D02*
X137675428Y-75515814D01*
X137675428Y-75706290D02*
X137723047Y-75611052D01*
X137770666Y-75563433D01*
X137865904Y-75515814D01*
X137961142Y-75515814D01*
X138675428Y-76134861D02*
X138580190Y-76182480D01*
X138389714Y-76182480D01*
X138294476Y-76134861D01*
X138246857Y-76039623D01*
X138246857Y-75658671D01*
X138294476Y-75563433D01*
X138389714Y-75515814D01*
X138580190Y-75515814D01*
X138675428Y-75563433D01*
X138723047Y-75658671D01*
X138723047Y-75753909D01*
X138246857Y-75849147D01*
X139913523Y-76087242D02*
X139961142Y-76134861D01*
X139913523Y-76182480D01*
X139865904Y-76134861D01*
X139913523Y-76087242D01*
X139913523Y-76182480D01*
X139913523Y-75563433D02*
X139961142Y-75611052D01*
X139913523Y-75658671D01*
X139865904Y-75611052D01*
X139913523Y-75563433D01*
X139913523Y-75658671D01*
X140294476Y-76563433D02*
X140342095Y-76515814D01*
X140437333Y-76372957D01*
X140484952Y-76277719D01*
X140532571Y-76134861D01*
X140580190Y-75896766D01*
X140580190Y-75706290D01*
X140532571Y-75468195D01*
X140484952Y-75325338D01*
X140437333Y-75230100D01*
X140342095Y-75087242D01*
X140294476Y-75039623D01*
X110554019Y-93016985D02*
X109744495Y-93016985D01*
X109649257Y-93064604D01*
X109601638Y-93112223D01*
X109554019Y-93207461D01*
X109554019Y-93397938D01*
X109601638Y-93493176D01*
X109649257Y-93540795D01*
X109744495Y-93588414D01*
X110554019Y-93588414D01*
X110554019Y-93921747D02*
X110554019Y-94493176D01*
X109554019Y-94207461D02*
X110554019Y-94207461D01*
X109601638Y-94778890D02*
X109554019Y-94921747D01*
X109554019Y-95159842D01*
X109601638Y-95255080D01*
X109649257Y-95302700D01*
X109744495Y-95350319D01*
X109839733Y-95350319D01*
X109934971Y-95302700D01*
X109982590Y-95255080D01*
X110030209Y-95159842D01*
X110077828Y-94969366D01*
X110125447Y-94874128D01*
X110173066Y-94826509D01*
X110268304Y-94778890D01*
X110363542Y-94778890D01*
X110458780Y-94826509D01*
X110506400Y-94874128D01*
X110554019Y-94969366D01*
X110554019Y-95207461D01*
X110506400Y-95350319D01*
X110554019Y-95636033D02*
X109554019Y-95969366D01*
X110554019Y-96302700D01*
X110554019Y-96493176D02*
X110554019Y-97064604D01*
X109554019Y-96778890D02*
X110554019Y-96778890D01*
X109934971Y-98159842D02*
X109934971Y-98921747D01*
X109649257Y-100731271D02*
X109601638Y-100683652D01*
X109554019Y-100540795D01*
X109554019Y-100445557D01*
X109601638Y-100302700D01*
X109696876Y-100207461D01*
X109792114Y-100159842D01*
X109982590Y-100112223D01*
X110125447Y-100112223D01*
X110315923Y-100159842D01*
X110411161Y-100207461D01*
X110506400Y-100302700D01*
X110554019Y-100445557D01*
X110554019Y-100540795D01*
X110506400Y-100683652D01*
X110458780Y-100731271D01*
X109839733Y-101112223D02*
X109839733Y-101588414D01*
X109554019Y-101016985D02*
X110554019Y-101350319D01*
X109554019Y-101683652D01*
X109554019Y-102016985D02*
X110554019Y-102016985D01*
X109554019Y-102588414D01*
X110554019Y-102588414D01*
X107999257Y-92112223D02*
X107951638Y-92064604D01*
X107904019Y-91921747D01*
X107904019Y-91826509D01*
X107951638Y-91683652D01*
X108046876Y-91588414D01*
X108142114Y-91540795D01*
X108332590Y-91493176D01*
X108475447Y-91493176D01*
X108665923Y-91540795D01*
X108761161Y-91588414D01*
X108856400Y-91683652D01*
X108904019Y-91826509D01*
X108904019Y-91921747D01*
X108856400Y-92064604D01*
X108808780Y-92112223D01*
X108189733Y-92493176D02*
X108189733Y-92969366D01*
X107904019Y-92397938D02*
X108904019Y-92731271D01*
X107904019Y-93064604D01*
X107904019Y-93397938D02*
X108904019Y-93397938D01*
X107904019Y-93969366D01*
X108904019Y-93969366D01*
X107951638Y-95159842D02*
X107904019Y-95302700D01*
X107904019Y-95540795D01*
X107951638Y-95636033D01*
X107999257Y-95683652D01*
X108094495Y-95731271D01*
X108189733Y-95731271D01*
X108284971Y-95683652D01*
X108332590Y-95636033D01*
X108380209Y-95540795D01*
X108427828Y-95350319D01*
X108475447Y-95255080D01*
X108523066Y-95207461D01*
X108618304Y-95159842D01*
X108713542Y-95159842D01*
X108808780Y-95207461D01*
X108856400Y-95255080D01*
X108904019Y-95350319D01*
X108904019Y-95588414D01*
X108856400Y-95731271D01*
X108570685Y-96159842D02*
X107904019Y-96159842D01*
X108475447Y-96159842D02*
X108523066Y-96207461D01*
X108570685Y-96302700D01*
X108570685Y-96445557D01*
X108523066Y-96540795D01*
X108427828Y-96588414D01*
X107904019Y-96588414D01*
X107904019Y-97064604D02*
X108570685Y-97064604D01*
X108904019Y-97064604D02*
X108856400Y-97016985D01*
X108808780Y-97064604D01*
X108856400Y-97112223D01*
X108904019Y-97064604D01*
X108808780Y-97064604D01*
X108570685Y-97397938D02*
X108570685Y-97778890D01*
X107904019Y-97540795D02*
X108761161Y-97540795D01*
X108856400Y-97588414D01*
X108904019Y-97683652D01*
X108904019Y-97778890D01*
X108570685Y-97969366D02*
X108570685Y-98350319D01*
X107904019Y-98112223D02*
X108761161Y-98112223D01*
X108856400Y-98159842D01*
X108904019Y-98255080D01*
X108904019Y-98350319D01*
X107951638Y-99064604D02*
X107904019Y-98969366D01*
X107904019Y-98778890D01*
X107951638Y-98683652D01*
X108046876Y-98636033D01*
X108427828Y-98636033D01*
X108523066Y-98683652D01*
X108570685Y-98778890D01*
X108570685Y-98969366D01*
X108523066Y-99064604D01*
X108427828Y-99112223D01*
X108332590Y-99112223D01*
X108237352Y-98636033D01*
X107904019Y-99540795D02*
X108570685Y-99540795D01*
X108380209Y-99540795D02*
X108475447Y-99588414D01*
X108523066Y-99636033D01*
X108570685Y-99731271D01*
X108570685Y-99826509D01*
X108570685Y-100826509D02*
X107904019Y-101064604D01*
X108570685Y-101302700D01*
X107999257Y-101683652D02*
X107951638Y-101731271D01*
X107904019Y-101683652D01*
X107951638Y-101636033D01*
X107999257Y-101683652D01*
X107904019Y-101683652D01*
X107904019Y-102683652D02*
X107904019Y-102112223D01*
X107904019Y-102397938D02*
X108904019Y-102397938D01*
X108761161Y-102302700D01*
X108665923Y-102207461D01*
X108618304Y-102112223D01*
X107999257Y-103112223D02*
X107951638Y-103159842D01*
X107904019Y-103112223D01*
X107951638Y-103064604D01*
X107999257Y-103112223D01*
X107904019Y-103112223D01*
X108904019Y-103778890D02*
X108904019Y-103874128D01*
X108856400Y-103969366D01*
X108808780Y-104016985D01*
X108713542Y-104064604D01*
X108523066Y-104112223D01*
X108284971Y-104112223D01*
X108094495Y-104064604D01*
X107999257Y-104016985D01*
X107951638Y-103969366D01*
X107904019Y-103874128D01*
X107904019Y-103778890D01*
X107951638Y-103683652D01*
X107999257Y-103636033D01*
X108094495Y-103588414D01*
X108284971Y-103540795D01*
X108523066Y-103540795D01*
X108713542Y-103588414D01*
X108808780Y-103636033D01*
X108856400Y-103683652D01*
X108904019Y-103778890D01*
X106301638Y-92707461D02*
X106254019Y-92850319D01*
X106254019Y-93088414D01*
X106301638Y-93183652D01*
X106349257Y-93231271D01*
X106444495Y-93278890D01*
X106539733Y-93278890D01*
X106634971Y-93231271D01*
X106682590Y-93183652D01*
X106730209Y-93088414D01*
X106777828Y-92897938D01*
X106825447Y-92802700D01*
X106873066Y-92755080D01*
X106968304Y-92707461D01*
X107063542Y-92707461D01*
X107158780Y-92755080D01*
X107206400Y-92802700D01*
X107254019Y-92897938D01*
X107254019Y-93136033D01*
X107206400Y-93278890D01*
X106920685Y-94136033D02*
X106254019Y-94136033D01*
X106920685Y-93707461D02*
X106396876Y-93707461D01*
X106301638Y-93755080D01*
X106254019Y-93850319D01*
X106254019Y-93993176D01*
X106301638Y-94088414D01*
X106349257Y-94136033D01*
X106254019Y-94612223D02*
X106920685Y-94612223D01*
X106825447Y-94612223D02*
X106873066Y-94659842D01*
X106920685Y-94755080D01*
X106920685Y-94897938D01*
X106873066Y-94993176D01*
X106777828Y-95040795D01*
X106254019Y-95040795D01*
X106777828Y-95040795D02*
X106873066Y-95088414D01*
X106920685Y-95183652D01*
X106920685Y-95326509D01*
X106873066Y-95421747D01*
X106777828Y-95469366D01*
X106254019Y-95469366D01*
X106254019Y-95945557D02*
X106920685Y-95945557D01*
X106825447Y-95945557D02*
X106873066Y-95993176D01*
X106920685Y-96088414D01*
X106920685Y-96231271D01*
X106873066Y-96326509D01*
X106777828Y-96374128D01*
X106254019Y-96374128D01*
X106777828Y-96374128D02*
X106873066Y-96421747D01*
X106920685Y-96516985D01*
X106920685Y-96659842D01*
X106873066Y-96755080D01*
X106777828Y-96802700D01*
X106254019Y-96802700D01*
X106301638Y-97659842D02*
X106254019Y-97564604D01*
X106254019Y-97374128D01*
X106301638Y-97278890D01*
X106396876Y-97231271D01*
X106777828Y-97231271D01*
X106873066Y-97278890D01*
X106920685Y-97374128D01*
X106920685Y-97564604D01*
X106873066Y-97659842D01*
X106777828Y-97707461D01*
X106682590Y-97707461D01*
X106587352Y-97231271D01*
X106254019Y-98136033D02*
X106920685Y-98136033D01*
X106730209Y-98136033D02*
X106825447Y-98183652D01*
X106873066Y-98231271D01*
X106920685Y-98326509D01*
X106920685Y-98421747D01*
X107158780Y-99469366D02*
X107206400Y-99516985D01*
X107254019Y-99612223D01*
X107254019Y-99850319D01*
X107206400Y-99945557D01*
X107158780Y-99993176D01*
X107063542Y-100040795D01*
X106968304Y-100040795D01*
X106825447Y-99993176D01*
X106254019Y-99421747D01*
X106254019Y-100040795D01*
X107254019Y-100659842D02*
X107254019Y-100755080D01*
X107206400Y-100850319D01*
X107158780Y-100897938D01*
X107063542Y-100945557D01*
X106873066Y-100993176D01*
X106634971Y-100993176D01*
X106444495Y-100945557D01*
X106349257Y-100897938D01*
X106301638Y-100850319D01*
X106254019Y-100755080D01*
X106254019Y-100659842D01*
X106301638Y-100564604D01*
X106349257Y-100516985D01*
X106444495Y-100469366D01*
X106634971Y-100421747D01*
X106873066Y-100421747D01*
X107063542Y-100469366D01*
X107158780Y-100516985D01*
X107206400Y-100564604D01*
X107254019Y-100659842D01*
X107158780Y-101374128D02*
X107206400Y-101421747D01*
X107254019Y-101516985D01*
X107254019Y-101755080D01*
X107206400Y-101850319D01*
X107158780Y-101897938D01*
X107063542Y-101945557D01*
X106968304Y-101945557D01*
X106825447Y-101897938D01*
X106254019Y-101326509D01*
X106254019Y-101945557D01*
X107254019Y-102564604D02*
X107254019Y-102659842D01*
X107206400Y-102755080D01*
X107158780Y-102802700D01*
X107063542Y-102850319D01*
X106873066Y-102897938D01*
X106634971Y-102897938D01*
X106444495Y-102850319D01*
X106349257Y-102802700D01*
X106301638Y-102755080D01*
X106254019Y-102659842D01*
X106254019Y-102564604D01*
X106301638Y-102469366D01*
X106349257Y-102421747D01*
X106444495Y-102374128D01*
X106634971Y-102326509D01*
X106873066Y-102326509D01*
X107063542Y-102374128D01*
X107158780Y-102421747D01*
X107206400Y-102469366D01*
X107254019Y-102564604D01*
X153200242Y-105162314D02*
X153162147Y-105200409D01*
X153047861Y-105238504D01*
X152971671Y-105238504D01*
X152857385Y-105200409D01*
X152781195Y-105124219D01*
X152743100Y-105048028D01*
X152705004Y-104895647D01*
X152705004Y-104781361D01*
X152743100Y-104628980D01*
X152781195Y-104552790D01*
X152857385Y-104476600D01*
X152971671Y-104438504D01*
X153047861Y-104438504D01*
X153162147Y-104476600D01*
X153200242Y-104514695D01*
X153505004Y-105009933D02*
X153885957Y-105009933D01*
X153428814Y-105238504D02*
X153695480Y-104438504D01*
X153962147Y-105238504D01*
X154228814Y-105238504D02*
X154228814Y-104438504D01*
X154685957Y-105238504D01*
X154685957Y-104438504D01*
X154876433Y-105314695D02*
X155485957Y-105314695D01*
X156057385Y-105238504D02*
X155676433Y-105238504D01*
X155676433Y-104438504D01*
X162121904Y-92862380D02*
X162121904Y-93243333D01*
X162502857Y-93281428D01*
X162464761Y-93243333D01*
X162426666Y-93167142D01*
X162426666Y-92976666D01*
X162464761Y-92900476D01*
X162502857Y-92862380D01*
X162579047Y-92824285D01*
X162769523Y-92824285D01*
X162845714Y-92862380D01*
X162883809Y-92900476D01*
X162921904Y-92976666D01*
X162921904Y-93167142D01*
X162883809Y-93243333D01*
X162845714Y-93281428D01*
X162121904Y-92595714D02*
X162921904Y-92329047D01*
X162121904Y-92062380D01*
X162160000Y-95859523D02*
X162121904Y-95935714D01*
X162121904Y-96050000D01*
X162160000Y-96164285D01*
X162236190Y-96240476D01*
X162312380Y-96278571D01*
X162464761Y-96316666D01*
X162579047Y-96316666D01*
X162731428Y-96278571D01*
X162807619Y-96240476D01*
X162883809Y-96164285D01*
X162921904Y-96050000D01*
X162921904Y-95973809D01*
X162883809Y-95859523D01*
X162845714Y-95821428D01*
X162579047Y-95821428D01*
X162579047Y-95973809D01*
X162921904Y-95478571D02*
X162121904Y-95478571D01*
X162921904Y-95021428D01*
X162121904Y-95021428D01*
X162921904Y-94640476D02*
X162121904Y-94640476D01*
X162121904Y-94450000D01*
X162160000Y-94335714D01*
X162236190Y-94259523D01*
X162312380Y-94221428D01*
X162464761Y-94183333D01*
X162579047Y-94183333D01*
X162731428Y-94221428D01*
X162807619Y-94259523D01*
X162883809Y-94335714D01*
X162921904Y-94450000D01*
X162921904Y-94640476D01*
X162845714Y-99663095D02*
X162883809Y-99701190D01*
X162921904Y-99815476D01*
X162921904Y-99891666D01*
X162883809Y-100005952D01*
X162807619Y-100082142D01*
X162731428Y-100120238D01*
X162579047Y-100158333D01*
X162464761Y-100158333D01*
X162312380Y-100120238D01*
X162236190Y-100082142D01*
X162160000Y-100005952D01*
X162121904Y-99891666D01*
X162121904Y-99815476D01*
X162160000Y-99701190D01*
X162198095Y-99663095D01*
X162693333Y-99358333D02*
X162693333Y-98977380D01*
X162921904Y-99434523D02*
X162121904Y-99167857D01*
X162921904Y-98901190D01*
X162921904Y-98634523D02*
X162121904Y-98634523D01*
X162921904Y-98177380D01*
X162121904Y-98177380D01*
X162998095Y-97986904D02*
X162998095Y-97377380D01*
X162921904Y-97186904D02*
X162121904Y-97186904D01*
X162502857Y-97186904D02*
X162502857Y-96729761D01*
X162921904Y-96729761D02*
X162121904Y-96729761D01*
X162845714Y-103377857D02*
X162883809Y-103415952D01*
X162921904Y-103530238D01*
X162921904Y-103606428D01*
X162883809Y-103720714D01*
X162807619Y-103796904D01*
X162731428Y-103835000D01*
X162579047Y-103873095D01*
X162464761Y-103873095D01*
X162312380Y-103835000D01*
X162236190Y-103796904D01*
X162160000Y-103720714D01*
X162121904Y-103606428D01*
X162121904Y-103530238D01*
X162160000Y-103415952D01*
X162198095Y-103377857D01*
X162693333Y-103073095D02*
X162693333Y-102692142D01*
X162921904Y-103149285D02*
X162121904Y-102882619D01*
X162921904Y-102615952D01*
X162921904Y-102349285D02*
X162121904Y-102349285D01*
X162921904Y-101892142D01*
X162121904Y-101892142D01*
X162998095Y-101701666D02*
X162998095Y-101092142D01*
X162921904Y-100520714D02*
X162921904Y-100901666D01*
X162121904Y-100901666D01*
X162121904Y-73812380D02*
X162121904Y-74193333D01*
X162502857Y-74231428D01*
X162464761Y-74193333D01*
X162426666Y-74117142D01*
X162426666Y-73926666D01*
X162464761Y-73850476D01*
X162502857Y-73812380D01*
X162579047Y-73774285D01*
X162769523Y-73774285D01*
X162845714Y-73812380D01*
X162883809Y-73850476D01*
X162921904Y-73926666D01*
X162921904Y-74117142D01*
X162883809Y-74193333D01*
X162845714Y-74231428D01*
X162121904Y-73545714D02*
X162921904Y-73279047D01*
X162121904Y-73012380D01*
X162160000Y-76809523D02*
X162121904Y-76885714D01*
X162121904Y-77000000D01*
X162160000Y-77114285D01*
X162236190Y-77190476D01*
X162312380Y-77228571D01*
X162464761Y-77266666D01*
X162579047Y-77266666D01*
X162731428Y-77228571D01*
X162807619Y-77190476D01*
X162883809Y-77114285D01*
X162921904Y-77000000D01*
X162921904Y-76923809D01*
X162883809Y-76809523D01*
X162845714Y-76771428D01*
X162579047Y-76771428D01*
X162579047Y-76923809D01*
X162921904Y-76428571D02*
X162121904Y-76428571D01*
X162921904Y-75971428D01*
X162121904Y-75971428D01*
X162921904Y-75590476D02*
X162121904Y-75590476D01*
X162121904Y-75400000D01*
X162160000Y-75285714D01*
X162236190Y-75209523D01*
X162312380Y-75171428D01*
X162464761Y-75133333D01*
X162579047Y-75133333D01*
X162731428Y-75171428D01*
X162807619Y-75209523D01*
X162883809Y-75285714D01*
X162921904Y-75400000D01*
X162921904Y-75590476D01*
X162845714Y-81248095D02*
X162883809Y-81286190D01*
X162921904Y-81400476D01*
X162921904Y-81476666D01*
X162883809Y-81590952D01*
X162807619Y-81667142D01*
X162731428Y-81705238D01*
X162579047Y-81743333D01*
X162464761Y-81743333D01*
X162312380Y-81705238D01*
X162236190Y-81667142D01*
X162160000Y-81590952D01*
X162121904Y-81476666D01*
X162121904Y-81400476D01*
X162160000Y-81286190D01*
X162198095Y-81248095D01*
X162693333Y-80943333D02*
X162693333Y-80562380D01*
X162921904Y-81019523D02*
X162121904Y-80752857D01*
X162921904Y-80486190D01*
X162921904Y-80219523D02*
X162121904Y-80219523D01*
X162921904Y-79762380D01*
X162121904Y-79762380D01*
X162998095Y-79571904D02*
X162998095Y-78962380D01*
X162921904Y-78771904D02*
X162121904Y-78771904D01*
X162502857Y-78771904D02*
X162502857Y-78314761D01*
X162921904Y-78314761D02*
X162121904Y-78314761D01*
X162845714Y-84962857D02*
X162883809Y-85000952D01*
X162921904Y-85115238D01*
X162921904Y-85191428D01*
X162883809Y-85305714D01*
X162807619Y-85381904D01*
X162731428Y-85420000D01*
X162579047Y-85458095D01*
X162464761Y-85458095D01*
X162312380Y-85420000D01*
X162236190Y-85381904D01*
X162160000Y-85305714D01*
X162121904Y-85191428D01*
X162121904Y-85115238D01*
X162160000Y-85000952D01*
X162198095Y-84962857D01*
X162693333Y-84658095D02*
X162693333Y-84277142D01*
X162921904Y-84734285D02*
X162121904Y-84467619D01*
X162921904Y-84200952D01*
X162921904Y-83934285D02*
X162121904Y-83934285D01*
X162921904Y-83477142D01*
X162121904Y-83477142D01*
X162998095Y-83286666D02*
X162998095Y-82677142D01*
X162921904Y-82105714D02*
X162921904Y-82486666D01*
X162121904Y-82486666D01*
X154635342Y-96666014D02*
X154597247Y-96704109D01*
X154482961Y-96742204D01*
X154406771Y-96742204D01*
X154292485Y-96704109D01*
X154216295Y-96627919D01*
X154178200Y-96551728D01*
X154140104Y-96399347D01*
X154140104Y-96285061D01*
X154178200Y-96132680D01*
X154216295Y-96056490D01*
X154292485Y-95980300D01*
X154406771Y-95942204D01*
X154482961Y-95942204D01*
X154597247Y-95980300D01*
X154635342Y-96018395D01*
X154940104Y-96513633D02*
X155321057Y-96513633D01*
X154863914Y-96742204D02*
X155130580Y-95942204D01*
X155397247Y-96742204D01*
X155663914Y-96742204D02*
X155663914Y-95942204D01*
X156121057Y-96742204D01*
X156121057Y-95942204D01*
X156311533Y-96818395D02*
X156921057Y-96818395D01*
X157492485Y-96742204D02*
X157111533Y-96742204D01*
X157111533Y-95942204D01*
X158350104Y-96666014D02*
X158312009Y-96704109D01*
X158197723Y-96742204D01*
X158121533Y-96742204D01*
X158007247Y-96704109D01*
X157931057Y-96627919D01*
X157892961Y-96551728D01*
X157854866Y-96399347D01*
X157854866Y-96285061D01*
X157892961Y-96132680D01*
X157931057Y-96056490D01*
X158007247Y-95980300D01*
X158121533Y-95942204D01*
X158197723Y-95942204D01*
X158312009Y-95980300D01*
X158350104Y-96018395D01*
X158654866Y-96513633D02*
X159035819Y-96513633D01*
X158578676Y-96742204D02*
X158845342Y-95942204D01*
X159112009Y-96742204D01*
X159378676Y-96742204D02*
X159378676Y-95942204D01*
X159835819Y-96742204D01*
X159835819Y-95942204D01*
X160026295Y-96818395D02*
X160635819Y-96818395D01*
X160826295Y-96742204D02*
X160826295Y-95942204D01*
X160826295Y-96323157D02*
X161283438Y-96323157D01*
X161283438Y-96742204D02*
X161283438Y-95942204D01*
X158489804Y-105314714D02*
X158451709Y-105352809D01*
X158337423Y-105390904D01*
X158261233Y-105390904D01*
X158146947Y-105352809D01*
X158070757Y-105276619D01*
X158032661Y-105200428D01*
X157994566Y-105048047D01*
X157994566Y-104933761D01*
X158032661Y-104781380D01*
X158070757Y-104705190D01*
X158146947Y-104629000D01*
X158261233Y-104590904D01*
X158337423Y-104590904D01*
X158451709Y-104629000D01*
X158489804Y-104667095D01*
X158794566Y-105162333D02*
X159175519Y-105162333D01*
X158718376Y-105390904D02*
X158985042Y-104590904D01*
X159251709Y-105390904D01*
X159518376Y-105390904D02*
X159518376Y-104590904D01*
X159975519Y-105390904D01*
X159975519Y-104590904D01*
X160165995Y-105467095D02*
X160775519Y-105467095D01*
X160965995Y-105390904D02*
X160965995Y-104590904D01*
X160965995Y-104971857D02*
X161423138Y-104971857D01*
X161423138Y-105390904D02*
X161423138Y-104590904D01*
X143452814Y-87928257D02*
X143490909Y-87966352D01*
X143529004Y-88080638D01*
X143529004Y-88156828D01*
X143490909Y-88271114D01*
X143414719Y-88347304D01*
X143338528Y-88385400D01*
X143186147Y-88423495D01*
X143071861Y-88423495D01*
X142919480Y-88385400D01*
X142843290Y-88347304D01*
X142767100Y-88271114D01*
X142729004Y-88156828D01*
X142729004Y-88080638D01*
X142767100Y-87966352D01*
X142805195Y-87928257D01*
X143300433Y-87623495D02*
X143300433Y-87242542D01*
X143529004Y-87699685D02*
X142729004Y-87433019D01*
X143529004Y-87166352D01*
X143529004Y-86899685D02*
X142729004Y-86899685D01*
X143529004Y-86442542D01*
X142729004Y-86442542D01*
X143605195Y-86252066D02*
X143605195Y-85642542D01*
X143529004Y-84994923D02*
X143148052Y-85261590D01*
X143529004Y-85452066D02*
X142729004Y-85452066D01*
X142729004Y-85147304D01*
X142767100Y-85071114D01*
X142805195Y-85033019D01*
X142881385Y-84994923D01*
X142995671Y-84994923D01*
X143071861Y-85033019D01*
X143109957Y-85071114D01*
X143148052Y-85147304D01*
X143148052Y-85452066D01*
X143529004Y-84728257D02*
X142995671Y-84309209D01*
X142995671Y-84728257D02*
X143529004Y-84309209D01*
X133470614Y-88823619D02*
X133508709Y-88861714D01*
X133546804Y-88976000D01*
X133546804Y-89052190D01*
X133508709Y-89166476D01*
X133432519Y-89242666D01*
X133356328Y-89280761D01*
X133203947Y-89318857D01*
X133089661Y-89318857D01*
X132937280Y-89280761D01*
X132861090Y-89242666D01*
X132784900Y-89166476D01*
X132746804Y-89052190D01*
X132746804Y-88976000D01*
X132784900Y-88861714D01*
X132822995Y-88823619D01*
X133318233Y-88518857D02*
X133318233Y-88137904D01*
X133546804Y-88595047D02*
X132746804Y-88328380D01*
X133546804Y-88061714D01*
X133546804Y-87795047D02*
X132746804Y-87795047D01*
X133546804Y-87337904D01*
X132746804Y-87337904D01*
X133622995Y-87147428D02*
X133622995Y-86537904D01*
X132746804Y-86461714D02*
X132746804Y-86004571D01*
X133546804Y-86233142D02*
X132746804Y-86233142D01*
X133546804Y-85814095D02*
X133013471Y-85395047D01*
X133013471Y-85814095D02*
X133546804Y-85395047D01*
D11*
%TO.C,G\u002A\u002A\u002A*%
G36*
X118470361Y-100442722D02*
G01*
X118388082Y-100750368D01*
X118113918Y-101376942D01*
X117694125Y-101981210D01*
X117152059Y-102530045D01*
X117105425Y-102569470D01*
X116840079Y-102782132D01*
X116608175Y-102952512D01*
X116439547Y-103060243D01*
X116364030Y-103084960D01*
X116363098Y-103076179D01*
X116416413Y-103004998D01*
X116553361Y-102836616D01*
X116747921Y-102602869D01*
X116819958Y-102517259D01*
X117348527Y-101804833D01*
X117728967Y-101087595D01*
X117962562Y-100351126D01*
X118050593Y-99581009D01*
X117994343Y-98762827D01*
X117795092Y-97882163D01*
X117454124Y-96924597D01*
X117341000Y-96658014D01*
X117186027Y-96289217D01*
X117104843Y-96064115D01*
X117092377Y-95976555D01*
X117143558Y-96020383D01*
X117253315Y-96189446D01*
X117416576Y-96477590D01*
X117628270Y-96878662D01*
X117795942Y-97210034D01*
X118152797Y-97989164D01*
X118394211Y-98675358D01*
X118524640Y-99295255D01*
X118548537Y-99875497D01*
X118470361Y-100442722D01*
G37*
X118470361Y-100442722D02*
X118388082Y-100750368D01*
X118113918Y-101376942D01*
X117694125Y-101981210D01*
X117152059Y-102530045D01*
X117105425Y-102569470D01*
X116840079Y-102782132D01*
X116608175Y-102952512D01*
X116439547Y-103060243D01*
X116364030Y-103084960D01*
X116363098Y-103076179D01*
X116416413Y-103004998D01*
X116553361Y-102836616D01*
X116747921Y-102602869D01*
X116819958Y-102517259D01*
X117348527Y-101804833D01*
X117728967Y-101087595D01*
X117962562Y-100351126D01*
X118050593Y-99581009D01*
X117994343Y-98762827D01*
X117795092Y-97882163D01*
X117454124Y-96924597D01*
X117341000Y-96658014D01*
X117186027Y-96289217D01*
X117104843Y-96064115D01*
X117092377Y-95976555D01*
X117143558Y-96020383D01*
X117253315Y-96189446D01*
X117416576Y-96477590D01*
X117628270Y-96878662D01*
X117795942Y-97210034D01*
X118152797Y-97989164D01*
X118394211Y-98675358D01*
X118524640Y-99295255D01*
X118548537Y-99875497D01*
X118470361Y-100442722D01*
G36*
X115079229Y-96555700D02*
G01*
X115052176Y-96746244D01*
X115002427Y-96810675D01*
X114981566Y-96808291D01*
X114885553Y-96705589D01*
X114848678Y-96589568D01*
X114776584Y-96446064D01*
X114594678Y-96404544D01*
X114279813Y-96375213D01*
X114066108Y-96298773D01*
X113986737Y-96187132D01*
X113986733Y-96186275D01*
X114011780Y-96125913D01*
X114106982Y-96104659D01*
X114302427Y-96122737D01*
X114628207Y-96180373D01*
X114685233Y-96191475D01*
X114809658Y-96159244D01*
X114833400Y-96066163D01*
X114878585Y-95920058D01*
X114928883Y-95879984D01*
X114908873Y-95828869D01*
X114767124Y-95723845D01*
X114533416Y-95586602D01*
X114505549Y-95571630D01*
X114246594Y-95418018D01*
X114060640Y-95277968D01*
X113986807Y-95181080D01*
X113986733Y-95179076D01*
X114063485Y-95089530D01*
X114268104Y-94989128D01*
X114444264Y-94930041D01*
X114766549Y-94841359D01*
X114959898Y-94806060D01*
X115055951Y-94823767D01*
X115086346Y-94894106D01*
X115087400Y-94922420D01*
X115014457Y-95029342D01*
X114854566Y-95098825D01*
X114584402Y-95165621D01*
X114473364Y-95224797D01*
X114513486Y-95296180D01*
X114696801Y-95399597D01*
X114727566Y-95414867D01*
X115087400Y-95592394D01*
X115087400Y-96217769D01*
X115079229Y-96555700D01*
G37*
X115079229Y-96555700D02*
X115052176Y-96746244D01*
X115002427Y-96810675D01*
X114981566Y-96808291D01*
X114885553Y-96705589D01*
X114848678Y-96589568D01*
X114776584Y-96446064D01*
X114594678Y-96404544D01*
X114279813Y-96375213D01*
X114066108Y-96298773D01*
X113986737Y-96187132D01*
X113986733Y-96186275D01*
X114011780Y-96125913D01*
X114106982Y-96104659D01*
X114302427Y-96122737D01*
X114628207Y-96180373D01*
X114685233Y-96191475D01*
X114809658Y-96159244D01*
X114833400Y-96066163D01*
X114878585Y-95920058D01*
X114928883Y-95879984D01*
X114908873Y-95828869D01*
X114767124Y-95723845D01*
X114533416Y-95586602D01*
X114505549Y-95571630D01*
X114246594Y-95418018D01*
X114060640Y-95277968D01*
X113986807Y-95181080D01*
X113986733Y-95179076D01*
X114063485Y-95089530D01*
X114268104Y-94989128D01*
X114444264Y-94930041D01*
X114766549Y-94841359D01*
X114959898Y-94806060D01*
X115055951Y-94823767D01*
X115086346Y-94894106D01*
X115087400Y-94922420D01*
X115014457Y-95029342D01*
X114854566Y-95098825D01*
X114584402Y-95165621D01*
X114473364Y-95224797D01*
X114513486Y-95296180D01*
X114696801Y-95399597D01*
X114727566Y-95414867D01*
X115087400Y-95592394D01*
X115087400Y-96217769D01*
X115079229Y-96555700D01*
G36*
X115073804Y-93623919D02*
G01*
X115026732Y-93753944D01*
X114960400Y-93781034D01*
X114856891Y-93710750D01*
X114833400Y-93614616D01*
X114802225Y-93508895D01*
X114682724Y-93442696D01*
X114435935Y-93395534D01*
X114410066Y-93392042D01*
X114124225Y-93332566D01*
X113996190Y-93248882D01*
X113986733Y-93211848D01*
X114018702Y-93140953D01*
X114139182Y-93119793D01*
X114385034Y-93142636D01*
X114410066Y-93146034D01*
X114664199Y-93172650D01*
X114791893Y-93156881D01*
X114832324Y-93091626D01*
X114833400Y-93069312D01*
X114897756Y-92952043D01*
X114960400Y-92934367D01*
X115040265Y-92979686D01*
X115079273Y-93136594D01*
X115087400Y-93357700D01*
X115073804Y-93623919D01*
G37*
X115073804Y-93623919D02*
X115026732Y-93753944D01*
X114960400Y-93781034D01*
X114856891Y-93710750D01*
X114833400Y-93614616D01*
X114802225Y-93508895D01*
X114682724Y-93442696D01*
X114435935Y-93395534D01*
X114410066Y-93392042D01*
X114124225Y-93332566D01*
X113996190Y-93248882D01*
X113986733Y-93211848D01*
X114018702Y-93140953D01*
X114139182Y-93119793D01*
X114385034Y-93142636D01*
X114410066Y-93146034D01*
X114664199Y-93172650D01*
X114791893Y-93156881D01*
X114832324Y-93091626D01*
X114833400Y-93069312D01*
X114897756Y-92952043D01*
X114960400Y-92934367D01*
X115040265Y-92979686D01*
X115079273Y-93136594D01*
X115087400Y-93357700D01*
X115073804Y-93623919D01*
G36*
X115043704Y-94584835D02*
G01*
X114981566Y-94606112D01*
X114898781Y-94503671D01*
X114875733Y-94373700D01*
X114835418Y-94191619D01*
X114738973Y-94156971D01*
X114623153Y-94275601D01*
X114595804Y-94329174D01*
X114448081Y-94503309D01*
X114258910Y-94528043D01*
X114070028Y-94401469D01*
X114033867Y-94354861D01*
X113919856Y-94143783D01*
X113928130Y-93972619D01*
X113978564Y-93876020D01*
X114079953Y-93795383D01*
X114159990Y-93850626D01*
X114185735Y-94008692D01*
X114177175Y-94075346D01*
X114186769Y-94243418D01*
X114272231Y-94289582D01*
X114387980Y-94209930D01*
X114453490Y-94099028D01*
X114602460Y-93922749D01*
X114803089Y-93880133D01*
X114964467Y-93953742D01*
X115042628Y-94082538D01*
X115082909Y-94269627D01*
X115083779Y-94456547D01*
X115043704Y-94584835D01*
G37*
X115043704Y-94584835D02*
X114981566Y-94606112D01*
X114898781Y-94503671D01*
X114875733Y-94373700D01*
X114835418Y-94191619D01*
X114738973Y-94156971D01*
X114623153Y-94275601D01*
X114595804Y-94329174D01*
X114448081Y-94503309D01*
X114258910Y-94528043D01*
X114070028Y-94401469D01*
X114033867Y-94354861D01*
X113919856Y-94143783D01*
X113928130Y-93972619D01*
X113978564Y-93876020D01*
X114079953Y-93795383D01*
X114159990Y-93850626D01*
X114185735Y-94008692D01*
X114177175Y-94075346D01*
X114186769Y-94243418D01*
X114272231Y-94289582D01*
X114387980Y-94209930D01*
X114453490Y-94099028D01*
X114602460Y-93922749D01*
X114803089Y-93880133D01*
X114964467Y-93953742D01*
X115042628Y-94082538D01*
X115082909Y-94269627D01*
X115083779Y-94456547D01*
X115043704Y-94584835D01*
G36*
X115018085Y-92746317D02*
G01*
X114939233Y-92763014D01*
X114724606Y-92739256D01*
X114464929Y-92684106D01*
X114227277Y-92614808D01*
X114078724Y-92548607D01*
X114067039Y-92538782D01*
X113972399Y-92348709D01*
X113943723Y-92100031D01*
X113991468Y-91897200D01*
X114126815Y-91798559D01*
X114350588Y-91748101D01*
X114610589Y-91743047D01*
X114854618Y-91780619D01*
X115030477Y-91858035D01*
X115087400Y-91955558D01*
X115029291Y-92015226D01*
X114841307Y-92032410D01*
X114614391Y-92020073D01*
X114346611Y-92001874D01*
X114208952Y-92013965D01*
X114162985Y-92070383D01*
X114169891Y-92182440D01*
X114212117Y-92306693D01*
X114323638Y-92384921D01*
X114547787Y-92442498D01*
X114642900Y-92459441D01*
X114929245Y-92529095D01*
X115073710Y-92613465D01*
X115087400Y-92649941D01*
X115018085Y-92746317D01*
G37*
X115018085Y-92746317D02*
X114939233Y-92763014D01*
X114724606Y-92739256D01*
X114464929Y-92684106D01*
X114227277Y-92614808D01*
X114078724Y-92548607D01*
X114067039Y-92538782D01*
X113972399Y-92348709D01*
X113943723Y-92100031D01*
X113991468Y-91897200D01*
X114126815Y-91798559D01*
X114350588Y-91748101D01*
X114610589Y-91743047D01*
X114854618Y-91780619D01*
X115030477Y-91858035D01*
X115087400Y-91955558D01*
X115029291Y-92015226D01*
X114841307Y-92032410D01*
X114614391Y-92020073D01*
X114346611Y-92001874D01*
X114208952Y-92013965D01*
X114162985Y-92070383D01*
X114169891Y-92182440D01*
X114212117Y-92306693D01*
X114323638Y-92384921D01*
X114547787Y-92442498D01*
X114642900Y-92459441D01*
X114929245Y-92529095D01*
X115073710Y-92613465D01*
X115087400Y-92649941D01*
X115018085Y-92746317D01*
G36*
X116331738Y-96171643D02*
G01*
X116277563Y-97786001D01*
X116191587Y-99553921D01*
X116073727Y-101474229D01*
X116055737Y-101739700D01*
X116009720Y-102392646D01*
X115958798Y-103083256D01*
X115906847Y-103761033D01*
X115857745Y-104375478D01*
X115815370Y-104876093D01*
X115811942Y-104914700D01*
X115698599Y-106184700D01*
X115752833Y-104279700D01*
X115772668Y-103462780D01*
X115788076Y-102576753D01*
X115799166Y-101641582D01*
X115806043Y-100677227D01*
X115808815Y-99703650D01*
X115807589Y-98740813D01*
X115802473Y-97808678D01*
X115793572Y-96927207D01*
X115780996Y-96116360D01*
X115764849Y-95396101D01*
X115745241Y-94786390D01*
X115722277Y-94307189D01*
X115697633Y-93992700D01*
X115577975Y-93018140D01*
X115445196Y-92205446D01*
X115296756Y-91547480D01*
X115130117Y-91037106D01*
X114942739Y-90667187D01*
X114732082Y-90430586D01*
X114495607Y-90320167D01*
X114387211Y-90309700D01*
X114144576Y-90359625D01*
X113900513Y-90480200D01*
X113893970Y-90484799D01*
X113741846Y-90582963D01*
X113673766Y-90593425D01*
X113692397Y-90502976D01*
X113800403Y-90298405D01*
X113997655Y-89971034D01*
X114287462Y-89542326D01*
X114582218Y-89178492D01*
X114857468Y-88905985D01*
X115088757Y-88751259D01*
X115142522Y-88732592D01*
X115401830Y-88746679D01*
X115630160Y-88926082D01*
X115827432Y-89269626D01*
X115993561Y-89776135D01*
X116128466Y-90444434D01*
X116232064Y-91273347D01*
X116304273Y-92261700D01*
X116345010Y-93408318D01*
X116354192Y-94712023D01*
X116331738Y-96171643D01*
G37*
X116331738Y-96171643D02*
X116277563Y-97786001D01*
X116191587Y-99553921D01*
X116073727Y-101474229D01*
X116055737Y-101739700D01*
X116009720Y-102392646D01*
X115958798Y-103083256D01*
X115906847Y-103761033D01*
X115857745Y-104375478D01*
X115815370Y-104876093D01*
X115811942Y-104914700D01*
X115698599Y-106184700D01*
X115752833Y-104279700D01*
X115772668Y-103462780D01*
X115788076Y-102576753D01*
X115799166Y-101641582D01*
X115806043Y-100677227D01*
X115808815Y-99703650D01*
X115807589Y-98740813D01*
X115802473Y-97808678D01*
X115793572Y-96927207D01*
X115780996Y-96116360D01*
X115764849Y-95396101D01*
X115745241Y-94786390D01*
X115722277Y-94307189D01*
X115697633Y-93992700D01*
X115577975Y-93018140D01*
X115445196Y-92205446D01*
X115296756Y-91547480D01*
X115130117Y-91037106D01*
X114942739Y-90667187D01*
X114732082Y-90430586D01*
X114495607Y-90320167D01*
X114387211Y-90309700D01*
X114144576Y-90359625D01*
X113900513Y-90480200D01*
X113893970Y-90484799D01*
X113741846Y-90582963D01*
X113673766Y-90593425D01*
X113692397Y-90502976D01*
X113800403Y-90298405D01*
X113997655Y-89971034D01*
X114287462Y-89542326D01*
X114582218Y-89178492D01*
X114857468Y-88905985D01*
X115088757Y-88751259D01*
X115142522Y-88732592D01*
X115401830Y-88746679D01*
X115630160Y-88926082D01*
X115827432Y-89269626D01*
X115993561Y-89776135D01*
X116128466Y-90444434D01*
X116232064Y-91273347D01*
X116304273Y-92261700D01*
X116345010Y-93408318D01*
X116354192Y-94712023D01*
X116331738Y-96171643D01*
G36*
X115492516Y-101394316D02*
G01*
X115410701Y-102160795D01*
X115266261Y-102832021D01*
X115224411Y-102967367D01*
X114967427Y-103603979D01*
X114669425Y-104099366D01*
X114339036Y-104449075D01*
X113984889Y-104648652D01*
X113615614Y-104693644D01*
X113239840Y-104579597D01*
X112866197Y-104302057D01*
X112789899Y-104223759D01*
X112467600Y-103764406D01*
X112225655Y-103182028D01*
X112070882Y-102506134D01*
X112010095Y-101766231D01*
X112047823Y-101011422D01*
X112111781Y-100618959D01*
X112207250Y-100212814D01*
X112292674Y-99940742D01*
X112456492Y-99571944D01*
X112675815Y-99170442D01*
X112919106Y-98786864D01*
X113154830Y-98471838D01*
X113308042Y-98310700D01*
X113501899Y-98141367D01*
X113372714Y-98395367D01*
X113109988Y-99050455D01*
X112930097Y-99793830D01*
X112834821Y-100583148D01*
X112825941Y-101376066D01*
X112905237Y-102130242D01*
X113074491Y-102803332D01*
X113176530Y-103059839D01*
X113419341Y-103486218D01*
X113679175Y-103747914D01*
X113947975Y-103847709D01*
X114217683Y-103788386D01*
X114480240Y-103572727D01*
X114727590Y-103203515D01*
X114951674Y-102683531D01*
X115038050Y-102417034D01*
X115212171Y-101600903D01*
X115284657Y-100698098D01*
X115256813Y-99756394D01*
X115129947Y-98823566D01*
X114916799Y-97982589D01*
X114813447Y-97650310D01*
X114737487Y-97384831D01*
X114699018Y-97222674D01*
X114697753Y-97190458D01*
X114751950Y-97232705D01*
X114838663Y-97406275D01*
X114946556Y-97678935D01*
X115064289Y-98018452D01*
X115180524Y-98392594D01*
X115283922Y-98769128D01*
X115346366Y-99034357D01*
X115461933Y-99779997D01*
X115510121Y-100583683D01*
X115492516Y-101394316D01*
G37*
X115492516Y-101394316D02*
X115410701Y-102160795D01*
X115266261Y-102832021D01*
X115224411Y-102967367D01*
X114967427Y-103603979D01*
X114669425Y-104099366D01*
X114339036Y-104449075D01*
X113984889Y-104648652D01*
X113615614Y-104693644D01*
X113239840Y-104579597D01*
X112866197Y-104302057D01*
X112789899Y-104223759D01*
X112467600Y-103764406D01*
X112225655Y-103182028D01*
X112070882Y-102506134D01*
X112010095Y-101766231D01*
X112047823Y-101011422D01*
X112111781Y-100618959D01*
X112207250Y-100212814D01*
X112292674Y-99940742D01*
X112456492Y-99571944D01*
X112675815Y-99170442D01*
X112919106Y-98786864D01*
X113154830Y-98471838D01*
X113308042Y-98310700D01*
X113501899Y-98141367D01*
X113372714Y-98395367D01*
X113109988Y-99050455D01*
X112930097Y-99793830D01*
X112834821Y-100583148D01*
X112825941Y-101376066D01*
X112905237Y-102130242D01*
X113074491Y-102803332D01*
X113176530Y-103059839D01*
X113419341Y-103486218D01*
X113679175Y-103747914D01*
X113947975Y-103847709D01*
X114217683Y-103788386D01*
X114480240Y-103572727D01*
X114727590Y-103203515D01*
X114951674Y-102683531D01*
X115038050Y-102417034D01*
X115212171Y-101600903D01*
X115284657Y-100698098D01*
X115256813Y-99756394D01*
X115129947Y-98823566D01*
X114916799Y-97982589D01*
X114813447Y-97650310D01*
X114737487Y-97384831D01*
X114699018Y-97222674D01*
X114697753Y-97190458D01*
X114751950Y-97232705D01*
X114838663Y-97406275D01*
X114946556Y-97678935D01*
X115064289Y-98018452D01*
X115180524Y-98392594D01*
X115283922Y-98769128D01*
X115346366Y-99034357D01*
X115461933Y-99779997D01*
X115510121Y-100583683D01*
X115492516Y-101394316D01*
G36*
X114128087Y-98116117D02*
G01*
X113993773Y-97932690D01*
X113809352Y-97662408D01*
X113593640Y-97334258D01*
X113365452Y-96977226D01*
X113143605Y-96620299D01*
X112946914Y-96292465D01*
X112811911Y-96055321D01*
X112444760Y-95308108D01*
X112166362Y-94578666D01*
X111982256Y-93890650D01*
X111897976Y-93267712D01*
X111919061Y-92733507D01*
X111976931Y-92488043D01*
X112223123Y-92004569D01*
X112615195Y-91603159D01*
X113086971Y-91317251D01*
X113353980Y-91202203D01*
X113589555Y-91119527D01*
X113768427Y-91073625D01*
X113865326Y-91068899D01*
X113854982Y-91109750D01*
X113712126Y-91200579D01*
X113690400Y-91212149D01*
X113226558Y-91545340D01*
X112852470Y-91994088D01*
X112772479Y-92130034D01*
X112690952Y-92303125D01*
X112637982Y-92487715D01*
X112608024Y-92724705D01*
X112595531Y-93054996D01*
X112594513Y-93442367D01*
X112602330Y-93904613D01*
X112626886Y-94259977D01*
X112677739Y-94570759D01*
X112764445Y-94899258D01*
X112867275Y-95220367D01*
X113012616Y-95613392D01*
X113212459Y-96095435D01*
X113440889Y-96606493D01*
X113671992Y-97086563D01*
X113680888Y-97104200D01*
X113872729Y-97488040D01*
X114030372Y-97811734D01*
X114141160Y-98048627D01*
X114192436Y-98172064D01*
X114193477Y-98183700D01*
X114128087Y-98116117D01*
G37*
X114128087Y-98116117D02*
X113993773Y-97932690D01*
X113809352Y-97662408D01*
X113593640Y-97334258D01*
X113365452Y-96977226D01*
X113143605Y-96620299D01*
X112946914Y-96292465D01*
X112811911Y-96055321D01*
X112444760Y-95308108D01*
X112166362Y-94578666D01*
X111982256Y-93890650D01*
X111897976Y-93267712D01*
X111919061Y-92733507D01*
X111976931Y-92488043D01*
X112223123Y-92004569D01*
X112615195Y-91603159D01*
X113086971Y-91317251D01*
X113353980Y-91202203D01*
X113589555Y-91119527D01*
X113768427Y-91073625D01*
X113865326Y-91068899D01*
X113854982Y-91109750D01*
X113712126Y-91200579D01*
X113690400Y-91212149D01*
X113226558Y-91545340D01*
X112852470Y-91994088D01*
X112772479Y-92130034D01*
X112690952Y-92303125D01*
X112637982Y-92487715D01*
X112608024Y-92724705D01*
X112595531Y-93054996D01*
X112594513Y-93442367D01*
X112602330Y-93904613D01*
X112626886Y-94259977D01*
X112677739Y-94570759D01*
X112764445Y-94899258D01*
X112867275Y-95220367D01*
X113012616Y-95613392D01*
X113212459Y-96095435D01*
X113440889Y-96606493D01*
X113671992Y-97086563D01*
X113680888Y-97104200D01*
X113872729Y-97488040D01*
X114030372Y-97811734D01*
X114141160Y-98048627D01*
X114192436Y-98172064D01*
X114193477Y-98183700D01*
X114128087Y-98116117D01*
D12*
%TO.C,C7*%
X156932700Y-92591122D02*
X156932700Y-93108278D01*
X155512700Y-92591122D02*
X155512700Y-93108278D01*
D10*
%TO.C,TP4*%
X156169300Y-107276900D02*
G75*
G03*
X156169300Y-107276900I-1750000J0D01*
G01*
%TO.C,TP3*%
X161350900Y-107340400D02*
G75*
G03*
X161350900Y-107340400I-1750000J0D01*
G01*
%TO.C,TP2*%
X147457100Y-86385400D02*
G75*
G03*
X147457100Y-86385400I-1750000J0D01*
G01*
%TO.C,TP1*%
X137474900Y-87376000D02*
G75*
G03*
X137474900Y-87376000I-1750000J0D01*
G01*
%TO.C,J2*%
X163200000Y-88210000D02*
X168100000Y-88210000D01*
X163200000Y-106210000D02*
X163200000Y-88210000D01*
X168100000Y-106210000D02*
X163200000Y-106210000D01*
X168100000Y-103210000D02*
X168100000Y-106210000D01*
X167100000Y-103210000D02*
X168100000Y-103210000D01*
X167100000Y-91210000D02*
X167100000Y-103210000D01*
X168100000Y-91210000D02*
X167100000Y-91210000D01*
X168100000Y-88210000D02*
X168100000Y-91210000D01*
D12*
%TO.C,U3*%
X142922900Y-109990200D02*
X142012900Y-109990200D01*
X140612900Y-109990200D02*
X139702900Y-109990200D01*
X142922900Y-107415200D02*
X142922900Y-109990200D01*
X139702900Y-107840200D02*
X139702900Y-109990200D01*
D10*
%TO.C,U2*%
X152010100Y-95001900D02*
X152010100Y-101501900D01*
X152010100Y-101501900D02*
X136610100Y-101501900D01*
X136610100Y-101501900D02*
X136610100Y-94001900D01*
X136610100Y-94001900D02*
X151010100Y-94001900D01*
X151010100Y-94001900D02*
X152010100Y-95001900D01*
%TO.C,U1*%
X106680000Y-69723000D02*
X111252000Y-69723000D01*
X111252000Y-69723000D02*
X111252000Y-77597000D01*
X111252000Y-77597000D02*
X106680000Y-77597000D01*
X156972000Y-64389000D02*
X106680000Y-64389000D01*
X106680000Y-64389000D02*
X106680000Y-82931000D01*
X106680000Y-82931000D02*
X156972000Y-82931000D01*
X156972000Y-82931000D02*
X156972000Y-64389000D01*
D12*
%TO.C,R3*%
X156742200Y-102141522D02*
X156742200Y-102658678D01*
X155322200Y-102141522D02*
X155322200Y-102658678D01*
%TO.C,R2*%
X160044200Y-102141522D02*
X160044200Y-102658678D01*
X158624200Y-102141522D02*
X158624200Y-102658678D01*
%TO.C,R1*%
X136926822Y-107024100D02*
X137443978Y-107024100D01*
X136926822Y-108444100D02*
X137443978Y-108444100D01*
%TO.C,L2*%
X146858222Y-109195800D02*
X147375378Y-109195800D01*
X146858222Y-110615800D02*
X147375378Y-110615800D01*
%TO.C,L1*%
X145435822Y-105576300D02*
X145952978Y-105576300D01*
X145435822Y-106996300D02*
X145952978Y-106996300D01*
%TO.C,JP1*%
X155083200Y-96955300D02*
X155083200Y-99615300D01*
X157683200Y-96955300D02*
X155083200Y-96955300D01*
X157683200Y-99615300D02*
X155083200Y-99615300D01*
X157683200Y-96955300D02*
X157683200Y-99615300D01*
X158953200Y-96955300D02*
X160283200Y-96955300D01*
X160283200Y-96955300D02*
X160283200Y-98285300D01*
D10*
%TO.C,J1*%
X168100000Y-69335000D02*
X168100000Y-72335000D01*
X168100000Y-72335000D02*
X167100000Y-72335000D01*
X167100000Y-72335000D02*
X167100000Y-84335000D01*
X167100000Y-84335000D02*
X168100000Y-84335000D01*
X168100000Y-84335000D02*
X168100000Y-87335000D01*
X168100000Y-87335000D02*
X163200000Y-87335000D01*
X163200000Y-87335000D02*
X163200000Y-69335000D01*
X163200000Y-69335000D02*
X168100000Y-69335000D01*
D12*
%TO.C,C8*%
X160285500Y-92692722D02*
X160285500Y-93209878D01*
X158865500Y-92692722D02*
X158865500Y-93209878D01*
%TO.C,C6*%
X153681500Y-92540322D02*
X153681500Y-93057478D01*
X152261500Y-92540322D02*
X152261500Y-93057478D01*
%TO.C,C5*%
X149461722Y-105601700D02*
X149978878Y-105601700D01*
X149461722Y-107021700D02*
X149978878Y-107021700D01*
%TO.C,C4*%
X150671600Y-84780622D02*
X150671600Y-85297778D01*
X149251600Y-84780622D02*
X149251600Y-85297778D01*
%TO.C,C3*%
X153935500Y-84651322D02*
X153935500Y-85168478D01*
X152515500Y-84651322D02*
X152515500Y-85168478D01*
%TO.C,C2*%
X153999000Y-88235022D02*
X153999000Y-88752178D01*
X152579000Y-88235022D02*
X152579000Y-88752178D01*
%TO.C,C1*%
X150557300Y-88298522D02*
X150557300Y-88815678D01*
X149137300Y-88298522D02*
X149137300Y-88815678D01*
%TO.C,C7*%
D10*
X158229842Y-93016366D02*
X158277461Y-93063985D01*
X158325080Y-93206842D01*
X158325080Y-93302080D01*
X158277461Y-93444938D01*
X158182223Y-93540176D01*
X158086985Y-93587795D01*
X157896509Y-93635414D01*
X157753652Y-93635414D01*
X157563176Y-93587795D01*
X157467938Y-93540176D01*
X157372700Y-93444938D01*
X157325080Y-93302080D01*
X157325080Y-93206842D01*
X157372700Y-93063985D01*
X157420319Y-93016366D01*
X157325080Y-92683033D02*
X157325080Y-92016366D01*
X158325080Y-92444938D01*
%TO.C,J2*%
X167244780Y-97488333D02*
X167959066Y-97488333D01*
X168101923Y-97535952D01*
X168197161Y-97631190D01*
X168244780Y-97774047D01*
X168244780Y-97869285D01*
X167340019Y-97059761D02*
X167292400Y-97012142D01*
X167244780Y-96916904D01*
X167244780Y-96678809D01*
X167292400Y-96583571D01*
X167340019Y-96535952D01*
X167435257Y-96488333D01*
X167530495Y-96488333D01*
X167673352Y-96535952D01*
X168244780Y-97107380D01*
X168244780Y-96488333D01*
%TO.C,U3*%
X143265280Y-109677104D02*
X144074804Y-109677104D01*
X144170042Y-109629485D01*
X144217661Y-109581866D01*
X144265280Y-109486628D01*
X144265280Y-109296152D01*
X144217661Y-109200914D01*
X144170042Y-109153295D01*
X144074804Y-109105676D01*
X143265280Y-109105676D01*
X143265280Y-108724723D02*
X143265280Y-108105676D01*
X143646233Y-108439009D01*
X143646233Y-108296152D01*
X143693852Y-108200914D01*
X143741471Y-108153295D01*
X143836709Y-108105676D01*
X144074804Y-108105676D01*
X144170042Y-108153295D01*
X144217661Y-108200914D01*
X144265280Y-108296152D01*
X144265280Y-108581866D01*
X144217661Y-108677104D01*
X144170042Y-108724723D01*
%TO.C,U2*%
X152562480Y-98513804D02*
X153372004Y-98513804D01*
X153467242Y-98466185D01*
X153514861Y-98418566D01*
X153562480Y-98323328D01*
X153562480Y-98132852D01*
X153514861Y-98037614D01*
X153467242Y-97989995D01*
X153372004Y-97942376D01*
X152562480Y-97942376D01*
X152657719Y-97513804D02*
X152610100Y-97466185D01*
X152562480Y-97370947D01*
X152562480Y-97132852D01*
X152610100Y-97037614D01*
X152657719Y-96989995D01*
X152752957Y-96942376D01*
X152848195Y-96942376D01*
X152991052Y-96989995D01*
X153562480Y-97561423D01*
X153562480Y-96942376D01*
%TO.C,U1*%
X157567380Y-74421904D02*
X158376904Y-74421904D01*
X158472142Y-74374285D01*
X158519761Y-74326666D01*
X158567380Y-74231428D01*
X158567380Y-74040952D01*
X158519761Y-73945714D01*
X158472142Y-73898095D01*
X158376904Y-73850476D01*
X157567380Y-73850476D01*
X158567380Y-72850476D02*
X158567380Y-73421904D01*
X158567380Y-73136190D02*
X157567380Y-73136190D01*
X157710238Y-73231428D01*
X157805476Y-73326666D01*
X157853095Y-73421904D01*
X127826190Y-74112380D02*
X127826190Y-73112380D01*
X128397619Y-74112380D01*
X128397619Y-73112380D01*
X129302380Y-73445714D02*
X129302380Y-74112380D01*
X128873809Y-73445714D02*
X128873809Y-73969523D01*
X128921428Y-74064761D01*
X129016666Y-74112380D01*
X129159523Y-74112380D01*
X129254761Y-74064761D01*
X129302380Y-74017142D01*
X130207142Y-74064761D02*
X130111904Y-74112380D01*
X129921428Y-74112380D01*
X129826190Y-74064761D01*
X129778571Y-74017142D01*
X129730952Y-73921904D01*
X129730952Y-73636190D01*
X129778571Y-73540952D01*
X129826190Y-73493333D01*
X129921428Y-73445714D01*
X130111904Y-73445714D01*
X130207142Y-73493333D01*
X130778571Y-74112380D02*
X130683333Y-74064761D01*
X130635714Y-73969523D01*
X130635714Y-73112380D01*
X131540476Y-74064761D02*
X131445238Y-74112380D01*
X131254761Y-74112380D01*
X131159523Y-74064761D01*
X131111904Y-73969523D01*
X131111904Y-73588571D01*
X131159523Y-73493333D01*
X131254761Y-73445714D01*
X131445238Y-73445714D01*
X131540476Y-73493333D01*
X131588095Y-73588571D01*
X131588095Y-73683809D01*
X131111904Y-73779047D01*
X132159523Y-74112380D02*
X132064285Y-74064761D01*
X132016666Y-74017142D01*
X131969047Y-73921904D01*
X131969047Y-73636190D01*
X132016666Y-73540952D01*
X132064285Y-73493333D01*
X132159523Y-73445714D01*
X132302380Y-73445714D01*
X132397619Y-73493333D01*
X132445238Y-73540952D01*
X132492857Y-73636190D01*
X132492857Y-73921904D01*
X132445238Y-74017142D01*
X132397619Y-74064761D01*
X132302380Y-74112380D01*
X132159523Y-74112380D01*
X134159523Y-74112380D02*
X133683333Y-74112380D01*
X133683333Y-73112380D01*
X134921428Y-73445714D02*
X134921428Y-74112380D01*
X134683333Y-73064761D02*
X134445238Y-73779047D01*
X135064285Y-73779047D01*
X135350000Y-73112380D02*
X135969047Y-73112380D01*
X135635714Y-73493333D01*
X135778571Y-73493333D01*
X135873809Y-73540952D01*
X135921428Y-73588571D01*
X135969047Y-73683809D01*
X135969047Y-73921904D01*
X135921428Y-74017142D01*
X135873809Y-74064761D01*
X135778571Y-74112380D01*
X135492857Y-74112380D01*
X135397619Y-74064761D01*
X135350000Y-74017142D01*
X136350000Y-73207619D02*
X136397619Y-73160000D01*
X136492857Y-73112380D01*
X136730952Y-73112380D01*
X136826190Y-73160000D01*
X136873809Y-73207619D01*
X136921428Y-73302857D01*
X136921428Y-73398095D01*
X136873809Y-73540952D01*
X136302380Y-74112380D01*
X136921428Y-74112380D01*
X137350000Y-74112380D02*
X137350000Y-73112380D01*
X137921428Y-74112380D02*
X137492857Y-73540952D01*
X137921428Y-73112380D02*
X137350000Y-73683809D01*
X138921428Y-74017142D02*
X138873809Y-74064761D01*
X138730952Y-74112380D01*
X138635714Y-74112380D01*
X138492857Y-74064761D01*
X138397619Y-73969523D01*
X138350000Y-73874285D01*
X138302380Y-73683809D01*
X138302380Y-73540952D01*
X138350000Y-73350476D01*
X138397619Y-73255238D01*
X138492857Y-73160000D01*
X138635714Y-73112380D01*
X138730952Y-73112380D01*
X138873809Y-73160000D01*
X138921428Y-73207619D01*
X108672380Y-74921904D02*
X109481904Y-74921904D01*
X109577142Y-74874285D01*
X109624761Y-74826666D01*
X109672380Y-74731428D01*
X109672380Y-74540952D01*
X109624761Y-74445714D01*
X109577142Y-74398095D01*
X109481904Y-74350476D01*
X108672380Y-74350476D01*
X109624761Y-73921904D02*
X109672380Y-73779047D01*
X109672380Y-73540952D01*
X109624761Y-73445714D01*
X109577142Y-73398095D01*
X109481904Y-73350476D01*
X109386666Y-73350476D01*
X109291428Y-73398095D01*
X109243809Y-73445714D01*
X109196190Y-73540952D01*
X109148571Y-73731428D01*
X109100952Y-73826666D01*
X109053333Y-73874285D01*
X108958095Y-73921904D01*
X108862857Y-73921904D01*
X108767619Y-73874285D01*
X108720000Y-73826666D01*
X108672380Y-73731428D01*
X108672380Y-73493333D01*
X108720000Y-73350476D01*
X109148571Y-72588571D02*
X109196190Y-72445714D01*
X109243809Y-72398095D01*
X109339047Y-72350476D01*
X109481904Y-72350476D01*
X109577142Y-72398095D01*
X109624761Y-72445714D01*
X109672380Y-72540952D01*
X109672380Y-72921904D01*
X108672380Y-72921904D01*
X108672380Y-72588571D01*
X108720000Y-72493333D01*
X108767619Y-72445714D01*
X108862857Y-72398095D01*
X108958095Y-72398095D01*
X109053333Y-72445714D01*
X109100952Y-72493333D01*
X109148571Y-72588571D01*
X109148571Y-72921904D01*
%TO.C,R3*%
X158134580Y-102566766D02*
X157658390Y-102900100D01*
X158134580Y-103138195D02*
X157134580Y-103138195D01*
X157134580Y-102757242D01*
X157182200Y-102662004D01*
X157229819Y-102614385D01*
X157325057Y-102566766D01*
X157467914Y-102566766D01*
X157563152Y-102614385D01*
X157610771Y-102662004D01*
X157658390Y-102757242D01*
X157658390Y-103138195D01*
X157134580Y-102233433D02*
X157134580Y-101614385D01*
X157515533Y-101947719D01*
X157515533Y-101804861D01*
X157563152Y-101709623D01*
X157610771Y-101662004D01*
X157706009Y-101614385D01*
X157944104Y-101614385D01*
X158039342Y-101662004D01*
X158086961Y-101709623D01*
X158134580Y-101804861D01*
X158134580Y-102090576D01*
X158086961Y-102185814D01*
X158039342Y-102233433D01*
%TO.C,R2*%
X161436580Y-102566766D02*
X160960390Y-102900100D01*
X161436580Y-103138195D02*
X160436580Y-103138195D01*
X160436580Y-102757242D01*
X160484200Y-102662004D01*
X160531819Y-102614385D01*
X160627057Y-102566766D01*
X160769914Y-102566766D01*
X160865152Y-102614385D01*
X160912771Y-102662004D01*
X160960390Y-102757242D01*
X160960390Y-103138195D01*
X160531819Y-102185814D02*
X160484200Y-102138195D01*
X160436580Y-102042957D01*
X160436580Y-101804861D01*
X160484200Y-101709623D01*
X160531819Y-101662004D01*
X160627057Y-101614385D01*
X160722295Y-101614385D01*
X160865152Y-101662004D01*
X161436580Y-102233433D01*
X161436580Y-101614385D01*
%TO.C,R1*%
X137018733Y-106536480D02*
X136685400Y-106060290D01*
X136447304Y-106536480D02*
X136447304Y-105536480D01*
X136828257Y-105536480D01*
X136923495Y-105584100D01*
X136971114Y-105631719D01*
X137018733Y-105726957D01*
X137018733Y-105869814D01*
X136971114Y-105965052D01*
X136923495Y-106012671D01*
X136828257Y-106060290D01*
X136447304Y-106060290D01*
X137971114Y-106536480D02*
X137399685Y-106536480D01*
X137685400Y-106536480D02*
X137685400Y-105536480D01*
X137590161Y-105679338D01*
X137494923Y-105774576D01*
X137399685Y-105822195D01*
%TO.C,L2*%
X146950133Y-108708180D02*
X146473942Y-108708180D01*
X146473942Y-107708180D01*
X147235847Y-107803419D02*
X147283466Y-107755800D01*
X147378704Y-107708180D01*
X147616800Y-107708180D01*
X147712038Y-107755800D01*
X147759657Y-107803419D01*
X147807276Y-107898657D01*
X147807276Y-107993895D01*
X147759657Y-108136752D01*
X147188228Y-108708180D01*
X147807276Y-108708180D01*
%TO.C,L1*%
X145527733Y-105088680D02*
X145051542Y-105088680D01*
X145051542Y-104088680D01*
X146384876Y-105088680D02*
X145813447Y-105088680D01*
X146099161Y-105088680D02*
X146099161Y-104088680D01*
X146003923Y-104231538D01*
X145908685Y-104326776D01*
X145813447Y-104374395D01*
%TO.C,JP1*%
X160735580Y-99118633D02*
X161449866Y-99118633D01*
X161592723Y-99166252D01*
X161687961Y-99261490D01*
X161735580Y-99404347D01*
X161735580Y-99499585D01*
X161735580Y-98642442D02*
X160735580Y-98642442D01*
X160735580Y-98261490D01*
X160783200Y-98166252D01*
X160830819Y-98118633D01*
X160926057Y-98071014D01*
X161068914Y-98071014D01*
X161164152Y-98118633D01*
X161211771Y-98166252D01*
X161259390Y-98261490D01*
X161259390Y-98642442D01*
X161735580Y-97118633D02*
X161735580Y-97690061D01*
X161735580Y-97404347D02*
X160735580Y-97404347D01*
X160878438Y-97499585D01*
X160973676Y-97594823D01*
X161021295Y-97690061D01*
%TO.C,J1*%
X167295580Y-78552633D02*
X168009866Y-78552633D01*
X168152723Y-78600252D01*
X168247961Y-78695490D01*
X168295580Y-78838347D01*
X168295580Y-78933585D01*
X168295580Y-77552633D02*
X168295580Y-78124061D01*
X168295580Y-77838347D02*
X167295580Y-77838347D01*
X167438438Y-77933585D01*
X167533676Y-78028823D01*
X167581295Y-78124061D01*
%TO.C,C8*%
X161582642Y-93117966D02*
X161630261Y-93165585D01*
X161677880Y-93308442D01*
X161677880Y-93403680D01*
X161630261Y-93546538D01*
X161535023Y-93641776D01*
X161439785Y-93689395D01*
X161249309Y-93737014D01*
X161106452Y-93737014D01*
X160915976Y-93689395D01*
X160820738Y-93641776D01*
X160725500Y-93546538D01*
X160677880Y-93403680D01*
X160677880Y-93308442D01*
X160725500Y-93165585D01*
X160773119Y-93117966D01*
X161106452Y-92546538D02*
X161058833Y-92641776D01*
X161011214Y-92689395D01*
X160915976Y-92737014D01*
X160868357Y-92737014D01*
X160773119Y-92689395D01*
X160725500Y-92641776D01*
X160677880Y-92546538D01*
X160677880Y-92356061D01*
X160725500Y-92260823D01*
X160773119Y-92213204D01*
X160868357Y-92165585D01*
X160915976Y-92165585D01*
X161011214Y-92213204D01*
X161058833Y-92260823D01*
X161106452Y-92356061D01*
X161106452Y-92546538D01*
X161154071Y-92641776D01*
X161201690Y-92689395D01*
X161296928Y-92737014D01*
X161487404Y-92737014D01*
X161582642Y-92689395D01*
X161630261Y-92641776D01*
X161677880Y-92546538D01*
X161677880Y-92356061D01*
X161630261Y-92260823D01*
X161582642Y-92213204D01*
X161487404Y-92165585D01*
X161296928Y-92165585D01*
X161201690Y-92213204D01*
X161154071Y-92260823D01*
X161106452Y-92356061D01*
%TO.C,C6*%
X154978642Y-92965566D02*
X155026261Y-93013185D01*
X155073880Y-93156042D01*
X155073880Y-93251280D01*
X155026261Y-93394138D01*
X154931023Y-93489376D01*
X154835785Y-93536995D01*
X154645309Y-93584614D01*
X154502452Y-93584614D01*
X154311976Y-93536995D01*
X154216738Y-93489376D01*
X154121500Y-93394138D01*
X154073880Y-93251280D01*
X154073880Y-93156042D01*
X154121500Y-93013185D01*
X154169119Y-92965566D01*
X154073880Y-92108423D02*
X154073880Y-92298900D01*
X154121500Y-92394138D01*
X154169119Y-92441757D01*
X154311976Y-92536995D01*
X154502452Y-92584614D01*
X154883404Y-92584614D01*
X154978642Y-92536995D01*
X155026261Y-92489376D01*
X155073880Y-92394138D01*
X155073880Y-92203661D01*
X155026261Y-92108423D01*
X154978642Y-92060804D01*
X154883404Y-92013185D01*
X154645309Y-92013185D01*
X154550071Y-92060804D01*
X154502452Y-92108423D01*
X154454833Y-92203661D01*
X154454833Y-92394138D01*
X154502452Y-92489376D01*
X154550071Y-92536995D01*
X154645309Y-92584614D01*
%TO.C,C5*%
X149553633Y-105018842D02*
X149506014Y-105066461D01*
X149363157Y-105114080D01*
X149267919Y-105114080D01*
X149125061Y-105066461D01*
X149029823Y-104971223D01*
X148982204Y-104875985D01*
X148934585Y-104685509D01*
X148934585Y-104542652D01*
X148982204Y-104352176D01*
X149029823Y-104256938D01*
X149125061Y-104161700D01*
X149267919Y-104114080D01*
X149363157Y-104114080D01*
X149506014Y-104161700D01*
X149553633Y-104209319D01*
X150458395Y-104114080D02*
X149982204Y-104114080D01*
X149934585Y-104590271D01*
X149982204Y-104542652D01*
X150077442Y-104495033D01*
X150315538Y-104495033D01*
X150410776Y-104542652D01*
X150458395Y-104590271D01*
X150506014Y-104685509D01*
X150506014Y-104923604D01*
X150458395Y-105018842D01*
X150410776Y-105066461D01*
X150315538Y-105114080D01*
X150077442Y-105114080D01*
X149982204Y-105066461D01*
X149934585Y-105018842D01*
%TO.C,C4*%
X151968742Y-85205866D02*
X152016361Y-85253485D01*
X152063980Y-85396342D01*
X152063980Y-85491580D01*
X152016361Y-85634438D01*
X151921123Y-85729676D01*
X151825885Y-85777295D01*
X151635409Y-85824914D01*
X151492552Y-85824914D01*
X151302076Y-85777295D01*
X151206838Y-85729676D01*
X151111600Y-85634438D01*
X151063980Y-85491580D01*
X151063980Y-85396342D01*
X151111600Y-85253485D01*
X151159219Y-85205866D01*
X151397314Y-84348723D02*
X152063980Y-84348723D01*
X151016361Y-84586819D02*
X151730647Y-84824914D01*
X151730647Y-84205866D01*
%TO.C,C3*%
X155232642Y-85076566D02*
X155280261Y-85124185D01*
X155327880Y-85267042D01*
X155327880Y-85362280D01*
X155280261Y-85505138D01*
X155185023Y-85600376D01*
X155089785Y-85647995D01*
X154899309Y-85695614D01*
X154756452Y-85695614D01*
X154565976Y-85647995D01*
X154470738Y-85600376D01*
X154375500Y-85505138D01*
X154327880Y-85362280D01*
X154327880Y-85267042D01*
X154375500Y-85124185D01*
X154423119Y-85076566D01*
X154327880Y-84743233D02*
X154327880Y-84124185D01*
X154708833Y-84457519D01*
X154708833Y-84314661D01*
X154756452Y-84219423D01*
X154804071Y-84171804D01*
X154899309Y-84124185D01*
X155137404Y-84124185D01*
X155232642Y-84171804D01*
X155280261Y-84219423D01*
X155327880Y-84314661D01*
X155327880Y-84600376D01*
X155280261Y-84695614D01*
X155232642Y-84743233D01*
%TO.C,C2*%
X155296142Y-88660266D02*
X155343761Y-88707885D01*
X155391380Y-88850742D01*
X155391380Y-88945980D01*
X155343761Y-89088838D01*
X155248523Y-89184076D01*
X155153285Y-89231695D01*
X154962809Y-89279314D01*
X154819952Y-89279314D01*
X154629476Y-89231695D01*
X154534238Y-89184076D01*
X154439000Y-89088838D01*
X154391380Y-88945980D01*
X154391380Y-88850742D01*
X154439000Y-88707885D01*
X154486619Y-88660266D01*
X154486619Y-88279314D02*
X154439000Y-88231695D01*
X154391380Y-88136457D01*
X154391380Y-87898361D01*
X154439000Y-87803123D01*
X154486619Y-87755504D01*
X154581857Y-87707885D01*
X154677095Y-87707885D01*
X154819952Y-87755504D01*
X155391380Y-88326933D01*
X155391380Y-87707885D01*
%TO.C,C1*%
X151854442Y-88723766D02*
X151902061Y-88771385D01*
X151949680Y-88914242D01*
X151949680Y-89009480D01*
X151902061Y-89152338D01*
X151806823Y-89247576D01*
X151711585Y-89295195D01*
X151521109Y-89342814D01*
X151378252Y-89342814D01*
X151187776Y-89295195D01*
X151092538Y-89247576D01*
X150997300Y-89152338D01*
X150949680Y-89009480D01*
X150949680Y-88914242D01*
X150997300Y-88771385D01*
X151044919Y-88723766D01*
X151949680Y-87771385D02*
X151949680Y-88342814D01*
X151949680Y-88057100D02*
X150949680Y-88057100D01*
X151092538Y-88152338D01*
X151187776Y-88247576D01*
X151235395Y-88342814D01*
%TD*%
M02*
