M48
; DRILL file {KiCad (5.1.6)-1} date 08/10/20 11:53:15
; FORMAT={-:-/ absolute / inch / decimal}
; #@! TF.CreationDate,2020-08-10T11:53:15-05:00
; #@! TF.GenerationSoftware,Kicad,Pcbnew,(5.1.6)-1
FMAT,2
INCH
T1C0.0157
T2C0.0394
T3C0.0402
T4C0.0402
T5C0.0630
T6C0.0500
T7C0.1181
%
G90
G05
T1
X5.4565Y-4.115
X5.5565Y-4.0335
X5.6275Y-3.8845
X5.639Y-3.499
X5.656Y-4.095
X5.6565Y-4.0335
X5.769Y-3.9439
X5.827Y-3.4955
X5.872Y-3.909
X5.9355Y-3.8795
X6.4045Y-3.7225
T2
X6.158Y-3.8695
X6.258Y-3.8695
T3
X6.5Y-2.9069
X6.5Y-3.025
X6.5Y-3.1431
X6.5Y-3.2612
X6.5Y-3.65
X6.5Y-3.7681
X6.5Y-3.8862
X6.5Y-4.0043
T4
X4.55Y-2.6
X4.55Y-3.2
X4.65Y-2.6
X4.65Y-3.2
X4.75Y-2.6
X4.75Y-3.2
X4.85Y-2.6
X4.85Y-3.2
X4.95Y-2.6
X4.95Y-3.2
X5.05Y-2.6
X5.05Y-3.2
X5.15Y-2.6
X5.15Y-3.2
X5.25Y-2.6
X5.25Y-3.2
X5.35Y-2.6
X5.35Y-3.2
X5.45Y-2.6
X5.45Y-3.2
X5.55Y-2.6
X5.55Y-3.2
X5.65Y-2.6
X5.65Y-3.2
X5.75Y-2.6
X5.75Y-3.2
X5.85Y-2.6
X5.85Y-3.2
X5.95Y-2.6
X5.95Y-3.2
T5
X6.0795Y-4.2235
X5.3435Y-3.44
X5.7365Y-3.401
X6.2835Y-4.226
T6
X6.5772Y-2.7888
X6.5772Y-3.3793
X6.5772Y-3.5319
X6.5772Y-4.1224
T7
X4.0495Y-4.349
X6.525Y-2.604
X4.052Y-2.604
X6.524Y-4.3465
T0
M30
