%TF.GenerationSoftware,KiCad,Pcbnew,(5.1.6)-1*%
%TF.CreationDate,2020-08-03T14:50:49-05:00*%
%TF.ProjectId,CAN sniffer,43414e20-736e-4696-9666-65722e6b6963,rev?*%
%TF.SameCoordinates,Original*%
%TF.FileFunction,Copper,L1,Top*%
%TF.FilePolarity,Positive*%
%FSLAX46Y46*%
G04 Gerber Fmt 4.6, Leading zero omitted, Abs format (unit mm)*
G04 Created by KiCad (PCBNEW (5.1.6)-1) date 2020-08-03 14:50:49*
%MOMM*%
%LPD*%
G01*
G04 APERTURE LIST*
%TA.AperFunction,ComponentPad*%
%ADD10C,2.800000*%
%TD*%
%TA.AperFunction,ComponentPad*%
%ADD11C,1.700000*%
%TD*%
%TA.AperFunction,SMDPad,CuDef*%
%ADD12R,1.000000X0.700000*%
%TD*%
%TA.AperFunction,SMDPad,CuDef*%
%ADD13R,0.600000X1.950000*%
%TD*%
%TA.AperFunction,ComponentPad*%
%ADD14C,1.524000*%
%TD*%
%TA.AperFunction,ComponentPad*%
%ADD15R,1.524000X1.524000*%
%TD*%
%TA.AperFunction,ComponentPad*%
%ADD16O,1.700000X1.700000*%
%TD*%
%TA.AperFunction,ComponentPad*%
%ADD17R,1.700000X1.700000*%
%TD*%
%TA.AperFunction,ViaPad*%
%ADD18C,0.800000*%
%TD*%
%TA.AperFunction,Conductor*%
%ADD19C,0.250000*%
%TD*%
%TA.AperFunction,Conductor*%
%ADD20C,0.254000*%
%TD*%
G04 APERTURE END LIST*
%TO.P,C7,2*%
%TO.N,Net-(C6-Pad2)*%
%TA.AperFunction,SMDPad,CuDef*%
G36*
G01*
X157277750Y-89654800D02*
X158190250Y-89654800D01*
G75*
G02*
X158434000Y-89898550I0J-243750D01*
G01*
X158434000Y-90386050D01*
G75*
G02*
X158190250Y-90629800I-243750J0D01*
G01*
X157277750Y-90629800D01*
G75*
G02*
X157034000Y-90386050I0J243750D01*
G01*
X157034000Y-89898550D01*
G75*
G02*
X157277750Y-89654800I243750J0D01*
G01*
G37*
%TD.AperFunction*%
%TO.P,C7,1*%
%TO.N,Net-(C6-Pad1)*%
%TA.AperFunction,SMDPad,CuDef*%
G36*
G01*
X157277750Y-87779800D02*
X158190250Y-87779800D01*
G75*
G02*
X158434000Y-88023550I0J-243750D01*
G01*
X158434000Y-88511050D01*
G75*
G02*
X158190250Y-88754800I-243750J0D01*
G01*
X157277750Y-88754800D01*
G75*
G02*
X157034000Y-88511050I0J243750D01*
G01*
X157034000Y-88023550D01*
G75*
G02*
X157277750Y-87779800I243750J0D01*
G01*
G37*
%TD.AperFunction*%
%TD*%
D10*
%TO.P,TP4,1*%
%TO.N,/CAN_L*%
X157480000Y-107442000D03*
%TD*%
%TO.P,TP3,1*%
%TO.N,/CAN_H*%
X157480000Y-102997000D03*
%TD*%
%TO.P,TP2,1*%
%TO.N,/CAN_Rx*%
X153568400Y-85318600D03*
%TD*%
%TO.P,TP1,1*%
%TO.N,/CAN_Tx*%
X137604500Y-87134700D03*
%TD*%
D11*
%TO.P,J2,3*%
%TO.N,/CAN_H*%
X165100000Y-98710000D03*
%TO.P,J2,2*%
%TO.N,Net-(C6-Pad2)*%
X165100000Y-95710000D03*
%TO.P,J2,1*%
%TO.N,Net-(C6-Pad1)*%
X165100000Y-92710000D03*
%TO.P,J2,4*%
%TO.N,/CAN_L*%
X165100000Y-101710000D03*
%TD*%
D12*
%TO.P,U3,3*%
%TO.N,Net-(C6-Pad2)*%
X149205800Y-111569500D03*
%TO.P,U3,2*%
%TO.N,/CAN_L*%
X146805800Y-112519500D03*
%TO.P,U3,1*%
%TO.N,/CAN_H*%
X146805800Y-110619500D03*
%TD*%
D13*
%TO.P,U2,20*%
%TO.N,Net-(C5-Pad2)*%
X150063200Y-102477300D03*
%TO.P,U2,19*%
%TO.N,Net-(C5-Pad1)*%
X148793200Y-102477300D03*
%TO.P,U2,18*%
%TO.N,Net-(C5-Pad2)*%
X147523200Y-102477300D03*
%TO.P,U2,17*%
%TO.N,Net-(U2-Pad17)*%
X146253200Y-102477300D03*
%TO.P,U2,16*%
%TO.N,Net-(C6-Pad1)*%
X144983200Y-102477300D03*
%TO.P,U2,15*%
%TO.N,Net-(C6-Pad2)*%
X143713200Y-102477300D03*
%TO.P,U2,14*%
%TO.N,/CAN_H*%
X142443200Y-102477300D03*
%TO.P,U2,13*%
%TO.N,/CAN_L*%
X141173200Y-102477300D03*
%TO.P,U2,12*%
%TO.N,/RSlope*%
X139903200Y-102477300D03*
%TO.P,U2,11*%
%TO.N,Net-(C6-Pad2)*%
X138633200Y-102477300D03*
%TO.P,U2,10*%
%TO.N,GND*%
X138633200Y-93077300D03*
%TO.P,U2,9*%
%TO.N,Net-(U2-Pad9)*%
X139903200Y-93077300D03*
%TO.P,U2,8*%
%TO.N,Net-(U2-Pad8)*%
X141173200Y-93077300D03*
%TO.P,U2,7*%
%TO.N,/CAN_Tx*%
X142443200Y-93077300D03*
%TO.P,U2,6*%
%TO.N,Net-(U2-Pad6)*%
X143713200Y-93077300D03*
%TO.P,U2,5*%
%TO.N,/CAN_Rx*%
X144983200Y-93077300D03*
%TO.P,U2,4*%
%TO.N,+3V3*%
X146253200Y-93077300D03*
%TO.P,U2,3*%
%TO.N,+5V*%
X147523200Y-93077300D03*
%TO.P,U2,2*%
%TO.N,GND*%
X148793200Y-93077300D03*
%TO.P,U2,1*%
X150063200Y-93077300D03*
%TD*%
D14*
%TO.P,U1,30*%
%TO.N,Net-(U1-Pad30)*%
X115570000Y-66040000D03*
%TO.P,U1,29*%
%TO.N,GND*%
X118110000Y-66040000D03*
%TO.P,U1,28*%
%TO.N,Net-(U1-Pad28)*%
X120650000Y-66040000D03*
%TO.P,U1,27*%
%TO.N,+5V*%
X123190000Y-66040000D03*
%TO.P,U1,26*%
%TO.N,Net-(U1-Pad26)*%
X125730000Y-66040000D03*
%TO.P,U1,25*%
%TO.N,Net-(U1-Pad25)*%
X128270000Y-66040000D03*
%TO.P,U1,24*%
%TO.N,Net-(U1-Pad24)*%
X130810000Y-66040000D03*
%TO.P,U1,23*%
%TO.N,Net-(U1-Pad23)*%
X133350000Y-66040000D03*
%TO.P,U1,22*%
%TO.N,Net-(U1-Pad22)*%
X135890000Y-66040000D03*
%TO.P,U1,21*%
%TO.N,Net-(U1-Pad21)*%
X138430000Y-66040000D03*
%TO.P,U1,20*%
%TO.N,Net-(U1-Pad20)*%
X140970000Y-66040000D03*
%TO.P,U1,19*%
%TO.N,Net-(U1-Pad19)*%
X143510000Y-66040000D03*
%TO.P,U1,18*%
%TO.N,Net-(U1-Pad18)*%
X146050000Y-66040000D03*
%TO.P,U1,17*%
%TO.N,+3V3*%
X148590000Y-66040000D03*
%TO.P,U1,16*%
%TO.N,Net-(U1-Pad16)*%
X151130000Y-66040000D03*
%TO.P,U1,15*%
%TO.N,Net-(U1-Pad15)*%
X151130000Y-81280000D03*
%TO.P,U1,14*%
%TO.N,Net-(U1-Pad14)*%
X148590000Y-81280000D03*
%TO.P,U1,13*%
%TO.N,/CAN_Rx*%
X146050000Y-81280000D03*
%TO.P,U1,12*%
%TO.N,Net-(U1-Pad12)*%
X143510000Y-81280000D03*
%TO.P,U1,11*%
%TO.N,Net-(U1-Pad11)*%
X140970000Y-81280000D03*
%TO.P,U1,10*%
%TO.N,Net-(U1-Pad10)*%
X138430000Y-81280000D03*
%TO.P,U1,9*%
%TO.N,Net-(U1-Pad9)*%
X135890000Y-81280000D03*
%TO.P,U1,8*%
%TO.N,Net-(U1-Pad8)*%
X133350000Y-81280000D03*
%TO.P,U1,7*%
%TO.N,Net-(U1-Pad7)*%
X130810000Y-81280000D03*
%TO.P,U1,6*%
%TO.N,Net-(U1-Pad6)*%
X128270000Y-81280000D03*
%TO.P,U1,5*%
%TO.N,/CAN_Tx*%
X125730000Y-81280000D03*
%TO.P,U1,4*%
%TO.N,GND*%
X123190000Y-81280000D03*
%TO.P,U1,3*%
%TO.N,Net-(U1-Pad3)*%
X120650000Y-81280000D03*
%TO.P,U1,2*%
%TO.N,Net-(U1-Pad2)*%
X118110000Y-81280000D03*
D15*
%TO.P,U1,1*%
%TO.N,Net-(U1-Pad1)*%
X115570000Y-81280000D03*
%TD*%
%TO.P,R3,2*%
%TO.N,/CAN_L*%
%TA.AperFunction,SMDPad,CuDef*%
G36*
G01*
X143540900Y-113549750D02*
X143540900Y-112637250D01*
G75*
G02*
X143784650Y-112393500I243750J0D01*
G01*
X144272150Y-112393500D01*
G75*
G02*
X144515900Y-112637250I0J-243750D01*
G01*
X144515900Y-113549750D01*
G75*
G02*
X144272150Y-113793500I-243750J0D01*
G01*
X143784650Y-113793500D01*
G75*
G02*
X143540900Y-113549750I0J243750D01*
G01*
G37*
%TD.AperFunction*%
%TO.P,R3,1*%
%TO.N,Net-(JP1-Pad2)*%
%TA.AperFunction,SMDPad,CuDef*%
G36*
G01*
X141665900Y-113549750D02*
X141665900Y-112637250D01*
G75*
G02*
X141909650Y-112393500I243750J0D01*
G01*
X142397150Y-112393500D01*
G75*
G02*
X142640900Y-112637250I0J-243750D01*
G01*
X142640900Y-113549750D01*
G75*
G02*
X142397150Y-113793500I-243750J0D01*
G01*
X141909650Y-113793500D01*
G75*
G02*
X141665900Y-113549750I0J243750D01*
G01*
G37*
%TD.AperFunction*%
%TD*%
%TO.P,R2,2*%
%TO.N,/CAN_H*%
%TA.AperFunction,SMDPad,CuDef*%
G36*
G01*
X143452000Y-110247750D02*
X143452000Y-109335250D01*
G75*
G02*
X143695750Y-109091500I243750J0D01*
G01*
X144183250Y-109091500D01*
G75*
G02*
X144427000Y-109335250I0J-243750D01*
G01*
X144427000Y-110247750D01*
G75*
G02*
X144183250Y-110491500I-243750J0D01*
G01*
X143695750Y-110491500D01*
G75*
G02*
X143452000Y-110247750I0J243750D01*
G01*
G37*
%TD.AperFunction*%
%TO.P,R2,1*%
%TO.N,Net-(JP1-Pad1)*%
%TA.AperFunction,SMDPad,CuDef*%
G36*
G01*
X141577000Y-110247750D02*
X141577000Y-109335250D01*
G75*
G02*
X141820750Y-109091500I243750J0D01*
G01*
X142308250Y-109091500D01*
G75*
G02*
X142552000Y-109335250I0J-243750D01*
G01*
X142552000Y-110247750D01*
G75*
G02*
X142308250Y-110491500I-243750J0D01*
G01*
X141820750Y-110491500D01*
G75*
G02*
X141577000Y-110247750I0J243750D01*
G01*
G37*
%TD.AperFunction*%
%TD*%
%TO.P,R1,2*%
%TO.N,/RSlope*%
%TA.AperFunction,SMDPad,CuDef*%
G36*
G01*
X147060500Y-104864850D02*
X147060500Y-105777350D01*
G75*
G02*
X146816750Y-106021100I-243750J0D01*
G01*
X146329250Y-106021100D01*
G75*
G02*
X146085500Y-105777350I0J243750D01*
G01*
X146085500Y-104864850D01*
G75*
G02*
X146329250Y-104621100I243750J0D01*
G01*
X146816750Y-104621100D01*
G75*
G02*
X147060500Y-104864850I0J-243750D01*
G01*
G37*
%TD.AperFunction*%
%TO.P,R1,1*%
%TO.N,Net-(C6-Pad2)*%
%TA.AperFunction,SMDPad,CuDef*%
G36*
G01*
X148935500Y-104864850D02*
X148935500Y-105777350D01*
G75*
G02*
X148691750Y-106021100I-243750J0D01*
G01*
X148204250Y-106021100D01*
G75*
G02*
X147960500Y-105777350I0J243750D01*
G01*
X147960500Y-104864850D01*
G75*
G02*
X148204250Y-104621100I243750J0D01*
G01*
X148691750Y-104621100D01*
G75*
G02*
X148935500Y-104864850I0J-243750D01*
G01*
G37*
%TD.AperFunction*%
%TD*%
%TO.P,L2,2*%
%TO.N,Net-(C5-Pad2)*%
%TA.AperFunction,SMDPad,CuDef*%
G36*
G01*
X150997500Y-104991850D02*
X150997500Y-105904350D01*
G75*
G02*
X150753750Y-106148100I-243750J0D01*
G01*
X150266250Y-106148100D01*
G75*
G02*
X150022500Y-105904350I0J243750D01*
G01*
X150022500Y-104991850D01*
G75*
G02*
X150266250Y-104748100I243750J0D01*
G01*
X150753750Y-104748100D01*
G75*
G02*
X150997500Y-104991850I0J-243750D01*
G01*
G37*
%TD.AperFunction*%
%TO.P,L2,1*%
%TO.N,Net-(C6-Pad2)*%
%TA.AperFunction,SMDPad,CuDef*%
G36*
G01*
X152872500Y-104991850D02*
X152872500Y-105904350D01*
G75*
G02*
X152628750Y-106148100I-243750J0D01*
G01*
X152141250Y-106148100D01*
G75*
G02*
X151897500Y-105904350I0J243750D01*
G01*
X151897500Y-104991850D01*
G75*
G02*
X152141250Y-104748100I243750J0D01*
G01*
X152628750Y-104748100D01*
G75*
G02*
X152872500Y-104991850I0J-243750D01*
G01*
G37*
%TD.AperFunction*%
%TD*%
%TO.P,L1,2*%
%TO.N,Net-(C5-Pad1)*%
%TA.AperFunction,SMDPad,CuDef*%
G36*
G01*
X156977500Y-94563250D02*
X156977500Y-93650750D01*
G75*
G02*
X157221250Y-93407000I243750J0D01*
G01*
X157708750Y-93407000D01*
G75*
G02*
X157952500Y-93650750I0J-243750D01*
G01*
X157952500Y-94563250D01*
G75*
G02*
X157708750Y-94807000I-243750J0D01*
G01*
X157221250Y-94807000D01*
G75*
G02*
X156977500Y-94563250I0J243750D01*
G01*
G37*
%TD.AperFunction*%
%TO.P,L1,1*%
%TO.N,Net-(C6-Pad1)*%
%TA.AperFunction,SMDPad,CuDef*%
G36*
G01*
X155102500Y-94563250D02*
X155102500Y-93650750D01*
G75*
G02*
X155346250Y-93407000I243750J0D01*
G01*
X155833750Y-93407000D01*
G75*
G02*
X156077500Y-93650750I0J-243750D01*
G01*
X156077500Y-94563250D01*
G75*
G02*
X155833750Y-94807000I-243750J0D01*
G01*
X155346250Y-94807000D01*
G75*
G02*
X155102500Y-94563250I0J243750D01*
G01*
G37*
%TD.AperFunction*%
%TD*%
D16*
%TO.P,JP1,2*%
%TO.N,Net-(JP1-Pad2)*%
X137833100Y-111645700D03*
D17*
%TO.P,JP1,1*%
%TO.N,Net-(JP1-Pad1)*%
X137833100Y-109105700D03*
%TD*%
D11*
%TO.P,J1,3*%
%TO.N,/CAN_H*%
X165100000Y-79835000D03*
%TO.P,J1,2*%
%TO.N,Net-(C6-Pad2)*%
X165100000Y-76835000D03*
%TO.P,J1,1*%
%TO.N,Net-(C6-Pad1)*%
X165100000Y-73835000D03*
%TO.P,J1,4*%
%TO.N,/CAN_L*%
X165100000Y-82835000D03*
%TD*%
%TO.P,C8,2*%
%TO.N,Net-(C6-Pad2)*%
%TA.AperFunction,SMDPad,CuDef*%
G36*
G01*
X155275700Y-90016650D02*
X155275700Y-89104150D01*
G75*
G02*
X155519450Y-88860400I243750J0D01*
G01*
X156006950Y-88860400D01*
G75*
G02*
X156250700Y-89104150I0J-243750D01*
G01*
X156250700Y-90016650D01*
G75*
G02*
X156006950Y-90260400I-243750J0D01*
G01*
X155519450Y-90260400D01*
G75*
G02*
X155275700Y-90016650I0J243750D01*
G01*
G37*
%TD.AperFunction*%
%TO.P,C8,1*%
%TO.N,Net-(C6-Pad1)*%
%TA.AperFunction,SMDPad,CuDef*%
G36*
G01*
X153400700Y-90016650D02*
X153400700Y-89104150D01*
G75*
G02*
X153644450Y-88860400I243750J0D01*
G01*
X154131950Y-88860400D01*
G75*
G02*
X154375700Y-89104150I0J-243750D01*
G01*
X154375700Y-90016650D01*
G75*
G02*
X154131950Y-90260400I-243750J0D01*
G01*
X153644450Y-90260400D01*
G75*
G02*
X153400700Y-90016650I0J243750D01*
G01*
G37*
%TD.AperFunction*%
%TD*%
%TO.P,C6,2*%
%TO.N,Net-(C6-Pad2)*%
%TA.AperFunction,SMDPad,CuDef*%
G36*
G01*
X160313050Y-89654800D02*
X161225550Y-89654800D01*
G75*
G02*
X161469300Y-89898550I0J-243750D01*
G01*
X161469300Y-90386050D01*
G75*
G02*
X161225550Y-90629800I-243750J0D01*
G01*
X160313050Y-90629800D01*
G75*
G02*
X160069300Y-90386050I0J243750D01*
G01*
X160069300Y-89898550D01*
G75*
G02*
X160313050Y-89654800I243750J0D01*
G01*
G37*
%TD.AperFunction*%
%TO.P,C6,1*%
%TO.N,Net-(C6-Pad1)*%
%TA.AperFunction,SMDPad,CuDef*%
G36*
G01*
X160313050Y-87779800D02*
X161225550Y-87779800D01*
G75*
G02*
X161469300Y-88023550I0J-243750D01*
G01*
X161469300Y-88511050D01*
G75*
G02*
X161225550Y-88754800I-243750J0D01*
G01*
X160313050Y-88754800D01*
G75*
G02*
X160069300Y-88511050I0J243750D01*
G01*
X160069300Y-88023550D01*
G75*
G02*
X160313050Y-87779800I243750J0D01*
G01*
G37*
%TD.AperFunction*%
%TD*%
%TO.P,C5,2*%
%TO.N,Net-(C5-Pad2)*%
%TA.AperFunction,SMDPad,CuDef*%
G36*
G01*
X156469500Y-98081150D02*
X156469500Y-97168650D01*
G75*
G02*
X156713250Y-96924900I243750J0D01*
G01*
X157200750Y-96924900D01*
G75*
G02*
X157444500Y-97168650I0J-243750D01*
G01*
X157444500Y-98081150D01*
G75*
G02*
X157200750Y-98324900I-243750J0D01*
G01*
X156713250Y-98324900D01*
G75*
G02*
X156469500Y-98081150I0J243750D01*
G01*
G37*
%TD.AperFunction*%
%TO.P,C5,1*%
%TO.N,Net-(C5-Pad1)*%
%TA.AperFunction,SMDPad,CuDef*%
G36*
G01*
X154594500Y-98081150D02*
X154594500Y-97168650D01*
G75*
G02*
X154838250Y-96924900I243750J0D01*
G01*
X155325750Y-96924900D01*
G75*
G02*
X155569500Y-97168650I0J-243750D01*
G01*
X155569500Y-98081150D01*
G75*
G02*
X155325750Y-98324900I-243750J0D01*
G01*
X154838250Y-98324900D01*
G75*
G02*
X154594500Y-98081150I0J243750D01*
G01*
G37*
%TD.AperFunction*%
%TD*%
%TO.P,C4,2*%
%TO.N,GND*%
%TA.AperFunction,SMDPad,CuDef*%
G36*
G01*
X142640900Y-85713250D02*
X142640900Y-86625750D01*
G75*
G02*
X142397150Y-86869500I-243750J0D01*
G01*
X141909650Y-86869500D01*
G75*
G02*
X141665900Y-86625750I0J243750D01*
G01*
X141665900Y-85713250D01*
G75*
G02*
X141909650Y-85469500I243750J0D01*
G01*
X142397150Y-85469500D01*
G75*
G02*
X142640900Y-85713250I0J-243750D01*
G01*
G37*
%TD.AperFunction*%
%TO.P,C4,1*%
%TO.N,+3V3*%
%TA.AperFunction,SMDPad,CuDef*%
G36*
G01*
X144515900Y-85713250D02*
X144515900Y-86625750D01*
G75*
G02*
X144272150Y-86869500I-243750J0D01*
G01*
X143784650Y-86869500D01*
G75*
G02*
X143540900Y-86625750I0J243750D01*
G01*
X143540900Y-85713250D01*
G75*
G02*
X143784650Y-85469500I243750J0D01*
G01*
X144272150Y-85469500D01*
G75*
G02*
X144515900Y-85713250I0J-243750D01*
G01*
G37*
%TD.AperFunction*%
%TD*%
%TO.P,C3,2*%
%TO.N,GND*%
%TA.AperFunction,SMDPad,CuDef*%
G36*
G01*
X142770200Y-88977150D02*
X142770200Y-89889650D01*
G75*
G02*
X142526450Y-90133400I-243750J0D01*
G01*
X142038950Y-90133400D01*
G75*
G02*
X141795200Y-89889650I0J243750D01*
G01*
X141795200Y-88977150D01*
G75*
G02*
X142038950Y-88733400I243750J0D01*
G01*
X142526450Y-88733400D01*
G75*
G02*
X142770200Y-88977150I0J-243750D01*
G01*
G37*
%TD.AperFunction*%
%TO.P,C3,1*%
%TO.N,+3V3*%
%TA.AperFunction,SMDPad,CuDef*%
G36*
G01*
X144645200Y-88977150D02*
X144645200Y-89889650D01*
G75*
G02*
X144401450Y-90133400I-243750J0D01*
G01*
X143913950Y-90133400D01*
G75*
G02*
X143670200Y-89889650I0J243750D01*
G01*
X143670200Y-88977150D01*
G75*
G02*
X143913950Y-88733400I243750J0D01*
G01*
X144401450Y-88733400D01*
G75*
G02*
X144645200Y-88977150I0J-243750D01*
G01*
G37*
%TD.AperFunction*%
%TD*%
%TO.P,C2,2*%
%TO.N,GND*%
%TA.AperFunction,SMDPad,CuDef*%
G36*
G01*
X148760600Y-90194450D02*
X148760600Y-89281950D01*
G75*
G02*
X149004350Y-89038200I243750J0D01*
G01*
X149491850Y-89038200D01*
G75*
G02*
X149735600Y-89281950I0J-243750D01*
G01*
X149735600Y-90194450D01*
G75*
G02*
X149491850Y-90438200I-243750J0D01*
G01*
X149004350Y-90438200D01*
G75*
G02*
X148760600Y-90194450I0J243750D01*
G01*
G37*
%TD.AperFunction*%
%TO.P,C2,1*%
%TO.N,+5V*%
%TA.AperFunction,SMDPad,CuDef*%
G36*
G01*
X146885600Y-90194450D02*
X146885600Y-89281950D01*
G75*
G02*
X147129350Y-89038200I243750J0D01*
G01*
X147616850Y-89038200D01*
G75*
G02*
X147860600Y-89281950I0J-243750D01*
G01*
X147860600Y-90194450D01*
G75*
G02*
X147616850Y-90438200I-243750J0D01*
G01*
X147129350Y-90438200D01*
G75*
G02*
X146885600Y-90194450I0J243750D01*
G01*
G37*
%TD.AperFunction*%
%TD*%
%TO.P,C1,2*%
%TO.N,GND*%
%TA.AperFunction,SMDPad,CuDef*%
G36*
G01*
X148697100Y-86752750D02*
X148697100Y-85840250D01*
G75*
G02*
X148940850Y-85596500I243750J0D01*
G01*
X149428350Y-85596500D01*
G75*
G02*
X149672100Y-85840250I0J-243750D01*
G01*
X149672100Y-86752750D01*
G75*
G02*
X149428350Y-86996500I-243750J0D01*
G01*
X148940850Y-86996500D01*
G75*
G02*
X148697100Y-86752750I0J243750D01*
G01*
G37*
%TD.AperFunction*%
%TO.P,C1,1*%
%TO.N,+5V*%
%TA.AperFunction,SMDPad,CuDef*%
G36*
G01*
X146822100Y-86752750D02*
X146822100Y-85840250D01*
G75*
G02*
X147065850Y-85596500I243750J0D01*
G01*
X147553350Y-85596500D01*
G75*
G02*
X147797100Y-85840250I0J-243750D01*
G01*
X147797100Y-86752750D01*
G75*
G02*
X147553350Y-86996500I-243750J0D01*
G01*
X147065850Y-86996500D01*
G75*
G02*
X146822100Y-86752750I0J243750D01*
G01*
G37*
%TD.AperFunction*%
%TD*%
D18*
%TO.N,+5V*%
X147309600Y-86296500D03*
%TO.N,/CAN_H*%
X146805800Y-110619500D03*
%TO.N,/RSlope*%
X145199100Y-105283000D03*
X139903200Y-102477300D03*
%TO.N,/CAN_Rx*%
X144983200Y-93077300D03*
%TD*%
D19*
%TO.N,GND*%
X134987300Y-93077300D02*
X123190000Y-81280000D01*
X138633200Y-93077300D02*
X134987300Y-93077300D01*
X123190000Y-71120000D02*
X118110000Y-66040000D01*
X123190000Y-81280000D02*
X123190000Y-71120000D01*
%TO.N,+5V*%
X147373100Y-86360000D02*
X147309600Y-86296500D01*
X147373100Y-89738200D02*
X147373100Y-86360000D01*
X147523200Y-89888300D02*
X147373100Y-89738200D01*
X147523200Y-93077300D02*
X147523200Y-89888300D01*
%TO.N,+3V3*%
X144157700Y-86298800D02*
X144028400Y-86169500D01*
X144157700Y-89433400D02*
X144157700Y-86298800D01*
X144157700Y-89756800D02*
X144157700Y-89433400D01*
X146253200Y-91852300D02*
X144157700Y-89756800D01*
X146253200Y-93077300D02*
X146253200Y-91852300D01*
X144962999Y-69667001D02*
X148590000Y-66040000D01*
X144962999Y-85234901D02*
X144962999Y-69667001D01*
X144028400Y-86169500D02*
X144962999Y-85234901D01*
%TO.N,Net-(C5-Pad2)*%
X152104600Y-102477300D02*
X150063200Y-102477300D01*
X156957000Y-97624900D02*
X152104600Y-102477300D01*
X150510000Y-102924100D02*
X150063200Y-102477300D01*
X150510000Y-105448100D02*
X150510000Y-102924100D01*
X149988199Y-103777301D02*
X150063200Y-103702300D01*
X150063200Y-103702300D02*
X150063200Y-102477300D01*
X147598201Y-103777301D02*
X149988199Y-103777301D01*
X147523200Y-103702300D02*
X147598201Y-103777301D01*
X147523200Y-102477300D02*
X147523200Y-103702300D01*
%TO.N,Net-(C5-Pad1)*%
X157465000Y-95241900D02*
X155082000Y-97624900D01*
X157465000Y-94107000D02*
X157465000Y-95241900D01*
X155082000Y-97624900D02*
X151983200Y-100723700D01*
X148793200Y-101252300D02*
X148793200Y-102477300D01*
X149321800Y-100723700D02*
X148793200Y-101252300D01*
X151983200Y-100723700D02*
X149321800Y-100723700D01*
%TO.N,Net-(C6-Pad2)*%
X160769300Y-90142300D02*
X163616400Y-92989400D01*
X163616400Y-94226400D02*
X165100000Y-95710000D01*
X163616400Y-92989400D02*
X163616400Y-94226400D01*
X160769300Y-90142300D02*
X157734000Y-90142300D01*
X157152100Y-89560400D02*
X157734000Y-90142300D01*
X155763200Y-89560400D02*
X157152100Y-89560400D01*
X143713200Y-101252300D02*
X143713200Y-102477300D01*
X138708201Y-101177299D02*
X143638199Y-101177299D01*
X138633200Y-101252300D02*
X138708201Y-101177299D01*
X143638199Y-101177299D02*
X143713200Y-101252300D01*
X138633200Y-102477300D02*
X138633200Y-101252300D01*
X149205800Y-106078900D02*
X148448000Y-105321100D01*
X143713200Y-103067302D02*
X143713200Y-102477300D01*
X144941988Y-104296090D02*
X143713200Y-103067302D01*
X147422990Y-104296090D02*
X144941988Y-104296090D01*
X148448000Y-105321100D02*
X147422990Y-104296090D01*
X151070700Y-106762400D02*
X149205800Y-106762400D01*
X152385000Y-105448100D02*
X151070700Y-106762400D01*
X149205800Y-111569500D02*
X149205800Y-106762400D01*
X149205800Y-106762400D02*
X149205800Y-106078900D01*
X152385000Y-105448100D02*
X161607500Y-96225600D01*
X164584400Y-96225600D02*
X165100000Y-95710000D01*
X161607500Y-96225600D02*
X164584400Y-96225600D01*
%TO.N,Net-(C6-Pad1)*%
X165100000Y-92598000D02*
X165100000Y-92710000D01*
X160769300Y-88267300D02*
X165100000Y-92598000D01*
X160769300Y-88267300D02*
X157734000Y-88267300D01*
X155181300Y-88267300D02*
X153888200Y-89560400D01*
X157734000Y-88267300D02*
X155181300Y-88267300D01*
X153888200Y-92405200D02*
X155590000Y-94107000D01*
X144983200Y-101252300D02*
X153746200Y-92489300D01*
X144983200Y-102477300D02*
X144983200Y-101252300D01*
X153746200Y-91914500D02*
X153888200Y-91772500D01*
X153888200Y-89560400D02*
X153888200Y-91772500D01*
X153746200Y-92489300D02*
X153746200Y-91914500D01*
X153888200Y-91772500D02*
X153888200Y-92405200D01*
%TO.N,/CAN_H*%
X144767500Y-110619500D02*
X143939500Y-109791500D01*
X146805800Y-110619500D02*
X144767500Y-110619500D01*
X142443200Y-103067302D02*
X142443200Y-102477300D01*
X143939500Y-104563602D02*
X142443200Y-103067302D01*
X143939500Y-109791500D02*
X143939500Y-104563602D01*
X160813000Y-102997000D02*
X165100000Y-98710000D01*
X157480000Y-102997000D02*
X160813000Y-102997000D01*
%TO.N,/CAN_L*%
X168020001Y-98789999D02*
X165100000Y-101710000D01*
X168020001Y-84552920D02*
X168020001Y-98789999D01*
X166302081Y-82835000D02*
X168020001Y-84552920D01*
X165100000Y-82835000D02*
X166302081Y-82835000D01*
X143126990Y-105021092D02*
X141173200Y-103067302D01*
X143126990Y-112192090D02*
X143126990Y-105021092D01*
X141173200Y-103067302D02*
X141173200Y-102477300D01*
X144028400Y-113093500D02*
X143126990Y-112192090D01*
X146231800Y-113093500D02*
X146805800Y-112519500D01*
X144028400Y-113093500D02*
X146231800Y-113093500D01*
X152402500Y-112519500D02*
X157480000Y-107442000D01*
X146805800Y-112519500D02*
X152402500Y-112519500D01*
X157480000Y-107442000D02*
X160261300Y-107442000D01*
X165100000Y-102603300D02*
X165100000Y-101710000D01*
X160261300Y-107442000D02*
X165100000Y-102603300D01*
%TO.N,Net-(JP1-Pad2)*%
X140705600Y-111645700D02*
X142153400Y-113093500D01*
X137833100Y-111645700D02*
X140705600Y-111645700D01*
%TO.N,Net-(JP1-Pad1)*%
X141378700Y-109105700D02*
X142064500Y-109791500D01*
X137833100Y-109105700D02*
X141378700Y-109105700D01*
%TO.N,/RSlope*%
X146573000Y-105321100D02*
X145237200Y-105321100D01*
X145237200Y-105321100D02*
X145199100Y-105283000D01*
%TO.N,/CAN_Rx*%
X150088600Y-85318600D02*
X146050000Y-81280000D01*
X153568400Y-85318600D02*
X150088600Y-85318600D01*
%TO.N,/CAN_Tx*%
X131584700Y-87134700D02*
X125730000Y-81280000D01*
X137604500Y-87134700D02*
X131584700Y-87134700D01*
X142443200Y-91973400D02*
X142443200Y-93077300D01*
X137604500Y-87134700D02*
X142443200Y-91973400D01*
%TD*%
D20*
%TO.N,GND*%
G36*
X167093692Y-61646916D02*
G01*
X167791275Y-61851565D01*
X168437569Y-62184428D01*
X169009265Y-62633502D01*
X169485726Y-63182574D01*
X169849765Y-63811839D01*
X170088245Y-64498590D01*
X170192561Y-65218045D01*
X170156921Y-65988063D01*
X170154999Y-66007581D01*
X170155001Y-109823580D01*
X170083771Y-110570156D01*
X169881536Y-111259516D01*
X169552596Y-111898190D01*
X169108820Y-112463143D01*
X168566220Y-112933988D01*
X167944377Y-113293733D01*
X167265721Y-113529402D01*
X166531523Y-113635855D01*
X166361934Y-113640000D01*
X146763882Y-113640000D01*
X146771801Y-113633501D01*
X146795603Y-113604498D01*
X146892529Y-113507572D01*
X147305800Y-113507572D01*
X147430282Y-113495312D01*
X147549980Y-113459002D01*
X147660294Y-113400037D01*
X147756985Y-113320685D01*
X147790785Y-113279500D01*
X152365178Y-113279500D01*
X152402500Y-113283176D01*
X152439822Y-113279500D01*
X152439833Y-113279500D01*
X152551486Y-113268503D01*
X152694747Y-113225046D01*
X152826776Y-113154474D01*
X152942501Y-113059501D01*
X152966304Y-113030497D01*
X155717080Y-110279721D01*
X163600000Y-110279721D01*
X163600000Y-110700279D01*
X163682047Y-111112756D01*
X163842988Y-111501302D01*
X164076637Y-111850983D01*
X164374017Y-112148363D01*
X164723698Y-112382012D01*
X165112244Y-112542953D01*
X165524721Y-112625000D01*
X165945279Y-112625000D01*
X166357756Y-112542953D01*
X166746302Y-112382012D01*
X167095983Y-112148363D01*
X167393363Y-111850983D01*
X167627012Y-111501302D01*
X167787953Y-111112756D01*
X167870000Y-110700279D01*
X167870000Y-110279721D01*
X167787953Y-109867244D01*
X167627012Y-109478698D01*
X167393363Y-109129017D01*
X167095983Y-108831637D01*
X166746302Y-108597988D01*
X166357756Y-108437047D01*
X165945279Y-108355000D01*
X165524721Y-108355000D01*
X165112244Y-108437047D01*
X164723698Y-108597988D01*
X164374017Y-108831637D01*
X164076637Y-109129017D01*
X163842988Y-109478698D01*
X163682047Y-109867244D01*
X163600000Y-110279721D01*
X155717080Y-110279721D01*
X156682478Y-109314323D01*
X156886413Y-109398796D01*
X157279570Y-109477000D01*
X157680430Y-109477000D01*
X158073587Y-109398796D01*
X158443934Y-109245393D01*
X158777237Y-109022687D01*
X159060687Y-108739237D01*
X159283393Y-108405934D01*
X159367865Y-108202000D01*
X160223978Y-108202000D01*
X160261300Y-108205676D01*
X160298622Y-108202000D01*
X160298633Y-108202000D01*
X160410286Y-108191003D01*
X160553547Y-108147546D01*
X160685576Y-108076974D01*
X160801301Y-107982001D01*
X160825104Y-107952997D01*
X164193185Y-104584916D01*
X165790000Y-104584916D01*
X165790000Y-104835084D01*
X165838805Y-105080445D01*
X165934541Y-105311571D01*
X166073527Y-105519578D01*
X166250422Y-105696473D01*
X166458429Y-105835459D01*
X166689555Y-105931195D01*
X166934916Y-105980000D01*
X167185084Y-105980000D01*
X167430445Y-105931195D01*
X167661571Y-105835459D01*
X167869578Y-105696473D01*
X168046473Y-105519578D01*
X168185459Y-105311571D01*
X168281195Y-105080445D01*
X168330000Y-104835084D01*
X168330000Y-104584916D01*
X168281195Y-104339555D01*
X168185459Y-104108429D01*
X168046473Y-103900422D01*
X167869578Y-103723527D01*
X167661571Y-103584541D01*
X167430445Y-103488805D01*
X167185084Y-103440000D01*
X166934916Y-103440000D01*
X166689555Y-103488805D01*
X166458429Y-103584541D01*
X166250422Y-103723527D01*
X166073527Y-103900422D01*
X165934541Y-104108429D01*
X165838805Y-104339555D01*
X165790000Y-104584916D01*
X164193185Y-104584916D01*
X165611004Y-103167098D01*
X165640001Y-103143301D01*
X165701701Y-103068120D01*
X165803411Y-103025990D01*
X166046632Y-102863475D01*
X166253475Y-102656632D01*
X166415990Y-102413411D01*
X166527932Y-102143158D01*
X166585000Y-101856260D01*
X166585000Y-101563740D01*
X166541209Y-101343592D01*
X168531004Y-99353798D01*
X168560002Y-99330000D01*
X168586333Y-99297916D01*
X168654975Y-99214276D01*
X168725547Y-99082246D01*
X168769004Y-98938985D01*
X168780001Y-98827332D01*
X168780001Y-98827322D01*
X168783677Y-98790000D01*
X168780001Y-98752677D01*
X168780001Y-84590245D01*
X168783677Y-84552920D01*
X168780001Y-84515595D01*
X168780001Y-84515587D01*
X168769004Y-84403934D01*
X168725547Y-84260673D01*
X168654975Y-84128644D01*
X168560002Y-84012919D01*
X168531005Y-83989122D01*
X166865885Y-82324003D01*
X166842082Y-82294999D01*
X166726357Y-82200026D01*
X166594328Y-82129454D01*
X166451067Y-82085997D01*
X166380909Y-82079087D01*
X166253475Y-81888368D01*
X166046632Y-81681525D01*
X165803411Y-81519010D01*
X165533158Y-81407068D01*
X165246260Y-81350000D01*
X164953740Y-81350000D01*
X164666842Y-81407068D01*
X164396589Y-81519010D01*
X164153368Y-81681525D01*
X163946525Y-81888368D01*
X163784010Y-82131589D01*
X163672068Y-82401842D01*
X163615000Y-82688740D01*
X163615000Y-82981260D01*
X163672068Y-83268158D01*
X163784010Y-83538411D01*
X163946525Y-83781632D01*
X164153368Y-83988475D01*
X164396589Y-84150990D01*
X164666842Y-84262932D01*
X164953740Y-84320000D01*
X165246260Y-84320000D01*
X165533158Y-84262932D01*
X165803411Y-84150990D01*
X166046632Y-83988475D01*
X166213693Y-83821414D01*
X166957279Y-84565000D01*
X166934916Y-84565000D01*
X166689555Y-84613805D01*
X166458429Y-84709541D01*
X166250422Y-84848527D01*
X166073527Y-85025422D01*
X165934541Y-85233429D01*
X165838805Y-85464555D01*
X165790000Y-85709916D01*
X165790000Y-85960084D01*
X165838805Y-86205445D01*
X165934541Y-86436571D01*
X166073527Y-86644578D01*
X166250422Y-86821473D01*
X166458429Y-86960459D01*
X166689555Y-87056195D01*
X166934916Y-87105000D01*
X167185084Y-87105000D01*
X167260001Y-87090098D01*
X167260001Y-88454902D01*
X167185084Y-88440000D01*
X166934916Y-88440000D01*
X166689555Y-88488805D01*
X166458429Y-88584541D01*
X166250422Y-88723527D01*
X166073527Y-88900422D01*
X165934541Y-89108429D01*
X165838805Y-89339555D01*
X165790000Y-89584916D01*
X165790000Y-89835084D01*
X165838805Y-90080445D01*
X165934541Y-90311571D01*
X166073527Y-90519578D01*
X166250422Y-90696473D01*
X166458429Y-90835459D01*
X166689555Y-90931195D01*
X166934916Y-90980000D01*
X167185084Y-90980000D01*
X167260001Y-90965098D01*
X167260002Y-98475196D01*
X166482601Y-99252597D01*
X166527932Y-99143158D01*
X166585000Y-98856260D01*
X166585000Y-98563740D01*
X166527932Y-98276842D01*
X166415990Y-98006589D01*
X166253475Y-97763368D01*
X166046632Y-97556525D01*
X165803411Y-97394010D01*
X165533158Y-97282068D01*
X165246260Y-97225000D01*
X164953740Y-97225000D01*
X164666842Y-97282068D01*
X164396589Y-97394010D01*
X164153368Y-97556525D01*
X163946525Y-97763368D01*
X163784010Y-98006589D01*
X163672068Y-98276842D01*
X163615000Y-98563740D01*
X163615000Y-98856260D01*
X163658790Y-99076408D01*
X160498199Y-102237000D01*
X159367865Y-102237000D01*
X159283393Y-102033066D01*
X159060687Y-101699763D01*
X158777237Y-101416313D01*
X158443934Y-101193607D01*
X158073587Y-101040204D01*
X157901857Y-101006045D01*
X161922302Y-96985600D01*
X164336141Y-96985600D01*
X164396589Y-97025990D01*
X164666842Y-97137932D01*
X164953740Y-97195000D01*
X165246260Y-97195000D01*
X165533158Y-97137932D01*
X165803411Y-97025990D01*
X166046632Y-96863475D01*
X166253475Y-96656632D01*
X166415990Y-96413411D01*
X166527932Y-96143158D01*
X166585000Y-95856260D01*
X166585000Y-95563740D01*
X166527932Y-95276842D01*
X166415990Y-95006589D01*
X166253475Y-94763368D01*
X166046632Y-94556525D01*
X165803411Y-94394010D01*
X165533158Y-94282068D01*
X165246260Y-94225000D01*
X164953740Y-94225000D01*
X164733592Y-94268791D01*
X164557402Y-94092601D01*
X164666842Y-94137932D01*
X164953740Y-94195000D01*
X165246260Y-94195000D01*
X165533158Y-94137932D01*
X165803411Y-94025990D01*
X166046632Y-93863475D01*
X166253475Y-93656632D01*
X166415990Y-93413411D01*
X166527932Y-93143158D01*
X166585000Y-92856260D01*
X166585000Y-92563740D01*
X166527932Y-92276842D01*
X166415990Y-92006589D01*
X166253475Y-91763368D01*
X166046632Y-91556525D01*
X165803411Y-91394010D01*
X165533158Y-91282068D01*
X165246260Y-91225000D01*
X164953740Y-91225000D01*
X164827010Y-91250208D01*
X162105622Y-88528821D01*
X162107372Y-88511050D01*
X162107372Y-88023550D01*
X162090428Y-87851515D01*
X162040247Y-87686091D01*
X161958758Y-87533636D01*
X161849092Y-87400008D01*
X161715464Y-87290342D01*
X161563009Y-87208853D01*
X161397585Y-87158672D01*
X161225550Y-87141728D01*
X160313050Y-87141728D01*
X160141015Y-87158672D01*
X159975591Y-87208853D01*
X159823136Y-87290342D01*
X159689508Y-87400008D01*
X159601455Y-87507300D01*
X158901845Y-87507300D01*
X158813792Y-87400008D01*
X158680164Y-87290342D01*
X158527709Y-87208853D01*
X158362285Y-87158672D01*
X158190250Y-87141728D01*
X157277750Y-87141728D01*
X157105715Y-87158672D01*
X156940291Y-87208853D01*
X156787836Y-87290342D01*
X156654208Y-87400008D01*
X156566155Y-87507300D01*
X155218633Y-87507300D01*
X155181300Y-87503623D01*
X155143967Y-87507300D01*
X155032314Y-87518297D01*
X154889053Y-87561754D01*
X154757024Y-87632326D01*
X154641299Y-87727299D01*
X154617501Y-87756297D01*
X154149720Y-88224078D01*
X154131950Y-88222328D01*
X153644450Y-88222328D01*
X153472415Y-88239272D01*
X153306991Y-88289453D01*
X153154536Y-88370942D01*
X153020908Y-88480608D01*
X152911242Y-88614236D01*
X152829753Y-88766691D01*
X152779572Y-88932115D01*
X152762628Y-89104150D01*
X152762628Y-90016650D01*
X152779572Y-90188685D01*
X152829753Y-90354109D01*
X152911242Y-90506564D01*
X153020908Y-90640192D01*
X153128201Y-90728245D01*
X153128201Y-91469540D01*
X153111226Y-91490224D01*
X153067642Y-91571763D01*
X153040654Y-91622253D01*
X152997197Y-91765514D01*
X152986200Y-91877167D01*
X152986200Y-91877178D01*
X152982524Y-91914500D01*
X152986200Y-91951822D01*
X152986200Y-92174497D01*
X150989569Y-94171129D01*
X151001272Y-94052300D01*
X150998200Y-93363050D01*
X150839450Y-93204300D01*
X150190200Y-93204300D01*
X150190200Y-94528550D01*
X150348950Y-94687300D01*
X150363200Y-94690372D01*
X150482029Y-94678669D01*
X144472198Y-100688501D01*
X144443200Y-100712299D01*
X144419402Y-100741297D01*
X144419401Y-100741298D01*
X144348226Y-100828024D01*
X144348200Y-100828073D01*
X144348174Y-100828024D01*
X144253201Y-100712299D01*
X144224202Y-100688500D01*
X144202001Y-100666299D01*
X144178200Y-100637298D01*
X144062475Y-100542325D01*
X143930446Y-100471753D01*
X143787185Y-100428296D01*
X143675532Y-100417299D01*
X143675521Y-100417299D01*
X143638199Y-100413623D01*
X143600877Y-100417299D01*
X138745523Y-100417299D01*
X138708200Y-100413623D01*
X138670878Y-100417299D01*
X138670868Y-100417299D01*
X138559215Y-100428296D01*
X138415954Y-100471753D01*
X138283925Y-100542325D01*
X138168200Y-100637298D01*
X138144400Y-100666298D01*
X138122196Y-100688503D01*
X138093200Y-100712299D01*
X138069402Y-100741297D01*
X138069401Y-100741298D01*
X137998226Y-100828024D01*
X137927654Y-100960054D01*
X137906004Y-101031428D01*
X137882015Y-101051115D01*
X137802663Y-101147806D01*
X137743698Y-101258120D01*
X137707388Y-101377818D01*
X137695128Y-101502300D01*
X137695128Y-103452300D01*
X137707388Y-103576782D01*
X137743698Y-103696480D01*
X137802663Y-103806794D01*
X137882015Y-103903485D01*
X137978706Y-103982837D01*
X138089020Y-104041802D01*
X138208718Y-104078112D01*
X138333200Y-104090372D01*
X138933200Y-104090372D01*
X139057682Y-104078112D01*
X139177380Y-104041802D01*
X139268200Y-103993257D01*
X139359020Y-104041802D01*
X139478718Y-104078112D01*
X139603200Y-104090372D01*
X140203200Y-104090372D01*
X140327682Y-104078112D01*
X140447380Y-104041802D01*
X140538200Y-103993257D01*
X140629020Y-104041802D01*
X140748718Y-104078112D01*
X140873200Y-104090372D01*
X141121469Y-104090372D01*
X142366991Y-105335895D01*
X142366991Y-108459213D01*
X142308250Y-108453428D01*
X141820750Y-108453428D01*
X141778415Y-108457598D01*
X141670947Y-108400154D01*
X141527686Y-108356697D01*
X141416033Y-108345700D01*
X141416022Y-108345700D01*
X141378700Y-108342024D01*
X141341378Y-108345700D01*
X139321172Y-108345700D01*
X139321172Y-108255700D01*
X139308912Y-108131218D01*
X139272602Y-108011520D01*
X139213637Y-107901206D01*
X139134285Y-107804515D01*
X139037594Y-107725163D01*
X138927280Y-107666198D01*
X138807582Y-107629888D01*
X138683100Y-107617628D01*
X136983100Y-107617628D01*
X136858618Y-107629888D01*
X136738920Y-107666198D01*
X136628606Y-107725163D01*
X136531915Y-107804515D01*
X136452563Y-107901206D01*
X136393598Y-108011520D01*
X136357288Y-108131218D01*
X136345028Y-108255700D01*
X136345028Y-109955700D01*
X136357288Y-110080182D01*
X136393598Y-110199880D01*
X136452563Y-110310194D01*
X136531915Y-110406885D01*
X136628606Y-110486237D01*
X136738920Y-110545202D01*
X136811480Y-110567213D01*
X136679625Y-110699068D01*
X136517110Y-110942289D01*
X136405168Y-111212542D01*
X136348100Y-111499440D01*
X136348100Y-111791960D01*
X136405168Y-112078858D01*
X136517110Y-112349111D01*
X136679625Y-112592332D01*
X136886468Y-112799175D01*
X137129689Y-112961690D01*
X137399942Y-113073632D01*
X137686840Y-113130700D01*
X137979360Y-113130700D01*
X138266258Y-113073632D01*
X138536511Y-112961690D01*
X138779732Y-112799175D01*
X138986575Y-112592332D01*
X139111278Y-112405700D01*
X140390799Y-112405700D01*
X141027828Y-113042730D01*
X141027828Y-113549750D01*
X141036717Y-113640000D01*
X106705000Y-113640000D01*
X106705000Y-110279721D01*
X107720000Y-110279721D01*
X107720000Y-110700279D01*
X107802047Y-111112756D01*
X107962988Y-111501302D01*
X108196637Y-111850983D01*
X108494017Y-112148363D01*
X108843698Y-112382012D01*
X109232244Y-112542953D01*
X109644721Y-112625000D01*
X110065279Y-112625000D01*
X110477756Y-112542953D01*
X110866302Y-112382012D01*
X111215983Y-112148363D01*
X111513363Y-111850983D01*
X111747012Y-111501302D01*
X111907953Y-111112756D01*
X111990000Y-110700279D01*
X111990000Y-110279721D01*
X111907953Y-109867244D01*
X111747012Y-109478698D01*
X111513363Y-109129017D01*
X111215983Y-108831637D01*
X110866302Y-108597988D01*
X110477756Y-108437047D01*
X110065279Y-108355000D01*
X109644721Y-108355000D01*
X109232244Y-108437047D01*
X108843698Y-108597988D01*
X108494017Y-108831637D01*
X108196637Y-109129017D01*
X107962988Y-109478698D01*
X107802047Y-109867244D01*
X107720000Y-110279721D01*
X106705000Y-110279721D01*
X106705000Y-94052300D01*
X137695128Y-94052300D01*
X137707388Y-94176782D01*
X137743698Y-94296480D01*
X137802663Y-94406794D01*
X137882015Y-94503485D01*
X137978706Y-94582837D01*
X138089020Y-94641802D01*
X138208718Y-94678112D01*
X138333200Y-94690372D01*
X138347450Y-94687300D01*
X138506200Y-94528550D01*
X138506200Y-93204300D01*
X137856950Y-93204300D01*
X137698200Y-93363050D01*
X137695128Y-94052300D01*
X106705000Y-94052300D01*
X106705000Y-92102300D01*
X137695128Y-92102300D01*
X137698200Y-92791550D01*
X137856950Y-92950300D01*
X138506200Y-92950300D01*
X138506200Y-91626050D01*
X138347450Y-91467300D01*
X138333200Y-91464228D01*
X138208718Y-91476488D01*
X138089020Y-91512798D01*
X137978706Y-91571763D01*
X137882015Y-91651115D01*
X137802663Y-91747806D01*
X137743698Y-91858120D01*
X137707388Y-91977818D01*
X137695128Y-92102300D01*
X106705000Y-92102300D01*
X106705000Y-80518000D01*
X114169928Y-80518000D01*
X114169928Y-82042000D01*
X114182188Y-82166482D01*
X114218498Y-82286180D01*
X114277463Y-82396494D01*
X114356815Y-82493185D01*
X114453506Y-82572537D01*
X114563820Y-82631502D01*
X114683518Y-82667812D01*
X114808000Y-82680072D01*
X116332000Y-82680072D01*
X116456482Y-82667812D01*
X116576180Y-82631502D01*
X116686494Y-82572537D01*
X116783185Y-82493185D01*
X116862537Y-82396494D01*
X116921502Y-82286180D01*
X116957812Y-82166482D01*
X116966080Y-82082535D01*
X117024880Y-82170535D01*
X117219465Y-82365120D01*
X117448273Y-82518005D01*
X117702510Y-82623314D01*
X117972408Y-82677000D01*
X118247592Y-82677000D01*
X118517490Y-82623314D01*
X118771727Y-82518005D01*
X119000535Y-82365120D01*
X119195120Y-82170535D01*
X119348005Y-81941727D01*
X119380000Y-81864485D01*
X119411995Y-81941727D01*
X119564880Y-82170535D01*
X119759465Y-82365120D01*
X119988273Y-82518005D01*
X120242510Y-82623314D01*
X120512408Y-82677000D01*
X120787592Y-82677000D01*
X121057490Y-82623314D01*
X121311727Y-82518005D01*
X121540535Y-82365120D01*
X121660090Y-82245565D01*
X122404040Y-82245565D01*
X122471020Y-82485656D01*
X122720048Y-82602756D01*
X122987135Y-82669023D01*
X123262017Y-82681910D01*
X123534133Y-82640922D01*
X123793023Y-82547636D01*
X123908980Y-82485656D01*
X123975960Y-82245565D01*
X123190000Y-81459605D01*
X122404040Y-82245565D01*
X121660090Y-82245565D01*
X121735120Y-82170535D01*
X121888005Y-81941727D01*
X121917692Y-81870057D01*
X121922364Y-81883023D01*
X121984344Y-81998980D01*
X122224435Y-82065960D01*
X123010395Y-81280000D01*
X122224435Y-80494040D01*
X121984344Y-80561020D01*
X121920515Y-80696760D01*
X121888005Y-80618273D01*
X121735120Y-80389465D01*
X121660090Y-80314435D01*
X122404040Y-80314435D01*
X123190000Y-81100395D01*
X123975960Y-80314435D01*
X123908980Y-80074344D01*
X123659952Y-79957244D01*
X123392865Y-79890977D01*
X123117983Y-79878090D01*
X122845867Y-79919078D01*
X122586977Y-80012364D01*
X122471020Y-80074344D01*
X122404040Y-80314435D01*
X121660090Y-80314435D01*
X121540535Y-80194880D01*
X121311727Y-80041995D01*
X121057490Y-79936686D01*
X120787592Y-79883000D01*
X120512408Y-79883000D01*
X120242510Y-79936686D01*
X119988273Y-80041995D01*
X119759465Y-80194880D01*
X119564880Y-80389465D01*
X119411995Y-80618273D01*
X119380000Y-80695515D01*
X119348005Y-80618273D01*
X119195120Y-80389465D01*
X119000535Y-80194880D01*
X118771727Y-80041995D01*
X118517490Y-79936686D01*
X118247592Y-79883000D01*
X117972408Y-79883000D01*
X117702510Y-79936686D01*
X117448273Y-80041995D01*
X117219465Y-80194880D01*
X117024880Y-80389465D01*
X116966080Y-80477465D01*
X116957812Y-80393518D01*
X116921502Y-80273820D01*
X116862537Y-80163506D01*
X116783185Y-80066815D01*
X116686494Y-79987463D01*
X116576180Y-79928498D01*
X116456482Y-79892188D01*
X116332000Y-79879928D01*
X114808000Y-79879928D01*
X114683518Y-79892188D01*
X114563820Y-79928498D01*
X114453506Y-79987463D01*
X114356815Y-80066815D01*
X114277463Y-80163506D01*
X114218498Y-80273820D01*
X114182188Y-80393518D01*
X114169928Y-80518000D01*
X106705000Y-80518000D01*
X106705000Y-65829721D01*
X107720000Y-65829721D01*
X107720000Y-66250279D01*
X107802047Y-66662756D01*
X107962988Y-67051302D01*
X108196637Y-67400983D01*
X108494017Y-67698363D01*
X108843698Y-67932012D01*
X109232244Y-68092953D01*
X109644721Y-68175000D01*
X110065279Y-68175000D01*
X110477756Y-68092953D01*
X110866302Y-67932012D01*
X111215983Y-67698363D01*
X111513363Y-67400983D01*
X111747012Y-67051302D01*
X111907953Y-66662756D01*
X111990000Y-66250279D01*
X111990000Y-65902408D01*
X114173000Y-65902408D01*
X114173000Y-66177592D01*
X114226686Y-66447490D01*
X114331995Y-66701727D01*
X114484880Y-66930535D01*
X114679465Y-67125120D01*
X114908273Y-67278005D01*
X115162510Y-67383314D01*
X115432408Y-67437000D01*
X115707592Y-67437000D01*
X115977490Y-67383314D01*
X116231727Y-67278005D01*
X116460535Y-67125120D01*
X116580090Y-67005565D01*
X117324040Y-67005565D01*
X117391020Y-67245656D01*
X117640048Y-67362756D01*
X117907135Y-67429023D01*
X118182017Y-67441910D01*
X118454133Y-67400922D01*
X118713023Y-67307636D01*
X118828980Y-67245656D01*
X118895960Y-67005565D01*
X118110000Y-66219605D01*
X117324040Y-67005565D01*
X116580090Y-67005565D01*
X116655120Y-66930535D01*
X116808005Y-66701727D01*
X116837692Y-66630057D01*
X116842364Y-66643023D01*
X116904344Y-66758980D01*
X117144435Y-66825960D01*
X117930395Y-66040000D01*
X118289605Y-66040000D01*
X119075565Y-66825960D01*
X119315656Y-66758980D01*
X119379485Y-66623240D01*
X119411995Y-66701727D01*
X119564880Y-66930535D01*
X119759465Y-67125120D01*
X119988273Y-67278005D01*
X120242510Y-67383314D01*
X120512408Y-67437000D01*
X120787592Y-67437000D01*
X121057490Y-67383314D01*
X121311727Y-67278005D01*
X121540535Y-67125120D01*
X121735120Y-66930535D01*
X121888005Y-66701727D01*
X121920000Y-66624485D01*
X121951995Y-66701727D01*
X122104880Y-66930535D01*
X122299465Y-67125120D01*
X122528273Y-67278005D01*
X122782510Y-67383314D01*
X123052408Y-67437000D01*
X123327592Y-67437000D01*
X123597490Y-67383314D01*
X123851727Y-67278005D01*
X124080535Y-67125120D01*
X124275120Y-66930535D01*
X124428005Y-66701727D01*
X124460000Y-66624485D01*
X124491995Y-66701727D01*
X124644880Y-66930535D01*
X124839465Y-67125120D01*
X125068273Y-67278005D01*
X125322510Y-67383314D01*
X125592408Y-67437000D01*
X125867592Y-67437000D01*
X126137490Y-67383314D01*
X126391727Y-67278005D01*
X126620535Y-67125120D01*
X126815120Y-66930535D01*
X126968005Y-66701727D01*
X127000000Y-66624485D01*
X127031995Y-66701727D01*
X127184880Y-66930535D01*
X127379465Y-67125120D01*
X127608273Y-67278005D01*
X127862510Y-67383314D01*
X128132408Y-67437000D01*
X128407592Y-67437000D01*
X128677490Y-67383314D01*
X128931727Y-67278005D01*
X129160535Y-67125120D01*
X129355120Y-66930535D01*
X129508005Y-66701727D01*
X129540000Y-66624485D01*
X129571995Y-66701727D01*
X129724880Y-66930535D01*
X129919465Y-67125120D01*
X130148273Y-67278005D01*
X130402510Y-67383314D01*
X130672408Y-67437000D01*
X130947592Y-67437000D01*
X131217490Y-67383314D01*
X131471727Y-67278005D01*
X131700535Y-67125120D01*
X131895120Y-66930535D01*
X132048005Y-66701727D01*
X132080000Y-66624485D01*
X132111995Y-66701727D01*
X132264880Y-66930535D01*
X132459465Y-67125120D01*
X132688273Y-67278005D01*
X132942510Y-67383314D01*
X133212408Y-67437000D01*
X133487592Y-67437000D01*
X133757490Y-67383314D01*
X134011727Y-67278005D01*
X134240535Y-67125120D01*
X134435120Y-66930535D01*
X134588005Y-66701727D01*
X134620000Y-66624485D01*
X134651995Y-66701727D01*
X134804880Y-66930535D01*
X134999465Y-67125120D01*
X135228273Y-67278005D01*
X135482510Y-67383314D01*
X135752408Y-67437000D01*
X136027592Y-67437000D01*
X136297490Y-67383314D01*
X136551727Y-67278005D01*
X136780535Y-67125120D01*
X136975120Y-66930535D01*
X137128005Y-66701727D01*
X137160000Y-66624485D01*
X137191995Y-66701727D01*
X137344880Y-66930535D01*
X137539465Y-67125120D01*
X137768273Y-67278005D01*
X138022510Y-67383314D01*
X138292408Y-67437000D01*
X138567592Y-67437000D01*
X138837490Y-67383314D01*
X139091727Y-67278005D01*
X139320535Y-67125120D01*
X139515120Y-66930535D01*
X139668005Y-66701727D01*
X139700000Y-66624485D01*
X139731995Y-66701727D01*
X139884880Y-66930535D01*
X140079465Y-67125120D01*
X140308273Y-67278005D01*
X140562510Y-67383314D01*
X140832408Y-67437000D01*
X141107592Y-67437000D01*
X141377490Y-67383314D01*
X141631727Y-67278005D01*
X141860535Y-67125120D01*
X142055120Y-66930535D01*
X142208005Y-66701727D01*
X142240000Y-66624485D01*
X142271995Y-66701727D01*
X142424880Y-66930535D01*
X142619465Y-67125120D01*
X142848273Y-67278005D01*
X143102510Y-67383314D01*
X143372408Y-67437000D01*
X143647592Y-67437000D01*
X143917490Y-67383314D01*
X144171727Y-67278005D01*
X144400535Y-67125120D01*
X144595120Y-66930535D01*
X144748005Y-66701727D01*
X144780000Y-66624485D01*
X144811995Y-66701727D01*
X144964880Y-66930535D01*
X145159465Y-67125120D01*
X145388273Y-67278005D01*
X145642510Y-67383314D01*
X145912408Y-67437000D01*
X146118199Y-67437000D01*
X144451997Y-69103202D01*
X144422999Y-69127000D01*
X144399201Y-69155998D01*
X144399200Y-69155999D01*
X144328025Y-69242725D01*
X144257453Y-69374755D01*
X144213997Y-69518016D01*
X144199323Y-69667001D01*
X144203000Y-69704334D01*
X144202999Y-80062891D01*
X144171727Y-80041995D01*
X143917490Y-79936686D01*
X143647592Y-79883000D01*
X143372408Y-79883000D01*
X143102510Y-79936686D01*
X142848273Y-80041995D01*
X142619465Y-80194880D01*
X142424880Y-80389465D01*
X142271995Y-80618273D01*
X142240000Y-80695515D01*
X142208005Y-80618273D01*
X142055120Y-80389465D01*
X141860535Y-80194880D01*
X141631727Y-80041995D01*
X141377490Y-79936686D01*
X141107592Y-79883000D01*
X140832408Y-79883000D01*
X140562510Y-79936686D01*
X140308273Y-80041995D01*
X140079465Y-80194880D01*
X139884880Y-80389465D01*
X139731995Y-80618273D01*
X139700000Y-80695515D01*
X139668005Y-80618273D01*
X139515120Y-80389465D01*
X139320535Y-80194880D01*
X139091727Y-80041995D01*
X138837490Y-79936686D01*
X138567592Y-79883000D01*
X138292408Y-79883000D01*
X138022510Y-79936686D01*
X137768273Y-80041995D01*
X137539465Y-80194880D01*
X137344880Y-80389465D01*
X137191995Y-80618273D01*
X137160000Y-80695515D01*
X137128005Y-80618273D01*
X136975120Y-80389465D01*
X136780535Y-80194880D01*
X136551727Y-80041995D01*
X136297490Y-79936686D01*
X136027592Y-79883000D01*
X135752408Y-79883000D01*
X135482510Y-79936686D01*
X135228273Y-80041995D01*
X134999465Y-80194880D01*
X134804880Y-80389465D01*
X134651995Y-80618273D01*
X134620000Y-80695515D01*
X134588005Y-80618273D01*
X134435120Y-80389465D01*
X134240535Y-80194880D01*
X134011727Y-80041995D01*
X133757490Y-79936686D01*
X133487592Y-79883000D01*
X133212408Y-79883000D01*
X132942510Y-79936686D01*
X132688273Y-80041995D01*
X132459465Y-80194880D01*
X132264880Y-80389465D01*
X132111995Y-80618273D01*
X132080000Y-80695515D01*
X132048005Y-80618273D01*
X131895120Y-80389465D01*
X131700535Y-80194880D01*
X131471727Y-80041995D01*
X131217490Y-79936686D01*
X130947592Y-79883000D01*
X130672408Y-79883000D01*
X130402510Y-79936686D01*
X130148273Y-80041995D01*
X129919465Y-80194880D01*
X129724880Y-80389465D01*
X129571995Y-80618273D01*
X129540000Y-80695515D01*
X129508005Y-80618273D01*
X129355120Y-80389465D01*
X129160535Y-80194880D01*
X128931727Y-80041995D01*
X128677490Y-79936686D01*
X128407592Y-79883000D01*
X128132408Y-79883000D01*
X127862510Y-79936686D01*
X127608273Y-80041995D01*
X127379465Y-80194880D01*
X127184880Y-80389465D01*
X127031995Y-80618273D01*
X127000000Y-80695515D01*
X126968005Y-80618273D01*
X126815120Y-80389465D01*
X126620535Y-80194880D01*
X126391727Y-80041995D01*
X126137490Y-79936686D01*
X125867592Y-79883000D01*
X125592408Y-79883000D01*
X125322510Y-79936686D01*
X125068273Y-80041995D01*
X124839465Y-80194880D01*
X124644880Y-80389465D01*
X124491995Y-80618273D01*
X124462308Y-80689943D01*
X124457636Y-80676977D01*
X124395656Y-80561020D01*
X124155565Y-80494040D01*
X123369605Y-81280000D01*
X124155565Y-82065960D01*
X124395656Y-81998980D01*
X124459485Y-81863240D01*
X124491995Y-81941727D01*
X124644880Y-82170535D01*
X124839465Y-82365120D01*
X125068273Y-82518005D01*
X125322510Y-82623314D01*
X125592408Y-82677000D01*
X125867592Y-82677000D01*
X126021571Y-82646372D01*
X131020900Y-87645702D01*
X131044699Y-87674701D01*
X131073697Y-87698499D01*
X131160423Y-87769674D01*
X131292453Y-87840246D01*
X131435714Y-87883703D01*
X131547367Y-87894700D01*
X131547376Y-87894700D01*
X131584699Y-87898376D01*
X131622022Y-87894700D01*
X135716635Y-87894700D01*
X135801107Y-88098634D01*
X136023813Y-88431937D01*
X136307263Y-88715387D01*
X136640566Y-88938093D01*
X137010913Y-89091496D01*
X137404070Y-89169700D01*
X137804930Y-89169700D01*
X138198087Y-89091496D01*
X138402022Y-89007023D01*
X140860479Y-91465481D01*
X140748718Y-91476488D01*
X140629020Y-91512798D01*
X140538200Y-91561343D01*
X140447380Y-91512798D01*
X140327682Y-91476488D01*
X140203200Y-91464228D01*
X139603200Y-91464228D01*
X139478718Y-91476488D01*
X139359020Y-91512798D01*
X139268200Y-91561343D01*
X139177380Y-91512798D01*
X139057682Y-91476488D01*
X138933200Y-91464228D01*
X138918950Y-91467300D01*
X138760200Y-91626050D01*
X138760200Y-92950300D01*
X138780200Y-92950300D01*
X138780200Y-93204300D01*
X138760200Y-93204300D01*
X138760200Y-94528550D01*
X138918950Y-94687300D01*
X138933200Y-94690372D01*
X139057682Y-94678112D01*
X139177380Y-94641802D01*
X139268200Y-94593257D01*
X139359020Y-94641802D01*
X139478718Y-94678112D01*
X139603200Y-94690372D01*
X140203200Y-94690372D01*
X140327682Y-94678112D01*
X140447380Y-94641802D01*
X140538200Y-94593257D01*
X140629020Y-94641802D01*
X140748718Y-94678112D01*
X140873200Y-94690372D01*
X141473200Y-94690372D01*
X141597682Y-94678112D01*
X141717380Y-94641802D01*
X141808200Y-94593257D01*
X141899020Y-94641802D01*
X142018718Y-94678112D01*
X142143200Y-94690372D01*
X142743200Y-94690372D01*
X142867682Y-94678112D01*
X142987380Y-94641802D01*
X143078200Y-94593257D01*
X143169020Y-94641802D01*
X143288718Y-94678112D01*
X143413200Y-94690372D01*
X144013200Y-94690372D01*
X144137682Y-94678112D01*
X144257380Y-94641802D01*
X144348200Y-94593257D01*
X144439020Y-94641802D01*
X144558718Y-94678112D01*
X144683200Y-94690372D01*
X145283200Y-94690372D01*
X145407682Y-94678112D01*
X145527380Y-94641802D01*
X145618200Y-94593257D01*
X145709020Y-94641802D01*
X145828718Y-94678112D01*
X145953200Y-94690372D01*
X146553200Y-94690372D01*
X146677682Y-94678112D01*
X146797380Y-94641802D01*
X146888200Y-94593257D01*
X146979020Y-94641802D01*
X147098718Y-94678112D01*
X147223200Y-94690372D01*
X147823200Y-94690372D01*
X147947682Y-94678112D01*
X148067380Y-94641802D01*
X148158200Y-94593257D01*
X148249020Y-94641802D01*
X148368718Y-94678112D01*
X148493200Y-94690372D01*
X148507450Y-94687300D01*
X148666200Y-94528550D01*
X148666200Y-93204300D01*
X148920200Y-93204300D01*
X148920200Y-94528550D01*
X149078950Y-94687300D01*
X149093200Y-94690372D01*
X149217682Y-94678112D01*
X149337380Y-94641802D01*
X149428200Y-94593257D01*
X149519020Y-94641802D01*
X149638718Y-94678112D01*
X149763200Y-94690372D01*
X149777450Y-94687300D01*
X149936200Y-94528550D01*
X149936200Y-93204300D01*
X148920200Y-93204300D01*
X148666200Y-93204300D01*
X148646200Y-93204300D01*
X148646200Y-92950300D01*
X148666200Y-92950300D01*
X148666200Y-91626050D01*
X148920200Y-91626050D01*
X148920200Y-92950300D01*
X149936200Y-92950300D01*
X149936200Y-91626050D01*
X150190200Y-91626050D01*
X150190200Y-92950300D01*
X150839450Y-92950300D01*
X150998200Y-92791550D01*
X151001272Y-92102300D01*
X150989012Y-91977818D01*
X150952702Y-91858120D01*
X150893737Y-91747806D01*
X150814385Y-91651115D01*
X150717694Y-91571763D01*
X150607380Y-91512798D01*
X150487682Y-91476488D01*
X150363200Y-91464228D01*
X150348950Y-91467300D01*
X150190200Y-91626050D01*
X149936200Y-91626050D01*
X149777450Y-91467300D01*
X149763200Y-91464228D01*
X149638718Y-91476488D01*
X149519020Y-91512798D01*
X149428200Y-91561343D01*
X149337380Y-91512798D01*
X149217682Y-91476488D01*
X149093200Y-91464228D01*
X149078950Y-91467300D01*
X148920200Y-91626050D01*
X148666200Y-91626050D01*
X148507450Y-91467300D01*
X148493200Y-91464228D01*
X148368718Y-91476488D01*
X148283200Y-91502430D01*
X148283200Y-90857442D01*
X148309415Y-90889385D01*
X148406106Y-90968737D01*
X148516420Y-91027702D01*
X148636118Y-91064012D01*
X148760600Y-91076272D01*
X148962350Y-91073200D01*
X149121100Y-90914450D01*
X149121100Y-89865200D01*
X149375100Y-89865200D01*
X149375100Y-90914450D01*
X149533850Y-91073200D01*
X149735600Y-91076272D01*
X149860082Y-91064012D01*
X149979780Y-91027702D01*
X150090094Y-90968737D01*
X150186785Y-90889385D01*
X150266137Y-90792694D01*
X150325102Y-90682380D01*
X150361412Y-90562682D01*
X150373672Y-90438200D01*
X150370600Y-90023950D01*
X150211850Y-89865200D01*
X149375100Y-89865200D01*
X149121100Y-89865200D01*
X149101100Y-89865200D01*
X149101100Y-89611200D01*
X149121100Y-89611200D01*
X149121100Y-88561950D01*
X149375100Y-88561950D01*
X149375100Y-89611200D01*
X150211850Y-89611200D01*
X150370600Y-89452450D01*
X150373672Y-89038200D01*
X150361412Y-88913718D01*
X150325102Y-88794020D01*
X150266137Y-88683706D01*
X150186785Y-88587015D01*
X150090094Y-88507663D01*
X149979780Y-88448698D01*
X149860082Y-88412388D01*
X149735600Y-88400128D01*
X149533850Y-88403200D01*
X149375100Y-88561950D01*
X149121100Y-88561950D01*
X148962350Y-88403200D01*
X148760600Y-88400128D01*
X148636118Y-88412388D01*
X148516420Y-88448698D01*
X148406106Y-88507663D01*
X148309415Y-88587015D01*
X148245608Y-88664764D01*
X148240392Y-88658408D01*
X148133100Y-88570355D01*
X148133100Y-87412231D01*
X148176892Y-87376292D01*
X148182108Y-87369936D01*
X148245915Y-87447685D01*
X148342606Y-87527037D01*
X148452920Y-87586002D01*
X148572618Y-87622312D01*
X148697100Y-87634572D01*
X148898850Y-87631500D01*
X149057600Y-87472750D01*
X149057600Y-86423500D01*
X149311600Y-86423500D01*
X149311600Y-87472750D01*
X149470350Y-87631500D01*
X149672100Y-87634572D01*
X149796582Y-87622312D01*
X149916280Y-87586002D01*
X150026594Y-87527037D01*
X150123285Y-87447685D01*
X150202637Y-87350994D01*
X150261602Y-87240680D01*
X150297912Y-87120982D01*
X150310172Y-86996500D01*
X150307100Y-86582250D01*
X150148350Y-86423500D01*
X149311600Y-86423500D01*
X149057600Y-86423500D01*
X149037600Y-86423500D01*
X149037600Y-86169500D01*
X149057600Y-86169500D01*
X149057600Y-86149500D01*
X149311600Y-86149500D01*
X149311600Y-86169500D01*
X150148350Y-86169500D01*
X150239250Y-86078600D01*
X151680535Y-86078600D01*
X151765007Y-86282534D01*
X151987713Y-86615837D01*
X152271163Y-86899287D01*
X152604466Y-87121993D01*
X152974813Y-87275396D01*
X153367970Y-87353600D01*
X153768830Y-87353600D01*
X154161987Y-87275396D01*
X154532334Y-87121993D01*
X154865637Y-86899287D01*
X155149087Y-86615837D01*
X155371793Y-86282534D01*
X155525196Y-85912187D01*
X155603400Y-85519030D01*
X155603400Y-85118170D01*
X155525196Y-84725013D01*
X155371793Y-84354666D01*
X155149087Y-84021363D01*
X154865637Y-83737913D01*
X154532334Y-83515207D01*
X154161987Y-83361804D01*
X153768830Y-83283600D01*
X153367970Y-83283600D01*
X152974813Y-83361804D01*
X152604466Y-83515207D01*
X152271163Y-83737913D01*
X151987713Y-84021363D01*
X151765007Y-84354666D01*
X151680535Y-84558600D01*
X150403402Y-84558600D01*
X148521801Y-82677000D01*
X148727592Y-82677000D01*
X148997490Y-82623314D01*
X149251727Y-82518005D01*
X149480535Y-82365120D01*
X149675120Y-82170535D01*
X149828005Y-81941727D01*
X149860000Y-81864485D01*
X149891995Y-81941727D01*
X150044880Y-82170535D01*
X150239465Y-82365120D01*
X150468273Y-82518005D01*
X150722510Y-82623314D01*
X150992408Y-82677000D01*
X151267592Y-82677000D01*
X151537490Y-82623314D01*
X151791727Y-82518005D01*
X152020535Y-82365120D01*
X152215120Y-82170535D01*
X152368005Y-81941727D01*
X152473314Y-81687490D01*
X152527000Y-81417592D01*
X152527000Y-81142408D01*
X152473314Y-80872510D01*
X152368005Y-80618273D01*
X152215120Y-80389465D01*
X152020535Y-80194880D01*
X151791727Y-80041995D01*
X151537490Y-79936686D01*
X151267592Y-79883000D01*
X150992408Y-79883000D01*
X150722510Y-79936686D01*
X150468273Y-80041995D01*
X150239465Y-80194880D01*
X150044880Y-80389465D01*
X149891995Y-80618273D01*
X149860000Y-80695515D01*
X149828005Y-80618273D01*
X149675120Y-80389465D01*
X149480535Y-80194880D01*
X149251727Y-80041995D01*
X148997490Y-79936686D01*
X148727592Y-79883000D01*
X148452408Y-79883000D01*
X148182510Y-79936686D01*
X147928273Y-80041995D01*
X147699465Y-80194880D01*
X147504880Y-80389465D01*
X147351995Y-80618273D01*
X147320000Y-80695515D01*
X147288005Y-80618273D01*
X147135120Y-80389465D01*
X146940535Y-80194880D01*
X146711727Y-80041995D01*
X146457490Y-79936686D01*
X146187592Y-79883000D01*
X145912408Y-79883000D01*
X145722999Y-79920676D01*
X145722999Y-79688740D01*
X163615000Y-79688740D01*
X163615000Y-79981260D01*
X163672068Y-80268158D01*
X163784010Y-80538411D01*
X163946525Y-80781632D01*
X164153368Y-80988475D01*
X164396589Y-81150990D01*
X164666842Y-81262932D01*
X164953740Y-81320000D01*
X165246260Y-81320000D01*
X165533158Y-81262932D01*
X165803411Y-81150990D01*
X166046632Y-80988475D01*
X166253475Y-80781632D01*
X166415990Y-80538411D01*
X166527932Y-80268158D01*
X166585000Y-79981260D01*
X166585000Y-79688740D01*
X166527932Y-79401842D01*
X166415990Y-79131589D01*
X166253475Y-78888368D01*
X166046632Y-78681525D01*
X165803411Y-78519010D01*
X165533158Y-78407068D01*
X165246260Y-78350000D01*
X164953740Y-78350000D01*
X164666842Y-78407068D01*
X164396589Y-78519010D01*
X164153368Y-78681525D01*
X163946525Y-78888368D01*
X163784010Y-79131589D01*
X163672068Y-79401842D01*
X163615000Y-79688740D01*
X145722999Y-79688740D01*
X145722999Y-76688740D01*
X163615000Y-76688740D01*
X163615000Y-76981260D01*
X163672068Y-77268158D01*
X163784010Y-77538411D01*
X163946525Y-77781632D01*
X164153368Y-77988475D01*
X164396589Y-78150990D01*
X164666842Y-78262932D01*
X164953740Y-78320000D01*
X165246260Y-78320000D01*
X165533158Y-78262932D01*
X165803411Y-78150990D01*
X166046632Y-77988475D01*
X166253475Y-77781632D01*
X166415990Y-77538411D01*
X166527932Y-77268158D01*
X166585000Y-76981260D01*
X166585000Y-76688740D01*
X166527932Y-76401842D01*
X166415990Y-76131589D01*
X166253475Y-75888368D01*
X166046632Y-75681525D01*
X165803411Y-75519010D01*
X165533158Y-75407068D01*
X165246260Y-75350000D01*
X164953740Y-75350000D01*
X164666842Y-75407068D01*
X164396589Y-75519010D01*
X164153368Y-75681525D01*
X163946525Y-75888368D01*
X163784010Y-76131589D01*
X163672068Y-76401842D01*
X163615000Y-76688740D01*
X145722999Y-76688740D01*
X145722999Y-73688740D01*
X163615000Y-73688740D01*
X163615000Y-73981260D01*
X163672068Y-74268158D01*
X163784010Y-74538411D01*
X163946525Y-74781632D01*
X164153368Y-74988475D01*
X164396589Y-75150990D01*
X164666842Y-75262932D01*
X164953740Y-75320000D01*
X165246260Y-75320000D01*
X165533158Y-75262932D01*
X165803411Y-75150990D01*
X166046632Y-74988475D01*
X166253475Y-74781632D01*
X166415990Y-74538411D01*
X166527932Y-74268158D01*
X166585000Y-73981260D01*
X166585000Y-73688740D01*
X166527932Y-73401842D01*
X166415990Y-73131589D01*
X166253475Y-72888368D01*
X166046632Y-72681525D01*
X165803411Y-72519010D01*
X165533158Y-72407068D01*
X165246260Y-72350000D01*
X164953740Y-72350000D01*
X164666842Y-72407068D01*
X164396589Y-72519010D01*
X164153368Y-72681525D01*
X163946525Y-72888368D01*
X163784010Y-73131589D01*
X163672068Y-73401842D01*
X163615000Y-73688740D01*
X145722999Y-73688740D01*
X145722999Y-70709916D01*
X165790000Y-70709916D01*
X165790000Y-70960084D01*
X165838805Y-71205445D01*
X165934541Y-71436571D01*
X166073527Y-71644578D01*
X166250422Y-71821473D01*
X166458429Y-71960459D01*
X166689555Y-72056195D01*
X166934916Y-72105000D01*
X167185084Y-72105000D01*
X167430445Y-72056195D01*
X167661571Y-71960459D01*
X167869578Y-71821473D01*
X168046473Y-71644578D01*
X168185459Y-71436571D01*
X168281195Y-71205445D01*
X168330000Y-70960084D01*
X168330000Y-70709916D01*
X168281195Y-70464555D01*
X168185459Y-70233429D01*
X168046473Y-70025422D01*
X167869578Y-69848527D01*
X167661571Y-69709541D01*
X167430445Y-69613805D01*
X167185084Y-69565000D01*
X166934916Y-69565000D01*
X166689555Y-69613805D01*
X166458429Y-69709541D01*
X166250422Y-69848527D01*
X166073527Y-70025422D01*
X165934541Y-70233429D01*
X165838805Y-70464555D01*
X165790000Y-70709916D01*
X145722999Y-70709916D01*
X145722999Y-69981802D01*
X148298430Y-67406372D01*
X148452408Y-67437000D01*
X148727592Y-67437000D01*
X148997490Y-67383314D01*
X149251727Y-67278005D01*
X149480535Y-67125120D01*
X149675120Y-66930535D01*
X149828005Y-66701727D01*
X149860000Y-66624485D01*
X149891995Y-66701727D01*
X150044880Y-66930535D01*
X150239465Y-67125120D01*
X150468273Y-67278005D01*
X150722510Y-67383314D01*
X150992408Y-67437000D01*
X151267592Y-67437000D01*
X151537490Y-67383314D01*
X151791727Y-67278005D01*
X152020535Y-67125120D01*
X152215120Y-66930535D01*
X152368005Y-66701727D01*
X152473314Y-66447490D01*
X152527000Y-66177592D01*
X152527000Y-65902408D01*
X152512542Y-65829721D01*
X163600000Y-65829721D01*
X163600000Y-66250279D01*
X163682047Y-66662756D01*
X163842988Y-67051302D01*
X164076637Y-67400983D01*
X164374017Y-67698363D01*
X164723698Y-67932012D01*
X165112244Y-68092953D01*
X165524721Y-68175000D01*
X165945279Y-68175000D01*
X166357756Y-68092953D01*
X166746302Y-67932012D01*
X167095983Y-67698363D01*
X167393363Y-67400983D01*
X167627012Y-67051302D01*
X167787953Y-66662756D01*
X167870000Y-66250279D01*
X167870000Y-65829721D01*
X167787953Y-65417244D01*
X167627012Y-65028698D01*
X167393363Y-64679017D01*
X167095983Y-64381637D01*
X166746302Y-64147988D01*
X166357756Y-63987047D01*
X165945279Y-63905000D01*
X165524721Y-63905000D01*
X165112244Y-63987047D01*
X164723698Y-64147988D01*
X164374017Y-64381637D01*
X164076637Y-64679017D01*
X163842988Y-65028698D01*
X163682047Y-65417244D01*
X163600000Y-65829721D01*
X152512542Y-65829721D01*
X152473314Y-65632510D01*
X152368005Y-65378273D01*
X152215120Y-65149465D01*
X152020535Y-64954880D01*
X151791727Y-64801995D01*
X151537490Y-64696686D01*
X151267592Y-64643000D01*
X150992408Y-64643000D01*
X150722510Y-64696686D01*
X150468273Y-64801995D01*
X150239465Y-64954880D01*
X150044880Y-65149465D01*
X149891995Y-65378273D01*
X149860000Y-65455515D01*
X149828005Y-65378273D01*
X149675120Y-65149465D01*
X149480535Y-64954880D01*
X149251727Y-64801995D01*
X148997490Y-64696686D01*
X148727592Y-64643000D01*
X148452408Y-64643000D01*
X148182510Y-64696686D01*
X147928273Y-64801995D01*
X147699465Y-64954880D01*
X147504880Y-65149465D01*
X147351995Y-65378273D01*
X147320000Y-65455515D01*
X147288005Y-65378273D01*
X147135120Y-65149465D01*
X146940535Y-64954880D01*
X146711727Y-64801995D01*
X146457490Y-64696686D01*
X146187592Y-64643000D01*
X145912408Y-64643000D01*
X145642510Y-64696686D01*
X145388273Y-64801995D01*
X145159465Y-64954880D01*
X144964880Y-65149465D01*
X144811995Y-65378273D01*
X144780000Y-65455515D01*
X144748005Y-65378273D01*
X144595120Y-65149465D01*
X144400535Y-64954880D01*
X144171727Y-64801995D01*
X143917490Y-64696686D01*
X143647592Y-64643000D01*
X143372408Y-64643000D01*
X143102510Y-64696686D01*
X142848273Y-64801995D01*
X142619465Y-64954880D01*
X142424880Y-65149465D01*
X142271995Y-65378273D01*
X142240000Y-65455515D01*
X142208005Y-65378273D01*
X142055120Y-65149465D01*
X141860535Y-64954880D01*
X141631727Y-64801995D01*
X141377490Y-64696686D01*
X141107592Y-64643000D01*
X140832408Y-64643000D01*
X140562510Y-64696686D01*
X140308273Y-64801995D01*
X140079465Y-64954880D01*
X139884880Y-65149465D01*
X139731995Y-65378273D01*
X139700000Y-65455515D01*
X139668005Y-65378273D01*
X139515120Y-65149465D01*
X139320535Y-64954880D01*
X139091727Y-64801995D01*
X138837490Y-64696686D01*
X138567592Y-64643000D01*
X138292408Y-64643000D01*
X138022510Y-64696686D01*
X137768273Y-64801995D01*
X137539465Y-64954880D01*
X137344880Y-65149465D01*
X137191995Y-65378273D01*
X137160000Y-65455515D01*
X137128005Y-65378273D01*
X136975120Y-65149465D01*
X136780535Y-64954880D01*
X136551727Y-64801995D01*
X136297490Y-64696686D01*
X136027592Y-64643000D01*
X135752408Y-64643000D01*
X135482510Y-64696686D01*
X135228273Y-64801995D01*
X134999465Y-64954880D01*
X134804880Y-65149465D01*
X134651995Y-65378273D01*
X134620000Y-65455515D01*
X134588005Y-65378273D01*
X134435120Y-65149465D01*
X134240535Y-64954880D01*
X134011727Y-64801995D01*
X133757490Y-64696686D01*
X133487592Y-64643000D01*
X133212408Y-64643000D01*
X132942510Y-64696686D01*
X132688273Y-64801995D01*
X132459465Y-64954880D01*
X132264880Y-65149465D01*
X132111995Y-65378273D01*
X132080000Y-65455515D01*
X132048005Y-65378273D01*
X131895120Y-65149465D01*
X131700535Y-64954880D01*
X131471727Y-64801995D01*
X131217490Y-64696686D01*
X130947592Y-64643000D01*
X130672408Y-64643000D01*
X130402510Y-64696686D01*
X130148273Y-64801995D01*
X129919465Y-64954880D01*
X129724880Y-65149465D01*
X129571995Y-65378273D01*
X129540000Y-65455515D01*
X129508005Y-65378273D01*
X129355120Y-65149465D01*
X129160535Y-64954880D01*
X128931727Y-64801995D01*
X128677490Y-64696686D01*
X128407592Y-64643000D01*
X128132408Y-64643000D01*
X127862510Y-64696686D01*
X127608273Y-64801995D01*
X127379465Y-64954880D01*
X127184880Y-65149465D01*
X127031995Y-65378273D01*
X127000000Y-65455515D01*
X126968005Y-65378273D01*
X126815120Y-65149465D01*
X126620535Y-64954880D01*
X126391727Y-64801995D01*
X126137490Y-64696686D01*
X125867592Y-64643000D01*
X125592408Y-64643000D01*
X125322510Y-64696686D01*
X125068273Y-64801995D01*
X124839465Y-64954880D01*
X124644880Y-65149465D01*
X124491995Y-65378273D01*
X124460000Y-65455515D01*
X124428005Y-65378273D01*
X124275120Y-65149465D01*
X124080535Y-64954880D01*
X123851727Y-64801995D01*
X123597490Y-64696686D01*
X123327592Y-64643000D01*
X123052408Y-64643000D01*
X122782510Y-64696686D01*
X122528273Y-64801995D01*
X122299465Y-64954880D01*
X122104880Y-65149465D01*
X121951995Y-65378273D01*
X121920000Y-65455515D01*
X121888005Y-65378273D01*
X121735120Y-65149465D01*
X121540535Y-64954880D01*
X121311727Y-64801995D01*
X121057490Y-64696686D01*
X120787592Y-64643000D01*
X120512408Y-64643000D01*
X120242510Y-64696686D01*
X119988273Y-64801995D01*
X119759465Y-64954880D01*
X119564880Y-65149465D01*
X119411995Y-65378273D01*
X119382308Y-65449943D01*
X119377636Y-65436977D01*
X119315656Y-65321020D01*
X119075565Y-65254040D01*
X118289605Y-66040000D01*
X117930395Y-66040000D01*
X117144435Y-65254040D01*
X116904344Y-65321020D01*
X116840515Y-65456760D01*
X116808005Y-65378273D01*
X116655120Y-65149465D01*
X116580090Y-65074435D01*
X117324040Y-65074435D01*
X118110000Y-65860395D01*
X118895960Y-65074435D01*
X118828980Y-64834344D01*
X118579952Y-64717244D01*
X118312865Y-64650977D01*
X118037983Y-64638090D01*
X117765867Y-64679078D01*
X117506977Y-64772364D01*
X117391020Y-64834344D01*
X117324040Y-65074435D01*
X116580090Y-65074435D01*
X116460535Y-64954880D01*
X116231727Y-64801995D01*
X115977490Y-64696686D01*
X115707592Y-64643000D01*
X115432408Y-64643000D01*
X115162510Y-64696686D01*
X114908273Y-64801995D01*
X114679465Y-64954880D01*
X114484880Y-65149465D01*
X114331995Y-65378273D01*
X114226686Y-65632510D01*
X114173000Y-65902408D01*
X111990000Y-65902408D01*
X111990000Y-65829721D01*
X111907953Y-65417244D01*
X111747012Y-65028698D01*
X111513363Y-64679017D01*
X111215983Y-64381637D01*
X110866302Y-64147988D01*
X110477756Y-63987047D01*
X110065279Y-63905000D01*
X109644721Y-63905000D01*
X109232244Y-63987047D01*
X108843698Y-64147988D01*
X108494017Y-64381637D01*
X108196637Y-64679017D01*
X107962988Y-65028698D01*
X107802047Y-65417244D01*
X107720000Y-65829721D01*
X106705000Y-65829721D01*
X106705000Y-61619506D01*
X166338831Y-61574896D01*
X167093692Y-61646916D01*
G37*
X167093692Y-61646916D02*
X167791275Y-61851565D01*
X168437569Y-62184428D01*
X169009265Y-62633502D01*
X169485726Y-63182574D01*
X169849765Y-63811839D01*
X170088245Y-64498590D01*
X170192561Y-65218045D01*
X170156921Y-65988063D01*
X170154999Y-66007581D01*
X170155001Y-109823580D01*
X170083771Y-110570156D01*
X169881536Y-111259516D01*
X169552596Y-111898190D01*
X169108820Y-112463143D01*
X168566220Y-112933988D01*
X167944377Y-113293733D01*
X167265721Y-113529402D01*
X166531523Y-113635855D01*
X166361934Y-113640000D01*
X146763882Y-113640000D01*
X146771801Y-113633501D01*
X146795603Y-113604498D01*
X146892529Y-113507572D01*
X147305800Y-113507572D01*
X147430282Y-113495312D01*
X147549980Y-113459002D01*
X147660294Y-113400037D01*
X147756985Y-113320685D01*
X147790785Y-113279500D01*
X152365178Y-113279500D01*
X152402500Y-113283176D01*
X152439822Y-113279500D01*
X152439833Y-113279500D01*
X152551486Y-113268503D01*
X152694747Y-113225046D01*
X152826776Y-113154474D01*
X152942501Y-113059501D01*
X152966304Y-113030497D01*
X155717080Y-110279721D01*
X163600000Y-110279721D01*
X163600000Y-110700279D01*
X163682047Y-111112756D01*
X163842988Y-111501302D01*
X164076637Y-111850983D01*
X164374017Y-112148363D01*
X164723698Y-112382012D01*
X165112244Y-112542953D01*
X165524721Y-112625000D01*
X165945279Y-112625000D01*
X166357756Y-112542953D01*
X166746302Y-112382012D01*
X167095983Y-112148363D01*
X167393363Y-111850983D01*
X167627012Y-111501302D01*
X167787953Y-111112756D01*
X167870000Y-110700279D01*
X167870000Y-110279721D01*
X167787953Y-109867244D01*
X167627012Y-109478698D01*
X167393363Y-109129017D01*
X167095983Y-108831637D01*
X166746302Y-108597988D01*
X166357756Y-108437047D01*
X165945279Y-108355000D01*
X165524721Y-108355000D01*
X165112244Y-108437047D01*
X164723698Y-108597988D01*
X164374017Y-108831637D01*
X164076637Y-109129017D01*
X163842988Y-109478698D01*
X163682047Y-109867244D01*
X163600000Y-110279721D01*
X155717080Y-110279721D01*
X156682478Y-109314323D01*
X156886413Y-109398796D01*
X157279570Y-109477000D01*
X157680430Y-109477000D01*
X158073587Y-109398796D01*
X158443934Y-109245393D01*
X158777237Y-109022687D01*
X159060687Y-108739237D01*
X159283393Y-108405934D01*
X159367865Y-108202000D01*
X160223978Y-108202000D01*
X160261300Y-108205676D01*
X160298622Y-108202000D01*
X160298633Y-108202000D01*
X160410286Y-108191003D01*
X160553547Y-108147546D01*
X160685576Y-108076974D01*
X160801301Y-107982001D01*
X160825104Y-107952997D01*
X164193185Y-104584916D01*
X165790000Y-104584916D01*
X165790000Y-104835084D01*
X165838805Y-105080445D01*
X165934541Y-105311571D01*
X166073527Y-105519578D01*
X166250422Y-105696473D01*
X166458429Y-105835459D01*
X166689555Y-105931195D01*
X166934916Y-105980000D01*
X167185084Y-105980000D01*
X167430445Y-105931195D01*
X167661571Y-105835459D01*
X167869578Y-105696473D01*
X168046473Y-105519578D01*
X168185459Y-105311571D01*
X168281195Y-105080445D01*
X168330000Y-104835084D01*
X168330000Y-104584916D01*
X168281195Y-104339555D01*
X168185459Y-104108429D01*
X168046473Y-103900422D01*
X167869578Y-103723527D01*
X167661571Y-103584541D01*
X167430445Y-103488805D01*
X167185084Y-103440000D01*
X166934916Y-103440000D01*
X166689555Y-103488805D01*
X166458429Y-103584541D01*
X166250422Y-103723527D01*
X166073527Y-103900422D01*
X165934541Y-104108429D01*
X165838805Y-104339555D01*
X165790000Y-104584916D01*
X164193185Y-104584916D01*
X165611004Y-103167098D01*
X165640001Y-103143301D01*
X165701701Y-103068120D01*
X165803411Y-103025990D01*
X166046632Y-102863475D01*
X166253475Y-102656632D01*
X166415990Y-102413411D01*
X166527932Y-102143158D01*
X166585000Y-101856260D01*
X166585000Y-101563740D01*
X166541209Y-101343592D01*
X168531004Y-99353798D01*
X168560002Y-99330000D01*
X168586333Y-99297916D01*
X168654975Y-99214276D01*
X168725547Y-99082246D01*
X168769004Y-98938985D01*
X168780001Y-98827332D01*
X168780001Y-98827322D01*
X168783677Y-98790000D01*
X168780001Y-98752677D01*
X168780001Y-84590245D01*
X168783677Y-84552920D01*
X168780001Y-84515595D01*
X168780001Y-84515587D01*
X168769004Y-84403934D01*
X168725547Y-84260673D01*
X168654975Y-84128644D01*
X168560002Y-84012919D01*
X168531005Y-83989122D01*
X166865885Y-82324003D01*
X166842082Y-82294999D01*
X166726357Y-82200026D01*
X166594328Y-82129454D01*
X166451067Y-82085997D01*
X166380909Y-82079087D01*
X166253475Y-81888368D01*
X166046632Y-81681525D01*
X165803411Y-81519010D01*
X165533158Y-81407068D01*
X165246260Y-81350000D01*
X164953740Y-81350000D01*
X164666842Y-81407068D01*
X164396589Y-81519010D01*
X164153368Y-81681525D01*
X163946525Y-81888368D01*
X163784010Y-82131589D01*
X163672068Y-82401842D01*
X163615000Y-82688740D01*
X163615000Y-82981260D01*
X163672068Y-83268158D01*
X163784010Y-83538411D01*
X163946525Y-83781632D01*
X164153368Y-83988475D01*
X164396589Y-84150990D01*
X164666842Y-84262932D01*
X164953740Y-84320000D01*
X165246260Y-84320000D01*
X165533158Y-84262932D01*
X165803411Y-84150990D01*
X166046632Y-83988475D01*
X166213693Y-83821414D01*
X166957279Y-84565000D01*
X166934916Y-84565000D01*
X166689555Y-84613805D01*
X166458429Y-84709541D01*
X166250422Y-84848527D01*
X166073527Y-85025422D01*
X165934541Y-85233429D01*
X165838805Y-85464555D01*
X165790000Y-85709916D01*
X165790000Y-85960084D01*
X165838805Y-86205445D01*
X165934541Y-86436571D01*
X166073527Y-86644578D01*
X166250422Y-86821473D01*
X166458429Y-86960459D01*
X166689555Y-87056195D01*
X166934916Y-87105000D01*
X167185084Y-87105000D01*
X167260001Y-87090098D01*
X167260001Y-88454902D01*
X167185084Y-88440000D01*
X166934916Y-88440000D01*
X166689555Y-88488805D01*
X166458429Y-88584541D01*
X166250422Y-88723527D01*
X166073527Y-88900422D01*
X165934541Y-89108429D01*
X165838805Y-89339555D01*
X165790000Y-89584916D01*
X165790000Y-89835084D01*
X165838805Y-90080445D01*
X165934541Y-90311571D01*
X166073527Y-90519578D01*
X166250422Y-90696473D01*
X166458429Y-90835459D01*
X166689555Y-90931195D01*
X166934916Y-90980000D01*
X167185084Y-90980000D01*
X167260001Y-90965098D01*
X167260002Y-98475196D01*
X166482601Y-99252597D01*
X166527932Y-99143158D01*
X166585000Y-98856260D01*
X166585000Y-98563740D01*
X166527932Y-98276842D01*
X166415990Y-98006589D01*
X166253475Y-97763368D01*
X166046632Y-97556525D01*
X165803411Y-97394010D01*
X165533158Y-97282068D01*
X165246260Y-97225000D01*
X164953740Y-97225000D01*
X164666842Y-97282068D01*
X164396589Y-97394010D01*
X164153368Y-97556525D01*
X163946525Y-97763368D01*
X163784010Y-98006589D01*
X163672068Y-98276842D01*
X163615000Y-98563740D01*
X163615000Y-98856260D01*
X163658790Y-99076408D01*
X160498199Y-102237000D01*
X159367865Y-102237000D01*
X159283393Y-102033066D01*
X159060687Y-101699763D01*
X158777237Y-101416313D01*
X158443934Y-101193607D01*
X158073587Y-101040204D01*
X157901857Y-101006045D01*
X161922302Y-96985600D01*
X164336141Y-96985600D01*
X164396589Y-97025990D01*
X164666842Y-97137932D01*
X164953740Y-97195000D01*
X165246260Y-97195000D01*
X165533158Y-97137932D01*
X165803411Y-97025990D01*
X166046632Y-96863475D01*
X166253475Y-96656632D01*
X166415990Y-96413411D01*
X166527932Y-96143158D01*
X166585000Y-95856260D01*
X166585000Y-95563740D01*
X166527932Y-95276842D01*
X166415990Y-95006589D01*
X166253475Y-94763368D01*
X166046632Y-94556525D01*
X165803411Y-94394010D01*
X165533158Y-94282068D01*
X165246260Y-94225000D01*
X164953740Y-94225000D01*
X164733592Y-94268791D01*
X164557402Y-94092601D01*
X164666842Y-94137932D01*
X164953740Y-94195000D01*
X165246260Y-94195000D01*
X165533158Y-94137932D01*
X165803411Y-94025990D01*
X166046632Y-93863475D01*
X166253475Y-93656632D01*
X166415990Y-93413411D01*
X166527932Y-93143158D01*
X166585000Y-92856260D01*
X166585000Y-92563740D01*
X166527932Y-92276842D01*
X166415990Y-92006589D01*
X166253475Y-91763368D01*
X166046632Y-91556525D01*
X165803411Y-91394010D01*
X165533158Y-91282068D01*
X165246260Y-91225000D01*
X164953740Y-91225000D01*
X164827010Y-91250208D01*
X162105622Y-88528821D01*
X162107372Y-88511050D01*
X162107372Y-88023550D01*
X162090428Y-87851515D01*
X162040247Y-87686091D01*
X161958758Y-87533636D01*
X161849092Y-87400008D01*
X161715464Y-87290342D01*
X161563009Y-87208853D01*
X161397585Y-87158672D01*
X161225550Y-87141728D01*
X160313050Y-87141728D01*
X160141015Y-87158672D01*
X159975591Y-87208853D01*
X159823136Y-87290342D01*
X159689508Y-87400008D01*
X159601455Y-87507300D01*
X158901845Y-87507300D01*
X158813792Y-87400008D01*
X158680164Y-87290342D01*
X158527709Y-87208853D01*
X158362285Y-87158672D01*
X158190250Y-87141728D01*
X157277750Y-87141728D01*
X157105715Y-87158672D01*
X156940291Y-87208853D01*
X156787836Y-87290342D01*
X156654208Y-87400008D01*
X156566155Y-87507300D01*
X155218633Y-87507300D01*
X155181300Y-87503623D01*
X155143967Y-87507300D01*
X155032314Y-87518297D01*
X154889053Y-87561754D01*
X154757024Y-87632326D01*
X154641299Y-87727299D01*
X154617501Y-87756297D01*
X154149720Y-88224078D01*
X154131950Y-88222328D01*
X153644450Y-88222328D01*
X153472415Y-88239272D01*
X153306991Y-88289453D01*
X153154536Y-88370942D01*
X153020908Y-88480608D01*
X152911242Y-88614236D01*
X152829753Y-88766691D01*
X152779572Y-88932115D01*
X152762628Y-89104150D01*
X152762628Y-90016650D01*
X152779572Y-90188685D01*
X152829753Y-90354109D01*
X152911242Y-90506564D01*
X153020908Y-90640192D01*
X153128201Y-90728245D01*
X153128201Y-91469540D01*
X153111226Y-91490224D01*
X153067642Y-91571763D01*
X153040654Y-91622253D01*
X152997197Y-91765514D01*
X152986200Y-91877167D01*
X152986200Y-91877178D01*
X152982524Y-91914500D01*
X152986200Y-91951822D01*
X152986200Y-92174497D01*
X150989569Y-94171129D01*
X151001272Y-94052300D01*
X150998200Y-93363050D01*
X150839450Y-93204300D01*
X150190200Y-93204300D01*
X150190200Y-94528550D01*
X150348950Y-94687300D01*
X150363200Y-94690372D01*
X150482029Y-94678669D01*
X144472198Y-100688501D01*
X144443200Y-100712299D01*
X144419402Y-100741297D01*
X144419401Y-100741298D01*
X144348226Y-100828024D01*
X144348200Y-100828073D01*
X144348174Y-100828024D01*
X144253201Y-100712299D01*
X144224202Y-100688500D01*
X144202001Y-100666299D01*
X144178200Y-100637298D01*
X144062475Y-100542325D01*
X143930446Y-100471753D01*
X143787185Y-100428296D01*
X143675532Y-100417299D01*
X143675521Y-100417299D01*
X143638199Y-100413623D01*
X143600877Y-100417299D01*
X138745523Y-100417299D01*
X138708200Y-100413623D01*
X138670878Y-100417299D01*
X138670868Y-100417299D01*
X138559215Y-100428296D01*
X138415954Y-100471753D01*
X138283925Y-100542325D01*
X138168200Y-100637298D01*
X138144400Y-100666298D01*
X138122196Y-100688503D01*
X138093200Y-100712299D01*
X138069402Y-100741297D01*
X138069401Y-100741298D01*
X137998226Y-100828024D01*
X137927654Y-100960054D01*
X137906004Y-101031428D01*
X137882015Y-101051115D01*
X137802663Y-101147806D01*
X137743698Y-101258120D01*
X137707388Y-101377818D01*
X137695128Y-101502300D01*
X137695128Y-103452300D01*
X137707388Y-103576782D01*
X137743698Y-103696480D01*
X137802663Y-103806794D01*
X137882015Y-103903485D01*
X137978706Y-103982837D01*
X138089020Y-104041802D01*
X138208718Y-104078112D01*
X138333200Y-104090372D01*
X138933200Y-104090372D01*
X139057682Y-104078112D01*
X139177380Y-104041802D01*
X139268200Y-103993257D01*
X139359020Y-104041802D01*
X139478718Y-104078112D01*
X139603200Y-104090372D01*
X140203200Y-104090372D01*
X140327682Y-104078112D01*
X140447380Y-104041802D01*
X140538200Y-103993257D01*
X140629020Y-104041802D01*
X140748718Y-104078112D01*
X140873200Y-104090372D01*
X141121469Y-104090372D01*
X142366991Y-105335895D01*
X142366991Y-108459213D01*
X142308250Y-108453428D01*
X141820750Y-108453428D01*
X141778415Y-108457598D01*
X141670947Y-108400154D01*
X141527686Y-108356697D01*
X141416033Y-108345700D01*
X141416022Y-108345700D01*
X141378700Y-108342024D01*
X141341378Y-108345700D01*
X139321172Y-108345700D01*
X139321172Y-108255700D01*
X139308912Y-108131218D01*
X139272602Y-108011520D01*
X139213637Y-107901206D01*
X139134285Y-107804515D01*
X139037594Y-107725163D01*
X138927280Y-107666198D01*
X138807582Y-107629888D01*
X138683100Y-107617628D01*
X136983100Y-107617628D01*
X136858618Y-107629888D01*
X136738920Y-107666198D01*
X136628606Y-107725163D01*
X136531915Y-107804515D01*
X136452563Y-107901206D01*
X136393598Y-108011520D01*
X136357288Y-108131218D01*
X136345028Y-108255700D01*
X136345028Y-109955700D01*
X136357288Y-110080182D01*
X136393598Y-110199880D01*
X136452563Y-110310194D01*
X136531915Y-110406885D01*
X136628606Y-110486237D01*
X136738920Y-110545202D01*
X136811480Y-110567213D01*
X136679625Y-110699068D01*
X136517110Y-110942289D01*
X136405168Y-111212542D01*
X136348100Y-111499440D01*
X136348100Y-111791960D01*
X136405168Y-112078858D01*
X136517110Y-112349111D01*
X136679625Y-112592332D01*
X136886468Y-112799175D01*
X137129689Y-112961690D01*
X137399942Y-113073632D01*
X137686840Y-113130700D01*
X137979360Y-113130700D01*
X138266258Y-113073632D01*
X138536511Y-112961690D01*
X138779732Y-112799175D01*
X138986575Y-112592332D01*
X139111278Y-112405700D01*
X140390799Y-112405700D01*
X141027828Y-113042730D01*
X141027828Y-113549750D01*
X141036717Y-113640000D01*
X106705000Y-113640000D01*
X106705000Y-110279721D01*
X107720000Y-110279721D01*
X107720000Y-110700279D01*
X107802047Y-111112756D01*
X107962988Y-111501302D01*
X108196637Y-111850983D01*
X108494017Y-112148363D01*
X108843698Y-112382012D01*
X109232244Y-112542953D01*
X109644721Y-112625000D01*
X110065279Y-112625000D01*
X110477756Y-112542953D01*
X110866302Y-112382012D01*
X111215983Y-112148363D01*
X111513363Y-111850983D01*
X111747012Y-111501302D01*
X111907953Y-111112756D01*
X111990000Y-110700279D01*
X111990000Y-110279721D01*
X111907953Y-109867244D01*
X111747012Y-109478698D01*
X111513363Y-109129017D01*
X111215983Y-108831637D01*
X110866302Y-108597988D01*
X110477756Y-108437047D01*
X110065279Y-108355000D01*
X109644721Y-108355000D01*
X109232244Y-108437047D01*
X108843698Y-108597988D01*
X108494017Y-108831637D01*
X108196637Y-109129017D01*
X107962988Y-109478698D01*
X107802047Y-109867244D01*
X107720000Y-110279721D01*
X106705000Y-110279721D01*
X106705000Y-94052300D01*
X137695128Y-94052300D01*
X137707388Y-94176782D01*
X137743698Y-94296480D01*
X137802663Y-94406794D01*
X137882015Y-94503485D01*
X137978706Y-94582837D01*
X138089020Y-94641802D01*
X138208718Y-94678112D01*
X138333200Y-94690372D01*
X138347450Y-94687300D01*
X138506200Y-94528550D01*
X138506200Y-93204300D01*
X137856950Y-93204300D01*
X137698200Y-93363050D01*
X137695128Y-94052300D01*
X106705000Y-94052300D01*
X106705000Y-92102300D01*
X137695128Y-92102300D01*
X137698200Y-92791550D01*
X137856950Y-92950300D01*
X138506200Y-92950300D01*
X138506200Y-91626050D01*
X138347450Y-91467300D01*
X138333200Y-91464228D01*
X138208718Y-91476488D01*
X138089020Y-91512798D01*
X137978706Y-91571763D01*
X137882015Y-91651115D01*
X137802663Y-91747806D01*
X137743698Y-91858120D01*
X137707388Y-91977818D01*
X137695128Y-92102300D01*
X106705000Y-92102300D01*
X106705000Y-80518000D01*
X114169928Y-80518000D01*
X114169928Y-82042000D01*
X114182188Y-82166482D01*
X114218498Y-82286180D01*
X114277463Y-82396494D01*
X114356815Y-82493185D01*
X114453506Y-82572537D01*
X114563820Y-82631502D01*
X114683518Y-82667812D01*
X114808000Y-82680072D01*
X116332000Y-82680072D01*
X116456482Y-82667812D01*
X116576180Y-82631502D01*
X116686494Y-82572537D01*
X116783185Y-82493185D01*
X116862537Y-82396494D01*
X116921502Y-82286180D01*
X116957812Y-82166482D01*
X116966080Y-82082535D01*
X117024880Y-82170535D01*
X117219465Y-82365120D01*
X117448273Y-82518005D01*
X117702510Y-82623314D01*
X117972408Y-82677000D01*
X118247592Y-82677000D01*
X118517490Y-82623314D01*
X118771727Y-82518005D01*
X119000535Y-82365120D01*
X119195120Y-82170535D01*
X119348005Y-81941727D01*
X119380000Y-81864485D01*
X119411995Y-81941727D01*
X119564880Y-82170535D01*
X119759465Y-82365120D01*
X119988273Y-82518005D01*
X120242510Y-82623314D01*
X120512408Y-82677000D01*
X120787592Y-82677000D01*
X121057490Y-82623314D01*
X121311727Y-82518005D01*
X121540535Y-82365120D01*
X121660090Y-82245565D01*
X122404040Y-82245565D01*
X122471020Y-82485656D01*
X122720048Y-82602756D01*
X122987135Y-82669023D01*
X123262017Y-82681910D01*
X123534133Y-82640922D01*
X123793023Y-82547636D01*
X123908980Y-82485656D01*
X123975960Y-82245565D01*
X123190000Y-81459605D01*
X122404040Y-82245565D01*
X121660090Y-82245565D01*
X121735120Y-82170535D01*
X121888005Y-81941727D01*
X121917692Y-81870057D01*
X121922364Y-81883023D01*
X121984344Y-81998980D01*
X122224435Y-82065960D01*
X123010395Y-81280000D01*
X122224435Y-80494040D01*
X121984344Y-80561020D01*
X121920515Y-80696760D01*
X121888005Y-80618273D01*
X121735120Y-80389465D01*
X121660090Y-80314435D01*
X122404040Y-80314435D01*
X123190000Y-81100395D01*
X123975960Y-80314435D01*
X123908980Y-80074344D01*
X123659952Y-79957244D01*
X123392865Y-79890977D01*
X123117983Y-79878090D01*
X122845867Y-79919078D01*
X122586977Y-80012364D01*
X122471020Y-80074344D01*
X122404040Y-80314435D01*
X121660090Y-80314435D01*
X121540535Y-80194880D01*
X121311727Y-80041995D01*
X121057490Y-79936686D01*
X120787592Y-79883000D01*
X120512408Y-79883000D01*
X120242510Y-79936686D01*
X119988273Y-80041995D01*
X119759465Y-80194880D01*
X119564880Y-80389465D01*
X119411995Y-80618273D01*
X119380000Y-80695515D01*
X119348005Y-80618273D01*
X119195120Y-80389465D01*
X119000535Y-80194880D01*
X118771727Y-80041995D01*
X118517490Y-79936686D01*
X118247592Y-79883000D01*
X117972408Y-79883000D01*
X117702510Y-79936686D01*
X117448273Y-80041995D01*
X117219465Y-80194880D01*
X117024880Y-80389465D01*
X116966080Y-80477465D01*
X116957812Y-80393518D01*
X116921502Y-80273820D01*
X116862537Y-80163506D01*
X116783185Y-80066815D01*
X116686494Y-79987463D01*
X116576180Y-79928498D01*
X116456482Y-79892188D01*
X116332000Y-79879928D01*
X114808000Y-79879928D01*
X114683518Y-79892188D01*
X114563820Y-79928498D01*
X114453506Y-79987463D01*
X114356815Y-80066815D01*
X114277463Y-80163506D01*
X114218498Y-80273820D01*
X114182188Y-80393518D01*
X114169928Y-80518000D01*
X106705000Y-80518000D01*
X106705000Y-65829721D01*
X107720000Y-65829721D01*
X107720000Y-66250279D01*
X107802047Y-66662756D01*
X107962988Y-67051302D01*
X108196637Y-67400983D01*
X108494017Y-67698363D01*
X108843698Y-67932012D01*
X109232244Y-68092953D01*
X109644721Y-68175000D01*
X110065279Y-68175000D01*
X110477756Y-68092953D01*
X110866302Y-67932012D01*
X111215983Y-67698363D01*
X111513363Y-67400983D01*
X111747012Y-67051302D01*
X111907953Y-66662756D01*
X111990000Y-66250279D01*
X111990000Y-65902408D01*
X114173000Y-65902408D01*
X114173000Y-66177592D01*
X114226686Y-66447490D01*
X114331995Y-66701727D01*
X114484880Y-66930535D01*
X114679465Y-67125120D01*
X114908273Y-67278005D01*
X115162510Y-67383314D01*
X115432408Y-67437000D01*
X115707592Y-67437000D01*
X115977490Y-67383314D01*
X116231727Y-67278005D01*
X116460535Y-67125120D01*
X116580090Y-67005565D01*
X117324040Y-67005565D01*
X117391020Y-67245656D01*
X117640048Y-67362756D01*
X117907135Y-67429023D01*
X118182017Y-67441910D01*
X118454133Y-67400922D01*
X118713023Y-67307636D01*
X118828980Y-67245656D01*
X118895960Y-67005565D01*
X118110000Y-66219605D01*
X117324040Y-67005565D01*
X116580090Y-67005565D01*
X116655120Y-66930535D01*
X116808005Y-66701727D01*
X116837692Y-66630057D01*
X116842364Y-66643023D01*
X116904344Y-66758980D01*
X117144435Y-66825960D01*
X117930395Y-66040000D01*
X118289605Y-66040000D01*
X119075565Y-66825960D01*
X119315656Y-66758980D01*
X119379485Y-66623240D01*
X119411995Y-66701727D01*
X119564880Y-66930535D01*
X119759465Y-67125120D01*
X119988273Y-67278005D01*
X120242510Y-67383314D01*
X120512408Y-67437000D01*
X120787592Y-67437000D01*
X121057490Y-67383314D01*
X121311727Y-67278005D01*
X121540535Y-67125120D01*
X121735120Y-66930535D01*
X121888005Y-66701727D01*
X121920000Y-66624485D01*
X121951995Y-66701727D01*
X122104880Y-66930535D01*
X122299465Y-67125120D01*
X122528273Y-67278005D01*
X122782510Y-67383314D01*
X123052408Y-67437000D01*
X123327592Y-67437000D01*
X123597490Y-67383314D01*
X123851727Y-67278005D01*
X124080535Y-67125120D01*
X124275120Y-66930535D01*
X124428005Y-66701727D01*
X124460000Y-66624485D01*
X124491995Y-66701727D01*
X124644880Y-66930535D01*
X124839465Y-67125120D01*
X125068273Y-67278005D01*
X125322510Y-67383314D01*
X125592408Y-67437000D01*
X125867592Y-67437000D01*
X126137490Y-67383314D01*
X126391727Y-67278005D01*
X126620535Y-67125120D01*
X126815120Y-66930535D01*
X126968005Y-66701727D01*
X127000000Y-66624485D01*
X127031995Y-66701727D01*
X127184880Y-66930535D01*
X127379465Y-67125120D01*
X127608273Y-67278005D01*
X127862510Y-67383314D01*
X128132408Y-67437000D01*
X128407592Y-67437000D01*
X128677490Y-67383314D01*
X128931727Y-67278005D01*
X129160535Y-67125120D01*
X129355120Y-66930535D01*
X129508005Y-66701727D01*
X129540000Y-66624485D01*
X129571995Y-66701727D01*
X129724880Y-66930535D01*
X129919465Y-67125120D01*
X130148273Y-67278005D01*
X130402510Y-67383314D01*
X130672408Y-67437000D01*
X130947592Y-67437000D01*
X131217490Y-67383314D01*
X131471727Y-67278005D01*
X131700535Y-67125120D01*
X131895120Y-66930535D01*
X132048005Y-66701727D01*
X132080000Y-66624485D01*
X132111995Y-66701727D01*
X132264880Y-66930535D01*
X132459465Y-67125120D01*
X132688273Y-67278005D01*
X132942510Y-67383314D01*
X133212408Y-67437000D01*
X133487592Y-67437000D01*
X133757490Y-67383314D01*
X134011727Y-67278005D01*
X134240535Y-67125120D01*
X134435120Y-66930535D01*
X134588005Y-66701727D01*
X134620000Y-66624485D01*
X134651995Y-66701727D01*
X134804880Y-66930535D01*
X134999465Y-67125120D01*
X135228273Y-67278005D01*
X135482510Y-67383314D01*
X135752408Y-67437000D01*
X136027592Y-67437000D01*
X136297490Y-67383314D01*
X136551727Y-67278005D01*
X136780535Y-67125120D01*
X136975120Y-66930535D01*
X137128005Y-66701727D01*
X137160000Y-66624485D01*
X137191995Y-66701727D01*
X137344880Y-66930535D01*
X137539465Y-67125120D01*
X137768273Y-67278005D01*
X138022510Y-67383314D01*
X138292408Y-67437000D01*
X138567592Y-67437000D01*
X138837490Y-67383314D01*
X139091727Y-67278005D01*
X139320535Y-67125120D01*
X139515120Y-66930535D01*
X139668005Y-66701727D01*
X139700000Y-66624485D01*
X139731995Y-66701727D01*
X139884880Y-66930535D01*
X140079465Y-67125120D01*
X140308273Y-67278005D01*
X140562510Y-67383314D01*
X140832408Y-67437000D01*
X141107592Y-67437000D01*
X141377490Y-67383314D01*
X141631727Y-67278005D01*
X141860535Y-67125120D01*
X142055120Y-66930535D01*
X142208005Y-66701727D01*
X142240000Y-66624485D01*
X142271995Y-66701727D01*
X142424880Y-66930535D01*
X142619465Y-67125120D01*
X142848273Y-67278005D01*
X143102510Y-67383314D01*
X143372408Y-67437000D01*
X143647592Y-67437000D01*
X143917490Y-67383314D01*
X144171727Y-67278005D01*
X144400535Y-67125120D01*
X144595120Y-66930535D01*
X144748005Y-66701727D01*
X144780000Y-66624485D01*
X144811995Y-66701727D01*
X144964880Y-66930535D01*
X145159465Y-67125120D01*
X145388273Y-67278005D01*
X145642510Y-67383314D01*
X145912408Y-67437000D01*
X146118199Y-67437000D01*
X144451997Y-69103202D01*
X144422999Y-69127000D01*
X144399201Y-69155998D01*
X144399200Y-69155999D01*
X144328025Y-69242725D01*
X144257453Y-69374755D01*
X144213997Y-69518016D01*
X144199323Y-69667001D01*
X144203000Y-69704334D01*
X144202999Y-80062891D01*
X144171727Y-80041995D01*
X143917490Y-79936686D01*
X143647592Y-79883000D01*
X143372408Y-79883000D01*
X143102510Y-79936686D01*
X142848273Y-80041995D01*
X142619465Y-80194880D01*
X142424880Y-80389465D01*
X142271995Y-80618273D01*
X142240000Y-80695515D01*
X142208005Y-80618273D01*
X142055120Y-80389465D01*
X141860535Y-80194880D01*
X141631727Y-80041995D01*
X141377490Y-79936686D01*
X141107592Y-79883000D01*
X140832408Y-79883000D01*
X140562510Y-79936686D01*
X140308273Y-80041995D01*
X140079465Y-80194880D01*
X139884880Y-80389465D01*
X139731995Y-80618273D01*
X139700000Y-80695515D01*
X139668005Y-80618273D01*
X139515120Y-80389465D01*
X139320535Y-80194880D01*
X139091727Y-80041995D01*
X138837490Y-79936686D01*
X138567592Y-79883000D01*
X138292408Y-79883000D01*
X138022510Y-79936686D01*
X137768273Y-80041995D01*
X137539465Y-80194880D01*
X137344880Y-80389465D01*
X137191995Y-80618273D01*
X137160000Y-80695515D01*
X137128005Y-80618273D01*
X136975120Y-80389465D01*
X136780535Y-80194880D01*
X136551727Y-80041995D01*
X136297490Y-79936686D01*
X136027592Y-79883000D01*
X135752408Y-79883000D01*
X135482510Y-79936686D01*
X135228273Y-80041995D01*
X134999465Y-80194880D01*
X134804880Y-80389465D01*
X134651995Y-80618273D01*
X134620000Y-80695515D01*
X134588005Y-80618273D01*
X134435120Y-80389465D01*
X134240535Y-80194880D01*
X134011727Y-80041995D01*
X133757490Y-79936686D01*
X133487592Y-79883000D01*
X133212408Y-79883000D01*
X132942510Y-79936686D01*
X132688273Y-80041995D01*
X132459465Y-80194880D01*
X132264880Y-80389465D01*
X132111995Y-80618273D01*
X132080000Y-80695515D01*
X132048005Y-80618273D01*
X131895120Y-80389465D01*
X131700535Y-80194880D01*
X131471727Y-80041995D01*
X131217490Y-79936686D01*
X130947592Y-79883000D01*
X130672408Y-79883000D01*
X130402510Y-79936686D01*
X130148273Y-80041995D01*
X129919465Y-80194880D01*
X129724880Y-80389465D01*
X129571995Y-80618273D01*
X129540000Y-80695515D01*
X129508005Y-80618273D01*
X129355120Y-80389465D01*
X129160535Y-80194880D01*
X128931727Y-80041995D01*
X128677490Y-79936686D01*
X128407592Y-79883000D01*
X128132408Y-79883000D01*
X127862510Y-79936686D01*
X127608273Y-80041995D01*
X127379465Y-80194880D01*
X127184880Y-80389465D01*
X127031995Y-80618273D01*
X127000000Y-80695515D01*
X126968005Y-80618273D01*
X126815120Y-80389465D01*
X126620535Y-80194880D01*
X126391727Y-80041995D01*
X126137490Y-79936686D01*
X125867592Y-79883000D01*
X125592408Y-79883000D01*
X125322510Y-79936686D01*
X125068273Y-80041995D01*
X124839465Y-80194880D01*
X124644880Y-80389465D01*
X124491995Y-80618273D01*
X124462308Y-80689943D01*
X124457636Y-80676977D01*
X124395656Y-80561020D01*
X124155565Y-80494040D01*
X123369605Y-81280000D01*
X124155565Y-82065960D01*
X124395656Y-81998980D01*
X124459485Y-81863240D01*
X124491995Y-81941727D01*
X124644880Y-82170535D01*
X124839465Y-82365120D01*
X125068273Y-82518005D01*
X125322510Y-82623314D01*
X125592408Y-82677000D01*
X125867592Y-82677000D01*
X126021571Y-82646372D01*
X131020900Y-87645702D01*
X131044699Y-87674701D01*
X131073697Y-87698499D01*
X131160423Y-87769674D01*
X131292453Y-87840246D01*
X131435714Y-87883703D01*
X131547367Y-87894700D01*
X131547376Y-87894700D01*
X131584699Y-87898376D01*
X131622022Y-87894700D01*
X135716635Y-87894700D01*
X135801107Y-88098634D01*
X136023813Y-88431937D01*
X136307263Y-88715387D01*
X136640566Y-88938093D01*
X137010913Y-89091496D01*
X137404070Y-89169700D01*
X137804930Y-89169700D01*
X138198087Y-89091496D01*
X138402022Y-89007023D01*
X140860479Y-91465481D01*
X140748718Y-91476488D01*
X140629020Y-91512798D01*
X140538200Y-91561343D01*
X140447380Y-91512798D01*
X140327682Y-91476488D01*
X140203200Y-91464228D01*
X139603200Y-91464228D01*
X139478718Y-91476488D01*
X139359020Y-91512798D01*
X139268200Y-91561343D01*
X139177380Y-91512798D01*
X139057682Y-91476488D01*
X138933200Y-91464228D01*
X138918950Y-91467300D01*
X138760200Y-91626050D01*
X138760200Y-92950300D01*
X138780200Y-92950300D01*
X138780200Y-93204300D01*
X138760200Y-93204300D01*
X138760200Y-94528550D01*
X138918950Y-94687300D01*
X138933200Y-94690372D01*
X139057682Y-94678112D01*
X139177380Y-94641802D01*
X139268200Y-94593257D01*
X139359020Y-94641802D01*
X139478718Y-94678112D01*
X139603200Y-94690372D01*
X140203200Y-94690372D01*
X140327682Y-94678112D01*
X140447380Y-94641802D01*
X140538200Y-94593257D01*
X140629020Y-94641802D01*
X140748718Y-94678112D01*
X140873200Y-94690372D01*
X141473200Y-94690372D01*
X141597682Y-94678112D01*
X141717380Y-94641802D01*
X141808200Y-94593257D01*
X141899020Y-94641802D01*
X142018718Y-94678112D01*
X142143200Y-94690372D01*
X142743200Y-94690372D01*
X142867682Y-94678112D01*
X142987380Y-94641802D01*
X143078200Y-94593257D01*
X143169020Y-94641802D01*
X143288718Y-94678112D01*
X143413200Y-94690372D01*
X144013200Y-94690372D01*
X144137682Y-94678112D01*
X144257380Y-94641802D01*
X144348200Y-94593257D01*
X144439020Y-94641802D01*
X144558718Y-94678112D01*
X144683200Y-94690372D01*
X145283200Y-94690372D01*
X145407682Y-94678112D01*
X145527380Y-94641802D01*
X145618200Y-94593257D01*
X145709020Y-94641802D01*
X145828718Y-94678112D01*
X145953200Y-94690372D01*
X146553200Y-94690372D01*
X146677682Y-94678112D01*
X146797380Y-94641802D01*
X146888200Y-94593257D01*
X146979020Y-94641802D01*
X147098718Y-94678112D01*
X147223200Y-94690372D01*
X147823200Y-94690372D01*
X147947682Y-94678112D01*
X148067380Y-94641802D01*
X148158200Y-94593257D01*
X148249020Y-94641802D01*
X148368718Y-94678112D01*
X148493200Y-94690372D01*
X148507450Y-94687300D01*
X148666200Y-94528550D01*
X148666200Y-93204300D01*
X148920200Y-93204300D01*
X148920200Y-94528550D01*
X149078950Y-94687300D01*
X149093200Y-94690372D01*
X149217682Y-94678112D01*
X149337380Y-94641802D01*
X149428200Y-94593257D01*
X149519020Y-94641802D01*
X149638718Y-94678112D01*
X149763200Y-94690372D01*
X149777450Y-94687300D01*
X149936200Y-94528550D01*
X149936200Y-93204300D01*
X148920200Y-93204300D01*
X148666200Y-93204300D01*
X148646200Y-93204300D01*
X148646200Y-92950300D01*
X148666200Y-92950300D01*
X148666200Y-91626050D01*
X148920200Y-91626050D01*
X148920200Y-92950300D01*
X149936200Y-92950300D01*
X149936200Y-91626050D01*
X150190200Y-91626050D01*
X150190200Y-92950300D01*
X150839450Y-92950300D01*
X150998200Y-92791550D01*
X151001272Y-92102300D01*
X150989012Y-91977818D01*
X150952702Y-91858120D01*
X150893737Y-91747806D01*
X150814385Y-91651115D01*
X150717694Y-91571763D01*
X150607380Y-91512798D01*
X150487682Y-91476488D01*
X150363200Y-91464228D01*
X150348950Y-91467300D01*
X150190200Y-91626050D01*
X149936200Y-91626050D01*
X149777450Y-91467300D01*
X149763200Y-91464228D01*
X149638718Y-91476488D01*
X149519020Y-91512798D01*
X149428200Y-91561343D01*
X149337380Y-91512798D01*
X149217682Y-91476488D01*
X149093200Y-91464228D01*
X149078950Y-91467300D01*
X148920200Y-91626050D01*
X148666200Y-91626050D01*
X148507450Y-91467300D01*
X148493200Y-91464228D01*
X148368718Y-91476488D01*
X148283200Y-91502430D01*
X148283200Y-90857442D01*
X148309415Y-90889385D01*
X148406106Y-90968737D01*
X148516420Y-91027702D01*
X148636118Y-91064012D01*
X148760600Y-91076272D01*
X148962350Y-91073200D01*
X149121100Y-90914450D01*
X149121100Y-89865200D01*
X149375100Y-89865200D01*
X149375100Y-90914450D01*
X149533850Y-91073200D01*
X149735600Y-91076272D01*
X149860082Y-91064012D01*
X149979780Y-91027702D01*
X150090094Y-90968737D01*
X150186785Y-90889385D01*
X150266137Y-90792694D01*
X150325102Y-90682380D01*
X150361412Y-90562682D01*
X150373672Y-90438200D01*
X150370600Y-90023950D01*
X150211850Y-89865200D01*
X149375100Y-89865200D01*
X149121100Y-89865200D01*
X149101100Y-89865200D01*
X149101100Y-89611200D01*
X149121100Y-89611200D01*
X149121100Y-88561950D01*
X149375100Y-88561950D01*
X149375100Y-89611200D01*
X150211850Y-89611200D01*
X150370600Y-89452450D01*
X150373672Y-89038200D01*
X150361412Y-88913718D01*
X150325102Y-88794020D01*
X150266137Y-88683706D01*
X150186785Y-88587015D01*
X150090094Y-88507663D01*
X149979780Y-88448698D01*
X149860082Y-88412388D01*
X149735600Y-88400128D01*
X149533850Y-88403200D01*
X149375100Y-88561950D01*
X149121100Y-88561950D01*
X148962350Y-88403200D01*
X148760600Y-88400128D01*
X148636118Y-88412388D01*
X148516420Y-88448698D01*
X148406106Y-88507663D01*
X148309415Y-88587015D01*
X148245608Y-88664764D01*
X148240392Y-88658408D01*
X148133100Y-88570355D01*
X148133100Y-87412231D01*
X148176892Y-87376292D01*
X148182108Y-87369936D01*
X148245915Y-87447685D01*
X148342606Y-87527037D01*
X148452920Y-87586002D01*
X148572618Y-87622312D01*
X148697100Y-87634572D01*
X148898850Y-87631500D01*
X149057600Y-87472750D01*
X149057600Y-86423500D01*
X149311600Y-86423500D01*
X149311600Y-87472750D01*
X149470350Y-87631500D01*
X149672100Y-87634572D01*
X149796582Y-87622312D01*
X149916280Y-87586002D01*
X150026594Y-87527037D01*
X150123285Y-87447685D01*
X150202637Y-87350994D01*
X150261602Y-87240680D01*
X150297912Y-87120982D01*
X150310172Y-86996500D01*
X150307100Y-86582250D01*
X150148350Y-86423500D01*
X149311600Y-86423500D01*
X149057600Y-86423500D01*
X149037600Y-86423500D01*
X149037600Y-86169500D01*
X149057600Y-86169500D01*
X149057600Y-86149500D01*
X149311600Y-86149500D01*
X149311600Y-86169500D01*
X150148350Y-86169500D01*
X150239250Y-86078600D01*
X151680535Y-86078600D01*
X151765007Y-86282534D01*
X151987713Y-86615837D01*
X152271163Y-86899287D01*
X152604466Y-87121993D01*
X152974813Y-87275396D01*
X153367970Y-87353600D01*
X153768830Y-87353600D01*
X154161987Y-87275396D01*
X154532334Y-87121993D01*
X154865637Y-86899287D01*
X155149087Y-86615837D01*
X155371793Y-86282534D01*
X155525196Y-85912187D01*
X155603400Y-85519030D01*
X155603400Y-85118170D01*
X155525196Y-84725013D01*
X155371793Y-84354666D01*
X155149087Y-84021363D01*
X154865637Y-83737913D01*
X154532334Y-83515207D01*
X154161987Y-83361804D01*
X153768830Y-83283600D01*
X153367970Y-83283600D01*
X152974813Y-83361804D01*
X152604466Y-83515207D01*
X152271163Y-83737913D01*
X151987713Y-84021363D01*
X151765007Y-84354666D01*
X151680535Y-84558600D01*
X150403402Y-84558600D01*
X148521801Y-82677000D01*
X148727592Y-82677000D01*
X148997490Y-82623314D01*
X149251727Y-82518005D01*
X149480535Y-82365120D01*
X149675120Y-82170535D01*
X149828005Y-81941727D01*
X149860000Y-81864485D01*
X149891995Y-81941727D01*
X150044880Y-82170535D01*
X150239465Y-82365120D01*
X150468273Y-82518005D01*
X150722510Y-82623314D01*
X150992408Y-82677000D01*
X151267592Y-82677000D01*
X151537490Y-82623314D01*
X151791727Y-82518005D01*
X152020535Y-82365120D01*
X152215120Y-82170535D01*
X152368005Y-81941727D01*
X152473314Y-81687490D01*
X152527000Y-81417592D01*
X152527000Y-81142408D01*
X152473314Y-80872510D01*
X152368005Y-80618273D01*
X152215120Y-80389465D01*
X152020535Y-80194880D01*
X151791727Y-80041995D01*
X151537490Y-79936686D01*
X151267592Y-79883000D01*
X150992408Y-79883000D01*
X150722510Y-79936686D01*
X150468273Y-80041995D01*
X150239465Y-80194880D01*
X150044880Y-80389465D01*
X149891995Y-80618273D01*
X149860000Y-80695515D01*
X149828005Y-80618273D01*
X149675120Y-80389465D01*
X149480535Y-80194880D01*
X149251727Y-80041995D01*
X148997490Y-79936686D01*
X148727592Y-79883000D01*
X148452408Y-79883000D01*
X148182510Y-79936686D01*
X147928273Y-80041995D01*
X147699465Y-80194880D01*
X147504880Y-80389465D01*
X147351995Y-80618273D01*
X147320000Y-80695515D01*
X147288005Y-80618273D01*
X147135120Y-80389465D01*
X146940535Y-80194880D01*
X146711727Y-80041995D01*
X146457490Y-79936686D01*
X146187592Y-79883000D01*
X145912408Y-79883000D01*
X145722999Y-79920676D01*
X145722999Y-79688740D01*
X163615000Y-79688740D01*
X163615000Y-79981260D01*
X163672068Y-80268158D01*
X163784010Y-80538411D01*
X163946525Y-80781632D01*
X164153368Y-80988475D01*
X164396589Y-81150990D01*
X164666842Y-81262932D01*
X164953740Y-81320000D01*
X165246260Y-81320000D01*
X165533158Y-81262932D01*
X165803411Y-81150990D01*
X166046632Y-80988475D01*
X166253475Y-80781632D01*
X166415990Y-80538411D01*
X166527932Y-80268158D01*
X166585000Y-79981260D01*
X166585000Y-79688740D01*
X166527932Y-79401842D01*
X166415990Y-79131589D01*
X166253475Y-78888368D01*
X166046632Y-78681525D01*
X165803411Y-78519010D01*
X165533158Y-78407068D01*
X165246260Y-78350000D01*
X164953740Y-78350000D01*
X164666842Y-78407068D01*
X164396589Y-78519010D01*
X164153368Y-78681525D01*
X163946525Y-78888368D01*
X163784010Y-79131589D01*
X163672068Y-79401842D01*
X163615000Y-79688740D01*
X145722999Y-79688740D01*
X145722999Y-76688740D01*
X163615000Y-76688740D01*
X163615000Y-76981260D01*
X163672068Y-77268158D01*
X163784010Y-77538411D01*
X163946525Y-77781632D01*
X164153368Y-77988475D01*
X164396589Y-78150990D01*
X164666842Y-78262932D01*
X164953740Y-78320000D01*
X165246260Y-78320000D01*
X165533158Y-78262932D01*
X165803411Y-78150990D01*
X166046632Y-77988475D01*
X166253475Y-77781632D01*
X166415990Y-77538411D01*
X166527932Y-77268158D01*
X166585000Y-76981260D01*
X166585000Y-76688740D01*
X166527932Y-76401842D01*
X166415990Y-76131589D01*
X166253475Y-75888368D01*
X166046632Y-75681525D01*
X165803411Y-75519010D01*
X165533158Y-75407068D01*
X165246260Y-75350000D01*
X164953740Y-75350000D01*
X164666842Y-75407068D01*
X164396589Y-75519010D01*
X164153368Y-75681525D01*
X163946525Y-75888368D01*
X163784010Y-76131589D01*
X163672068Y-76401842D01*
X163615000Y-76688740D01*
X145722999Y-76688740D01*
X145722999Y-73688740D01*
X163615000Y-73688740D01*
X163615000Y-73981260D01*
X163672068Y-74268158D01*
X163784010Y-74538411D01*
X163946525Y-74781632D01*
X164153368Y-74988475D01*
X164396589Y-75150990D01*
X164666842Y-75262932D01*
X164953740Y-75320000D01*
X165246260Y-75320000D01*
X165533158Y-75262932D01*
X165803411Y-75150990D01*
X166046632Y-74988475D01*
X166253475Y-74781632D01*
X166415990Y-74538411D01*
X166527932Y-74268158D01*
X166585000Y-73981260D01*
X166585000Y-73688740D01*
X166527932Y-73401842D01*
X166415990Y-73131589D01*
X166253475Y-72888368D01*
X166046632Y-72681525D01*
X165803411Y-72519010D01*
X165533158Y-72407068D01*
X165246260Y-72350000D01*
X164953740Y-72350000D01*
X164666842Y-72407068D01*
X164396589Y-72519010D01*
X164153368Y-72681525D01*
X163946525Y-72888368D01*
X163784010Y-73131589D01*
X163672068Y-73401842D01*
X163615000Y-73688740D01*
X145722999Y-73688740D01*
X145722999Y-70709916D01*
X165790000Y-70709916D01*
X165790000Y-70960084D01*
X165838805Y-71205445D01*
X165934541Y-71436571D01*
X166073527Y-71644578D01*
X166250422Y-71821473D01*
X166458429Y-71960459D01*
X166689555Y-72056195D01*
X166934916Y-72105000D01*
X167185084Y-72105000D01*
X167430445Y-72056195D01*
X167661571Y-71960459D01*
X167869578Y-71821473D01*
X168046473Y-71644578D01*
X168185459Y-71436571D01*
X168281195Y-71205445D01*
X168330000Y-70960084D01*
X168330000Y-70709916D01*
X168281195Y-70464555D01*
X168185459Y-70233429D01*
X168046473Y-70025422D01*
X167869578Y-69848527D01*
X167661571Y-69709541D01*
X167430445Y-69613805D01*
X167185084Y-69565000D01*
X166934916Y-69565000D01*
X166689555Y-69613805D01*
X166458429Y-69709541D01*
X166250422Y-69848527D01*
X166073527Y-70025422D01*
X165934541Y-70233429D01*
X165838805Y-70464555D01*
X165790000Y-70709916D01*
X145722999Y-70709916D01*
X145722999Y-69981802D01*
X148298430Y-67406372D01*
X148452408Y-67437000D01*
X148727592Y-67437000D01*
X148997490Y-67383314D01*
X149251727Y-67278005D01*
X149480535Y-67125120D01*
X149675120Y-66930535D01*
X149828005Y-66701727D01*
X149860000Y-66624485D01*
X149891995Y-66701727D01*
X150044880Y-66930535D01*
X150239465Y-67125120D01*
X150468273Y-67278005D01*
X150722510Y-67383314D01*
X150992408Y-67437000D01*
X151267592Y-67437000D01*
X151537490Y-67383314D01*
X151791727Y-67278005D01*
X152020535Y-67125120D01*
X152215120Y-66930535D01*
X152368005Y-66701727D01*
X152473314Y-66447490D01*
X152527000Y-66177592D01*
X152527000Y-65902408D01*
X152512542Y-65829721D01*
X163600000Y-65829721D01*
X163600000Y-66250279D01*
X163682047Y-66662756D01*
X163842988Y-67051302D01*
X164076637Y-67400983D01*
X164374017Y-67698363D01*
X164723698Y-67932012D01*
X165112244Y-68092953D01*
X165524721Y-68175000D01*
X165945279Y-68175000D01*
X166357756Y-68092953D01*
X166746302Y-67932012D01*
X167095983Y-67698363D01*
X167393363Y-67400983D01*
X167627012Y-67051302D01*
X167787953Y-66662756D01*
X167870000Y-66250279D01*
X167870000Y-65829721D01*
X167787953Y-65417244D01*
X167627012Y-65028698D01*
X167393363Y-64679017D01*
X167095983Y-64381637D01*
X166746302Y-64147988D01*
X166357756Y-63987047D01*
X165945279Y-63905000D01*
X165524721Y-63905000D01*
X165112244Y-63987047D01*
X164723698Y-64147988D01*
X164374017Y-64381637D01*
X164076637Y-64679017D01*
X163842988Y-65028698D01*
X163682047Y-65417244D01*
X163600000Y-65829721D01*
X152512542Y-65829721D01*
X152473314Y-65632510D01*
X152368005Y-65378273D01*
X152215120Y-65149465D01*
X152020535Y-64954880D01*
X151791727Y-64801995D01*
X151537490Y-64696686D01*
X151267592Y-64643000D01*
X150992408Y-64643000D01*
X150722510Y-64696686D01*
X150468273Y-64801995D01*
X150239465Y-64954880D01*
X150044880Y-65149465D01*
X149891995Y-65378273D01*
X149860000Y-65455515D01*
X149828005Y-65378273D01*
X149675120Y-65149465D01*
X149480535Y-64954880D01*
X149251727Y-64801995D01*
X148997490Y-64696686D01*
X148727592Y-64643000D01*
X148452408Y-64643000D01*
X148182510Y-64696686D01*
X147928273Y-64801995D01*
X147699465Y-64954880D01*
X147504880Y-65149465D01*
X147351995Y-65378273D01*
X147320000Y-65455515D01*
X147288005Y-65378273D01*
X147135120Y-65149465D01*
X146940535Y-64954880D01*
X146711727Y-64801995D01*
X146457490Y-64696686D01*
X146187592Y-64643000D01*
X145912408Y-64643000D01*
X145642510Y-64696686D01*
X145388273Y-64801995D01*
X145159465Y-64954880D01*
X144964880Y-65149465D01*
X144811995Y-65378273D01*
X144780000Y-65455515D01*
X144748005Y-65378273D01*
X144595120Y-65149465D01*
X144400535Y-64954880D01*
X144171727Y-64801995D01*
X143917490Y-64696686D01*
X143647592Y-64643000D01*
X143372408Y-64643000D01*
X143102510Y-64696686D01*
X142848273Y-64801995D01*
X142619465Y-64954880D01*
X142424880Y-65149465D01*
X142271995Y-65378273D01*
X142240000Y-65455515D01*
X142208005Y-65378273D01*
X142055120Y-65149465D01*
X141860535Y-64954880D01*
X141631727Y-64801995D01*
X141377490Y-64696686D01*
X141107592Y-64643000D01*
X140832408Y-64643000D01*
X140562510Y-64696686D01*
X140308273Y-64801995D01*
X140079465Y-64954880D01*
X139884880Y-65149465D01*
X139731995Y-65378273D01*
X139700000Y-65455515D01*
X139668005Y-65378273D01*
X139515120Y-65149465D01*
X139320535Y-64954880D01*
X139091727Y-64801995D01*
X138837490Y-64696686D01*
X138567592Y-64643000D01*
X138292408Y-64643000D01*
X138022510Y-64696686D01*
X137768273Y-64801995D01*
X137539465Y-64954880D01*
X137344880Y-65149465D01*
X137191995Y-65378273D01*
X137160000Y-65455515D01*
X137128005Y-65378273D01*
X136975120Y-65149465D01*
X136780535Y-64954880D01*
X136551727Y-64801995D01*
X136297490Y-64696686D01*
X136027592Y-64643000D01*
X135752408Y-64643000D01*
X135482510Y-64696686D01*
X135228273Y-64801995D01*
X134999465Y-64954880D01*
X134804880Y-65149465D01*
X134651995Y-65378273D01*
X134620000Y-65455515D01*
X134588005Y-65378273D01*
X134435120Y-65149465D01*
X134240535Y-64954880D01*
X134011727Y-64801995D01*
X133757490Y-64696686D01*
X133487592Y-64643000D01*
X133212408Y-64643000D01*
X132942510Y-64696686D01*
X132688273Y-64801995D01*
X132459465Y-64954880D01*
X132264880Y-65149465D01*
X132111995Y-65378273D01*
X132080000Y-65455515D01*
X132048005Y-65378273D01*
X131895120Y-65149465D01*
X131700535Y-64954880D01*
X131471727Y-64801995D01*
X131217490Y-64696686D01*
X130947592Y-64643000D01*
X130672408Y-64643000D01*
X130402510Y-64696686D01*
X130148273Y-64801995D01*
X129919465Y-64954880D01*
X129724880Y-65149465D01*
X129571995Y-65378273D01*
X129540000Y-65455515D01*
X129508005Y-65378273D01*
X129355120Y-65149465D01*
X129160535Y-64954880D01*
X128931727Y-64801995D01*
X128677490Y-64696686D01*
X128407592Y-64643000D01*
X128132408Y-64643000D01*
X127862510Y-64696686D01*
X127608273Y-64801995D01*
X127379465Y-64954880D01*
X127184880Y-65149465D01*
X127031995Y-65378273D01*
X127000000Y-65455515D01*
X126968005Y-65378273D01*
X126815120Y-65149465D01*
X126620535Y-64954880D01*
X126391727Y-64801995D01*
X126137490Y-64696686D01*
X125867592Y-64643000D01*
X125592408Y-64643000D01*
X125322510Y-64696686D01*
X125068273Y-64801995D01*
X124839465Y-64954880D01*
X124644880Y-65149465D01*
X124491995Y-65378273D01*
X124460000Y-65455515D01*
X124428005Y-65378273D01*
X124275120Y-65149465D01*
X124080535Y-64954880D01*
X123851727Y-64801995D01*
X123597490Y-64696686D01*
X123327592Y-64643000D01*
X123052408Y-64643000D01*
X122782510Y-64696686D01*
X122528273Y-64801995D01*
X122299465Y-64954880D01*
X122104880Y-65149465D01*
X121951995Y-65378273D01*
X121920000Y-65455515D01*
X121888005Y-65378273D01*
X121735120Y-65149465D01*
X121540535Y-64954880D01*
X121311727Y-64801995D01*
X121057490Y-64696686D01*
X120787592Y-64643000D01*
X120512408Y-64643000D01*
X120242510Y-64696686D01*
X119988273Y-64801995D01*
X119759465Y-64954880D01*
X119564880Y-65149465D01*
X119411995Y-65378273D01*
X119382308Y-65449943D01*
X119377636Y-65436977D01*
X119315656Y-65321020D01*
X119075565Y-65254040D01*
X118289605Y-66040000D01*
X117930395Y-66040000D01*
X117144435Y-65254040D01*
X116904344Y-65321020D01*
X116840515Y-65456760D01*
X116808005Y-65378273D01*
X116655120Y-65149465D01*
X116580090Y-65074435D01*
X117324040Y-65074435D01*
X118110000Y-65860395D01*
X118895960Y-65074435D01*
X118828980Y-64834344D01*
X118579952Y-64717244D01*
X118312865Y-64650977D01*
X118037983Y-64638090D01*
X117765867Y-64679078D01*
X117506977Y-64772364D01*
X117391020Y-64834344D01*
X117324040Y-65074435D01*
X116580090Y-65074435D01*
X116460535Y-64954880D01*
X116231727Y-64801995D01*
X115977490Y-64696686D01*
X115707592Y-64643000D01*
X115432408Y-64643000D01*
X115162510Y-64696686D01*
X114908273Y-64801995D01*
X114679465Y-64954880D01*
X114484880Y-65149465D01*
X114331995Y-65378273D01*
X114226686Y-65632510D01*
X114173000Y-65902408D01*
X111990000Y-65902408D01*
X111990000Y-65829721D01*
X111907953Y-65417244D01*
X111747012Y-65028698D01*
X111513363Y-64679017D01*
X111215983Y-64381637D01*
X110866302Y-64147988D01*
X110477756Y-63987047D01*
X110065279Y-63905000D01*
X109644721Y-63905000D01*
X109232244Y-63987047D01*
X108843698Y-64147988D01*
X108494017Y-64381637D01*
X108196637Y-64679017D01*
X107962988Y-65028698D01*
X107802047Y-65417244D01*
X107720000Y-65829721D01*
X106705000Y-65829721D01*
X106705000Y-61619506D01*
X166338831Y-61574896D01*
X167093692Y-61646916D01*
G36*
X142271995Y-81941727D02*
G01*
X142424880Y-82170535D01*
X142619465Y-82365120D01*
X142848273Y-82518005D01*
X143102510Y-82623314D01*
X143372408Y-82677000D01*
X143647592Y-82677000D01*
X143917490Y-82623314D01*
X144171727Y-82518005D01*
X144202999Y-82497110D01*
X144202999Y-84831428D01*
X143784650Y-84831428D01*
X143612615Y-84848372D01*
X143447191Y-84898553D01*
X143294736Y-84980042D01*
X143161108Y-85089708D01*
X143155892Y-85096064D01*
X143092085Y-85018315D01*
X142995394Y-84938963D01*
X142885080Y-84879998D01*
X142765382Y-84843688D01*
X142640900Y-84831428D01*
X142439150Y-84834500D01*
X142280400Y-84993250D01*
X142280400Y-86042500D01*
X142300400Y-86042500D01*
X142300400Y-86296500D01*
X142280400Y-86296500D01*
X142280400Y-87345750D01*
X142439150Y-87504500D01*
X142640900Y-87507572D01*
X142765382Y-87495312D01*
X142885080Y-87459002D01*
X142995394Y-87400037D01*
X143092085Y-87320685D01*
X143155892Y-87242936D01*
X143161108Y-87249292D01*
X143294736Y-87358958D01*
X143397701Y-87413994D01*
X143397700Y-88265555D01*
X143290408Y-88353608D01*
X143285192Y-88359964D01*
X143221385Y-88282215D01*
X143124694Y-88202863D01*
X143014380Y-88143898D01*
X142894682Y-88107588D01*
X142770200Y-88095328D01*
X142568450Y-88098400D01*
X142409700Y-88257150D01*
X142409700Y-89306400D01*
X142429700Y-89306400D01*
X142429700Y-89560400D01*
X142409700Y-89560400D01*
X142409700Y-89580400D01*
X142155700Y-89580400D01*
X142155700Y-89560400D01*
X141318950Y-89560400D01*
X141211976Y-89667374D01*
X140278002Y-88733400D01*
X141157128Y-88733400D01*
X141160200Y-89147650D01*
X141318950Y-89306400D01*
X142155700Y-89306400D01*
X142155700Y-88257150D01*
X141996950Y-88098400D01*
X141795200Y-88095328D01*
X141670718Y-88107588D01*
X141551020Y-88143898D01*
X141440706Y-88202863D01*
X141344015Y-88282215D01*
X141264663Y-88378906D01*
X141205698Y-88489220D01*
X141169388Y-88608918D01*
X141157128Y-88733400D01*
X140278002Y-88733400D01*
X139476823Y-87932222D01*
X139561296Y-87728287D01*
X139639500Y-87335130D01*
X139639500Y-86934270D01*
X139626617Y-86869500D01*
X141027828Y-86869500D01*
X141040088Y-86993982D01*
X141076398Y-87113680D01*
X141135363Y-87223994D01*
X141214715Y-87320685D01*
X141311406Y-87400037D01*
X141421720Y-87459002D01*
X141541418Y-87495312D01*
X141665900Y-87507572D01*
X141867650Y-87504500D01*
X142026400Y-87345750D01*
X142026400Y-86296500D01*
X141189650Y-86296500D01*
X141030900Y-86455250D01*
X141027828Y-86869500D01*
X139626617Y-86869500D01*
X139561296Y-86541113D01*
X139407893Y-86170766D01*
X139185187Y-85837463D01*
X138901737Y-85554013D01*
X138775255Y-85469500D01*
X141027828Y-85469500D01*
X141030900Y-85883750D01*
X141189650Y-86042500D01*
X142026400Y-86042500D01*
X142026400Y-84993250D01*
X141867650Y-84834500D01*
X141665900Y-84831428D01*
X141541418Y-84843688D01*
X141421720Y-84879998D01*
X141311406Y-84938963D01*
X141214715Y-85018315D01*
X141135363Y-85115006D01*
X141076398Y-85225320D01*
X141040088Y-85345018D01*
X141027828Y-85469500D01*
X138775255Y-85469500D01*
X138568434Y-85331307D01*
X138198087Y-85177904D01*
X137804930Y-85099700D01*
X137404070Y-85099700D01*
X137010913Y-85177904D01*
X136640566Y-85331307D01*
X136307263Y-85554013D01*
X136023813Y-85837463D01*
X135801107Y-86170766D01*
X135716635Y-86374700D01*
X131899502Y-86374700D01*
X128201801Y-82677000D01*
X128407592Y-82677000D01*
X128677490Y-82623314D01*
X128931727Y-82518005D01*
X129160535Y-82365120D01*
X129355120Y-82170535D01*
X129508005Y-81941727D01*
X129540000Y-81864485D01*
X129571995Y-81941727D01*
X129724880Y-82170535D01*
X129919465Y-82365120D01*
X130148273Y-82518005D01*
X130402510Y-82623314D01*
X130672408Y-82677000D01*
X130947592Y-82677000D01*
X131217490Y-82623314D01*
X131471727Y-82518005D01*
X131700535Y-82365120D01*
X131895120Y-82170535D01*
X132048005Y-81941727D01*
X132080000Y-81864485D01*
X132111995Y-81941727D01*
X132264880Y-82170535D01*
X132459465Y-82365120D01*
X132688273Y-82518005D01*
X132942510Y-82623314D01*
X133212408Y-82677000D01*
X133487592Y-82677000D01*
X133757490Y-82623314D01*
X134011727Y-82518005D01*
X134240535Y-82365120D01*
X134435120Y-82170535D01*
X134588005Y-81941727D01*
X134620000Y-81864485D01*
X134651995Y-81941727D01*
X134804880Y-82170535D01*
X134999465Y-82365120D01*
X135228273Y-82518005D01*
X135482510Y-82623314D01*
X135752408Y-82677000D01*
X136027592Y-82677000D01*
X136297490Y-82623314D01*
X136551727Y-82518005D01*
X136780535Y-82365120D01*
X136975120Y-82170535D01*
X137128005Y-81941727D01*
X137160000Y-81864485D01*
X137191995Y-81941727D01*
X137344880Y-82170535D01*
X137539465Y-82365120D01*
X137768273Y-82518005D01*
X138022510Y-82623314D01*
X138292408Y-82677000D01*
X138567592Y-82677000D01*
X138837490Y-82623314D01*
X139091727Y-82518005D01*
X139320535Y-82365120D01*
X139515120Y-82170535D01*
X139668005Y-81941727D01*
X139700000Y-81864485D01*
X139731995Y-81941727D01*
X139884880Y-82170535D01*
X140079465Y-82365120D01*
X140308273Y-82518005D01*
X140562510Y-82623314D01*
X140832408Y-82677000D01*
X141107592Y-82677000D01*
X141377490Y-82623314D01*
X141631727Y-82518005D01*
X141860535Y-82365120D01*
X142055120Y-82170535D01*
X142208005Y-81941727D01*
X142240000Y-81864485D01*
X142271995Y-81941727D01*
G37*
X142271995Y-81941727D02*
X142424880Y-82170535D01*
X142619465Y-82365120D01*
X142848273Y-82518005D01*
X143102510Y-82623314D01*
X143372408Y-82677000D01*
X143647592Y-82677000D01*
X143917490Y-82623314D01*
X144171727Y-82518005D01*
X144202999Y-82497110D01*
X144202999Y-84831428D01*
X143784650Y-84831428D01*
X143612615Y-84848372D01*
X143447191Y-84898553D01*
X143294736Y-84980042D01*
X143161108Y-85089708D01*
X143155892Y-85096064D01*
X143092085Y-85018315D01*
X142995394Y-84938963D01*
X142885080Y-84879998D01*
X142765382Y-84843688D01*
X142640900Y-84831428D01*
X142439150Y-84834500D01*
X142280400Y-84993250D01*
X142280400Y-86042500D01*
X142300400Y-86042500D01*
X142300400Y-86296500D01*
X142280400Y-86296500D01*
X142280400Y-87345750D01*
X142439150Y-87504500D01*
X142640900Y-87507572D01*
X142765382Y-87495312D01*
X142885080Y-87459002D01*
X142995394Y-87400037D01*
X143092085Y-87320685D01*
X143155892Y-87242936D01*
X143161108Y-87249292D01*
X143294736Y-87358958D01*
X143397701Y-87413994D01*
X143397700Y-88265555D01*
X143290408Y-88353608D01*
X143285192Y-88359964D01*
X143221385Y-88282215D01*
X143124694Y-88202863D01*
X143014380Y-88143898D01*
X142894682Y-88107588D01*
X142770200Y-88095328D01*
X142568450Y-88098400D01*
X142409700Y-88257150D01*
X142409700Y-89306400D01*
X142429700Y-89306400D01*
X142429700Y-89560400D01*
X142409700Y-89560400D01*
X142409700Y-89580400D01*
X142155700Y-89580400D01*
X142155700Y-89560400D01*
X141318950Y-89560400D01*
X141211976Y-89667374D01*
X140278002Y-88733400D01*
X141157128Y-88733400D01*
X141160200Y-89147650D01*
X141318950Y-89306400D01*
X142155700Y-89306400D01*
X142155700Y-88257150D01*
X141996950Y-88098400D01*
X141795200Y-88095328D01*
X141670718Y-88107588D01*
X141551020Y-88143898D01*
X141440706Y-88202863D01*
X141344015Y-88282215D01*
X141264663Y-88378906D01*
X141205698Y-88489220D01*
X141169388Y-88608918D01*
X141157128Y-88733400D01*
X140278002Y-88733400D01*
X139476823Y-87932222D01*
X139561296Y-87728287D01*
X139639500Y-87335130D01*
X139639500Y-86934270D01*
X139626617Y-86869500D01*
X141027828Y-86869500D01*
X141040088Y-86993982D01*
X141076398Y-87113680D01*
X141135363Y-87223994D01*
X141214715Y-87320685D01*
X141311406Y-87400037D01*
X141421720Y-87459002D01*
X141541418Y-87495312D01*
X141665900Y-87507572D01*
X141867650Y-87504500D01*
X142026400Y-87345750D01*
X142026400Y-86296500D01*
X141189650Y-86296500D01*
X141030900Y-86455250D01*
X141027828Y-86869500D01*
X139626617Y-86869500D01*
X139561296Y-86541113D01*
X139407893Y-86170766D01*
X139185187Y-85837463D01*
X138901737Y-85554013D01*
X138775255Y-85469500D01*
X141027828Y-85469500D01*
X141030900Y-85883750D01*
X141189650Y-86042500D01*
X142026400Y-86042500D01*
X142026400Y-84993250D01*
X141867650Y-84834500D01*
X141665900Y-84831428D01*
X141541418Y-84843688D01*
X141421720Y-84879998D01*
X141311406Y-84938963D01*
X141214715Y-85018315D01*
X141135363Y-85115006D01*
X141076398Y-85225320D01*
X141040088Y-85345018D01*
X141027828Y-85469500D01*
X138775255Y-85469500D01*
X138568434Y-85331307D01*
X138198087Y-85177904D01*
X137804930Y-85099700D01*
X137404070Y-85099700D01*
X137010913Y-85177904D01*
X136640566Y-85331307D01*
X136307263Y-85554013D01*
X136023813Y-85837463D01*
X135801107Y-86170766D01*
X135716635Y-86374700D01*
X131899502Y-86374700D01*
X128201801Y-82677000D01*
X128407592Y-82677000D01*
X128677490Y-82623314D01*
X128931727Y-82518005D01*
X129160535Y-82365120D01*
X129355120Y-82170535D01*
X129508005Y-81941727D01*
X129540000Y-81864485D01*
X129571995Y-81941727D01*
X129724880Y-82170535D01*
X129919465Y-82365120D01*
X130148273Y-82518005D01*
X130402510Y-82623314D01*
X130672408Y-82677000D01*
X130947592Y-82677000D01*
X131217490Y-82623314D01*
X131471727Y-82518005D01*
X131700535Y-82365120D01*
X131895120Y-82170535D01*
X132048005Y-81941727D01*
X132080000Y-81864485D01*
X132111995Y-81941727D01*
X132264880Y-82170535D01*
X132459465Y-82365120D01*
X132688273Y-82518005D01*
X132942510Y-82623314D01*
X133212408Y-82677000D01*
X133487592Y-82677000D01*
X133757490Y-82623314D01*
X134011727Y-82518005D01*
X134240535Y-82365120D01*
X134435120Y-82170535D01*
X134588005Y-81941727D01*
X134620000Y-81864485D01*
X134651995Y-81941727D01*
X134804880Y-82170535D01*
X134999465Y-82365120D01*
X135228273Y-82518005D01*
X135482510Y-82623314D01*
X135752408Y-82677000D01*
X136027592Y-82677000D01*
X136297490Y-82623314D01*
X136551727Y-82518005D01*
X136780535Y-82365120D01*
X136975120Y-82170535D01*
X137128005Y-81941727D01*
X137160000Y-81864485D01*
X137191995Y-81941727D01*
X137344880Y-82170535D01*
X137539465Y-82365120D01*
X137768273Y-82518005D01*
X138022510Y-82623314D01*
X138292408Y-82677000D01*
X138567592Y-82677000D01*
X138837490Y-82623314D01*
X139091727Y-82518005D01*
X139320535Y-82365120D01*
X139515120Y-82170535D01*
X139668005Y-81941727D01*
X139700000Y-81864485D01*
X139731995Y-81941727D01*
X139884880Y-82170535D01*
X140079465Y-82365120D01*
X140308273Y-82518005D01*
X140562510Y-82623314D01*
X140832408Y-82677000D01*
X141107592Y-82677000D01*
X141377490Y-82623314D01*
X141631727Y-82518005D01*
X141860535Y-82365120D01*
X142055120Y-82170535D01*
X142208005Y-81941727D01*
X142240000Y-81864485D01*
X142271995Y-81941727D01*
%TD*%
M02*
