%TF.GenerationSoftware,KiCad,Pcbnew,(5.1.6)-1*%
%TF.CreationDate,2020-08-14T18:03:55-05:00*%
%TF.ProjectId,CAN sniffer,43414e20-736e-4696-9666-65722e6b6963,rev?*%
%TF.SameCoordinates,Original*%
%TF.FileFunction,Soldermask,Bot*%
%TF.FilePolarity,Negative*%
%FSLAX46Y46*%
G04 Gerber Fmt 4.6, Leading zero omitted, Abs format (unit mm)*
G04 Created by KiCad (PCBNEW (5.1.6)-1) date 2020-08-14 18:03:55*
%MOMM*%
%LPD*%
G01*
G04 APERTURE LIST*
%ADD10C,2.900000*%
%ADD11C,3.100000*%
%ADD12C,1.370000*%
%ADD13C,1.800000*%
%ADD14C,1.624000*%
%ADD15R,1.624000X1.624000*%
%ADD16O,1.800000X1.800000*%
%ADD17R,1.800000X1.800000*%
G04 APERTURE END LIST*
D10*
%TO.C,TP1*%
X135724900Y-87376000D03*
%TD*%
D11*
%TO.C,H4*%
X166687500Y-109943900D03*
%TD*%
%TO.C,H3*%
X102843900Y-109943900D03*
%TD*%
%TO.C,H2*%
X166687500Y-66115500D03*
%TD*%
%TO.C,H1*%
X102843900Y-66115500D03*
%TD*%
D10*
%TO.C,TP4*%
X150507700Y-108343700D03*
%TD*%
%TO.C,TP3*%
X155689300Y-108407200D03*
%TD*%
%TO.C,TP2*%
X145707100Y-86385400D03*
%TD*%
D12*
%TO.C,J2*%
X168355400Y-90395800D03*
D13*
X166395400Y-99395800D03*
X166395400Y-96395800D03*
X166395400Y-93395800D03*
D12*
X168355400Y-105395800D03*
D13*
X166395400Y-102395800D03*
%TD*%
D14*
%TO.C,U1*%
X115570000Y-66040000D03*
X118110000Y-66040000D03*
X120650000Y-66040000D03*
X123190000Y-66040000D03*
X125730000Y-66040000D03*
X128270000Y-66040000D03*
X130810000Y-66040000D03*
X133350000Y-66040000D03*
X135890000Y-66040000D03*
X138430000Y-66040000D03*
X140970000Y-66040000D03*
X143510000Y-66040000D03*
X146050000Y-66040000D03*
X148590000Y-66040000D03*
X151130000Y-66040000D03*
X151130000Y-81280000D03*
X148590000Y-81280000D03*
X146050000Y-81280000D03*
X143510000Y-81280000D03*
X140970000Y-81280000D03*
X138430000Y-81280000D03*
X135890000Y-81280000D03*
X133350000Y-81280000D03*
X130810000Y-81280000D03*
X128270000Y-81280000D03*
X125730000Y-81280000D03*
X123190000Y-81280000D03*
X120650000Y-81280000D03*
X118110000Y-81280000D03*
D15*
X115570000Y-81280000D03*
%TD*%
D16*
%TO.C,JP1*%
X152501600Y-99352100D03*
D17*
X155041600Y-99352100D03*
%TD*%
D12*
%TO.C,J1*%
X168355400Y-71650600D03*
D13*
X166395400Y-80650600D03*
X166395400Y-77650600D03*
X166395400Y-74650600D03*
D12*
X168355400Y-86650600D03*
D13*
X166395400Y-83650600D03*
%TD*%
M02*
