%TF.GenerationSoftware,KiCad,Pcbnew,(5.1.6)-1*%
%TF.CreationDate,2020-08-03T14:50:49-05:00*%
%TF.ProjectId,CAN sniffer,43414e20-736e-4696-9666-65722e6b6963,rev?*%
%TF.SameCoordinates,Original*%
%TF.FileFunction,Soldermask,Top*%
%TF.FilePolarity,Negative*%
%FSLAX46Y46*%
G04 Gerber Fmt 4.6, Leading zero omitted, Abs format (unit mm)*
G04 Created by KiCad (PCBNEW (5.1.6)-1) date 2020-08-03 14:50:49*
%MOMM*%
%LPD*%
G01*
G04 APERTURE LIST*
%ADD10C,3.100000*%
%ADD11C,2.900000*%
%ADD12C,1.370000*%
%ADD13C,1.800000*%
%ADD14R,1.100000X0.800000*%
%ADD15R,0.700000X2.050000*%
%ADD16C,1.624000*%
%ADD17R,1.624000X1.624000*%
%ADD18O,1.800000X1.800000*%
%ADD19R,1.800000X1.800000*%
G04 APERTURE END LIST*
D10*
%TO.C,H4*%
X165735000Y-110490000D03*
%TD*%
%TO.C,H3*%
X109855000Y-110490000D03*
%TD*%
%TO.C,H2*%
X165735000Y-66040000D03*
%TD*%
%TO.C,H1*%
X109855000Y-66040000D03*
%TD*%
%TO.C,C7*%
G36*
G01*
X157252750Y-89604800D02*
X158215250Y-89604800D01*
G75*
G02*
X158484000Y-89873550I0J-268750D01*
G01*
X158484000Y-90411050D01*
G75*
G02*
X158215250Y-90679800I-268750J0D01*
G01*
X157252750Y-90679800D01*
G75*
G02*
X156984000Y-90411050I0J268750D01*
G01*
X156984000Y-89873550D01*
G75*
G02*
X157252750Y-89604800I268750J0D01*
G01*
G37*
G36*
G01*
X157252750Y-87729800D02*
X158215250Y-87729800D01*
G75*
G02*
X158484000Y-87998550I0J-268750D01*
G01*
X158484000Y-88536050D01*
G75*
G02*
X158215250Y-88804800I-268750J0D01*
G01*
X157252750Y-88804800D01*
G75*
G02*
X156984000Y-88536050I0J268750D01*
G01*
X156984000Y-87998550D01*
G75*
G02*
X157252750Y-87729800I268750J0D01*
G01*
G37*
%TD*%
D11*
%TO.C,TP4*%
X157480000Y-107442000D03*
%TD*%
%TO.C,TP3*%
X157480000Y-102997000D03*
%TD*%
%TO.C,TP2*%
X153568400Y-85318600D03*
%TD*%
%TO.C,TP1*%
X137604500Y-87134700D03*
%TD*%
D12*
%TO.C,J2*%
X167060000Y-89710000D03*
D13*
X165100000Y-98710000D03*
X165100000Y-95710000D03*
X165100000Y-92710000D03*
D12*
X167060000Y-104710000D03*
D13*
X165100000Y-101710000D03*
%TD*%
D14*
%TO.C,U3*%
X149205800Y-111569500D03*
X146805800Y-112519500D03*
X146805800Y-110619500D03*
%TD*%
D15*
%TO.C,U2*%
X150063200Y-102477300D03*
X148793200Y-102477300D03*
X147523200Y-102477300D03*
X146253200Y-102477300D03*
X144983200Y-102477300D03*
X143713200Y-102477300D03*
X142443200Y-102477300D03*
X141173200Y-102477300D03*
X139903200Y-102477300D03*
X138633200Y-102477300D03*
X138633200Y-93077300D03*
X139903200Y-93077300D03*
X141173200Y-93077300D03*
X142443200Y-93077300D03*
X143713200Y-93077300D03*
X144983200Y-93077300D03*
X146253200Y-93077300D03*
X147523200Y-93077300D03*
X148793200Y-93077300D03*
X150063200Y-93077300D03*
%TD*%
D16*
%TO.C,U1*%
X115570000Y-66040000D03*
X118110000Y-66040000D03*
X120650000Y-66040000D03*
X123190000Y-66040000D03*
X125730000Y-66040000D03*
X128270000Y-66040000D03*
X130810000Y-66040000D03*
X133350000Y-66040000D03*
X135890000Y-66040000D03*
X138430000Y-66040000D03*
X140970000Y-66040000D03*
X143510000Y-66040000D03*
X146050000Y-66040000D03*
X148590000Y-66040000D03*
X151130000Y-66040000D03*
X151130000Y-81280000D03*
X148590000Y-81280000D03*
X146050000Y-81280000D03*
X143510000Y-81280000D03*
X140970000Y-81280000D03*
X138430000Y-81280000D03*
X135890000Y-81280000D03*
X133350000Y-81280000D03*
X130810000Y-81280000D03*
X128270000Y-81280000D03*
X125730000Y-81280000D03*
X123190000Y-81280000D03*
X120650000Y-81280000D03*
X118110000Y-81280000D03*
D17*
X115570000Y-81280000D03*
%TD*%
%TO.C,R3*%
G36*
G01*
X143490900Y-113574750D02*
X143490900Y-112612250D01*
G75*
G02*
X143759650Y-112343500I268750J0D01*
G01*
X144297150Y-112343500D01*
G75*
G02*
X144565900Y-112612250I0J-268750D01*
G01*
X144565900Y-113574750D01*
G75*
G02*
X144297150Y-113843500I-268750J0D01*
G01*
X143759650Y-113843500D01*
G75*
G02*
X143490900Y-113574750I0J268750D01*
G01*
G37*
G36*
G01*
X141615900Y-113574750D02*
X141615900Y-112612250D01*
G75*
G02*
X141884650Y-112343500I268750J0D01*
G01*
X142422150Y-112343500D01*
G75*
G02*
X142690900Y-112612250I0J-268750D01*
G01*
X142690900Y-113574750D01*
G75*
G02*
X142422150Y-113843500I-268750J0D01*
G01*
X141884650Y-113843500D01*
G75*
G02*
X141615900Y-113574750I0J268750D01*
G01*
G37*
%TD*%
%TO.C,R2*%
G36*
G01*
X143402000Y-110272750D02*
X143402000Y-109310250D01*
G75*
G02*
X143670750Y-109041500I268750J0D01*
G01*
X144208250Y-109041500D01*
G75*
G02*
X144477000Y-109310250I0J-268750D01*
G01*
X144477000Y-110272750D01*
G75*
G02*
X144208250Y-110541500I-268750J0D01*
G01*
X143670750Y-110541500D01*
G75*
G02*
X143402000Y-110272750I0J268750D01*
G01*
G37*
G36*
G01*
X141527000Y-110272750D02*
X141527000Y-109310250D01*
G75*
G02*
X141795750Y-109041500I268750J0D01*
G01*
X142333250Y-109041500D01*
G75*
G02*
X142602000Y-109310250I0J-268750D01*
G01*
X142602000Y-110272750D01*
G75*
G02*
X142333250Y-110541500I-268750J0D01*
G01*
X141795750Y-110541500D01*
G75*
G02*
X141527000Y-110272750I0J268750D01*
G01*
G37*
%TD*%
%TO.C,R1*%
G36*
G01*
X147110500Y-104839850D02*
X147110500Y-105802350D01*
G75*
G02*
X146841750Y-106071100I-268750J0D01*
G01*
X146304250Y-106071100D01*
G75*
G02*
X146035500Y-105802350I0J268750D01*
G01*
X146035500Y-104839850D01*
G75*
G02*
X146304250Y-104571100I268750J0D01*
G01*
X146841750Y-104571100D01*
G75*
G02*
X147110500Y-104839850I0J-268750D01*
G01*
G37*
G36*
G01*
X148985500Y-104839850D02*
X148985500Y-105802350D01*
G75*
G02*
X148716750Y-106071100I-268750J0D01*
G01*
X148179250Y-106071100D01*
G75*
G02*
X147910500Y-105802350I0J268750D01*
G01*
X147910500Y-104839850D01*
G75*
G02*
X148179250Y-104571100I268750J0D01*
G01*
X148716750Y-104571100D01*
G75*
G02*
X148985500Y-104839850I0J-268750D01*
G01*
G37*
%TD*%
%TO.C,L2*%
G36*
G01*
X151047500Y-104966850D02*
X151047500Y-105929350D01*
G75*
G02*
X150778750Y-106198100I-268750J0D01*
G01*
X150241250Y-106198100D01*
G75*
G02*
X149972500Y-105929350I0J268750D01*
G01*
X149972500Y-104966850D01*
G75*
G02*
X150241250Y-104698100I268750J0D01*
G01*
X150778750Y-104698100D01*
G75*
G02*
X151047500Y-104966850I0J-268750D01*
G01*
G37*
G36*
G01*
X152922500Y-104966850D02*
X152922500Y-105929350D01*
G75*
G02*
X152653750Y-106198100I-268750J0D01*
G01*
X152116250Y-106198100D01*
G75*
G02*
X151847500Y-105929350I0J268750D01*
G01*
X151847500Y-104966850D01*
G75*
G02*
X152116250Y-104698100I268750J0D01*
G01*
X152653750Y-104698100D01*
G75*
G02*
X152922500Y-104966850I0J-268750D01*
G01*
G37*
%TD*%
%TO.C,L1*%
G36*
G01*
X156927500Y-94588250D02*
X156927500Y-93625750D01*
G75*
G02*
X157196250Y-93357000I268750J0D01*
G01*
X157733750Y-93357000D01*
G75*
G02*
X158002500Y-93625750I0J-268750D01*
G01*
X158002500Y-94588250D01*
G75*
G02*
X157733750Y-94857000I-268750J0D01*
G01*
X157196250Y-94857000D01*
G75*
G02*
X156927500Y-94588250I0J268750D01*
G01*
G37*
G36*
G01*
X155052500Y-94588250D02*
X155052500Y-93625750D01*
G75*
G02*
X155321250Y-93357000I268750J0D01*
G01*
X155858750Y-93357000D01*
G75*
G02*
X156127500Y-93625750I0J-268750D01*
G01*
X156127500Y-94588250D01*
G75*
G02*
X155858750Y-94857000I-268750J0D01*
G01*
X155321250Y-94857000D01*
G75*
G02*
X155052500Y-94588250I0J268750D01*
G01*
G37*
%TD*%
D18*
%TO.C,JP1*%
X137833100Y-111645700D03*
D19*
X137833100Y-109105700D03*
%TD*%
D12*
%TO.C,J1*%
X167060000Y-70835000D03*
D13*
X165100000Y-79835000D03*
X165100000Y-76835000D03*
X165100000Y-73835000D03*
D12*
X167060000Y-85835000D03*
D13*
X165100000Y-82835000D03*
%TD*%
%TO.C,C8*%
G36*
G01*
X155225700Y-90041650D02*
X155225700Y-89079150D01*
G75*
G02*
X155494450Y-88810400I268750J0D01*
G01*
X156031950Y-88810400D01*
G75*
G02*
X156300700Y-89079150I0J-268750D01*
G01*
X156300700Y-90041650D01*
G75*
G02*
X156031950Y-90310400I-268750J0D01*
G01*
X155494450Y-90310400D01*
G75*
G02*
X155225700Y-90041650I0J268750D01*
G01*
G37*
G36*
G01*
X153350700Y-90041650D02*
X153350700Y-89079150D01*
G75*
G02*
X153619450Y-88810400I268750J0D01*
G01*
X154156950Y-88810400D01*
G75*
G02*
X154425700Y-89079150I0J-268750D01*
G01*
X154425700Y-90041650D01*
G75*
G02*
X154156950Y-90310400I-268750J0D01*
G01*
X153619450Y-90310400D01*
G75*
G02*
X153350700Y-90041650I0J268750D01*
G01*
G37*
%TD*%
%TO.C,C6*%
G36*
G01*
X160288050Y-89604800D02*
X161250550Y-89604800D01*
G75*
G02*
X161519300Y-89873550I0J-268750D01*
G01*
X161519300Y-90411050D01*
G75*
G02*
X161250550Y-90679800I-268750J0D01*
G01*
X160288050Y-90679800D01*
G75*
G02*
X160019300Y-90411050I0J268750D01*
G01*
X160019300Y-89873550D01*
G75*
G02*
X160288050Y-89604800I268750J0D01*
G01*
G37*
G36*
G01*
X160288050Y-87729800D02*
X161250550Y-87729800D01*
G75*
G02*
X161519300Y-87998550I0J-268750D01*
G01*
X161519300Y-88536050D01*
G75*
G02*
X161250550Y-88804800I-268750J0D01*
G01*
X160288050Y-88804800D01*
G75*
G02*
X160019300Y-88536050I0J268750D01*
G01*
X160019300Y-87998550D01*
G75*
G02*
X160288050Y-87729800I268750J0D01*
G01*
G37*
%TD*%
%TO.C,C5*%
G36*
G01*
X156419500Y-98106150D02*
X156419500Y-97143650D01*
G75*
G02*
X156688250Y-96874900I268750J0D01*
G01*
X157225750Y-96874900D01*
G75*
G02*
X157494500Y-97143650I0J-268750D01*
G01*
X157494500Y-98106150D01*
G75*
G02*
X157225750Y-98374900I-268750J0D01*
G01*
X156688250Y-98374900D01*
G75*
G02*
X156419500Y-98106150I0J268750D01*
G01*
G37*
G36*
G01*
X154544500Y-98106150D02*
X154544500Y-97143650D01*
G75*
G02*
X154813250Y-96874900I268750J0D01*
G01*
X155350750Y-96874900D01*
G75*
G02*
X155619500Y-97143650I0J-268750D01*
G01*
X155619500Y-98106150D01*
G75*
G02*
X155350750Y-98374900I-268750J0D01*
G01*
X154813250Y-98374900D01*
G75*
G02*
X154544500Y-98106150I0J268750D01*
G01*
G37*
%TD*%
%TO.C,C4*%
G36*
G01*
X142690900Y-85688250D02*
X142690900Y-86650750D01*
G75*
G02*
X142422150Y-86919500I-268750J0D01*
G01*
X141884650Y-86919500D01*
G75*
G02*
X141615900Y-86650750I0J268750D01*
G01*
X141615900Y-85688250D01*
G75*
G02*
X141884650Y-85419500I268750J0D01*
G01*
X142422150Y-85419500D01*
G75*
G02*
X142690900Y-85688250I0J-268750D01*
G01*
G37*
G36*
G01*
X144565900Y-85688250D02*
X144565900Y-86650750D01*
G75*
G02*
X144297150Y-86919500I-268750J0D01*
G01*
X143759650Y-86919500D01*
G75*
G02*
X143490900Y-86650750I0J268750D01*
G01*
X143490900Y-85688250D01*
G75*
G02*
X143759650Y-85419500I268750J0D01*
G01*
X144297150Y-85419500D01*
G75*
G02*
X144565900Y-85688250I0J-268750D01*
G01*
G37*
%TD*%
%TO.C,C3*%
G36*
G01*
X142820200Y-88952150D02*
X142820200Y-89914650D01*
G75*
G02*
X142551450Y-90183400I-268750J0D01*
G01*
X142013950Y-90183400D01*
G75*
G02*
X141745200Y-89914650I0J268750D01*
G01*
X141745200Y-88952150D01*
G75*
G02*
X142013950Y-88683400I268750J0D01*
G01*
X142551450Y-88683400D01*
G75*
G02*
X142820200Y-88952150I0J-268750D01*
G01*
G37*
G36*
G01*
X144695200Y-88952150D02*
X144695200Y-89914650D01*
G75*
G02*
X144426450Y-90183400I-268750J0D01*
G01*
X143888950Y-90183400D01*
G75*
G02*
X143620200Y-89914650I0J268750D01*
G01*
X143620200Y-88952150D01*
G75*
G02*
X143888950Y-88683400I268750J0D01*
G01*
X144426450Y-88683400D01*
G75*
G02*
X144695200Y-88952150I0J-268750D01*
G01*
G37*
%TD*%
%TO.C,C2*%
G36*
G01*
X148710600Y-90219450D02*
X148710600Y-89256950D01*
G75*
G02*
X148979350Y-88988200I268750J0D01*
G01*
X149516850Y-88988200D01*
G75*
G02*
X149785600Y-89256950I0J-268750D01*
G01*
X149785600Y-90219450D01*
G75*
G02*
X149516850Y-90488200I-268750J0D01*
G01*
X148979350Y-90488200D01*
G75*
G02*
X148710600Y-90219450I0J268750D01*
G01*
G37*
G36*
G01*
X146835600Y-90219450D02*
X146835600Y-89256950D01*
G75*
G02*
X147104350Y-88988200I268750J0D01*
G01*
X147641850Y-88988200D01*
G75*
G02*
X147910600Y-89256950I0J-268750D01*
G01*
X147910600Y-90219450D01*
G75*
G02*
X147641850Y-90488200I-268750J0D01*
G01*
X147104350Y-90488200D01*
G75*
G02*
X146835600Y-90219450I0J268750D01*
G01*
G37*
%TD*%
%TO.C,C1*%
G36*
G01*
X148647100Y-86777750D02*
X148647100Y-85815250D01*
G75*
G02*
X148915850Y-85546500I268750J0D01*
G01*
X149453350Y-85546500D01*
G75*
G02*
X149722100Y-85815250I0J-268750D01*
G01*
X149722100Y-86777750D01*
G75*
G02*
X149453350Y-87046500I-268750J0D01*
G01*
X148915850Y-87046500D01*
G75*
G02*
X148647100Y-86777750I0J268750D01*
G01*
G37*
G36*
G01*
X146772100Y-86777750D02*
X146772100Y-85815250D01*
G75*
G02*
X147040850Y-85546500I268750J0D01*
G01*
X147578350Y-85546500D01*
G75*
G02*
X147847100Y-85815250I0J-268750D01*
G01*
X147847100Y-86777750D01*
G75*
G02*
X147578350Y-87046500I-268750J0D01*
G01*
X147040850Y-87046500D01*
G75*
G02*
X146772100Y-86777750I0J268750D01*
G01*
G37*
%TD*%
M02*
