%TF.GenerationSoftware,KiCad,Pcbnew,(5.1.6)-1*%
%TF.CreationDate,2020-08-14T18:03:55-05:00*%
%TF.ProjectId,CAN sniffer,43414e20-736e-4696-9666-65722e6b6963,rev?*%
%TF.SameCoordinates,Original*%
%TF.FileFunction,Paste,Top*%
%TF.FilePolarity,Positive*%
%FSLAX46Y46*%
G04 Gerber Fmt 4.6, Leading zero omitted, Abs format (unit mm)*
G04 Created by KiCad (PCBNEW (5.1.6)-1) date 2020-08-14 18:03:55*
%MOMM*%
%LPD*%
G01*
G04 APERTURE LIST*
%ADD10R,0.700000X1.000000*%
%ADD11R,0.600000X1.950000*%
G04 APERTURE END LIST*
%TO.C,C7*%
G36*
G01*
X155690250Y-95115800D02*
X156602750Y-95115800D01*
G75*
G02*
X156846500Y-95359550I0J-243750D01*
G01*
X156846500Y-95847050D01*
G75*
G02*
X156602750Y-96090800I-243750J0D01*
G01*
X155690250Y-96090800D01*
G75*
G02*
X155446500Y-95847050I0J243750D01*
G01*
X155446500Y-95359550D01*
G75*
G02*
X155690250Y-95115800I243750J0D01*
G01*
G37*
G36*
G01*
X155690250Y-93240800D02*
X156602750Y-93240800D01*
G75*
G02*
X156846500Y-93484550I0J-243750D01*
G01*
X156846500Y-93972050D01*
G75*
G02*
X156602750Y-94215800I-243750J0D01*
G01*
X155690250Y-94215800D01*
G75*
G02*
X155446500Y-93972050I0J243750D01*
G01*
X155446500Y-93484550D01*
G75*
G02*
X155690250Y-93240800I243750J0D01*
G01*
G37*
%TD*%
D10*
%TO.C,U3*%
X137401300Y-111182000D03*
X136451300Y-108782000D03*
X138351300Y-108782000D03*
%TD*%
D11*
%TO.C,U2*%
X146113500Y-103518700D03*
X144843500Y-103518700D03*
X143573500Y-103518700D03*
X142303500Y-103518700D03*
X141033500Y-103518700D03*
X139763500Y-103518700D03*
X138493500Y-103518700D03*
X137223500Y-103518700D03*
X135953500Y-103518700D03*
X134683500Y-103518700D03*
X134683500Y-94118700D03*
X135953500Y-94118700D03*
X137223500Y-94118700D03*
X138493500Y-94118700D03*
X139763500Y-94118700D03*
X141033500Y-94118700D03*
X142303500Y-94118700D03*
X143573500Y-94118700D03*
X144843500Y-94118700D03*
X146113500Y-94118700D03*
%TD*%
%TO.C,R3*%
G36*
G01*
X151664350Y-103916900D02*
X152576850Y-103916900D01*
G75*
G02*
X152820600Y-104160650I0J-243750D01*
G01*
X152820600Y-104648150D01*
G75*
G02*
X152576850Y-104891900I-243750J0D01*
G01*
X151664350Y-104891900D01*
G75*
G02*
X151420600Y-104648150I0J243750D01*
G01*
X151420600Y-104160650D01*
G75*
G02*
X151664350Y-103916900I243750J0D01*
G01*
G37*
G36*
G01*
X151664350Y-102041900D02*
X152576850Y-102041900D01*
G75*
G02*
X152820600Y-102285650I0J-243750D01*
G01*
X152820600Y-102773150D01*
G75*
G02*
X152576850Y-103016900I-243750J0D01*
G01*
X151664350Y-103016900D01*
G75*
G02*
X151420600Y-102773150I0J243750D01*
G01*
X151420600Y-102285650D01*
G75*
G02*
X151664350Y-102041900I243750J0D01*
G01*
G37*
%TD*%
%TO.C,R2*%
G36*
G01*
X154966350Y-103916900D02*
X155878850Y-103916900D01*
G75*
G02*
X156122600Y-104160650I0J-243750D01*
G01*
X156122600Y-104648150D01*
G75*
G02*
X155878850Y-104891900I-243750J0D01*
G01*
X154966350Y-104891900D01*
G75*
G02*
X154722600Y-104648150I0J243750D01*
G01*
X154722600Y-104160650D01*
G75*
G02*
X154966350Y-103916900I243750J0D01*
G01*
G37*
G36*
G01*
X154966350Y-102041900D02*
X155878850Y-102041900D01*
G75*
G02*
X156122600Y-102285650I0J-243750D01*
G01*
X156122600Y-102773150D01*
G75*
G02*
X155878850Y-103016900I-243750J0D01*
G01*
X154966350Y-103016900D01*
G75*
G02*
X154722600Y-102773150I0J243750D01*
G01*
X154722600Y-102285650D01*
G75*
G02*
X154966350Y-102041900I243750J0D01*
G01*
G37*
%TD*%
%TO.C,R1*%
G36*
G01*
X133723800Y-109257150D02*
X133723800Y-108344650D01*
G75*
G02*
X133967550Y-108100900I243750J0D01*
G01*
X134455050Y-108100900D01*
G75*
G02*
X134698800Y-108344650I0J-243750D01*
G01*
X134698800Y-109257150D01*
G75*
G02*
X134455050Y-109500900I-243750J0D01*
G01*
X133967550Y-109500900D01*
G75*
G02*
X133723800Y-109257150I0J243750D01*
G01*
G37*
G36*
G01*
X131848800Y-109257150D02*
X131848800Y-108344650D01*
G75*
G02*
X132092550Y-108100900I243750J0D01*
G01*
X132580050Y-108100900D01*
G75*
G02*
X132823800Y-108344650I0J-243750D01*
G01*
X132823800Y-109257150D01*
G75*
G02*
X132580050Y-109500900I-243750J0D01*
G01*
X132092550Y-109500900D01*
G75*
G02*
X131848800Y-109257150I0J243750D01*
G01*
G37*
%TD*%
%TO.C,L2*%
G36*
G01*
X143655200Y-111428850D02*
X143655200Y-110516350D01*
G75*
G02*
X143898950Y-110272600I243750J0D01*
G01*
X144386450Y-110272600D01*
G75*
G02*
X144630200Y-110516350I0J-243750D01*
G01*
X144630200Y-111428850D01*
G75*
G02*
X144386450Y-111672600I-243750J0D01*
G01*
X143898950Y-111672600D01*
G75*
G02*
X143655200Y-111428850I0J243750D01*
G01*
G37*
G36*
G01*
X141780200Y-111428850D02*
X141780200Y-110516350D01*
G75*
G02*
X142023950Y-110272600I243750J0D01*
G01*
X142511450Y-110272600D01*
G75*
G02*
X142755200Y-110516350I0J-243750D01*
G01*
X142755200Y-111428850D01*
G75*
G02*
X142511450Y-111672600I-243750J0D01*
G01*
X142023950Y-111672600D01*
G75*
G02*
X141780200Y-111428850I0J243750D01*
G01*
G37*
%TD*%
%TO.C,L1*%
G36*
G01*
X142232800Y-107809350D02*
X142232800Y-106896850D01*
G75*
G02*
X142476550Y-106653100I243750J0D01*
G01*
X142964050Y-106653100D01*
G75*
G02*
X143207800Y-106896850I0J-243750D01*
G01*
X143207800Y-107809350D01*
G75*
G02*
X142964050Y-108053100I-243750J0D01*
G01*
X142476550Y-108053100D01*
G75*
G02*
X142232800Y-107809350I0J243750D01*
G01*
G37*
G36*
G01*
X140357800Y-107809350D02*
X140357800Y-106896850D01*
G75*
G02*
X140601550Y-106653100I243750J0D01*
G01*
X141089050Y-106653100D01*
G75*
G02*
X141332800Y-106896850I0J-243750D01*
G01*
X141332800Y-107809350D01*
G75*
G02*
X141089050Y-108053100I-243750J0D01*
G01*
X140601550Y-108053100D01*
G75*
G02*
X140357800Y-107809350I0J243750D01*
G01*
G37*
%TD*%
%TO.C,C8*%
G36*
G01*
X159043050Y-95217400D02*
X159955550Y-95217400D01*
G75*
G02*
X160199300Y-95461150I0J-243750D01*
G01*
X160199300Y-95948650D01*
G75*
G02*
X159955550Y-96192400I-243750J0D01*
G01*
X159043050Y-96192400D01*
G75*
G02*
X158799300Y-95948650I0J243750D01*
G01*
X158799300Y-95461150D01*
G75*
G02*
X159043050Y-95217400I243750J0D01*
G01*
G37*
G36*
G01*
X159043050Y-93342400D02*
X159955550Y-93342400D01*
G75*
G02*
X160199300Y-93586150I0J-243750D01*
G01*
X160199300Y-94073650D01*
G75*
G02*
X159955550Y-94317400I-243750J0D01*
G01*
X159043050Y-94317400D01*
G75*
G02*
X158799300Y-94073650I0J243750D01*
G01*
X158799300Y-93586150D01*
G75*
G02*
X159043050Y-93342400I243750J0D01*
G01*
G37*
%TD*%
%TO.C,C6*%
G36*
G01*
X152439050Y-95065000D02*
X153351550Y-95065000D01*
G75*
G02*
X153595300Y-95308750I0J-243750D01*
G01*
X153595300Y-95796250D01*
G75*
G02*
X153351550Y-96040000I-243750J0D01*
G01*
X152439050Y-96040000D01*
G75*
G02*
X152195300Y-95796250I0J243750D01*
G01*
X152195300Y-95308750D01*
G75*
G02*
X152439050Y-95065000I243750J0D01*
G01*
G37*
G36*
G01*
X152439050Y-93190000D02*
X153351550Y-93190000D01*
G75*
G02*
X153595300Y-93433750I0J-243750D01*
G01*
X153595300Y-93921250D01*
G75*
G02*
X153351550Y-94165000I-243750J0D01*
G01*
X152439050Y-94165000D01*
G75*
G02*
X152195300Y-93921250I0J243750D01*
G01*
X152195300Y-93433750D01*
G75*
G02*
X152439050Y-93190000I243750J0D01*
G01*
G37*
%TD*%
%TO.C,C5*%
G36*
G01*
X146258700Y-107834750D02*
X146258700Y-106922250D01*
G75*
G02*
X146502450Y-106678500I243750J0D01*
G01*
X146989950Y-106678500D01*
G75*
G02*
X147233700Y-106922250I0J-243750D01*
G01*
X147233700Y-107834750D01*
G75*
G02*
X146989950Y-108078500I-243750J0D01*
G01*
X146502450Y-108078500D01*
G75*
G02*
X146258700Y-107834750I0J243750D01*
G01*
G37*
G36*
G01*
X144383700Y-107834750D02*
X144383700Y-106922250D01*
G75*
G02*
X144627450Y-106678500I243750J0D01*
G01*
X145114950Y-106678500D01*
G75*
G02*
X145358700Y-106922250I0J-243750D01*
G01*
X145358700Y-107834750D01*
G75*
G02*
X145114950Y-108078500I-243750J0D01*
G01*
X144627450Y-108078500D01*
G75*
G02*
X144383700Y-107834750I0J243750D01*
G01*
G37*
%TD*%
%TO.C,C4*%
G36*
G01*
X150114950Y-90226300D02*
X151027450Y-90226300D01*
G75*
G02*
X151271200Y-90470050I0J-243750D01*
G01*
X151271200Y-90957550D01*
G75*
G02*
X151027450Y-91201300I-243750J0D01*
G01*
X150114950Y-91201300D01*
G75*
G02*
X149871200Y-90957550I0J243750D01*
G01*
X149871200Y-90470050D01*
G75*
G02*
X150114950Y-90226300I243750J0D01*
G01*
G37*
G36*
G01*
X150114950Y-88351300D02*
X151027450Y-88351300D01*
G75*
G02*
X151271200Y-88595050I0J-243750D01*
G01*
X151271200Y-89082550D01*
G75*
G02*
X151027450Y-89326300I-243750J0D01*
G01*
X150114950Y-89326300D01*
G75*
G02*
X149871200Y-89082550I0J243750D01*
G01*
X149871200Y-88595050D01*
G75*
G02*
X150114950Y-88351300I243750J0D01*
G01*
G37*
%TD*%
%TO.C,C3*%
G36*
G01*
X153378850Y-90097000D02*
X154291350Y-90097000D01*
G75*
G02*
X154535100Y-90340750I0J-243750D01*
G01*
X154535100Y-90828250D01*
G75*
G02*
X154291350Y-91072000I-243750J0D01*
G01*
X153378850Y-91072000D01*
G75*
G02*
X153135100Y-90828250I0J243750D01*
G01*
X153135100Y-90340750D01*
G75*
G02*
X153378850Y-90097000I243750J0D01*
G01*
G37*
G36*
G01*
X153378850Y-88222000D02*
X154291350Y-88222000D01*
G75*
G02*
X154535100Y-88465750I0J-243750D01*
G01*
X154535100Y-88953250D01*
G75*
G02*
X154291350Y-89197000I-243750J0D01*
G01*
X153378850Y-89197000D01*
G75*
G02*
X153135100Y-88953250I0J243750D01*
G01*
X153135100Y-88465750D01*
G75*
G02*
X153378850Y-88222000I243750J0D01*
G01*
G37*
%TD*%
%TO.C,C2*%
G36*
G01*
X160401950Y-90061200D02*
X161314450Y-90061200D01*
G75*
G02*
X161558200Y-90304950I0J-243750D01*
G01*
X161558200Y-90792450D01*
G75*
G02*
X161314450Y-91036200I-243750J0D01*
G01*
X160401950Y-91036200D01*
G75*
G02*
X160158200Y-90792450I0J243750D01*
G01*
X160158200Y-90304950D01*
G75*
G02*
X160401950Y-90061200I243750J0D01*
G01*
G37*
G36*
G01*
X160401950Y-88186200D02*
X161314450Y-88186200D01*
G75*
G02*
X161558200Y-88429950I0J-243750D01*
G01*
X161558200Y-88917450D01*
G75*
G02*
X161314450Y-89161200I-243750J0D01*
G01*
X160401950Y-89161200D01*
G75*
G02*
X160158200Y-88917450I0J243750D01*
G01*
X160158200Y-88429950D01*
G75*
G02*
X160401950Y-88186200I243750J0D01*
G01*
G37*
%TD*%
%TO.C,C1*%
G36*
G01*
X156960250Y-90124700D02*
X157872750Y-90124700D01*
G75*
G02*
X158116500Y-90368450I0J-243750D01*
G01*
X158116500Y-90855950D01*
G75*
G02*
X157872750Y-91099700I-243750J0D01*
G01*
X156960250Y-91099700D01*
G75*
G02*
X156716500Y-90855950I0J243750D01*
G01*
X156716500Y-90368450D01*
G75*
G02*
X156960250Y-90124700I243750J0D01*
G01*
G37*
G36*
G01*
X156960250Y-88249700D02*
X157872750Y-88249700D01*
G75*
G02*
X158116500Y-88493450I0J-243750D01*
G01*
X158116500Y-88980950D01*
G75*
G02*
X157872750Y-89224700I-243750J0D01*
G01*
X156960250Y-89224700D01*
G75*
G02*
X156716500Y-88980950I0J243750D01*
G01*
X156716500Y-88493450D01*
G75*
G02*
X156960250Y-88249700I243750J0D01*
G01*
G37*
%TD*%
M02*
