%TF.GenerationSoftware,KiCad,Pcbnew,(5.1.6)-1*%
%TF.CreationDate,2020-08-13T15:14:37-05:00*%
%TF.ProjectId,CAN sniffer,43414e20-736e-4696-9666-65722e6b6963,rev?*%
%TF.SameCoordinates,Original*%
%TF.FileFunction,Soldermask,Top*%
%TF.FilePolarity,Negative*%
%FSLAX46Y46*%
G04 Gerber Fmt 4.6, Leading zero omitted, Abs format (unit mm)*
G04 Created by KiCad (PCBNEW (5.1.6)-1) date 2020-08-13 15:14:37*
%MOMM*%
%LPD*%
G01*
G04 APERTURE LIST*
%ADD10C,2.900000*%
%ADD11C,3.100000*%
%ADD12C,1.370000*%
%ADD13C,1.800000*%
%ADD14R,0.800000X1.100000*%
%ADD15R,0.700000X2.050000*%
%ADD16C,1.624000*%
%ADD17R,1.624000X1.624000*%
%ADD18O,1.800000X1.800000*%
%ADD19R,1.800000X1.800000*%
G04 APERTURE END LIST*
D10*
%TO.C,TP1*%
X135724900Y-87376000D03*
%TD*%
D11*
%TO.C,H4*%
X166687500Y-109943900D03*
%TD*%
%TO.C,H3*%
X102843900Y-109943900D03*
%TD*%
%TO.C,H2*%
X166687500Y-66115500D03*
%TD*%
%TO.C,H1*%
X102843900Y-66115500D03*
%TD*%
%TO.C,C7*%
G36*
G01*
X151829850Y-94316500D02*
X152792350Y-94316500D01*
G75*
G02*
X153061100Y-94585250I0J-268750D01*
G01*
X153061100Y-95122750D01*
G75*
G02*
X152792350Y-95391500I-268750J0D01*
G01*
X151829850Y-95391500D01*
G75*
G02*
X151561100Y-95122750I0J268750D01*
G01*
X151561100Y-94585250D01*
G75*
G02*
X151829850Y-94316500I268750J0D01*
G01*
G37*
G36*
G01*
X151829850Y-92441500D02*
X152792350Y-92441500D01*
G75*
G02*
X153061100Y-92710250I0J-268750D01*
G01*
X153061100Y-93247750D01*
G75*
G02*
X152792350Y-93516500I-268750J0D01*
G01*
X151829850Y-93516500D01*
G75*
G02*
X151561100Y-93247750I0J268750D01*
G01*
X151561100Y-92710250D01*
G75*
G02*
X151829850Y-92441500I268750J0D01*
G01*
G37*
%TD*%
D10*
%TO.C,TP4*%
X150507700Y-108343700D03*
%TD*%
%TO.C,TP3*%
X155689300Y-108407200D03*
%TD*%
%TO.C,TP2*%
X145707100Y-86385400D03*
%TD*%
D12*
%TO.C,J2*%
X168355400Y-90395800D03*
D13*
X166395400Y-99395800D03*
X166395400Y-96395800D03*
X166395400Y-93395800D03*
D12*
X168355400Y-105395800D03*
D13*
X166395400Y-102395800D03*
%TD*%
D14*
%TO.C,U3*%
X137401300Y-111182000D03*
X136451300Y-108782000D03*
X138351300Y-108782000D03*
%TD*%
D15*
%TO.C,U2*%
X146113500Y-103518700D03*
X144843500Y-103518700D03*
X143573500Y-103518700D03*
X142303500Y-103518700D03*
X141033500Y-103518700D03*
X139763500Y-103518700D03*
X138493500Y-103518700D03*
X137223500Y-103518700D03*
X135953500Y-103518700D03*
X134683500Y-103518700D03*
X134683500Y-94118700D03*
X135953500Y-94118700D03*
X137223500Y-94118700D03*
X138493500Y-94118700D03*
X139763500Y-94118700D03*
X141033500Y-94118700D03*
X142303500Y-94118700D03*
X143573500Y-94118700D03*
X144843500Y-94118700D03*
X146113500Y-94118700D03*
%TD*%
D16*
%TO.C,U1*%
X115570000Y-66040000D03*
X118110000Y-66040000D03*
X120650000Y-66040000D03*
X123190000Y-66040000D03*
X125730000Y-66040000D03*
X128270000Y-66040000D03*
X130810000Y-66040000D03*
X133350000Y-66040000D03*
X135890000Y-66040000D03*
X138430000Y-66040000D03*
X140970000Y-66040000D03*
X143510000Y-66040000D03*
X146050000Y-66040000D03*
X148590000Y-66040000D03*
X151130000Y-66040000D03*
X151130000Y-81280000D03*
X148590000Y-81280000D03*
X146050000Y-81280000D03*
X143510000Y-81280000D03*
X140970000Y-81280000D03*
X138430000Y-81280000D03*
X135890000Y-81280000D03*
X133350000Y-81280000D03*
X130810000Y-81280000D03*
X128270000Y-81280000D03*
X125730000Y-81280000D03*
X123190000Y-81280000D03*
X120650000Y-81280000D03*
X118110000Y-81280000D03*
D17*
X115570000Y-81280000D03*
%TD*%
%TO.C,R3*%
G36*
G01*
X151639350Y-103866900D02*
X152601850Y-103866900D01*
G75*
G02*
X152870600Y-104135650I0J-268750D01*
G01*
X152870600Y-104673150D01*
G75*
G02*
X152601850Y-104941900I-268750J0D01*
G01*
X151639350Y-104941900D01*
G75*
G02*
X151370600Y-104673150I0J268750D01*
G01*
X151370600Y-104135650D01*
G75*
G02*
X151639350Y-103866900I268750J0D01*
G01*
G37*
G36*
G01*
X151639350Y-101991900D02*
X152601850Y-101991900D01*
G75*
G02*
X152870600Y-102260650I0J-268750D01*
G01*
X152870600Y-102798150D01*
G75*
G02*
X152601850Y-103066900I-268750J0D01*
G01*
X151639350Y-103066900D01*
G75*
G02*
X151370600Y-102798150I0J268750D01*
G01*
X151370600Y-102260650D01*
G75*
G02*
X151639350Y-101991900I268750J0D01*
G01*
G37*
%TD*%
%TO.C,R2*%
G36*
G01*
X154941350Y-103866900D02*
X155903850Y-103866900D01*
G75*
G02*
X156172600Y-104135650I0J-268750D01*
G01*
X156172600Y-104673150D01*
G75*
G02*
X155903850Y-104941900I-268750J0D01*
G01*
X154941350Y-104941900D01*
G75*
G02*
X154672600Y-104673150I0J268750D01*
G01*
X154672600Y-104135650D01*
G75*
G02*
X154941350Y-103866900I268750J0D01*
G01*
G37*
G36*
G01*
X154941350Y-101991900D02*
X155903850Y-101991900D01*
G75*
G02*
X156172600Y-102260650I0J-268750D01*
G01*
X156172600Y-102798150D01*
G75*
G02*
X155903850Y-103066900I-268750J0D01*
G01*
X154941350Y-103066900D01*
G75*
G02*
X154672600Y-102798150I0J268750D01*
G01*
X154672600Y-102260650D01*
G75*
G02*
X154941350Y-101991900I268750J0D01*
G01*
G37*
%TD*%
%TO.C,R1*%
G36*
G01*
X133673800Y-109282150D02*
X133673800Y-108319650D01*
G75*
G02*
X133942550Y-108050900I268750J0D01*
G01*
X134480050Y-108050900D01*
G75*
G02*
X134748800Y-108319650I0J-268750D01*
G01*
X134748800Y-109282150D01*
G75*
G02*
X134480050Y-109550900I-268750J0D01*
G01*
X133942550Y-109550900D01*
G75*
G02*
X133673800Y-109282150I0J268750D01*
G01*
G37*
G36*
G01*
X131798800Y-109282150D02*
X131798800Y-108319650D01*
G75*
G02*
X132067550Y-108050900I268750J0D01*
G01*
X132605050Y-108050900D01*
G75*
G02*
X132873800Y-108319650I0J-268750D01*
G01*
X132873800Y-109282150D01*
G75*
G02*
X132605050Y-109550900I-268750J0D01*
G01*
X132067550Y-109550900D01*
G75*
G02*
X131798800Y-109282150I0J268750D01*
G01*
G37*
%TD*%
%TO.C,L2*%
G36*
G01*
X143605200Y-111453850D02*
X143605200Y-110491350D01*
G75*
G02*
X143873950Y-110222600I268750J0D01*
G01*
X144411450Y-110222600D01*
G75*
G02*
X144680200Y-110491350I0J-268750D01*
G01*
X144680200Y-111453850D01*
G75*
G02*
X144411450Y-111722600I-268750J0D01*
G01*
X143873950Y-111722600D01*
G75*
G02*
X143605200Y-111453850I0J268750D01*
G01*
G37*
G36*
G01*
X141730200Y-111453850D02*
X141730200Y-110491350D01*
G75*
G02*
X141998950Y-110222600I268750J0D01*
G01*
X142536450Y-110222600D01*
G75*
G02*
X142805200Y-110491350I0J-268750D01*
G01*
X142805200Y-111453850D01*
G75*
G02*
X142536450Y-111722600I-268750J0D01*
G01*
X141998950Y-111722600D01*
G75*
G02*
X141730200Y-111453850I0J268750D01*
G01*
G37*
%TD*%
%TO.C,L1*%
G36*
G01*
X142182800Y-107834350D02*
X142182800Y-106871850D01*
G75*
G02*
X142451550Y-106603100I268750J0D01*
G01*
X142989050Y-106603100D01*
G75*
G02*
X143257800Y-106871850I0J-268750D01*
G01*
X143257800Y-107834350D01*
G75*
G02*
X142989050Y-108103100I-268750J0D01*
G01*
X142451550Y-108103100D01*
G75*
G02*
X142182800Y-107834350I0J268750D01*
G01*
G37*
G36*
G01*
X140307800Y-107834350D02*
X140307800Y-106871850D01*
G75*
G02*
X140576550Y-106603100I268750J0D01*
G01*
X141114050Y-106603100D01*
G75*
G02*
X141382800Y-106871850I0J-268750D01*
G01*
X141382800Y-107834350D01*
G75*
G02*
X141114050Y-108103100I-268750J0D01*
G01*
X140576550Y-108103100D01*
G75*
G02*
X140307800Y-107834350I0J268750D01*
G01*
G37*
%TD*%
D18*
%TO.C,JP1*%
X152501600Y-99352100D03*
D19*
X155041600Y-99352100D03*
%TD*%
D12*
%TO.C,J1*%
X168355400Y-71650600D03*
D13*
X166395400Y-80650600D03*
X166395400Y-77650600D03*
X166395400Y-74650600D03*
D12*
X168355400Y-86650600D03*
D13*
X166395400Y-83650600D03*
%TD*%
%TO.C,C8*%
G36*
G01*
X155182650Y-94418100D02*
X156145150Y-94418100D01*
G75*
G02*
X156413900Y-94686850I0J-268750D01*
G01*
X156413900Y-95224350D01*
G75*
G02*
X156145150Y-95493100I-268750J0D01*
G01*
X155182650Y-95493100D01*
G75*
G02*
X154913900Y-95224350I0J268750D01*
G01*
X154913900Y-94686850D01*
G75*
G02*
X155182650Y-94418100I268750J0D01*
G01*
G37*
G36*
G01*
X155182650Y-92543100D02*
X156145150Y-92543100D01*
G75*
G02*
X156413900Y-92811850I0J-268750D01*
G01*
X156413900Y-93349350D01*
G75*
G02*
X156145150Y-93618100I-268750J0D01*
G01*
X155182650Y-93618100D01*
G75*
G02*
X154913900Y-93349350I0J268750D01*
G01*
X154913900Y-92811850D01*
G75*
G02*
X155182650Y-92543100I268750J0D01*
G01*
G37*
%TD*%
%TO.C,C6*%
G36*
G01*
X148578650Y-94265700D02*
X149541150Y-94265700D01*
G75*
G02*
X149809900Y-94534450I0J-268750D01*
G01*
X149809900Y-95071950D01*
G75*
G02*
X149541150Y-95340700I-268750J0D01*
G01*
X148578650Y-95340700D01*
G75*
G02*
X148309900Y-95071950I0J268750D01*
G01*
X148309900Y-94534450D01*
G75*
G02*
X148578650Y-94265700I268750J0D01*
G01*
G37*
G36*
G01*
X148578650Y-92390700D02*
X149541150Y-92390700D01*
G75*
G02*
X149809900Y-92659450I0J-268750D01*
G01*
X149809900Y-93196950D01*
G75*
G02*
X149541150Y-93465700I-268750J0D01*
G01*
X148578650Y-93465700D01*
G75*
G02*
X148309900Y-93196950I0J268750D01*
G01*
X148309900Y-92659450D01*
G75*
G02*
X148578650Y-92390700I268750J0D01*
G01*
G37*
%TD*%
%TO.C,C5*%
G36*
G01*
X146208700Y-107859750D02*
X146208700Y-106897250D01*
G75*
G02*
X146477450Y-106628500I268750J0D01*
G01*
X147014950Y-106628500D01*
G75*
G02*
X147283700Y-106897250I0J-268750D01*
G01*
X147283700Y-107859750D01*
G75*
G02*
X147014950Y-108128500I-268750J0D01*
G01*
X146477450Y-108128500D01*
G75*
G02*
X146208700Y-107859750I0J268750D01*
G01*
G37*
G36*
G01*
X144333700Y-107859750D02*
X144333700Y-106897250D01*
G75*
G02*
X144602450Y-106628500I268750J0D01*
G01*
X145139950Y-106628500D01*
G75*
G02*
X145408700Y-106897250I0J-268750D01*
G01*
X145408700Y-107859750D01*
G75*
G02*
X145139950Y-108128500I-268750J0D01*
G01*
X144602450Y-108128500D01*
G75*
G02*
X144333700Y-107859750I0J268750D01*
G01*
G37*
%TD*%
%TO.C,C4*%
G36*
G01*
X149480350Y-85439200D02*
X150442850Y-85439200D01*
G75*
G02*
X150711600Y-85707950I0J-268750D01*
G01*
X150711600Y-86245450D01*
G75*
G02*
X150442850Y-86514200I-268750J0D01*
G01*
X149480350Y-86514200D01*
G75*
G02*
X149211600Y-86245450I0J268750D01*
G01*
X149211600Y-85707950D01*
G75*
G02*
X149480350Y-85439200I268750J0D01*
G01*
G37*
G36*
G01*
X149480350Y-83564200D02*
X150442850Y-83564200D01*
G75*
G02*
X150711600Y-83832950I0J-268750D01*
G01*
X150711600Y-84370450D01*
G75*
G02*
X150442850Y-84639200I-268750J0D01*
G01*
X149480350Y-84639200D01*
G75*
G02*
X149211600Y-84370450I0J268750D01*
G01*
X149211600Y-83832950D01*
G75*
G02*
X149480350Y-83564200I268750J0D01*
G01*
G37*
%TD*%
%TO.C,C3*%
G36*
G01*
X152744250Y-85309900D02*
X153706750Y-85309900D01*
G75*
G02*
X153975500Y-85578650I0J-268750D01*
G01*
X153975500Y-86116150D01*
G75*
G02*
X153706750Y-86384900I-268750J0D01*
G01*
X152744250Y-86384900D01*
G75*
G02*
X152475500Y-86116150I0J268750D01*
G01*
X152475500Y-85578650D01*
G75*
G02*
X152744250Y-85309900I268750J0D01*
G01*
G37*
G36*
G01*
X152744250Y-83434900D02*
X153706750Y-83434900D01*
G75*
G02*
X153975500Y-83703650I0J-268750D01*
G01*
X153975500Y-84241150D01*
G75*
G02*
X153706750Y-84509900I-268750J0D01*
G01*
X152744250Y-84509900D01*
G75*
G02*
X152475500Y-84241150I0J268750D01*
G01*
X152475500Y-83703650D01*
G75*
G02*
X152744250Y-83434900I268750J0D01*
G01*
G37*
%TD*%
%TO.C,C2*%
G36*
G01*
X152807750Y-88893600D02*
X153770250Y-88893600D01*
G75*
G02*
X154039000Y-89162350I0J-268750D01*
G01*
X154039000Y-89699850D01*
G75*
G02*
X153770250Y-89968600I-268750J0D01*
G01*
X152807750Y-89968600D01*
G75*
G02*
X152539000Y-89699850I0J268750D01*
G01*
X152539000Y-89162350D01*
G75*
G02*
X152807750Y-88893600I268750J0D01*
G01*
G37*
G36*
G01*
X152807750Y-87018600D02*
X153770250Y-87018600D01*
G75*
G02*
X154039000Y-87287350I0J-268750D01*
G01*
X154039000Y-87824850D01*
G75*
G02*
X153770250Y-88093600I-268750J0D01*
G01*
X152807750Y-88093600D01*
G75*
G02*
X152539000Y-87824850I0J268750D01*
G01*
X152539000Y-87287350D01*
G75*
G02*
X152807750Y-87018600I268750J0D01*
G01*
G37*
%TD*%
%TO.C,C1*%
G36*
G01*
X149366050Y-88957100D02*
X150328550Y-88957100D01*
G75*
G02*
X150597300Y-89225850I0J-268750D01*
G01*
X150597300Y-89763350D01*
G75*
G02*
X150328550Y-90032100I-268750J0D01*
G01*
X149366050Y-90032100D01*
G75*
G02*
X149097300Y-89763350I0J268750D01*
G01*
X149097300Y-89225850D01*
G75*
G02*
X149366050Y-88957100I268750J0D01*
G01*
G37*
G36*
G01*
X149366050Y-87082100D02*
X150328550Y-87082100D01*
G75*
G02*
X150597300Y-87350850I0J-268750D01*
G01*
X150597300Y-87888350D01*
G75*
G02*
X150328550Y-88157100I-268750J0D01*
G01*
X149366050Y-88157100D01*
G75*
G02*
X149097300Y-87888350I0J268750D01*
G01*
X149097300Y-87350850D01*
G75*
G02*
X149366050Y-87082100I268750J0D01*
G01*
G37*
%TD*%
M02*
