%TF.GenerationSoftware,KiCad,Pcbnew,(5.1.6)-1*%
%TF.CreationDate,2020-08-13T15:14:37-05:00*%
%TF.ProjectId,CAN sniffer,43414e20-736e-4696-9666-65722e6b6963,rev?*%
%TF.SameCoordinates,Original*%
%TF.FileFunction,Copper,L2,Bot*%
%TF.FilePolarity,Positive*%
%FSLAX46Y46*%
G04 Gerber Fmt 4.6, Leading zero omitted, Abs format (unit mm)*
G04 Created by KiCad (PCBNEW (5.1.6)-1) date 2020-08-13 15:14:37*
%MOMM*%
%LPD*%
G01*
G04 APERTURE LIST*
%TA.AperFunction,ComponentPad*%
%ADD10C,2.800000*%
%TD*%
%TA.AperFunction,ComponentPad*%
%ADD11C,1.700000*%
%TD*%
%TA.AperFunction,ComponentPad*%
%ADD12C,1.524000*%
%TD*%
%TA.AperFunction,ComponentPad*%
%ADD13R,1.524000X1.524000*%
%TD*%
%TA.AperFunction,ComponentPad*%
%ADD14O,1.700000X1.700000*%
%TD*%
%TA.AperFunction,ComponentPad*%
%ADD15R,1.700000X1.700000*%
%TD*%
%TA.AperFunction,ViaPad*%
%ADD16C,0.800000*%
%TD*%
%TA.AperFunction,Conductor*%
%ADD17C,0.250000*%
%TD*%
G04 APERTURE END LIST*
D10*
%TO.P,TP1,1*%
%TO.N,/CAN_Tx*%
X135724900Y-87376000D03*
%TD*%
%TO.P,TP4,1*%
%TO.N,/CAN_L*%
X150507700Y-108343700D03*
%TD*%
%TO.P,TP3,1*%
%TO.N,/CAN_H*%
X155689300Y-108407200D03*
%TD*%
%TO.P,TP2,1*%
%TO.N,/CAN_Rx*%
X145707100Y-86385400D03*
%TD*%
D11*
%TO.P,J2,3*%
%TO.N,/CAN_H*%
X166395400Y-99395800D03*
%TO.P,J2,2*%
%TO.N,Net-(C6-Pad2)*%
X166395400Y-96395800D03*
%TO.P,J2,1*%
%TO.N,Net-(C6-Pad1)*%
X166395400Y-93395800D03*
%TO.P,J2,4*%
%TO.N,/CAN_L*%
X166395400Y-102395800D03*
%TD*%
D12*
%TO.P,U1,30*%
%TO.N,Net-(U1-Pad30)*%
X115570000Y-66040000D03*
%TO.P,U1,29*%
%TO.N,GND*%
X118110000Y-66040000D03*
%TO.P,U1,28*%
%TO.N,Net-(U1-Pad28)*%
X120650000Y-66040000D03*
%TO.P,U1,27*%
%TO.N,+5V*%
X123190000Y-66040000D03*
%TO.P,U1,26*%
%TO.N,Net-(U1-Pad26)*%
X125730000Y-66040000D03*
%TO.P,U1,25*%
%TO.N,Net-(U1-Pad25)*%
X128270000Y-66040000D03*
%TO.P,U1,24*%
%TO.N,Net-(U1-Pad24)*%
X130810000Y-66040000D03*
%TO.P,U1,23*%
%TO.N,Net-(U1-Pad23)*%
X133350000Y-66040000D03*
%TO.P,U1,22*%
%TO.N,Net-(U1-Pad22)*%
X135890000Y-66040000D03*
%TO.P,U1,21*%
%TO.N,Net-(U1-Pad21)*%
X138430000Y-66040000D03*
%TO.P,U1,20*%
%TO.N,Net-(U1-Pad20)*%
X140970000Y-66040000D03*
%TO.P,U1,19*%
%TO.N,Net-(U1-Pad19)*%
X143510000Y-66040000D03*
%TO.P,U1,18*%
%TO.N,Net-(U1-Pad18)*%
X146050000Y-66040000D03*
%TO.P,U1,17*%
%TO.N,+3V3*%
X148590000Y-66040000D03*
%TO.P,U1,16*%
%TO.N,Net-(U1-Pad16)*%
X151130000Y-66040000D03*
%TO.P,U1,15*%
%TO.N,Net-(U1-Pad15)*%
X151130000Y-81280000D03*
%TO.P,U1,14*%
%TO.N,Net-(U1-Pad14)*%
X148590000Y-81280000D03*
%TO.P,U1,13*%
%TO.N,/CAN_Rx*%
X146050000Y-81280000D03*
%TO.P,U1,12*%
%TO.N,Net-(U1-Pad12)*%
X143510000Y-81280000D03*
%TO.P,U1,11*%
%TO.N,Net-(U1-Pad11)*%
X140970000Y-81280000D03*
%TO.P,U1,10*%
%TO.N,Net-(U1-Pad10)*%
X138430000Y-81280000D03*
%TO.P,U1,9*%
%TO.N,Net-(U1-Pad9)*%
X135890000Y-81280000D03*
%TO.P,U1,8*%
%TO.N,Net-(U1-Pad8)*%
X133350000Y-81280000D03*
%TO.P,U1,7*%
%TO.N,Net-(U1-Pad7)*%
X130810000Y-81280000D03*
%TO.P,U1,6*%
%TO.N,Net-(U1-Pad6)*%
X128270000Y-81280000D03*
%TO.P,U1,5*%
%TO.N,/CAN_Tx*%
X125730000Y-81280000D03*
%TO.P,U1,4*%
%TO.N,GND*%
X123190000Y-81280000D03*
%TO.P,U1,3*%
%TO.N,Net-(U1-Pad3)*%
X120650000Y-81280000D03*
%TO.P,U1,2*%
%TO.N,Net-(U1-Pad2)*%
X118110000Y-81280000D03*
D13*
%TO.P,U1,1*%
%TO.N,Net-(U1-Pad1)*%
X115570000Y-81280000D03*
%TD*%
D14*
%TO.P,JP1,2*%
%TO.N,Net-(JP1-Pad2)*%
X152501600Y-99352100D03*
D15*
%TO.P,JP1,1*%
%TO.N,Net-(JP1-Pad1)*%
X155041600Y-99352100D03*
%TD*%
D11*
%TO.P,J1,3*%
%TO.N,/CAN_H*%
X166395400Y-80650600D03*
%TO.P,J1,2*%
%TO.N,Net-(C6-Pad2)*%
X166395400Y-77650600D03*
%TO.P,J1,1*%
%TO.N,Net-(C6-Pad1)*%
X166395400Y-74650600D03*
%TO.P,J1,4*%
%TO.N,/CAN_L*%
X166395400Y-83650600D03*
%TD*%
D16*
%TO.N,+5V*%
X143230600Y-88874600D03*
X148006950Y-88786850D03*
X143573500Y-94118700D03*
%TO.N,Net-(C6-Pad2)*%
X142621000Y-101242100D03*
X139763500Y-103518700D03*
X139750800Y-105079800D03*
X134683500Y-105587800D03*
X162252900Y-94955600D03*
%TO.N,/CAN_H*%
X146850100Y-99606100D03*
X139026900Y-99733100D03*
%TO.N,/CAN_L*%
X145237200Y-100355400D03*
X137223500Y-103518700D03*
%TD*%
D17*
%TO.N,+5V*%
X147919200Y-88874600D02*
X148006950Y-88786850D01*
X143230600Y-88874600D02*
X147919200Y-88874600D01*
X143230600Y-88874600D02*
X143230600Y-93775800D01*
X143230600Y-93775800D02*
X143573500Y-94118700D01*
%TO.N,Net-(C6-Pad2)*%
X142621000Y-101242100D02*
X142040100Y-101242100D01*
X142040100Y-101242100D02*
X139763500Y-103518700D01*
X136398000Y-105079800D02*
X135191500Y-105079800D01*
X139750800Y-105079800D02*
X136398000Y-105079800D01*
X135191500Y-105079800D02*
X134683500Y-105587800D01*
X136398000Y-105079800D02*
X136244600Y-105079800D01*
X166395400Y-77650600D02*
X163436300Y-80609700D01*
X163436300Y-93772200D02*
X162252900Y-94955600D01*
X163436300Y-80609700D02*
X163436300Y-93772200D01*
%TO.N,Net-(C6-Pad1)*%
X169315401Y-77570601D02*
X166395400Y-74650600D01*
X169315401Y-91677880D02*
X169315401Y-77570601D01*
X167597481Y-93395800D02*
X169315401Y-91677880D01*
X166395400Y-93395800D02*
X167597481Y-93395800D01*
%TO.N,/CAN_H*%
X146850100Y-99606100D02*
X139153900Y-99606100D01*
X139153900Y-99606100D02*
X139026900Y-99733100D01*
X166395400Y-80650600D02*
X168160700Y-82415900D01*
X165220399Y-98220799D02*
X166395400Y-99395800D01*
X165220399Y-88364799D02*
X165220399Y-98220799D01*
X168160700Y-85424498D02*
X165220399Y-88364799D01*
X168160700Y-82415900D02*
X168160700Y-85424498D01*
%TO.N,/CAN_L*%
X145237200Y-100355400D02*
X140386800Y-100355400D01*
X140386800Y-100355400D02*
X137223500Y-103518700D01*
X164770389Y-100770789D02*
X166395400Y-102395800D01*
X164770389Y-85275611D02*
X164770389Y-100770789D01*
X166395400Y-83650600D02*
X164770389Y-85275611D01*
%TD*%
M02*
