%TF.GenerationSoftware,KiCad,Pcbnew,(5.1.6)-1*%
%TF.CreationDate,2020-08-13T15:14:37-05:00*%
%TF.ProjectId,CAN sniffer,43414e20-736e-4696-9666-65722e6b6963,rev?*%
%TF.SameCoordinates,Original*%
%TF.FileFunction,Paste,Top*%
%TF.FilePolarity,Positive*%
%FSLAX46Y46*%
G04 Gerber Fmt 4.6, Leading zero omitted, Abs format (unit mm)*
G04 Created by KiCad (PCBNEW (5.1.6)-1) date 2020-08-13 15:14:37*
%MOMM*%
%LPD*%
G01*
G04 APERTURE LIST*
%ADD10R,0.700000X1.000000*%
%ADD11R,0.600000X1.950000*%
G04 APERTURE END LIST*
%TO.C,C7*%
G36*
G01*
X151854850Y-94366500D02*
X152767350Y-94366500D01*
G75*
G02*
X153011100Y-94610250I0J-243750D01*
G01*
X153011100Y-95097750D01*
G75*
G02*
X152767350Y-95341500I-243750J0D01*
G01*
X151854850Y-95341500D01*
G75*
G02*
X151611100Y-95097750I0J243750D01*
G01*
X151611100Y-94610250D01*
G75*
G02*
X151854850Y-94366500I243750J0D01*
G01*
G37*
G36*
G01*
X151854850Y-92491500D02*
X152767350Y-92491500D01*
G75*
G02*
X153011100Y-92735250I0J-243750D01*
G01*
X153011100Y-93222750D01*
G75*
G02*
X152767350Y-93466500I-243750J0D01*
G01*
X151854850Y-93466500D01*
G75*
G02*
X151611100Y-93222750I0J243750D01*
G01*
X151611100Y-92735250D01*
G75*
G02*
X151854850Y-92491500I243750J0D01*
G01*
G37*
%TD*%
D10*
%TO.C,U3*%
X137401300Y-111182000D03*
X136451300Y-108782000D03*
X138351300Y-108782000D03*
%TD*%
D11*
%TO.C,U2*%
X146113500Y-103518700D03*
X144843500Y-103518700D03*
X143573500Y-103518700D03*
X142303500Y-103518700D03*
X141033500Y-103518700D03*
X139763500Y-103518700D03*
X138493500Y-103518700D03*
X137223500Y-103518700D03*
X135953500Y-103518700D03*
X134683500Y-103518700D03*
X134683500Y-94118700D03*
X135953500Y-94118700D03*
X137223500Y-94118700D03*
X138493500Y-94118700D03*
X139763500Y-94118700D03*
X141033500Y-94118700D03*
X142303500Y-94118700D03*
X143573500Y-94118700D03*
X144843500Y-94118700D03*
X146113500Y-94118700D03*
%TD*%
%TO.C,R3*%
G36*
G01*
X151664350Y-103916900D02*
X152576850Y-103916900D01*
G75*
G02*
X152820600Y-104160650I0J-243750D01*
G01*
X152820600Y-104648150D01*
G75*
G02*
X152576850Y-104891900I-243750J0D01*
G01*
X151664350Y-104891900D01*
G75*
G02*
X151420600Y-104648150I0J243750D01*
G01*
X151420600Y-104160650D01*
G75*
G02*
X151664350Y-103916900I243750J0D01*
G01*
G37*
G36*
G01*
X151664350Y-102041900D02*
X152576850Y-102041900D01*
G75*
G02*
X152820600Y-102285650I0J-243750D01*
G01*
X152820600Y-102773150D01*
G75*
G02*
X152576850Y-103016900I-243750J0D01*
G01*
X151664350Y-103016900D01*
G75*
G02*
X151420600Y-102773150I0J243750D01*
G01*
X151420600Y-102285650D01*
G75*
G02*
X151664350Y-102041900I243750J0D01*
G01*
G37*
%TD*%
%TO.C,R2*%
G36*
G01*
X154966350Y-103916900D02*
X155878850Y-103916900D01*
G75*
G02*
X156122600Y-104160650I0J-243750D01*
G01*
X156122600Y-104648150D01*
G75*
G02*
X155878850Y-104891900I-243750J0D01*
G01*
X154966350Y-104891900D01*
G75*
G02*
X154722600Y-104648150I0J243750D01*
G01*
X154722600Y-104160650D01*
G75*
G02*
X154966350Y-103916900I243750J0D01*
G01*
G37*
G36*
G01*
X154966350Y-102041900D02*
X155878850Y-102041900D01*
G75*
G02*
X156122600Y-102285650I0J-243750D01*
G01*
X156122600Y-102773150D01*
G75*
G02*
X155878850Y-103016900I-243750J0D01*
G01*
X154966350Y-103016900D01*
G75*
G02*
X154722600Y-102773150I0J243750D01*
G01*
X154722600Y-102285650D01*
G75*
G02*
X154966350Y-102041900I243750J0D01*
G01*
G37*
%TD*%
%TO.C,R1*%
G36*
G01*
X133723800Y-109257150D02*
X133723800Y-108344650D01*
G75*
G02*
X133967550Y-108100900I243750J0D01*
G01*
X134455050Y-108100900D01*
G75*
G02*
X134698800Y-108344650I0J-243750D01*
G01*
X134698800Y-109257150D01*
G75*
G02*
X134455050Y-109500900I-243750J0D01*
G01*
X133967550Y-109500900D01*
G75*
G02*
X133723800Y-109257150I0J243750D01*
G01*
G37*
G36*
G01*
X131848800Y-109257150D02*
X131848800Y-108344650D01*
G75*
G02*
X132092550Y-108100900I243750J0D01*
G01*
X132580050Y-108100900D01*
G75*
G02*
X132823800Y-108344650I0J-243750D01*
G01*
X132823800Y-109257150D01*
G75*
G02*
X132580050Y-109500900I-243750J0D01*
G01*
X132092550Y-109500900D01*
G75*
G02*
X131848800Y-109257150I0J243750D01*
G01*
G37*
%TD*%
%TO.C,L2*%
G36*
G01*
X143655200Y-111428850D02*
X143655200Y-110516350D01*
G75*
G02*
X143898950Y-110272600I243750J0D01*
G01*
X144386450Y-110272600D01*
G75*
G02*
X144630200Y-110516350I0J-243750D01*
G01*
X144630200Y-111428850D01*
G75*
G02*
X144386450Y-111672600I-243750J0D01*
G01*
X143898950Y-111672600D01*
G75*
G02*
X143655200Y-111428850I0J243750D01*
G01*
G37*
G36*
G01*
X141780200Y-111428850D02*
X141780200Y-110516350D01*
G75*
G02*
X142023950Y-110272600I243750J0D01*
G01*
X142511450Y-110272600D01*
G75*
G02*
X142755200Y-110516350I0J-243750D01*
G01*
X142755200Y-111428850D01*
G75*
G02*
X142511450Y-111672600I-243750J0D01*
G01*
X142023950Y-111672600D01*
G75*
G02*
X141780200Y-111428850I0J243750D01*
G01*
G37*
%TD*%
%TO.C,L1*%
G36*
G01*
X142232800Y-107809350D02*
X142232800Y-106896850D01*
G75*
G02*
X142476550Y-106653100I243750J0D01*
G01*
X142964050Y-106653100D01*
G75*
G02*
X143207800Y-106896850I0J-243750D01*
G01*
X143207800Y-107809350D01*
G75*
G02*
X142964050Y-108053100I-243750J0D01*
G01*
X142476550Y-108053100D01*
G75*
G02*
X142232800Y-107809350I0J243750D01*
G01*
G37*
G36*
G01*
X140357800Y-107809350D02*
X140357800Y-106896850D01*
G75*
G02*
X140601550Y-106653100I243750J0D01*
G01*
X141089050Y-106653100D01*
G75*
G02*
X141332800Y-106896850I0J-243750D01*
G01*
X141332800Y-107809350D01*
G75*
G02*
X141089050Y-108053100I-243750J0D01*
G01*
X140601550Y-108053100D01*
G75*
G02*
X140357800Y-107809350I0J243750D01*
G01*
G37*
%TD*%
%TO.C,C8*%
G36*
G01*
X155207650Y-94468100D02*
X156120150Y-94468100D01*
G75*
G02*
X156363900Y-94711850I0J-243750D01*
G01*
X156363900Y-95199350D01*
G75*
G02*
X156120150Y-95443100I-243750J0D01*
G01*
X155207650Y-95443100D01*
G75*
G02*
X154963900Y-95199350I0J243750D01*
G01*
X154963900Y-94711850D01*
G75*
G02*
X155207650Y-94468100I243750J0D01*
G01*
G37*
G36*
G01*
X155207650Y-92593100D02*
X156120150Y-92593100D01*
G75*
G02*
X156363900Y-92836850I0J-243750D01*
G01*
X156363900Y-93324350D01*
G75*
G02*
X156120150Y-93568100I-243750J0D01*
G01*
X155207650Y-93568100D01*
G75*
G02*
X154963900Y-93324350I0J243750D01*
G01*
X154963900Y-92836850D01*
G75*
G02*
X155207650Y-92593100I243750J0D01*
G01*
G37*
%TD*%
%TO.C,C6*%
G36*
G01*
X148603650Y-94315700D02*
X149516150Y-94315700D01*
G75*
G02*
X149759900Y-94559450I0J-243750D01*
G01*
X149759900Y-95046950D01*
G75*
G02*
X149516150Y-95290700I-243750J0D01*
G01*
X148603650Y-95290700D01*
G75*
G02*
X148359900Y-95046950I0J243750D01*
G01*
X148359900Y-94559450D01*
G75*
G02*
X148603650Y-94315700I243750J0D01*
G01*
G37*
G36*
G01*
X148603650Y-92440700D02*
X149516150Y-92440700D01*
G75*
G02*
X149759900Y-92684450I0J-243750D01*
G01*
X149759900Y-93171950D01*
G75*
G02*
X149516150Y-93415700I-243750J0D01*
G01*
X148603650Y-93415700D01*
G75*
G02*
X148359900Y-93171950I0J243750D01*
G01*
X148359900Y-92684450D01*
G75*
G02*
X148603650Y-92440700I243750J0D01*
G01*
G37*
%TD*%
%TO.C,C5*%
G36*
G01*
X146258700Y-107834750D02*
X146258700Y-106922250D01*
G75*
G02*
X146502450Y-106678500I243750J0D01*
G01*
X146989950Y-106678500D01*
G75*
G02*
X147233700Y-106922250I0J-243750D01*
G01*
X147233700Y-107834750D01*
G75*
G02*
X146989950Y-108078500I-243750J0D01*
G01*
X146502450Y-108078500D01*
G75*
G02*
X146258700Y-107834750I0J243750D01*
G01*
G37*
G36*
G01*
X144383700Y-107834750D02*
X144383700Y-106922250D01*
G75*
G02*
X144627450Y-106678500I243750J0D01*
G01*
X145114950Y-106678500D01*
G75*
G02*
X145358700Y-106922250I0J-243750D01*
G01*
X145358700Y-107834750D01*
G75*
G02*
X145114950Y-108078500I-243750J0D01*
G01*
X144627450Y-108078500D01*
G75*
G02*
X144383700Y-107834750I0J243750D01*
G01*
G37*
%TD*%
%TO.C,C4*%
G36*
G01*
X149505350Y-85489200D02*
X150417850Y-85489200D01*
G75*
G02*
X150661600Y-85732950I0J-243750D01*
G01*
X150661600Y-86220450D01*
G75*
G02*
X150417850Y-86464200I-243750J0D01*
G01*
X149505350Y-86464200D01*
G75*
G02*
X149261600Y-86220450I0J243750D01*
G01*
X149261600Y-85732950D01*
G75*
G02*
X149505350Y-85489200I243750J0D01*
G01*
G37*
G36*
G01*
X149505350Y-83614200D02*
X150417850Y-83614200D01*
G75*
G02*
X150661600Y-83857950I0J-243750D01*
G01*
X150661600Y-84345450D01*
G75*
G02*
X150417850Y-84589200I-243750J0D01*
G01*
X149505350Y-84589200D01*
G75*
G02*
X149261600Y-84345450I0J243750D01*
G01*
X149261600Y-83857950D01*
G75*
G02*
X149505350Y-83614200I243750J0D01*
G01*
G37*
%TD*%
%TO.C,C3*%
G36*
G01*
X152769250Y-85359900D02*
X153681750Y-85359900D01*
G75*
G02*
X153925500Y-85603650I0J-243750D01*
G01*
X153925500Y-86091150D01*
G75*
G02*
X153681750Y-86334900I-243750J0D01*
G01*
X152769250Y-86334900D01*
G75*
G02*
X152525500Y-86091150I0J243750D01*
G01*
X152525500Y-85603650D01*
G75*
G02*
X152769250Y-85359900I243750J0D01*
G01*
G37*
G36*
G01*
X152769250Y-83484900D02*
X153681750Y-83484900D01*
G75*
G02*
X153925500Y-83728650I0J-243750D01*
G01*
X153925500Y-84216150D01*
G75*
G02*
X153681750Y-84459900I-243750J0D01*
G01*
X152769250Y-84459900D01*
G75*
G02*
X152525500Y-84216150I0J243750D01*
G01*
X152525500Y-83728650D01*
G75*
G02*
X152769250Y-83484900I243750J0D01*
G01*
G37*
%TD*%
%TO.C,C2*%
G36*
G01*
X152832750Y-88943600D02*
X153745250Y-88943600D01*
G75*
G02*
X153989000Y-89187350I0J-243750D01*
G01*
X153989000Y-89674850D01*
G75*
G02*
X153745250Y-89918600I-243750J0D01*
G01*
X152832750Y-89918600D01*
G75*
G02*
X152589000Y-89674850I0J243750D01*
G01*
X152589000Y-89187350D01*
G75*
G02*
X152832750Y-88943600I243750J0D01*
G01*
G37*
G36*
G01*
X152832750Y-87068600D02*
X153745250Y-87068600D01*
G75*
G02*
X153989000Y-87312350I0J-243750D01*
G01*
X153989000Y-87799850D01*
G75*
G02*
X153745250Y-88043600I-243750J0D01*
G01*
X152832750Y-88043600D01*
G75*
G02*
X152589000Y-87799850I0J243750D01*
G01*
X152589000Y-87312350D01*
G75*
G02*
X152832750Y-87068600I243750J0D01*
G01*
G37*
%TD*%
%TO.C,C1*%
G36*
G01*
X149391050Y-89007100D02*
X150303550Y-89007100D01*
G75*
G02*
X150547300Y-89250850I0J-243750D01*
G01*
X150547300Y-89738350D01*
G75*
G02*
X150303550Y-89982100I-243750J0D01*
G01*
X149391050Y-89982100D01*
G75*
G02*
X149147300Y-89738350I0J243750D01*
G01*
X149147300Y-89250850D01*
G75*
G02*
X149391050Y-89007100I243750J0D01*
G01*
G37*
G36*
G01*
X149391050Y-87132100D02*
X150303550Y-87132100D01*
G75*
G02*
X150547300Y-87375850I0J-243750D01*
G01*
X150547300Y-87863350D01*
G75*
G02*
X150303550Y-88107100I-243750J0D01*
G01*
X149391050Y-88107100D01*
G75*
G02*
X149147300Y-87863350I0J243750D01*
G01*
X149147300Y-87375850D01*
G75*
G02*
X149391050Y-87132100I243750J0D01*
G01*
G37*
%TD*%
M02*
