%TF.GenerationSoftware,KiCad,Pcbnew,(5.1.6)-1*%
%TF.CreationDate,2020-08-03T14:50:49-05:00*%
%TF.ProjectId,CAN sniffer,43414e20-736e-4696-9666-65722e6b6963,rev?*%
%TF.SameCoordinates,Original*%
%TF.FileFunction,Legend,Top*%
%TF.FilePolarity,Positive*%
%FSLAX46Y46*%
G04 Gerber Fmt 4.6, Leading zero omitted, Abs format (unit mm)*
G04 Created by KiCad (PCBNEW (5.1.6)-1) date 2020-08-03 14:50:49*
%MOMM*%
%LPD*%
G01*
G04 APERTURE LIST*
%ADD10C,0.150000*%
%ADD11C,0.120000*%
G04 APERTURE END LIST*
D10*
X156337142Y-110267714D02*
X156299047Y-110305809D01*
X156184761Y-110343904D01*
X156108571Y-110343904D01*
X155994285Y-110305809D01*
X155918095Y-110229619D01*
X155880000Y-110153428D01*
X155841904Y-110001047D01*
X155841904Y-109886761D01*
X155880000Y-109734380D01*
X155918095Y-109658190D01*
X155994285Y-109582000D01*
X156108571Y-109543904D01*
X156184761Y-109543904D01*
X156299047Y-109582000D01*
X156337142Y-109620095D01*
X156641904Y-110115333D02*
X157022857Y-110115333D01*
X156565714Y-110343904D02*
X156832380Y-109543904D01*
X157099047Y-110343904D01*
X157365714Y-110343904D02*
X157365714Y-109543904D01*
X157822857Y-110343904D01*
X157822857Y-109543904D01*
X158013333Y-110420095D02*
X158622857Y-110420095D01*
X159194285Y-110343904D02*
X158813333Y-110343904D01*
X158813333Y-109543904D01*
X162121904Y-92862380D02*
X162121904Y-93243333D01*
X162502857Y-93281428D01*
X162464761Y-93243333D01*
X162426666Y-93167142D01*
X162426666Y-92976666D01*
X162464761Y-92900476D01*
X162502857Y-92862380D01*
X162579047Y-92824285D01*
X162769523Y-92824285D01*
X162845714Y-92862380D01*
X162883809Y-92900476D01*
X162921904Y-92976666D01*
X162921904Y-93167142D01*
X162883809Y-93243333D01*
X162845714Y-93281428D01*
X162121904Y-92595714D02*
X162921904Y-92329047D01*
X162121904Y-92062380D01*
X162160000Y-95859523D02*
X162121904Y-95935714D01*
X162121904Y-96050000D01*
X162160000Y-96164285D01*
X162236190Y-96240476D01*
X162312380Y-96278571D01*
X162464761Y-96316666D01*
X162579047Y-96316666D01*
X162731428Y-96278571D01*
X162807619Y-96240476D01*
X162883809Y-96164285D01*
X162921904Y-96050000D01*
X162921904Y-95973809D01*
X162883809Y-95859523D01*
X162845714Y-95821428D01*
X162579047Y-95821428D01*
X162579047Y-95973809D01*
X162921904Y-95478571D02*
X162121904Y-95478571D01*
X162921904Y-95021428D01*
X162121904Y-95021428D01*
X162921904Y-94640476D02*
X162121904Y-94640476D01*
X162121904Y-94450000D01*
X162160000Y-94335714D01*
X162236190Y-94259523D01*
X162312380Y-94221428D01*
X162464761Y-94183333D01*
X162579047Y-94183333D01*
X162731428Y-94221428D01*
X162807619Y-94259523D01*
X162883809Y-94335714D01*
X162921904Y-94450000D01*
X162921904Y-94640476D01*
X162845714Y-99663095D02*
X162883809Y-99701190D01*
X162921904Y-99815476D01*
X162921904Y-99891666D01*
X162883809Y-100005952D01*
X162807619Y-100082142D01*
X162731428Y-100120238D01*
X162579047Y-100158333D01*
X162464761Y-100158333D01*
X162312380Y-100120238D01*
X162236190Y-100082142D01*
X162160000Y-100005952D01*
X162121904Y-99891666D01*
X162121904Y-99815476D01*
X162160000Y-99701190D01*
X162198095Y-99663095D01*
X162693333Y-99358333D02*
X162693333Y-98977380D01*
X162921904Y-99434523D02*
X162121904Y-99167857D01*
X162921904Y-98901190D01*
X162921904Y-98634523D02*
X162121904Y-98634523D01*
X162921904Y-98177380D01*
X162121904Y-98177380D01*
X162998095Y-97986904D02*
X162998095Y-97377380D01*
X162921904Y-97186904D02*
X162121904Y-97186904D01*
X162502857Y-97186904D02*
X162502857Y-96729761D01*
X162921904Y-96729761D02*
X162121904Y-96729761D01*
X162845714Y-103377857D02*
X162883809Y-103415952D01*
X162921904Y-103530238D01*
X162921904Y-103606428D01*
X162883809Y-103720714D01*
X162807619Y-103796904D01*
X162731428Y-103835000D01*
X162579047Y-103873095D01*
X162464761Y-103873095D01*
X162312380Y-103835000D01*
X162236190Y-103796904D01*
X162160000Y-103720714D01*
X162121904Y-103606428D01*
X162121904Y-103530238D01*
X162160000Y-103415952D01*
X162198095Y-103377857D01*
X162693333Y-103073095D02*
X162693333Y-102692142D01*
X162921904Y-103149285D02*
X162121904Y-102882619D01*
X162921904Y-102615952D01*
X162921904Y-102349285D02*
X162121904Y-102349285D01*
X162921904Y-101892142D01*
X162121904Y-101892142D01*
X162998095Y-101701666D02*
X162998095Y-101092142D01*
X162921904Y-100520714D02*
X162921904Y-100901666D01*
X162121904Y-100901666D01*
X162121904Y-73812380D02*
X162121904Y-74193333D01*
X162502857Y-74231428D01*
X162464761Y-74193333D01*
X162426666Y-74117142D01*
X162426666Y-73926666D01*
X162464761Y-73850476D01*
X162502857Y-73812380D01*
X162579047Y-73774285D01*
X162769523Y-73774285D01*
X162845714Y-73812380D01*
X162883809Y-73850476D01*
X162921904Y-73926666D01*
X162921904Y-74117142D01*
X162883809Y-74193333D01*
X162845714Y-74231428D01*
X162121904Y-73545714D02*
X162921904Y-73279047D01*
X162121904Y-73012380D01*
X162160000Y-76809523D02*
X162121904Y-76885714D01*
X162121904Y-77000000D01*
X162160000Y-77114285D01*
X162236190Y-77190476D01*
X162312380Y-77228571D01*
X162464761Y-77266666D01*
X162579047Y-77266666D01*
X162731428Y-77228571D01*
X162807619Y-77190476D01*
X162883809Y-77114285D01*
X162921904Y-77000000D01*
X162921904Y-76923809D01*
X162883809Y-76809523D01*
X162845714Y-76771428D01*
X162579047Y-76771428D01*
X162579047Y-76923809D01*
X162921904Y-76428571D02*
X162121904Y-76428571D01*
X162921904Y-75971428D01*
X162121904Y-75971428D01*
X162921904Y-75590476D02*
X162121904Y-75590476D01*
X162121904Y-75400000D01*
X162160000Y-75285714D01*
X162236190Y-75209523D01*
X162312380Y-75171428D01*
X162464761Y-75133333D01*
X162579047Y-75133333D01*
X162731428Y-75171428D01*
X162807619Y-75209523D01*
X162883809Y-75285714D01*
X162921904Y-75400000D01*
X162921904Y-75590476D01*
X162845714Y-81248095D02*
X162883809Y-81286190D01*
X162921904Y-81400476D01*
X162921904Y-81476666D01*
X162883809Y-81590952D01*
X162807619Y-81667142D01*
X162731428Y-81705238D01*
X162579047Y-81743333D01*
X162464761Y-81743333D01*
X162312380Y-81705238D01*
X162236190Y-81667142D01*
X162160000Y-81590952D01*
X162121904Y-81476666D01*
X162121904Y-81400476D01*
X162160000Y-81286190D01*
X162198095Y-81248095D01*
X162693333Y-80943333D02*
X162693333Y-80562380D01*
X162921904Y-81019523D02*
X162121904Y-80752857D01*
X162921904Y-80486190D01*
X162921904Y-80219523D02*
X162121904Y-80219523D01*
X162921904Y-79762380D01*
X162121904Y-79762380D01*
X162998095Y-79571904D02*
X162998095Y-78962380D01*
X162921904Y-78771904D02*
X162121904Y-78771904D01*
X162502857Y-78771904D02*
X162502857Y-78314761D01*
X162921904Y-78314761D02*
X162121904Y-78314761D01*
X162845714Y-84962857D02*
X162883809Y-85000952D01*
X162921904Y-85115238D01*
X162921904Y-85191428D01*
X162883809Y-85305714D01*
X162807619Y-85381904D01*
X162731428Y-85420000D01*
X162579047Y-85458095D01*
X162464761Y-85458095D01*
X162312380Y-85420000D01*
X162236190Y-85381904D01*
X162160000Y-85305714D01*
X162121904Y-85191428D01*
X162121904Y-85115238D01*
X162160000Y-85000952D01*
X162198095Y-84962857D01*
X162693333Y-84658095D02*
X162693333Y-84277142D01*
X162921904Y-84734285D02*
X162121904Y-84467619D01*
X162921904Y-84200952D01*
X162921904Y-83934285D02*
X162121904Y-83934285D01*
X162921904Y-83477142D01*
X162121904Y-83477142D01*
X162998095Y-83286666D02*
X162998095Y-82677142D01*
X162921904Y-82105714D02*
X162921904Y-82486666D01*
X162121904Y-82486666D01*
X136213814Y-113423557D02*
X136251909Y-113461652D01*
X136290004Y-113575938D01*
X136290004Y-113652128D01*
X136251909Y-113766414D01*
X136175719Y-113842604D01*
X136099528Y-113880700D01*
X135947147Y-113918795D01*
X135832861Y-113918795D01*
X135680480Y-113880700D01*
X135604290Y-113842604D01*
X135528100Y-113766414D01*
X135490004Y-113652128D01*
X135490004Y-113575938D01*
X135528100Y-113461652D01*
X135566195Y-113423557D01*
X136061433Y-113118795D02*
X136061433Y-112737842D01*
X136290004Y-113194985D02*
X135490004Y-112928319D01*
X136290004Y-112661652D01*
X136290004Y-112394985D02*
X135490004Y-112394985D01*
X136290004Y-111937842D01*
X135490004Y-111937842D01*
X136366195Y-111747366D02*
X136366195Y-111137842D01*
X136290004Y-110566414D02*
X136290004Y-110947366D01*
X135490004Y-110947366D01*
X136213814Y-109708795D02*
X136251909Y-109746890D01*
X136290004Y-109861176D01*
X136290004Y-109937366D01*
X136251909Y-110051652D01*
X136175719Y-110127842D01*
X136099528Y-110165938D01*
X135947147Y-110204033D01*
X135832861Y-110204033D01*
X135680480Y-110165938D01*
X135604290Y-110127842D01*
X135528100Y-110051652D01*
X135490004Y-109937366D01*
X135490004Y-109861176D01*
X135528100Y-109746890D01*
X135566195Y-109708795D01*
X136061433Y-109404033D02*
X136061433Y-109023080D01*
X136290004Y-109480223D02*
X135490004Y-109213557D01*
X136290004Y-108946890D01*
X136290004Y-108680223D02*
X135490004Y-108680223D01*
X136290004Y-108223080D01*
X135490004Y-108223080D01*
X136366195Y-108032604D02*
X136366195Y-107423080D01*
X136290004Y-107232604D02*
X135490004Y-107232604D01*
X135870957Y-107232604D02*
X135870957Y-106775461D01*
X136290004Y-106775461D02*
X135490004Y-106775461D01*
X156254604Y-100907814D02*
X156216509Y-100945909D01*
X156102223Y-100984004D01*
X156026033Y-100984004D01*
X155911747Y-100945909D01*
X155835557Y-100869719D01*
X155797461Y-100793528D01*
X155759366Y-100641147D01*
X155759366Y-100526861D01*
X155797461Y-100374480D01*
X155835557Y-100298290D01*
X155911747Y-100222100D01*
X156026033Y-100184004D01*
X156102223Y-100184004D01*
X156216509Y-100222100D01*
X156254604Y-100260195D01*
X156559366Y-100755433D02*
X156940319Y-100755433D01*
X156483176Y-100984004D02*
X156749842Y-100184004D01*
X157016509Y-100984004D01*
X157283176Y-100984004D02*
X157283176Y-100184004D01*
X157740319Y-100984004D01*
X157740319Y-100184004D01*
X157930795Y-101060195D02*
X158540319Y-101060195D01*
X158730795Y-100984004D02*
X158730795Y-100184004D01*
X158730795Y-100564957D02*
X159187938Y-100564957D01*
X159187938Y-100984004D02*
X159187938Y-100184004D01*
X151314114Y-86861457D02*
X151352209Y-86899552D01*
X151390304Y-87013838D01*
X151390304Y-87090028D01*
X151352209Y-87204314D01*
X151276019Y-87280504D01*
X151199828Y-87318600D01*
X151047447Y-87356695D01*
X150933161Y-87356695D01*
X150780780Y-87318600D01*
X150704590Y-87280504D01*
X150628400Y-87204314D01*
X150590304Y-87090028D01*
X150590304Y-87013838D01*
X150628400Y-86899552D01*
X150666495Y-86861457D01*
X151161733Y-86556695D02*
X151161733Y-86175742D01*
X151390304Y-86632885D02*
X150590304Y-86366219D01*
X151390304Y-86099552D01*
X151390304Y-85832885D02*
X150590304Y-85832885D01*
X151390304Y-85375742D01*
X150590304Y-85375742D01*
X151466495Y-85185266D02*
X151466495Y-84575742D01*
X151390304Y-83928123D02*
X151009352Y-84194790D01*
X151390304Y-84385266D02*
X150590304Y-84385266D01*
X150590304Y-84080504D01*
X150628400Y-84004314D01*
X150666495Y-83966219D01*
X150742685Y-83928123D01*
X150856971Y-83928123D01*
X150933161Y-83966219D01*
X150971257Y-84004314D01*
X151009352Y-84080504D01*
X151009352Y-84385266D01*
X151390304Y-83661457D02*
X150856971Y-83242409D01*
X150856971Y-83661457D02*
X151390304Y-83242409D01*
X135350214Y-88582319D02*
X135388309Y-88620414D01*
X135426404Y-88734700D01*
X135426404Y-88810890D01*
X135388309Y-88925176D01*
X135312119Y-89001366D01*
X135235928Y-89039461D01*
X135083547Y-89077557D01*
X134969261Y-89077557D01*
X134816880Y-89039461D01*
X134740690Y-89001366D01*
X134664500Y-88925176D01*
X134626404Y-88810890D01*
X134626404Y-88734700D01*
X134664500Y-88620414D01*
X134702595Y-88582319D01*
X135197833Y-88277557D02*
X135197833Y-87896604D01*
X135426404Y-88353747D02*
X134626404Y-88087080D01*
X135426404Y-87820414D01*
X135426404Y-87553747D02*
X134626404Y-87553747D01*
X135426404Y-87096604D01*
X134626404Y-87096604D01*
X135502595Y-86906128D02*
X135502595Y-86296604D01*
X134626404Y-86220414D02*
X134626404Y-85763271D01*
X135426404Y-85991842D02*
X134626404Y-85991842D01*
X135426404Y-85572795D02*
X134893071Y-85153747D01*
X134893071Y-85572795D02*
X135426404Y-85153747D01*
D11*
%TO.C,C7*%
X157024000Y-88946222D02*
X157024000Y-89463378D01*
X158444000Y-88946222D02*
X158444000Y-89463378D01*
D10*
%TO.C,TP4*%
X159230000Y-107442000D02*
G75*
G03*
X159230000Y-107442000I-1750000J0D01*
G01*
%TO.C,TP3*%
X159230000Y-102997000D02*
G75*
G03*
X159230000Y-102997000I-1750000J0D01*
G01*
%TO.C,TP2*%
X155318400Y-85318600D02*
G75*
G03*
X155318400Y-85318600I-1750000J0D01*
G01*
%TO.C,TP1*%
X139354500Y-87134700D02*
G75*
G03*
X139354500Y-87134700I-1750000J0D01*
G01*
%TO.C,J2*%
X168100000Y-88210000D02*
X168100000Y-91210000D01*
X168100000Y-91210000D02*
X167100000Y-91210000D01*
X167100000Y-91210000D02*
X167100000Y-103210000D01*
X167100000Y-103210000D02*
X168100000Y-103210000D01*
X168100000Y-103210000D02*
X168100000Y-106210000D01*
X168100000Y-106210000D02*
X163200000Y-106210000D01*
X163200000Y-106210000D02*
X163200000Y-88210000D01*
X163200000Y-88210000D02*
X168100000Y-88210000D01*
D11*
%TO.C,U3*%
X146930800Y-113179500D02*
X149080800Y-113179500D01*
X146505800Y-109959500D02*
X149080800Y-109959500D01*
X149080800Y-112269500D02*
X149080800Y-113179500D01*
X149080800Y-109959500D02*
X149080800Y-110869500D01*
D10*
%TO.C,U2*%
X151048200Y-94027300D02*
X152048200Y-95027300D01*
X136648200Y-94027300D02*
X151048200Y-94027300D01*
X136648200Y-101527300D02*
X136648200Y-94027300D01*
X152048200Y-101527300D02*
X136648200Y-101527300D01*
X152048200Y-95027300D02*
X152048200Y-101527300D01*
%TO.C,U1*%
X156972000Y-82931000D02*
X156972000Y-64389000D01*
X106680000Y-82931000D02*
X156972000Y-82931000D01*
X106680000Y-64389000D02*
X106680000Y-82931000D01*
X156972000Y-64389000D02*
X106680000Y-64389000D01*
X111252000Y-77597000D02*
X106680000Y-77597000D01*
X111252000Y-69723000D02*
X111252000Y-77597000D01*
X106680000Y-69723000D02*
X111252000Y-69723000D01*
D11*
%TO.C,R3*%
X142832322Y-113803500D02*
X143349478Y-113803500D01*
X142832322Y-112383500D02*
X143349478Y-112383500D01*
%TO.C,R2*%
X142743422Y-110501500D02*
X143260578Y-110501500D01*
X142743422Y-109081500D02*
X143260578Y-109081500D01*
%TO.C,R1*%
X147769078Y-104611100D02*
X147251922Y-104611100D01*
X147769078Y-106031100D02*
X147251922Y-106031100D01*
%TO.C,L2*%
X151706078Y-104738100D02*
X151188922Y-104738100D01*
X151706078Y-106158100D02*
X151188922Y-106158100D01*
%TO.C,L1*%
X156268922Y-94817000D02*
X156786078Y-94817000D01*
X156268922Y-93397000D02*
X156786078Y-93397000D01*
%TO.C,JP1*%
X136503100Y-107775700D02*
X137833100Y-107775700D01*
X136503100Y-109105700D02*
X136503100Y-107775700D01*
X136503100Y-110375700D02*
X139163100Y-110375700D01*
X139163100Y-110375700D02*
X139163100Y-112975700D01*
X136503100Y-110375700D02*
X136503100Y-112975700D01*
X136503100Y-112975700D02*
X139163100Y-112975700D01*
D10*
%TO.C,J1*%
X163200000Y-69335000D02*
X168100000Y-69335000D01*
X163200000Y-87335000D02*
X163200000Y-69335000D01*
X168100000Y-87335000D02*
X163200000Y-87335000D01*
X168100000Y-84335000D02*
X168100000Y-87335000D01*
X167100000Y-84335000D02*
X168100000Y-84335000D01*
X167100000Y-72335000D02*
X167100000Y-84335000D01*
X168100000Y-72335000D02*
X167100000Y-72335000D01*
X168100000Y-69335000D02*
X168100000Y-72335000D01*
D11*
%TO.C,C8*%
X154567122Y-90270400D02*
X155084278Y-90270400D01*
X154567122Y-88850400D02*
X155084278Y-88850400D01*
%TO.C,C6*%
X160059300Y-88946222D02*
X160059300Y-89463378D01*
X161479300Y-88946222D02*
X161479300Y-89463378D01*
%TO.C,C5*%
X155760922Y-98334900D02*
X156278078Y-98334900D01*
X155760922Y-96914900D02*
X156278078Y-96914900D01*
%TO.C,C4*%
X143349478Y-85459500D02*
X142832322Y-85459500D01*
X143349478Y-86879500D02*
X142832322Y-86879500D01*
%TO.C,C3*%
X143478778Y-88723400D02*
X142961622Y-88723400D01*
X143478778Y-90143400D02*
X142961622Y-90143400D01*
%TO.C,C2*%
X148052022Y-90448200D02*
X148569178Y-90448200D01*
X148052022Y-89028200D02*
X148569178Y-89028200D01*
%TO.C,C1*%
X147988522Y-87006500D02*
X148505678Y-87006500D01*
X147988522Y-85586500D02*
X148505678Y-85586500D01*
%TO.C,C7*%
D10*
X159741142Y-89371466D02*
X159788761Y-89419085D01*
X159836380Y-89561942D01*
X159836380Y-89657180D01*
X159788761Y-89800038D01*
X159693523Y-89895276D01*
X159598285Y-89942895D01*
X159407809Y-89990514D01*
X159264952Y-89990514D01*
X159074476Y-89942895D01*
X158979238Y-89895276D01*
X158884000Y-89800038D01*
X158836380Y-89657180D01*
X158836380Y-89561942D01*
X158884000Y-89419085D01*
X158931619Y-89371466D01*
X158836380Y-89038133D02*
X158836380Y-88371466D01*
X159836380Y-88800038D01*
%TO.C,J2*%
X168052380Y-97543333D02*
X168766666Y-97543333D01*
X168909523Y-97590952D01*
X169004761Y-97686190D01*
X169052380Y-97829047D01*
X169052380Y-97924285D01*
X168147619Y-97114761D02*
X168100000Y-97067142D01*
X168052380Y-96971904D01*
X168052380Y-96733809D01*
X168100000Y-96638571D01*
X168147619Y-96590952D01*
X168242857Y-96543333D01*
X168338095Y-96543333D01*
X168480952Y-96590952D01*
X169052380Y-97162380D01*
X169052380Y-96543333D01*
%TO.C,U3*%
X147243895Y-108521880D02*
X147243895Y-109331404D01*
X147291514Y-109426642D01*
X147339133Y-109474261D01*
X147434371Y-109521880D01*
X147624847Y-109521880D01*
X147720085Y-109474261D01*
X147767704Y-109426642D01*
X147815323Y-109331404D01*
X147815323Y-108521880D01*
X148196276Y-108521880D02*
X148815323Y-108521880D01*
X148481990Y-108902833D01*
X148624847Y-108902833D01*
X148720085Y-108950452D01*
X148767704Y-108998071D01*
X148815323Y-109093309D01*
X148815323Y-109331404D01*
X148767704Y-109426642D01*
X148720085Y-109474261D01*
X148624847Y-109521880D01*
X148339133Y-109521880D01*
X148243895Y-109474261D01*
X148196276Y-109426642D01*
%TO.C,U2*%
X152600580Y-98539204D02*
X153410104Y-98539204D01*
X153505342Y-98491585D01*
X153552961Y-98443966D01*
X153600580Y-98348728D01*
X153600580Y-98158252D01*
X153552961Y-98063014D01*
X153505342Y-98015395D01*
X153410104Y-97967776D01*
X152600580Y-97967776D01*
X152695819Y-97539204D02*
X152648200Y-97491585D01*
X152600580Y-97396347D01*
X152600580Y-97158252D01*
X152648200Y-97063014D01*
X152695819Y-97015395D01*
X152791057Y-96967776D01*
X152886295Y-96967776D01*
X153029152Y-97015395D01*
X153600580Y-97586823D01*
X153600580Y-96967776D01*
%TO.C,U1*%
X157567380Y-74421904D02*
X158376904Y-74421904D01*
X158472142Y-74374285D01*
X158519761Y-74326666D01*
X158567380Y-74231428D01*
X158567380Y-74040952D01*
X158519761Y-73945714D01*
X158472142Y-73898095D01*
X158376904Y-73850476D01*
X157567380Y-73850476D01*
X158567380Y-72850476D02*
X158567380Y-73421904D01*
X158567380Y-73136190D02*
X157567380Y-73136190D01*
X157710238Y-73231428D01*
X157805476Y-73326666D01*
X157853095Y-73421904D01*
X127826190Y-74112380D02*
X127826190Y-73112380D01*
X128397619Y-74112380D01*
X128397619Y-73112380D01*
X129302380Y-73445714D02*
X129302380Y-74112380D01*
X128873809Y-73445714D02*
X128873809Y-73969523D01*
X128921428Y-74064761D01*
X129016666Y-74112380D01*
X129159523Y-74112380D01*
X129254761Y-74064761D01*
X129302380Y-74017142D01*
X130207142Y-74064761D02*
X130111904Y-74112380D01*
X129921428Y-74112380D01*
X129826190Y-74064761D01*
X129778571Y-74017142D01*
X129730952Y-73921904D01*
X129730952Y-73636190D01*
X129778571Y-73540952D01*
X129826190Y-73493333D01*
X129921428Y-73445714D01*
X130111904Y-73445714D01*
X130207142Y-73493333D01*
X130778571Y-74112380D02*
X130683333Y-74064761D01*
X130635714Y-73969523D01*
X130635714Y-73112380D01*
X131540476Y-74064761D02*
X131445238Y-74112380D01*
X131254761Y-74112380D01*
X131159523Y-74064761D01*
X131111904Y-73969523D01*
X131111904Y-73588571D01*
X131159523Y-73493333D01*
X131254761Y-73445714D01*
X131445238Y-73445714D01*
X131540476Y-73493333D01*
X131588095Y-73588571D01*
X131588095Y-73683809D01*
X131111904Y-73779047D01*
X132159523Y-74112380D02*
X132064285Y-74064761D01*
X132016666Y-74017142D01*
X131969047Y-73921904D01*
X131969047Y-73636190D01*
X132016666Y-73540952D01*
X132064285Y-73493333D01*
X132159523Y-73445714D01*
X132302380Y-73445714D01*
X132397619Y-73493333D01*
X132445238Y-73540952D01*
X132492857Y-73636190D01*
X132492857Y-73921904D01*
X132445238Y-74017142D01*
X132397619Y-74064761D01*
X132302380Y-74112380D01*
X132159523Y-74112380D01*
X134159523Y-74112380D02*
X133683333Y-74112380D01*
X133683333Y-73112380D01*
X134921428Y-73445714D02*
X134921428Y-74112380D01*
X134683333Y-73064761D02*
X134445238Y-73779047D01*
X135064285Y-73779047D01*
X135350000Y-73112380D02*
X135969047Y-73112380D01*
X135635714Y-73493333D01*
X135778571Y-73493333D01*
X135873809Y-73540952D01*
X135921428Y-73588571D01*
X135969047Y-73683809D01*
X135969047Y-73921904D01*
X135921428Y-74017142D01*
X135873809Y-74064761D01*
X135778571Y-74112380D01*
X135492857Y-74112380D01*
X135397619Y-74064761D01*
X135350000Y-74017142D01*
X136350000Y-73207619D02*
X136397619Y-73160000D01*
X136492857Y-73112380D01*
X136730952Y-73112380D01*
X136826190Y-73160000D01*
X136873809Y-73207619D01*
X136921428Y-73302857D01*
X136921428Y-73398095D01*
X136873809Y-73540952D01*
X136302380Y-74112380D01*
X136921428Y-74112380D01*
X137350000Y-74112380D02*
X137350000Y-73112380D01*
X137921428Y-74112380D02*
X137492857Y-73540952D01*
X137921428Y-73112380D02*
X137350000Y-73683809D01*
X138921428Y-74017142D02*
X138873809Y-74064761D01*
X138730952Y-74112380D01*
X138635714Y-74112380D01*
X138492857Y-74064761D01*
X138397619Y-73969523D01*
X138350000Y-73874285D01*
X138302380Y-73683809D01*
X138302380Y-73540952D01*
X138350000Y-73350476D01*
X138397619Y-73255238D01*
X138492857Y-73160000D01*
X138635714Y-73112380D01*
X138730952Y-73112380D01*
X138873809Y-73160000D01*
X138921428Y-73207619D01*
X108672380Y-74921904D02*
X109481904Y-74921904D01*
X109577142Y-74874285D01*
X109624761Y-74826666D01*
X109672380Y-74731428D01*
X109672380Y-74540952D01*
X109624761Y-74445714D01*
X109577142Y-74398095D01*
X109481904Y-74350476D01*
X108672380Y-74350476D01*
X109624761Y-73921904D02*
X109672380Y-73779047D01*
X109672380Y-73540952D01*
X109624761Y-73445714D01*
X109577142Y-73398095D01*
X109481904Y-73350476D01*
X109386666Y-73350476D01*
X109291428Y-73398095D01*
X109243809Y-73445714D01*
X109196190Y-73540952D01*
X109148571Y-73731428D01*
X109100952Y-73826666D01*
X109053333Y-73874285D01*
X108958095Y-73921904D01*
X108862857Y-73921904D01*
X108767619Y-73874285D01*
X108720000Y-73826666D01*
X108672380Y-73731428D01*
X108672380Y-73493333D01*
X108720000Y-73350476D01*
X109148571Y-72588571D02*
X109196190Y-72445714D01*
X109243809Y-72398095D01*
X109339047Y-72350476D01*
X109481904Y-72350476D01*
X109577142Y-72398095D01*
X109624761Y-72445714D01*
X109672380Y-72540952D01*
X109672380Y-72921904D01*
X108672380Y-72921904D01*
X108672380Y-72588571D01*
X108720000Y-72493333D01*
X108767619Y-72445714D01*
X108862857Y-72398095D01*
X108958095Y-72398095D01*
X109053333Y-72445714D01*
X109100952Y-72493333D01*
X109148571Y-72588571D01*
X109148571Y-72921904D01*
%TO.C,R3*%
X142924233Y-111895880D02*
X142590900Y-111419690D01*
X142352804Y-111895880D02*
X142352804Y-110895880D01*
X142733757Y-110895880D01*
X142828995Y-110943500D01*
X142876614Y-110991119D01*
X142924233Y-111086357D01*
X142924233Y-111229214D01*
X142876614Y-111324452D01*
X142828995Y-111372071D01*
X142733757Y-111419690D01*
X142352804Y-111419690D01*
X143257566Y-110895880D02*
X143876614Y-110895880D01*
X143543280Y-111276833D01*
X143686138Y-111276833D01*
X143781376Y-111324452D01*
X143828995Y-111372071D01*
X143876614Y-111467309D01*
X143876614Y-111705404D01*
X143828995Y-111800642D01*
X143781376Y-111848261D01*
X143686138Y-111895880D01*
X143400423Y-111895880D01*
X143305185Y-111848261D01*
X143257566Y-111800642D01*
%TO.C,R2*%
X142835333Y-108593880D02*
X142502000Y-108117690D01*
X142263904Y-108593880D02*
X142263904Y-107593880D01*
X142644857Y-107593880D01*
X142740095Y-107641500D01*
X142787714Y-107689119D01*
X142835333Y-107784357D01*
X142835333Y-107927214D01*
X142787714Y-108022452D01*
X142740095Y-108070071D01*
X142644857Y-108117690D01*
X142263904Y-108117690D01*
X143216285Y-107689119D02*
X143263904Y-107641500D01*
X143359142Y-107593880D01*
X143597238Y-107593880D01*
X143692476Y-107641500D01*
X143740095Y-107689119D01*
X143787714Y-107784357D01*
X143787714Y-107879595D01*
X143740095Y-108022452D01*
X143168666Y-108593880D01*
X143787714Y-108593880D01*
%TO.C,R1*%
X147343833Y-107423480D02*
X147010500Y-106947290D01*
X146772404Y-107423480D02*
X146772404Y-106423480D01*
X147153357Y-106423480D01*
X147248595Y-106471100D01*
X147296214Y-106518719D01*
X147343833Y-106613957D01*
X147343833Y-106756814D01*
X147296214Y-106852052D01*
X147248595Y-106899671D01*
X147153357Y-106947290D01*
X146772404Y-106947290D01*
X148296214Y-107423480D02*
X147724785Y-107423480D01*
X148010500Y-107423480D02*
X148010500Y-106423480D01*
X147915261Y-106566338D01*
X147820023Y-106661576D01*
X147724785Y-106709195D01*
%TO.C,L2*%
X151280833Y-107550480D02*
X150804642Y-107550480D01*
X150804642Y-106550480D01*
X151566547Y-106645719D02*
X151614166Y-106598100D01*
X151709404Y-106550480D01*
X151947500Y-106550480D01*
X152042738Y-106598100D01*
X152090357Y-106645719D01*
X152137976Y-106740957D01*
X152137976Y-106836195D01*
X152090357Y-106979052D01*
X151518928Y-107550480D01*
X152137976Y-107550480D01*
%TO.C,L1*%
X156360833Y-92909380D02*
X155884642Y-92909380D01*
X155884642Y-91909380D01*
X157217976Y-92909380D02*
X156646547Y-92909380D01*
X156932261Y-92909380D02*
X156932261Y-91909380D01*
X156837023Y-92052238D01*
X156741785Y-92147476D01*
X156646547Y-92195095D01*
%TO.C,JP1*%
X136999766Y-106228080D02*
X136999766Y-106942366D01*
X136952147Y-107085223D01*
X136856909Y-107180461D01*
X136714052Y-107228080D01*
X136618814Y-107228080D01*
X137475957Y-107228080D02*
X137475957Y-106228080D01*
X137856909Y-106228080D01*
X137952147Y-106275700D01*
X137999766Y-106323319D01*
X138047385Y-106418557D01*
X138047385Y-106561414D01*
X137999766Y-106656652D01*
X137952147Y-106704271D01*
X137856909Y-106751890D01*
X137475957Y-106751890D01*
X138999766Y-107228080D02*
X138428338Y-107228080D01*
X138714052Y-107228080D02*
X138714052Y-106228080D01*
X138618814Y-106370938D01*
X138523576Y-106466176D01*
X138428338Y-106513795D01*
%TO.C,J1*%
X168052380Y-78668333D02*
X168766666Y-78668333D01*
X168909523Y-78715952D01*
X169004761Y-78811190D01*
X169052380Y-78954047D01*
X169052380Y-79049285D01*
X169052380Y-77668333D02*
X169052380Y-78239761D01*
X169052380Y-77954047D02*
X168052380Y-77954047D01*
X168195238Y-78049285D01*
X168290476Y-78144523D01*
X168338095Y-78239761D01*
%TO.C,C8*%
X154659033Y-88267542D02*
X154611414Y-88315161D01*
X154468557Y-88362780D01*
X154373319Y-88362780D01*
X154230461Y-88315161D01*
X154135223Y-88219923D01*
X154087604Y-88124685D01*
X154039985Y-87934209D01*
X154039985Y-87791352D01*
X154087604Y-87600876D01*
X154135223Y-87505638D01*
X154230461Y-87410400D01*
X154373319Y-87362780D01*
X154468557Y-87362780D01*
X154611414Y-87410400D01*
X154659033Y-87458019D01*
X155230461Y-87791352D02*
X155135223Y-87743733D01*
X155087604Y-87696114D01*
X155039985Y-87600876D01*
X155039985Y-87553257D01*
X155087604Y-87458019D01*
X155135223Y-87410400D01*
X155230461Y-87362780D01*
X155420938Y-87362780D01*
X155516176Y-87410400D01*
X155563795Y-87458019D01*
X155611414Y-87553257D01*
X155611414Y-87600876D01*
X155563795Y-87696114D01*
X155516176Y-87743733D01*
X155420938Y-87791352D01*
X155230461Y-87791352D01*
X155135223Y-87838971D01*
X155087604Y-87886590D01*
X155039985Y-87981828D01*
X155039985Y-88172304D01*
X155087604Y-88267542D01*
X155135223Y-88315161D01*
X155230461Y-88362780D01*
X155420938Y-88362780D01*
X155516176Y-88315161D01*
X155563795Y-88267542D01*
X155611414Y-88172304D01*
X155611414Y-87981828D01*
X155563795Y-87886590D01*
X155516176Y-87838971D01*
X155420938Y-87791352D01*
%TO.C,C6*%
X162776442Y-89371466D02*
X162824061Y-89419085D01*
X162871680Y-89561942D01*
X162871680Y-89657180D01*
X162824061Y-89800038D01*
X162728823Y-89895276D01*
X162633585Y-89942895D01*
X162443109Y-89990514D01*
X162300252Y-89990514D01*
X162109776Y-89942895D01*
X162014538Y-89895276D01*
X161919300Y-89800038D01*
X161871680Y-89657180D01*
X161871680Y-89561942D01*
X161919300Y-89419085D01*
X161966919Y-89371466D01*
X161871680Y-88514323D02*
X161871680Y-88704800D01*
X161919300Y-88800038D01*
X161966919Y-88847657D01*
X162109776Y-88942895D01*
X162300252Y-88990514D01*
X162681204Y-88990514D01*
X162776442Y-88942895D01*
X162824061Y-88895276D01*
X162871680Y-88800038D01*
X162871680Y-88609561D01*
X162824061Y-88514323D01*
X162776442Y-88466704D01*
X162681204Y-88419085D01*
X162443109Y-88419085D01*
X162347871Y-88466704D01*
X162300252Y-88514323D01*
X162252633Y-88609561D01*
X162252633Y-88800038D01*
X162300252Y-88895276D01*
X162347871Y-88942895D01*
X162443109Y-88990514D01*
%TO.C,C5*%
X155852833Y-96332042D02*
X155805214Y-96379661D01*
X155662357Y-96427280D01*
X155567119Y-96427280D01*
X155424261Y-96379661D01*
X155329023Y-96284423D01*
X155281404Y-96189185D01*
X155233785Y-95998709D01*
X155233785Y-95855852D01*
X155281404Y-95665376D01*
X155329023Y-95570138D01*
X155424261Y-95474900D01*
X155567119Y-95427280D01*
X155662357Y-95427280D01*
X155805214Y-95474900D01*
X155852833Y-95522519D01*
X156757595Y-95427280D02*
X156281404Y-95427280D01*
X156233785Y-95903471D01*
X156281404Y-95855852D01*
X156376642Y-95808233D01*
X156614738Y-95808233D01*
X156709976Y-95855852D01*
X156757595Y-95903471D01*
X156805214Y-95998709D01*
X156805214Y-96236804D01*
X156757595Y-96332042D01*
X156709976Y-96379661D01*
X156614738Y-96427280D01*
X156376642Y-96427280D01*
X156281404Y-96379661D01*
X156233785Y-96332042D01*
%TO.C,C4*%
X142924233Y-88176642D02*
X142876614Y-88224261D01*
X142733757Y-88271880D01*
X142638519Y-88271880D01*
X142495661Y-88224261D01*
X142400423Y-88129023D01*
X142352804Y-88033785D01*
X142305185Y-87843309D01*
X142305185Y-87700452D01*
X142352804Y-87509976D01*
X142400423Y-87414738D01*
X142495661Y-87319500D01*
X142638519Y-87271880D01*
X142733757Y-87271880D01*
X142876614Y-87319500D01*
X142924233Y-87367119D01*
X143781376Y-87605214D02*
X143781376Y-88271880D01*
X143543280Y-87224261D02*
X143305185Y-87938547D01*
X143924233Y-87938547D01*
%TO.C,C3*%
X143053533Y-91440542D02*
X143005914Y-91488161D01*
X142863057Y-91535780D01*
X142767819Y-91535780D01*
X142624961Y-91488161D01*
X142529723Y-91392923D01*
X142482104Y-91297685D01*
X142434485Y-91107209D01*
X142434485Y-90964352D01*
X142482104Y-90773876D01*
X142529723Y-90678638D01*
X142624961Y-90583400D01*
X142767819Y-90535780D01*
X142863057Y-90535780D01*
X143005914Y-90583400D01*
X143053533Y-90631019D01*
X143386866Y-90535780D02*
X144005914Y-90535780D01*
X143672580Y-90916733D01*
X143815438Y-90916733D01*
X143910676Y-90964352D01*
X143958295Y-91011971D01*
X144005914Y-91107209D01*
X144005914Y-91345304D01*
X143958295Y-91440542D01*
X143910676Y-91488161D01*
X143815438Y-91535780D01*
X143529723Y-91535780D01*
X143434485Y-91488161D01*
X143386866Y-91440542D01*
%TO.C,C2*%
X148143933Y-88445342D02*
X148096314Y-88492961D01*
X147953457Y-88540580D01*
X147858219Y-88540580D01*
X147715361Y-88492961D01*
X147620123Y-88397723D01*
X147572504Y-88302485D01*
X147524885Y-88112009D01*
X147524885Y-87969152D01*
X147572504Y-87778676D01*
X147620123Y-87683438D01*
X147715361Y-87588200D01*
X147858219Y-87540580D01*
X147953457Y-87540580D01*
X148096314Y-87588200D01*
X148143933Y-87635819D01*
X148524885Y-87635819D02*
X148572504Y-87588200D01*
X148667742Y-87540580D01*
X148905838Y-87540580D01*
X149001076Y-87588200D01*
X149048695Y-87635819D01*
X149096314Y-87731057D01*
X149096314Y-87826295D01*
X149048695Y-87969152D01*
X148477266Y-88540580D01*
X149096314Y-88540580D01*
%TO.C,C1*%
X148080433Y-85003642D02*
X148032814Y-85051261D01*
X147889957Y-85098880D01*
X147794719Y-85098880D01*
X147651861Y-85051261D01*
X147556623Y-84956023D01*
X147509004Y-84860785D01*
X147461385Y-84670309D01*
X147461385Y-84527452D01*
X147509004Y-84336976D01*
X147556623Y-84241738D01*
X147651861Y-84146500D01*
X147794719Y-84098880D01*
X147889957Y-84098880D01*
X148032814Y-84146500D01*
X148080433Y-84194119D01*
X149032814Y-85098880D02*
X148461385Y-85098880D01*
X148747100Y-85098880D02*
X148747100Y-84098880D01*
X148651861Y-84241738D01*
X148556623Y-84336976D01*
X148461385Y-84384595D01*
%TD*%
M02*
