%TF.GenerationSoftware,KiCad,Pcbnew,(5.1.6)-1*%
%TF.CreationDate,2020-08-03T14:50:49-05:00*%
%TF.ProjectId,CAN sniffer,43414e20-736e-4696-9666-65722e6b6963,rev?*%
%TF.SameCoordinates,Original*%
%TF.FileFunction,Copper,L2,Bot*%
%TF.FilePolarity,Positive*%
%FSLAX46Y46*%
G04 Gerber Fmt 4.6, Leading zero omitted, Abs format (unit mm)*
G04 Created by KiCad (PCBNEW (5.1.6)-1) date 2020-08-03 14:50:49*
%MOMM*%
%LPD*%
G01*
G04 APERTURE LIST*
%TA.AperFunction,ComponentPad*%
%ADD10C,2.800000*%
%TD*%
%TA.AperFunction,ComponentPad*%
%ADD11C,1.700000*%
%TD*%
%TA.AperFunction,ComponentPad*%
%ADD12C,1.524000*%
%TD*%
%TA.AperFunction,ComponentPad*%
%ADD13R,1.524000X1.524000*%
%TD*%
%TA.AperFunction,ComponentPad*%
%ADD14O,1.700000X1.700000*%
%TD*%
%TA.AperFunction,ComponentPad*%
%ADD15R,1.700000X1.700000*%
%TD*%
%TA.AperFunction,ViaPad*%
%ADD16C,0.800000*%
%TD*%
%TA.AperFunction,Conductor*%
%ADD17C,0.250000*%
%TD*%
G04 APERTURE END LIST*
D10*
%TO.P,TP4,1*%
%TO.N,/CAN_L*%
X157480000Y-107442000D03*
%TD*%
%TO.P,TP3,1*%
%TO.N,/CAN_H*%
X157480000Y-102997000D03*
%TD*%
%TO.P,TP2,1*%
%TO.N,/CAN_Rx*%
X153568400Y-85318600D03*
%TD*%
%TO.P,TP1,1*%
%TO.N,/CAN_Tx*%
X137604500Y-87134700D03*
%TD*%
D11*
%TO.P,J2,3*%
%TO.N,/CAN_H*%
X165100000Y-98710000D03*
%TO.P,J2,2*%
%TO.N,Net-(C6-Pad2)*%
X165100000Y-95710000D03*
%TO.P,J2,1*%
%TO.N,Net-(C6-Pad1)*%
X165100000Y-92710000D03*
%TO.P,J2,4*%
%TO.N,/CAN_L*%
X165100000Y-101710000D03*
%TD*%
D12*
%TO.P,U1,30*%
%TO.N,Net-(U1-Pad30)*%
X115570000Y-66040000D03*
%TO.P,U1,29*%
%TO.N,GND*%
X118110000Y-66040000D03*
%TO.P,U1,28*%
%TO.N,Net-(U1-Pad28)*%
X120650000Y-66040000D03*
%TO.P,U1,27*%
%TO.N,+5V*%
X123190000Y-66040000D03*
%TO.P,U1,26*%
%TO.N,Net-(U1-Pad26)*%
X125730000Y-66040000D03*
%TO.P,U1,25*%
%TO.N,Net-(U1-Pad25)*%
X128270000Y-66040000D03*
%TO.P,U1,24*%
%TO.N,Net-(U1-Pad24)*%
X130810000Y-66040000D03*
%TO.P,U1,23*%
%TO.N,Net-(U1-Pad23)*%
X133350000Y-66040000D03*
%TO.P,U1,22*%
%TO.N,Net-(U1-Pad22)*%
X135890000Y-66040000D03*
%TO.P,U1,21*%
%TO.N,Net-(U1-Pad21)*%
X138430000Y-66040000D03*
%TO.P,U1,20*%
%TO.N,Net-(U1-Pad20)*%
X140970000Y-66040000D03*
%TO.P,U1,19*%
%TO.N,Net-(U1-Pad19)*%
X143510000Y-66040000D03*
%TO.P,U1,18*%
%TO.N,Net-(U1-Pad18)*%
X146050000Y-66040000D03*
%TO.P,U1,17*%
%TO.N,+3V3*%
X148590000Y-66040000D03*
%TO.P,U1,16*%
%TO.N,Net-(U1-Pad16)*%
X151130000Y-66040000D03*
%TO.P,U1,15*%
%TO.N,Net-(U1-Pad15)*%
X151130000Y-81280000D03*
%TO.P,U1,14*%
%TO.N,Net-(U1-Pad14)*%
X148590000Y-81280000D03*
%TO.P,U1,13*%
%TO.N,/CAN_Rx*%
X146050000Y-81280000D03*
%TO.P,U1,12*%
%TO.N,Net-(U1-Pad12)*%
X143510000Y-81280000D03*
%TO.P,U1,11*%
%TO.N,Net-(U1-Pad11)*%
X140970000Y-81280000D03*
%TO.P,U1,10*%
%TO.N,Net-(U1-Pad10)*%
X138430000Y-81280000D03*
%TO.P,U1,9*%
%TO.N,Net-(U1-Pad9)*%
X135890000Y-81280000D03*
%TO.P,U1,8*%
%TO.N,Net-(U1-Pad8)*%
X133350000Y-81280000D03*
%TO.P,U1,7*%
%TO.N,Net-(U1-Pad7)*%
X130810000Y-81280000D03*
%TO.P,U1,6*%
%TO.N,Net-(U1-Pad6)*%
X128270000Y-81280000D03*
%TO.P,U1,5*%
%TO.N,/CAN_Tx*%
X125730000Y-81280000D03*
%TO.P,U1,4*%
%TO.N,GND*%
X123190000Y-81280000D03*
%TO.P,U1,3*%
%TO.N,Net-(U1-Pad3)*%
X120650000Y-81280000D03*
%TO.P,U1,2*%
%TO.N,Net-(U1-Pad2)*%
X118110000Y-81280000D03*
D13*
%TO.P,U1,1*%
%TO.N,Net-(U1-Pad1)*%
X115570000Y-81280000D03*
%TD*%
D14*
%TO.P,JP1,2*%
%TO.N,Net-(JP1-Pad2)*%
X137833100Y-111645700D03*
D15*
%TO.P,JP1,1*%
%TO.N,Net-(JP1-Pad1)*%
X137833100Y-109105700D03*
%TD*%
D11*
%TO.P,J1,3*%
%TO.N,/CAN_H*%
X165100000Y-79835000D03*
%TO.P,J1,2*%
%TO.N,Net-(C6-Pad2)*%
X165100000Y-76835000D03*
%TO.P,J1,1*%
%TO.N,Net-(C6-Pad1)*%
X165100000Y-73835000D03*
%TO.P,J1,4*%
%TO.N,/CAN_L*%
X165100000Y-82835000D03*
%TD*%
D16*
%TO.N,+5V*%
X147309600Y-86296500D03*
%TO.N,/CAN_H*%
X146805800Y-110619500D03*
%TO.N,/RSlope*%
X145199100Y-105283000D03*
X139903200Y-102477300D03*
%TO.N,/CAN_Rx*%
X144983200Y-93077300D03*
%TD*%
D17*
%TO.N,+5V*%
X146917738Y-86296500D02*
X147309600Y-86296500D01*
X142422999Y-81801761D02*
X146917738Y-86296500D01*
X142422999Y-81124237D02*
X142422999Y-81801761D01*
X141491761Y-80192999D02*
X142422999Y-81124237D01*
X137342999Y-80192999D02*
X141491761Y-80192999D01*
X123190000Y-66040000D02*
X137342999Y-80192999D01*
%TO.N,Net-(C6-Pad2)*%
X165100000Y-76835000D02*
X162331400Y-79603600D01*
X162331400Y-79603600D02*
X162331400Y-95567500D01*
X162331400Y-95567500D02*
X162394900Y-95567500D01*
X162394900Y-95567500D02*
X163220400Y-96393000D01*
X163220400Y-96393000D02*
X164477700Y-96393000D01*
X164477700Y-96332300D02*
X165100000Y-95710000D01*
X164477700Y-96393000D02*
X164477700Y-96332300D01*
%TO.N,Net-(C6-Pad1)*%
X165100000Y-86374198D02*
X165100000Y-92710000D01*
X166338999Y-85135199D02*
X165100000Y-86374198D01*
X166338999Y-75073999D02*
X166338999Y-85135199D01*
X165100000Y-73835000D02*
X166338999Y-75073999D01*
%TO.N,/CAN_H*%
X166275001Y-97534999D02*
X165100000Y-98710000D01*
X165664001Y-94534999D02*
X166275001Y-95145999D01*
X163924999Y-93923999D02*
X164535999Y-94534999D01*
X166275001Y-95145999D02*
X166275001Y-97534999D01*
X163924999Y-81010001D02*
X163924999Y-93923999D01*
X164535999Y-94534999D02*
X165664001Y-94534999D01*
X165100000Y-79835000D02*
X163924999Y-81010001D01*
X157480000Y-102997000D02*
X152730200Y-107746800D01*
X152730200Y-107746800D02*
X149678500Y-107746800D01*
X149678500Y-107746800D02*
X146805800Y-110619500D01*
%TO.N,/RSlope*%
X145199100Y-105283000D02*
X142708900Y-105283000D01*
X142708900Y-105283000D02*
X139903200Y-102477300D01*
%TO.N,/CAN_Rx*%
X153568400Y-85318600D02*
X145809700Y-93077300D01*
X145809700Y-93077300D02*
X144983200Y-93077300D01*
%TD*%
M02*
