%TF.GenerationSoftware,KiCad,Pcbnew,(5.1.6)-1*%
%TF.CreationDate,2020-08-10T11:53:13-05:00*%
%TF.ProjectId,CAN sniffer,43414e20-736e-4696-9666-65722e6b6963,rev?*%
%TF.SameCoordinates,Original*%
%TF.FileFunction,Soldermask,Bot*%
%TF.FilePolarity,Negative*%
%FSLAX46Y46*%
G04 Gerber Fmt 4.6, Leading zero omitted, Abs format (unit mm)*
G04 Created by KiCad (PCBNEW (5.1.6)-1) date 2020-08-10 11:53:13*
%MOMM*%
%LPD*%
G01*
G04 APERTURE LIST*
%ADD10C,3.100000*%
%ADD11C,2.900000*%
%ADD12C,1.370000*%
%ADD13C,1.800000*%
%ADD14C,1.624000*%
%ADD15R,1.624000X1.624000*%
%ADD16O,1.800000X1.800000*%
%ADD17R,1.800000X1.800000*%
G04 APERTURE END LIST*
D10*
%TO.C,H4*%
X165709600Y-110401100D03*
%TD*%
%TO.C,H3*%
X102857300Y-110464600D03*
%TD*%
%TO.C,H2*%
X165735000Y-66141600D03*
%TD*%
%TO.C,H1*%
X102920800Y-66141600D03*
%TD*%
D11*
%TO.C,TP4*%
X154419300Y-107276900D03*
%TD*%
%TO.C,TP3*%
X159600900Y-107340400D03*
%TD*%
%TO.C,TP2*%
X145707100Y-86385400D03*
%TD*%
%TO.C,TP1*%
X135724900Y-87376000D03*
%TD*%
D12*
%TO.C,J2*%
X167060000Y-89710000D03*
D13*
X165100000Y-98710000D03*
X165100000Y-95710000D03*
X165100000Y-92710000D03*
D12*
X167060000Y-104710000D03*
D13*
X165100000Y-101710000D03*
%TD*%
D14*
%TO.C,U1*%
X115570000Y-66040000D03*
X118110000Y-66040000D03*
X120650000Y-66040000D03*
X123190000Y-66040000D03*
X125730000Y-66040000D03*
X128270000Y-66040000D03*
X130810000Y-66040000D03*
X133350000Y-66040000D03*
X135890000Y-66040000D03*
X138430000Y-66040000D03*
X140970000Y-66040000D03*
X143510000Y-66040000D03*
X146050000Y-66040000D03*
X148590000Y-66040000D03*
X151130000Y-66040000D03*
X151130000Y-81280000D03*
X148590000Y-81280000D03*
X146050000Y-81280000D03*
X143510000Y-81280000D03*
X140970000Y-81280000D03*
X138430000Y-81280000D03*
X135890000Y-81280000D03*
X133350000Y-81280000D03*
X130810000Y-81280000D03*
X128270000Y-81280000D03*
X125730000Y-81280000D03*
X123190000Y-81280000D03*
X120650000Y-81280000D03*
X118110000Y-81280000D03*
D15*
X115570000Y-81280000D03*
%TD*%
D16*
%TO.C,JP1*%
X156413200Y-98285300D03*
D17*
X158953200Y-98285300D03*
%TD*%
D12*
%TO.C,J1*%
X167060000Y-70835000D03*
D13*
X165100000Y-79835000D03*
X165100000Y-76835000D03*
X165100000Y-73835000D03*
D12*
X167060000Y-85835000D03*
D13*
X165100000Y-82835000D03*
%TD*%
M02*
